<svg width="1920" height="1920" viewBox="0 0 1920 1920" fill="none" xmlns="http://www.w3.org/2000/svg">
<rect width="1920" height="1920" />
<g opacity="0.5">
<g filter="url(#filter0_b_11_480)">
<path d="M951.865 863.635L1514.83 1188.7V1312.7L951.865 1637.77L388.903 1312.7L388.903 1188.7L951.865 863.635Z" fill="url(#paint0_linear_11_480)"/>
</g>
<path opacity="0.75" d="M951.865 1513.76L1514.83 1188.7L951.865 863.635L388.903 1188.7L951.865 1513.76Z" fill="url(#paint1_linear_11_480)"/>
<path d="M954.221 1635.83L951.865 1637.19L388.903 1312.13L388.903 1190.06L391.259 1188.7L954.221 1513.76V1635.83Z" fill="url(#paint2_linear_11_480)"/>
</g>
<g opacity="0.6">
<path d="M951.622 754.382L1174.51 883.08V990.265L951.622 1118.96L728.732 990.265L728.732 883.08L951.622 754.382Z" fill="url(#paint3_linear_11_480)"/>
<path opacity="0.25" d="M951.622 1011.78L1174.51 883.08L951.622 754.382L728.732 883.08L951.622 1011.78Z" fill="url(#paint4_linear_11_480)"/>
<path opacity="0.5" d="M951.622 1011.78L1174.51 883.08L951.622 754.382L728.732 883.08L951.622 1011.78Z" fill="url(#paint5_linear_11_480)"/>
<path d="M952.555 1118.2L951.622 1118.74L728.732 990.037L728.732 883.619L729.665 883.081L952.555 1011.78V1118.2Z" fill="url(#paint6_linear_11_480)"/>
<path d="M951.622 626.644L1174.51 755.342V862.526L951.622 991.224L728.732 862.526L728.732 755.342L951.622 626.644Z" fill="url(#paint7_linear_11_480)"/>
<path opacity="0.25" d="M951.622 884.04L1174.51 755.342L951.622 626.644L728.732 755.342L951.622 884.04Z" fill="url(#paint8_linear_11_480)"/>
<path opacity="0.5" d="M951.622 884.04L1174.51 755.342L951.622 626.644L728.732 755.342L951.622 884.04Z" fill="url(#paint9_linear_11_480)"/>
<path d="M952.555 990.457L951.622 990.995L728.732 862.297L728.732 755.879L729.665 755.341L952.555 884.039V990.457Z" fill="url(#paint10_linear_11_480)"/>
<path d="M951.622 498.906L1174.51 627.604V734.789L951.622 863.487L728.732 734.789L728.732 627.604L951.622 498.906Z" fill="url(#paint11_linear_11_480)"/>
<path opacity="0.25" d="M951.622 756.302L1174.51 627.604L951.622 498.906L728.732 627.604L951.622 756.302Z" fill="url(#paint12_linear_11_480)"/>
<path opacity="0.5" d="M951.622 756.302L1174.51 627.604L951.622 498.906L728.732 627.604L951.622 756.302Z" fill="url(#paint13_linear_11_480)"/>
<path d="M952.555 862.72L951.622 863.258L728.732 734.56L728.732 628.142L729.665 627.604L952.555 756.302V862.72Z" fill="url(#paint14_linear_11_480)"/>
<g filter="url(#filter1_d_11_480)">
<path d="M1122.37 747.591L1122.93 747.913L1161.48 724.451L1161.48 710.387L1160.92 710.065L1122.37 733.527V747.591Z" fill="#7ACFFF"/>
</g>
<g filter="url(#filter2_d_11_480)">
<path d="M971.171 965.219L971.725 965.541L1104.12 888.685L1104.12 874.621L1103.57 874.3L971.171 951.155V965.219Z" fill="#7ACFFF"/>
</g>
<g opacity="0.25" filter="url(#filter3_d_11_480)">
<path d="M1122.37 870.115L1122.93 870.437L1161.48 846.975L1161.48 832.911L1160.92 832.59L1122.37 856.051V870.115Z" fill="#7ACFFF"/>
</g>
<g opacity="0.25" filter="url(#filter4_d_11_480)">
<path d="M1038.95 1010.89L1039.5 1011.21L1078.05 987.746L1078.05 973.682L1077.5 973.361L1038.95 996.823V1010.89Z" fill="#7ACFFF"/>
</g>
</g>
<path d="M520.703 654.638L784.148 806.793V1202.66L743.997 1225.9L480.552 1073.75V677.883L520.703 654.638Z" fill="url(#paint15_linear_11_480)"/>
<path opacity="0.5" d="M746.11 829.051L784.148 806.785L520.703 654.634L482.665 676.901L746.11 829.051Z" fill="url(#paint16_linear_11_480)"/>
<path d="M745.406 1225.09L744.303 1225.73L480.552 1073.75L480.552 677.107L481.656 676.471L745.406 828.447V1225.09Z" fill="url(#paint17_linear_11_480)"/>
<path d="M721.457 1174.67L720.553 1175.19L504.502 1051.23L504.502 727.706L505.406 727.188L721.457 851.146V1174.67Z" fill="url(#paint18_linear_11_480)"/>
<g clip-path="url(#clip0_11_480)">
<path d="M611.707 883.453C611.707 889.697 609.575 894.418 605.781 896.575C601.986 898.733 596.84 898.152 591.474 894.959C586.107 891.767 580.961 886.224 577.167 879.552C573.372 872.879 571.24 865.622 571.24 859.378C571.24 853.134 573.372 848.414 577.167 846.256C580.961 844.098 586.107 844.68 591.474 847.872C596.84 851.065 601.986 856.607 605.781 863.28C609.575 869.953 611.707 877.209 611.707 883.453V883.453ZM645.901 941.965C645.142 941.071 644.283 940.407 643.445 940.065C642.607 939.724 641.833 939.723 641.231 940.063L611.205 966.555L589.677 927.642C588.9 926.577 587.967 925.752 587.038 925.305C586.109 924.859 585.24 924.819 584.578 925.192L555.07 948.64V967.475C555.07 969.972 555.923 972.875 557.44 975.544C558.958 978.213 561.017 980.43 563.163 981.707L676.47 1049.12C677.533 1049.75 678.585 1050.13 679.567 1050.24C680.549 1050.35 681.441 1050.19 682.193 1049.76C682.944 1049.34 683.54 1048.65 683.947 1047.75C684.354 1046.85 684.563 1045.75 684.563 1044.52V1002.14L645.901 941.965V941.965Z" fill="#5EB1EE"/>
</g>
<path d="M1121.81 660.201L1447.58 848.352V1337.87L1397.93 1366.61L1072.16 1178.46V688.946L1121.81 660.201Z" fill="url(#paint19_linear_11_480)"/>
<path opacity="0.5" d="M1400.54 875.876L1447.58 848.341L1121.81 660.196L1074.77 687.73L1400.54 875.876Z" fill="url(#paint20_linear_11_480)"/>
<path d="M1399.67 1365.61L1398.31 1366.4L1072.16 1178.47L1072.16 687.984L1073.53 687.198L1399.67 875.128V1365.61Z" fill="url(#paint21_linear_11_480)"/>
<path d="M1370.06 1303.26L1368.94 1303.9L1101.78 1150.61L1101.78 750.555L1102.89 749.914L1370.06 903.198V1303.26Z" fill="url(#paint22_linear_11_480)"/>
<path d="M1163.28 871.482V1056.71L1322.46 1151.41V966.187L1163.28 871.482ZM1304.78 976.245V1120.31L1180.97 1046.65V902.586L1304.78 976.245ZM1198.65 933.689L1251.71 965.257V1027L1216.34 1005.95V1026.53L1198.65 1016.01V933.689ZM1269.4 1037.52L1251.71 1027V1047.58L1234.03 1037.06V1057.64L1251.71 1068.16V1047.58L1269.4 1058.1V1078.68L1287.09 1089.21V1068.63L1269.4 1058.1V1037.52ZM1269.4 1037.52L1287.09 1048.04V1027.46L1269.4 1016.94V1037.52ZM1216.34 964.792V985.373L1234.03 995.896V975.315L1216.34 964.792Z" fill="#5EB1EE"/>
<path d="M714.369 282.003L866.378 369.796V598.211L843.21 611.623L691.202 523.83V295.415L714.369 282.003Z" fill="url(#paint23_linear_11_480)"/>
<path opacity="0.5" d="M844.429 382.639L866.377 369.791L714.368 282L692.42 294.848L844.429 382.639Z" fill="url(#paint24_linear_11_480)"/>
<path d="M844.023 611.157L843.387 611.524L691.202 523.833L691.202 294.968L691.838 294.601L844.023 382.292V611.157Z" fill="url(#paint25_linear_11_480)"/>
<path d="M830.203 582.061L829.682 582.36L705.02 510.835L705.02 324.163L705.541 323.864L830.203 395.388V582.061Z" fill="url(#paint26_linear_11_480)"/>
<path d="M775.411 491.287C755.113 479.568 738.661 451.071 738.661 427.634C738.661 404.196 755.113 394.697 775.411 406.416C795.708 418.135 812.161 446.631 812.161 470.069C812.161 493.506 795.708 503.005 775.411 491.287ZM774.837 416.693C759.93 408.087 747.848 415.062 747.848 432.275C747.848 449.488 759.93 470.414 774.837 479.02C789.743 487.627 801.825 480.651 801.825 463.438C801.825 455.173 798.981 445.605 793.92 436.839C788.859 428.072 781.994 420.826 774.837 416.693V416.693ZM774.837 471.249C769.464 468.147 764.311 462.708 760.512 456.127C756.712 449.547 754.578 442.365 754.578 436.16C754.578 429.956 756.712 425.239 760.512 423.045C764.311 420.852 769.464 421.362 774.837 424.464C780.209 427.566 785.362 433.006 789.161 439.586C792.961 446.167 795.095 453.349 795.095 459.553C795.095 465.757 792.961 470.475 789.161 472.668C785.362 474.862 780.209 474.351 774.837 471.249ZM768.107 443.998L774.86 459.566L781.566 451.769L774.86 436.2L768.107 443.998Z" fill="#5EB1EE"/>
<path d="M289.357 808.809L411.715 879.459V1020.76L289.357 1091.41L167 1020.76V879.459L289.357 808.809Z" fill="url(#paint27_linear_11_480)"/>
<g opacity="0.5" filter="url(#filter5_d_11_480)">
<path d="M289.357 1091.41L411.715 1020.76L289.357 950.108L167 1020.76L289.357 1091.41Z" fill="url(#paint28_linear_11_480)" shape-rendering="crispEdges"/>
</g>
<path d="M289.357 950.108L411.715 879.459L289.357 808.809L167 879.459L289.357 950.108Z" fill="url(#paint29_linear_11_480)"/>
<path d="M289.869 1091.11L289.357 1091.41L167 1020.76V879.754L167.512 879.458L289.869 950.108V1091.11Z" fill="url(#paint30_linear_11_480)"/>
<path d="M1658.17 621.264L1752.09 675.49V783.944L1658.17 838.17L1564.26 783.944V675.49L1658.17 621.264Z" fill="url(#paint31_linear_11_480)"/>
<g opacity="0.5" filter="url(#filter6_d_11_480)">
<path d="M1658.17 838.17L1752.09 783.944L1658.17 729.717L1564.26 783.944L1658.17 838.17Z" fill="url(#paint32_linear_11_480)" shape-rendering="crispEdges"/>
</g>
<path d="M1658.17 729.717L1752.09 675.49L1658.17 621.264L1564.26 675.49L1658.17 729.717Z" fill="url(#paint33_linear_11_480)"/>
<path d="M1658.56 837.943L1658.17 838.17L1564.26 783.944V675.717L1564.65 675.491L1658.56 729.717V837.943Z" fill="url(#paint34_linear_11_480)"/>
<g filter="url(#filter7_dd_11_480)">
<path d="M979.578 1283.68C942.551 1320.7 882.517 1320.7 845.49 1283.68C808.463 1246.65 808.463 1186.62 845.49 1149.59C882.517 1112.56 942.551 1112.56 979.578 1149.59C1016.61 1186.62 1016.61 1246.65 979.578 1283.68Z" fill="url(#paint35_radial_11_480)"/>
<path d="M979.578 1283.68C942.551 1320.7 882.517 1320.7 845.49 1283.68C808.463 1246.65 808.463 1186.62 845.49 1149.59C882.517 1112.56 942.551 1112.56 979.578 1149.59C1016.61 1186.62 1016.61 1246.65 979.578 1283.68Z" fill="url(#paint36_radial_11_480)"/>
</g>
<defs>
<filter id="filter0_b_11_480" x="286.903" y="761.635" width="1329.92" height="978.134" filterUnits="userSpaceOnUse" color-interpolation-filters="sRGB">
<feFlood flood-opacity="0" result="BackgroundImageFix"/>
<feGaussianBlur in="BackgroundImage" stdDeviation="51"/>
<feComposite in2="SourceAlpha" operator="in" result="effect1_backgroundBlur_11_480"/>
<feBlend mode="normal" in="SourceGraphic" in2="effect1_backgroundBlur_11_480" result="shape"/>
</filter>
<filter id="filter1_d_11_480" x="1107.37" y="699.065" width="69.1033" height="67.8474" filterUnits="userSpaceOnUse" color-interpolation-filters="sRGB">
<feFlood flood-opacity="0" result="BackgroundImageFix"/>
<feColorMatrix in="SourceAlpha" type="matrix" values="0 0 0 0 0 0 0 0 0 0 0 0 0 0 0 0 0 0 127 0" result="hardAlpha"/>
<feOffset dy="4"/>
<feGaussianBlur stdDeviation="7.5"/>
<feComposite in2="hardAlpha" operator="out"/>
<feColorMatrix type="matrix" values="0 0 0 0 0.15 0 0 0 0 0.694 0 0 0 0 1 0 0 0 1 0"/>
<feBlend mode="normal" in2="BackgroundImageFix" result="effect1_dropShadow_11_480"/>
<feBlend mode="normal" in="SourceGraphic" in2="effect1_dropShadow_11_480" result="shape"/>
</filter>
<filter id="filter2_d_11_480" x="956.171" y="863.3" width="162.952" height="121.241" filterUnits="userSpaceOnUse" color-interpolation-filters="sRGB">
<feFlood flood-opacity="0" result="BackgroundImageFix"/>
<feColorMatrix in="SourceAlpha" type="matrix" values="0 0 0 0 0 0 0 0 0 0 0 0 0 0 0 0 0 0 127 0" result="hardAlpha"/>
<feOffset dy="4"/>
<feGaussianBlur stdDeviation="7.5"/>
<feComposite in2="hardAlpha" operator="out"/>
<feColorMatrix type="matrix" values="0 0 0 0 0.15 0 0 0 0 0.694 0 0 0 0 1 0 0 0 1 0"/>
<feBlend mode="normal" in2="BackgroundImageFix" result="effect1_dropShadow_11_480"/>
<feBlend mode="normal" in="SourceGraphic" in2="effect1_dropShadow_11_480" result="shape"/>
</filter>
<filter id="filter3_d_11_480" x="1107.37" y="821.59" width="69.1033" height="67.8474" filterUnits="userSpaceOnUse" color-interpolation-filters="sRGB">
<feFlood flood-opacity="0" result="BackgroundImageFix"/>
<feColorMatrix in="SourceAlpha" type="matrix" values="0 0 0 0 0 0 0 0 0 0 0 0 0 0 0 0 0 0 127 0" result="hardAlpha"/>
<feOffset dy="4"/>
<feGaussianBlur stdDeviation="7.5"/>
<feComposite in2="hardAlpha" operator="out"/>
<feColorMatrix type="matrix" values="0 0 0 0 0.15 0 0 0 0 0.694 0 0 0 0 1 0 0 0 1 0"/>
<feBlend mode="normal" in2="BackgroundImageFix" result="effect1_dropShadow_11_480"/>
<feBlend mode="normal" in="SourceGraphic" in2="effect1_dropShadow_11_480" result="shape"/>
</filter>
<filter id="filter4_d_11_480" x="1023.95" y="962.361" width="69.1033" height="67.8474" filterUnits="userSpaceOnUse" color-interpolation-filters="sRGB">
<feFlood flood-opacity="0" result="BackgroundImageFix"/>
<feColorMatrix in="SourceAlpha" type="matrix" values="0 0 0 0 0 0 0 0 0 0 0 0 0 0 0 0 0 0 127 0" result="hardAlpha"/>
<feOffset dy="4"/>
<feGaussianBlur stdDeviation="7.5"/>
<feComposite in2="hardAlpha" operator="out"/>
<feColorMatrix type="matrix" values="0 0 0 0 0.15 0 0 0 0 0.694 0 0 0 0 1 0 0 0 1 0"/>
<feBlend mode="normal" in2="BackgroundImageFix" result="effect1_dropShadow_11_480"/>
<feBlend mode="normal" in="SourceGraphic" in2="effect1_dropShadow_11_480" result="shape"/>
</filter>
<filter id="filter5_d_11_480" x="17" y="875.108" width="544.715" height="441.3" filterUnits="userSpaceOnUse" color-interpolation-filters="sRGB">
<feFlood flood-opacity="0" result="BackgroundImageFix"/>
<feColorMatrix in="SourceAlpha" type="matrix" values="0 0 0 0 0 0 0 0 0 0 0 0 0 0 0 0 0 0 127 0" result="hardAlpha"/>
<feOffset dy="75"/>
<feGaussianBlur stdDeviation="75"/>
<feComposite in2="hardAlpha" operator="out"/>
<feColorMatrix type="matrix" values="0 0 0 0 0.3125 0 0 0 0 0.67 0 0 0 0 1 0 0 0 1 0"/>
<feBlend mode="normal" in2="BackgroundImageFix" result="effect1_dropShadow_11_480"/>
<feBlend mode="normal" in="SourceGraphic" in2="effect1_dropShadow_11_480" result="shape"/>
</filter>
<filter id="filter6_d_11_480" x="1414.26" y="654.717" width="487.828" height="408.453" filterUnits="userSpaceOnUse" color-interpolation-filters="sRGB">
<feFlood flood-opacity="0" result="BackgroundImageFix"/>
<feColorMatrix in="SourceAlpha" type="matrix" values="0 0 0 0 0 0 0 0 0 0 0 0 0 0 0 0 0 0 127 0" result="hardAlpha"/>
<feOffset dy="75"/>
<feGaussianBlur stdDeviation="75"/>
<feComposite in2="hardAlpha" operator="out"/>
<feColorMatrix type="matrix" values="0 0 0 0 0.3125 0 0 0 0 0.67 0 0 0 0 1 0 0 0 1 0"/>
<feBlend mode="normal" in2="BackgroundImageFix" result="effect1_dropShadow_11_480"/>
<feBlend mode="normal" in="SourceGraphic" in2="effect1_dropShadow_11_480" result="shape"/>
</filter>
<filter id="filter7_dd_11_480" x="754.719" y="1053.82" width="303.629" height="307.629" filterUnits="userSpaceOnUse" color-interpolation-filters="sRGB">
<feFlood flood-opacity="0" result="BackgroundImageFix"/>
<feColorMatrix in="SourceAlpha" type="matrix" values="0 0 0 0 0 0 0 0 0 0 0 0 0 0 0 0 0 0 127 0" result="hardAlpha"/>
<feOffset dx="-20" dy="7"/>
<feGaussianBlur stdDeviation="21.5"/>
<feComposite in2="hardAlpha" operator="out"/>
<feColorMatrix type="matrix" values="0 0 0 0 0 0 0 0 0 0.928 0 0 0 0 1 0 0 0 1 0"/>
<feBlend mode="normal" in2="BackgroundImageFix" result="effect1_dropShadow_11_480"/>
<feColorMatrix in="SourceAlpha" type="matrix" values="0 0 0 0 0 0 0 0 0 0 0 0 0 0 0 0 0 0 127 0" result="hardAlpha"/>
<feOffset dx="4" dy="-21"/>
<feGaussianBlur stdDeviation="23.5"/>
<feComposite in2="hardAlpha" operator="out"/>
<feColorMatrix type="matrix" values="0 0 0 0 0.230903 0 0 0 0 0.354271 0 0 0 0 0.791667 0 0 0 1 0"/>
<feBlend mode="normal" in2="effect1_dropShadow_11_480" result="effect2_dropShadow_11_480"/>
<feBlend mode="normal" in="SourceGraphic" in2="effect2_dropShadow_11_480" result="shape"/>
</filter>
<linearGradient id="paint0_linear_11_480" x1="1514.83" y1="1838.83" x2="391.248" y2="1188.72" gradientUnits="userSpaceOnUse">
<stop stop-color="#5076FF" stop-opacity="0.25"/>
<stop offset="1" stop-color="#455FE4" stop-opacity="0"/>
</linearGradient>
<linearGradient id="paint1_linear_11_480" x1="388.903" y1="1188.7" x2="1514.83" y2="1189.56" gradientUnits="userSpaceOnUse">
<stop stop-color="#50C0FF" stop-opacity="0.9"/>
<stop offset="1" stop-color="#000B1B" stop-opacity="0.57"/>
</linearGradient>
<linearGradient id="paint2_linear_11_480" x1="392.446" y1="1294.1" x2="1258.08" y2="1715.9" gradientUnits="userSpaceOnUse">
<stop stop-color="#30CDFF" stop-opacity="0.76"/>
<stop offset="1" stop-color="#00A3FF" stop-opacity="0"/>
</linearGradient>
<linearGradient id="paint3_linear_11_480" x1="1174.51" y1="1140.48" x2="729.665" y2="883.08" gradientUnits="userSpaceOnUse">
<stop stop-color="#5076FF" stop-opacity="0.25"/>
<stop offset="1" stop-color="#455FE4" stop-opacity="0"/>
</linearGradient>
<linearGradient id="paint4_linear_11_480" x1="728.732" y1="883.08" x2="1174.51" y2="883.08" gradientUnits="userSpaceOnUse">
<stop stop-color="#50C0FF" stop-opacity="0.5"/>
<stop offset="1" stop-color="#000B1B" stop-opacity="0.57"/>
</linearGradient>
<linearGradient id="paint5_linear_11_480" x1="728.732" y1="883.08" x2="1174.51" y2="883.08" gradientUnits="userSpaceOnUse">
<stop stop-color="#50C0FF" stop-opacity="0.5"/>
<stop offset="1" stop-color="#000B1B" stop-opacity="0.57"/>
</linearGradient>
<linearGradient id="paint6_linear_11_480" x1="728.732" y1="991.61" x2="952.925" y2="487.176" gradientUnits="userSpaceOnUse">
<stop stop-color="#30CDFF" stop-opacity="0.76"/>
<stop offset="1" stop-color="#00A3FF" stop-opacity="0"/>
</linearGradient>
<linearGradient id="paint7_linear_11_480" x1="1174.51" y1="1012.74" x2="729.665" y2="755.342" gradientUnits="userSpaceOnUse">
<stop stop-color="#5076FF" stop-opacity="0.25"/>
<stop offset="1" stop-color="#455FE4" stop-opacity="0"/>
</linearGradient>
<linearGradient id="paint8_linear_11_480" x1="728.732" y1="755.342" x2="1174.51" y2="755.342" gradientUnits="userSpaceOnUse">
<stop stop-color="#50C0FF" stop-opacity="0.5"/>
<stop offset="1" stop-color="#000B1B" stop-opacity="0.57"/>
</linearGradient>
<linearGradient id="paint9_linear_11_480" x1="728.732" y1="755.342" x2="1174.51" y2="755.342" gradientUnits="userSpaceOnUse">
<stop stop-color="#50C0FF" stop-opacity="0.5"/>
<stop offset="1" stop-color="#000B1B" stop-opacity="0.57"/>
</linearGradient>
<linearGradient id="paint10_linear_11_480" x1="728.732" y1="991.609" x2="952.925" y2="500.208" gradientUnits="userSpaceOnUse">
<stop stop-color="#30CDFF" stop-opacity="0.76"/>
<stop offset="1" stop-color="#00A3FF" stop-opacity="0"/>
</linearGradient>
<linearGradient id="paint11_linear_11_480" x1="1174.51" y1="885" x2="729.665" y2="627.604" gradientUnits="userSpaceOnUse">
<stop stop-color="#5076FF" stop-opacity="0.25"/>
<stop offset="1" stop-color="#455FE4" stop-opacity="0"/>
</linearGradient>
<linearGradient id="paint12_linear_11_480" x1="728.732" y1="627.604" x2="1174.51" y2="627.604" gradientUnits="userSpaceOnUse">
<stop stop-color="#50C0FF" stop-opacity="0.5"/>
<stop offset="1" stop-color="#000B1B" stop-opacity="0.57"/>
</linearGradient>
<linearGradient id="paint13_linear_11_480" x1="728.732" y1="627.604" x2="1174.51" y2="627.604" gradientUnits="userSpaceOnUse">
<stop stop-color="#50C0FF" stop-opacity="0.5"/>
<stop offset="1" stop-color="#000B1B" stop-opacity="0.57"/>
</linearGradient>
<linearGradient id="paint14_linear_11_480" x1="728.732" y1="986.396" x2="952.925" y2="508.03" gradientUnits="userSpaceOnUse">
<stop stop-color="#30CDFF" stop-opacity="0.76"/>
<stop offset="1" stop-color="#00A3FF" stop-opacity="0"/>
</linearGradient>
<linearGradient id="paint15_linear_11_480" x1="1007.44" y1="982.192" x2="480.455" y2="554.024" gradientUnits="userSpaceOnUse">
<stop stop-color="#5076FF" stop-opacity="0.25"/>
<stop offset="1" stop-color="#455FE4" stop-opacity="0"/>
</linearGradient>
<linearGradient id="paint16_linear_11_480" x1="693.28" y1="798.547" x2="798.94" y2="798.547" gradientUnits="userSpaceOnUse">
<stop stop-color="#50C0FF" stop-opacity="0.5"/>
<stop offset="1" stop-color="#000B1B" stop-opacity="0.57"/>
</linearGradient>
<linearGradient id="paint17_linear_11_480" x1="320.507" y1="1134.77" x2="779.751" y2="753.091" gradientUnits="userSpaceOnUse">
<stop stop-color="#30CDFF" stop-opacity="0.76"/>
<stop offset="1" stop-color="#00A3FF" stop-opacity="0"/>
</linearGradient>
<linearGradient id="paint18_linear_11_480" x1="644.678" y1="972.319" x2="735.086" y2="1167.7" gradientUnits="userSpaceOnUse">
<stop stop-color="#011321"/>
<stop offset="1" stop-color="#133A74" stop-opacity="0.47"/>
</linearGradient>
<linearGradient id="paint19_linear_11_480" x1="1723.7" y1="1065.25" x2="1072.04" y2="535.784" gradientUnits="userSpaceOnUse">
<stop stop-color="#5076FF" stop-opacity="0.25"/>
<stop offset="1" stop-color="#455FE4" stop-opacity="0"/>
</linearGradient>
<linearGradient id="paint20_linear_11_480" x1="1335.21" y1="838.155" x2="1465.87" y2="838.155" gradientUnits="userSpaceOnUse">
<stop stop-color="#50C0FF" stop-opacity="0.5"/>
<stop offset="1" stop-color="#000B1B" stop-opacity="0.57"/>
</linearGradient>
<linearGradient id="paint21_linear_11_480" x1="874.255" y1="1253.92" x2="1442.14" y2="781.944" gradientUnits="userSpaceOnUse">
<stop stop-color="#30CDFF" stop-opacity="0.76"/>
<stop offset="1" stop-color="#00A3FF" stop-opacity="0"/>
</linearGradient>
<linearGradient id="paint22_linear_11_480" x1="1275.11" y1="1053.04" x2="1386.91" y2="1294.64" gradientUnits="userSpaceOnUse">
<stop stop-color="#011321"/>
<stop offset="1" stop-color="#133A74" stop-opacity="0.47"/>
</linearGradient>
<linearGradient id="paint23_linear_11_480" x1="995.219" y1="471.002" x2="691.146" y2="223.948" gradientUnits="userSpaceOnUse">
<stop stop-color="#5076FF" stop-opacity="0.25"/>
<stop offset="1" stop-color="#455FE4" stop-opacity="0"/>
</linearGradient>
<linearGradient id="paint24_linear_11_480" x1="813.946" y1="365.038" x2="874.912" y2="365.038" gradientUnits="userSpaceOnUse">
<stop stop-color="#50C0FF" stop-opacity="0.5"/>
<stop offset="1" stop-color="#000B1B" stop-opacity="0.57"/>
</linearGradient>
<linearGradient id="paint25_linear_11_480" x1="598.855" y1="559.04" x2="863.84" y2="338.811" gradientUnits="userSpaceOnUse">
<stop stop-color="#30CDFF" stop-opacity="0.76"/>
<stop offset="1" stop-color="#00A3FF" stop-opacity="0"/>
</linearGradient>
<linearGradient id="paint26_linear_11_480" x1="785.901" y1="465.305" x2="838.067" y2="578.042" gradientUnits="userSpaceOnUse">
<stop stop-color="#011321"/>
<stop offset="1" stop-color="#133A74" stop-opacity="0.47"/>
</linearGradient>
<linearGradient id="paint27_linear_11_480" x1="411.715" y1="1020.76" x2="167.512" y2="879.458" gradientUnits="userSpaceOnUse">
<stop stop-color="#5076FF" stop-opacity="0.25"/>
<stop offset="1" stop-color="#455FE4" stop-opacity="0"/>
</linearGradient>
<linearGradient id="paint28_linear_11_480" x1="167" y1="1020.76" x2="411.715" y2="1020.76" gradientUnits="userSpaceOnUse">
<stop stop-color="#50C0FF" stop-opacity="0.5"/>
<stop offset="1" stop-color="#133A74" stop-opacity="0"/>
</linearGradient>
<linearGradient id="paint29_linear_11_480" x1="167" y1="879.459" x2="411.715" y2="879.459" gradientUnits="userSpaceOnUse">
<stop stop-color="#50C0FF" stop-opacity="0.5"/>
<stop offset="1" stop-color="#000B1B" stop-opacity="0.57"/>
</linearGradient>
<linearGradient id="paint30_linear_11_480" x1="167" y1="1018.71" x2="289.357" y2="950.108" gradientUnits="userSpaceOnUse">
<stop stop-color="#30CDFF" stop-opacity="0.76"/>
<stop offset="1" stop-color="#00A3FF" stop-opacity="0"/>
</linearGradient>
<linearGradient id="paint31_linear_11_480" x1="1752.09" y1="783.944" x2="1564.65" y2="675.49" gradientUnits="userSpaceOnUse">
<stop stop-color="#5076FF" stop-opacity="0.25"/>
<stop offset="1" stop-color="#455FE4" stop-opacity="0"/>
</linearGradient>
<linearGradient id="paint32_linear_11_480" x1="1564.26" y1="783.944" x2="1752.09" y2="783.944" gradientUnits="userSpaceOnUse">
<stop stop-color="#50C0FF" stop-opacity="0.5"/>
<stop offset="1" stop-color="#133A74" stop-opacity="0"/>
</linearGradient>
<linearGradient id="paint33_linear_11_480" x1="1564.26" y1="675.49" x2="1752.09" y2="675.49" gradientUnits="userSpaceOnUse">
<stop stop-color="#50C0FF" stop-opacity="0.5"/>
<stop offset="1" stop-color="#000B1B" stop-opacity="0.57"/>
</linearGradient>
<linearGradient id="paint34_linear_11_480" x1="1564.26" y1="782.372" x2="1658.17" y2="729.717" gradientUnits="userSpaceOnUse">
<stop stop-color="#30CDFF" stop-opacity="0.76"/>
<stop offset="1" stop-color="#00A3FF" stop-opacity="0"/>
</linearGradient>
<radialGradient id="paint35_radial_11_480" cx="0" cy="0" r="1" gradientUnits="userSpaceOnUse" gradientTransform="translate(956.865 1172.3) rotate(135) scale(157.507)">
<stop stop-color="white" stop-opacity="0"/>
<stop offset="0.668121" stop-color="#3E9DFF" stop-opacity="0"/>
<stop offset="1" stop-color="#3E9DFF" stop-opacity="0.43"/>
</radialGradient>
<radialGradient id="paint36_radial_11_480" cx="0" cy="0" r="1" gradientUnits="userSpaceOnUse" gradientTransform="translate(828.815 1263.03) rotate(-29.9927) scale(173.529)">
<stop stop-color="white"/>
<stop offset="0.463542" stop-color="#72DDFF"/>
<stop offset="0.733683" stop-color="#50C0FF"/>
<stop offset="1" stop-color="#0E67BA"/>
</radialGradient>
<clipPath id="clip0_11_480">
<rect width="150.678" height="150.678" fill="white" transform="matrix(0.859406 0.511293 0 1 555.054 826.205)"/>
</clipPath>
</defs>
</svg>
