<svg width="1718" height="1752" viewBox="0 0 1718 1752" fill="none" xmlns="http://www.w3.org/2000/svg">
<path opacity="0.25" d="M802 1751.92L1604 1236.52L802 721.111L0 1236.52L802 1751.92Z" fill="url(#paint0_linear_7_532)"/>
<path d="M1400.16 675.084C1400.25 536.821 1405.8 421.327 1483.59 403.119C1499.58 398.948 1529.48 394.776 1567.02 411.462L874.551 4.74035C858.561 -2.21216 815.316 -1.51691 786.95 6.8261C741.063 20.3221 708.274 50.1843 707.697 277.551L707.692 277.554V280.219C707.692 280.86 707.691 281.502 707.691 282.146V1089.33C707.691 1166.09 596.451 1208.22 540.831 1218.65C606.88 1259.67 843.265 1408.03 1260.42 1673.34C1375.55 1636.63 1401.55 1532.9 1400.16 1485.62V678.438C1400.16 677.319 1400.16 676.2 1400.16 675.084Z" fill="url(#paint1_linear_7_532)"/>
<g filter="url(#filter0_f_7_532)">
<path opacity="0.25" d="M41.5898 1627.23L43.3896 1628.26L473.53 1380.93V278.389L471.731 277.354L41.5898 524.682V1627.23Z" fill="url(#paint2_linear_7_532)"/>
<path opacity="0.25" d="M257.56 1627.23L259.36 1628.26L689.5 1380.93V278.389L687.701 277.354L257.56 524.682V1627.23Z" fill="url(#paint3_linear_7_532)"/>
</g>
<path d="M1398.3 1094.37L1567.02 1191.79V1386.63L1398.3 1484.05L1229.58 1386.63V1191.79L1398.3 1094.37Z" fill="url(#paint4_linear_7_532)"/>
<g opacity="0.5" filter="url(#filter1_d_7_532)">
<path d="M1398.3 1484.05L1567.02 1386.63L1398.3 1289.21L1229.58 1386.63L1398.3 1484.05Z" fill="url(#paint5_linear_7_532)" shape-rendering="crispEdges"/>
</g>
<path d="M1398.3 1289.21L1567.02 1191.79L1398.3 1094.37L1229.58 1191.79L1398.3 1289.21Z" fill="url(#paint6_linear_7_532)"/>
<g filter="url(#filter2_dd_7_532)">
<path d="M1460.56 1142.42C1426.52 1176.46 1371.33 1176.46 1337.29 1142.42C1303.25 1108.38 1303.25 1053.2 1337.29 1019.16C1371.33 985.12 1426.52 985.12 1460.56 1019.16C1494.59 1053.2 1494.59 1108.38 1460.56 1142.42Z" fill="url(#paint7_radial_7_532)"/>
<path d="M1460.56 1142.42C1426.52 1176.46 1371.33 1176.46 1337.29 1142.42C1303.25 1108.38 1303.25 1053.2 1337.29 1019.16C1371.33 985.12 1426.52 985.12 1460.56 1019.16C1494.59 1053.2 1494.59 1108.38 1460.56 1142.42Z" fill="url(#paint8_radial_7_532)"/>
</g>
<path d="M1399.01 1483.64L1398.3 1484.05L1229.58 1386.63V1192.2L1230.29 1191.79L1399.01 1289.21V1483.64Z" fill="url(#paint9_linear_7_532)"/>
<path d="M722.195 1327.04C718.195 1394.18 664.331 1428.35 601.887 1403.35C539.443 1378.34 492.065 1303.65 496.065 1236.5C500.065 1169.36 553.929 1135.2 616.373 1160.2C678.817 1185.2 726.195 1259.89 722.195 1327.04Z" fill="#021425"/>
<path d="M722.195 1327.04C718.195 1394.18 664.331 1428.35 601.887 1403.35C539.443 1378.34 492.065 1303.65 496.065 1236.5C500.065 1169.36 553.929 1135.2 616.373 1160.2C678.817 1185.2 726.195 1259.89 722.195 1327.04Z" fill="url(#paint10_radial_7_532)"/>
<path d="M722.195 1327.04C718.195 1394.18 664.331 1428.35 601.887 1403.35C539.443 1378.34 492.065 1303.65 496.065 1236.5C500.065 1169.36 553.929 1135.2 616.373 1160.2C678.817 1185.2 726.195 1259.89 722.195 1327.04Z" fill="url(#paint11_radial_7_532)"/>
<path d="M722.195 1327.04C718.195 1394.18 664.331 1428.35 601.887 1403.35C539.443 1378.34 492.065 1303.65 496.065 1236.5C500.065 1169.36 553.929 1135.2 616.373 1160.2C678.817 1185.2 726.195 1259.89 722.195 1327.04Z" fill="url(#paint12_radial_7_532)" fill-opacity="0.5"/>
<g opacity="0.75">
<path d="M698.509 1302.73C695.664 1350.47 657.365 1374.76 612.965 1356.99C568.564 1339.21 534.876 1286.1 537.721 1238.35C540.565 1190.61 578.864 1166.32 623.265 1184.1C667.665 1201.87 701.353 1254.99 698.509 1302.73Z" fill="url(#paint13_radial_7_532)"/>
<path d="M698.509 1302.73C695.664 1350.47 657.365 1374.76 612.965 1356.99C568.564 1339.21 534.876 1286.1 537.721 1238.35C540.565 1190.61 578.864 1166.32 623.265 1184.1C667.665 1201.87 701.353 1254.99 698.509 1302.73Z" fill="url(#paint14_radial_7_532)"/>
</g>
<path d="M721.886 1327.2C719.873 1361.03 705.2 1386.49 683.148 1400.23L683.152 1400.23L705.97 1385.76L705.966 1385.75C728.018 1372.01 742.691 1346.55 744.704 1312.72C748.699 1245.58 701.315 1170.89 638.87 1145.89C607.405 1133.3 578.121 1135.72 556.296 1149.82L556.295 1149.82L533.477 1164.29L533.478 1164.29C555.302 1150.2 584.587 1147.77 616.051 1160.37C678.497 1185.36 725.881 1260.05 721.886 1327.2Z" fill="url(#paint15_linear_7_532)"/>
<path d="M1078.45 632.003V1342.37L1077.01 1343.21L612.245 1071.11V360.744L613.691 359.897L1078.45 632.003Z" stroke="url(#paint16_linear_7_532)"/>
<g filter="url(#filter3_d_7_532)">
<path d="M1212.44 749.334L1211.46 749.902L977.585 614.136L977.585 589.292L978.564 588.724L1212.44 724.49V749.334Z" fill="#7ACFFF"/>
</g>
<g filter="url(#filter4_d_7_532)">
<path d="M1212.44 811.586L1211.46 812.155L1143.37 770.709L1143.37 745.865L1144.35 745.297L1212.44 786.742V811.586Z" fill="#7ACFFF"/>
</g>
<g opacity="0.25" filter="url(#filter5_d_7_532)">
<path d="M945.35 701.064L944.372 701.632L876.276 660.187L876.276 635.343L877.255 634.775L945.35 676.22V701.064Z" fill="#7ACFFF"/>
</g>
<g filter="url(#filter6_d_7_532)">
<path d="M1212.44 916.194L1211.46 916.762L977.585 780.996L977.585 756.152L978.564 755.584L1212.44 891.35V916.194Z" fill="#7ACFFF"/>
</g>
<g filter="url(#filter7_d_7_532)">
<path d="M1212.44 978.447L1211.46 979.015L1143.37 937.569L1143.37 912.725L1144.35 912.157L1212.44 953.603V978.447Z" fill="#7ACFFF"/>
</g>
<g opacity="0.25" filter="url(#filter8_d_7_532)">
<path d="M945.35 867.924L944.372 868.492L876.276 827.047L876.276 802.203L877.255 801.635L945.35 843.08V867.924Z" fill="#7ACFFF"/>
</g>
<g filter="url(#filter9_d_7_532)">
<path d="M1212.44 1083.06L1211.46 1083.62L977.585 947.857L977.585 923.013L978.564 922.445L1212.44 1058.21V1083.06Z" fill="#7ACFFF"/>
</g>
<g filter="url(#filter10_d_7_532)">
<path d="M1212.44 1145.31L1211.46 1145.88L1143.37 1104.43L1143.37 1079.59L1144.35 1079.02L1212.44 1120.46V1145.31Z" fill="#7ACFFF"/>
</g>
<g opacity="0.25" filter="url(#filter11_d_7_532)">
<path d="M945.352 1034.79L944.374 1035.35L876.278 993.908L876.278 969.064L877.257 968.496L945.352 1009.94V1034.79Z" fill="#7ACFFF"/>
</g>
<path d="M301.77 283.321L734.974 533.999V989.775L668.951 1028.07L235.747 777.393V321.618L301.77 283.321Z" fill="url(#paint17_linear_7_532)"/>
<path opacity="0.5" d="M671.988 569.763L734.974 533.195L298.733 283.321L235.747 319.89L671.988 569.763Z" fill="url(#paint18_linear_7_532)"/>
<path fill-rule="evenodd" clip-rule="evenodd" d="M388.27 163.09C371.101 177.834 364.645 203.358 364.645 223.394V347.63C364.645 353.28 360.065 357.86 354.415 357.86C348.765 357.86 344.185 353.28 344.185 347.63V223.394C344.185 200.502 351.324 167.848 374.941 147.568C399.58 126.41 438.344 121.713 494.62 147.426C608.598 199.503 632.536 318.886 630.509 372.069V496.107C630.509 501.757 625.929 506.337 620.279 506.337C614.629 506.337 610.049 501.757 610.049 496.107V371.669L610.057 371.467C611.99 322.533 589.518 213.28 486.117 166.035C433.63 142.054 404.417 149.225 388.27 163.09Z" fill="url(#paint19_linear_7_532)"/>
<path d="M669.502 1027.02L667.694 1028.07L235.747 777.847L235.747 321.198L237.554 320.151L669.502 570.376V1027.02Z" fill="url(#paint20_linear_7_532)"/>
<path opacity="0.5" d="M462.249 678.366C476.619 676.692 487.146 665.187 488.205 647.42C489.68 622.661 472.209 595.117 449.183 585.898C426.157 576.68 406.295 589.277 404.82 614.036C403.662 633.471 414.178 654.622 429.891 667.279V777.841L462.114 795.071L462.249 794.999V678.366Z" fill="#000F1E"/>
<defs>
<filter id="filter0_f_7_532" x="6.58984" y="242.354" width="717.911" height="1420.91" filterUnits="userSpaceOnUse" color-interpolation-filters="sRGB">
<feFlood flood-opacity="0" result="BackgroundImageFix"/>
<feBlend mode="normal" in="SourceGraphic" in2="BackgroundImageFix" result="shape"/>
<feGaussianBlur stdDeviation="17.5" result="effect1_foregroundBlur_7_532"/>
</filter>
<filter id="filter1_d_7_532" x="1079.58" y="1214.21" width="637.441" height="494.84" filterUnits="userSpaceOnUse" color-interpolation-filters="sRGB">
<feFlood flood-opacity="0" result="BackgroundImageFix"/>
<feColorMatrix in="SourceAlpha" type="matrix" values="0 0 0 0 0 0 0 0 0 0 0 0 0 0 0 0 0 0 127 0" result="hardAlpha"/>
<feOffset dy="75"/>
<feGaussianBlur stdDeviation="75"/>
<feComposite in2="hardAlpha" operator="out"/>
<feColorMatrix type="matrix" values="0 0 0 0 0.3125 0 0 0 0 0.67 0 0 0 0 1 0 0 0 1 0"/>
<feBlend mode="normal" in2="BackgroundImageFix" result="effect1_dropShadow_7_532"/>
<feBlend mode="normal" in="SourceGraphic" in2="effect1_dropShadow_7_532" result="shape"/>
</filter>
<filter id="filter2_dd_7_532" x="1248.76" y="925.629" width="288.321" height="292.321" filterUnits="userSpaceOnUse" color-interpolation-filters="sRGB">
<feFlood flood-opacity="0" result="BackgroundImageFix"/>
<feColorMatrix in="SourceAlpha" type="matrix" values="0 0 0 0 0 0 0 0 0 0 0 0 0 0 0 0 0 0 127 0" result="hardAlpha"/>
<feOffset dx="-20" dy="7"/>
<feGaussianBlur stdDeviation="21.5"/>
<feComposite in2="hardAlpha" operator="out"/>
<feColorMatrix type="matrix" values="0 0 0 0 0 0 0 0 0 0.928 0 0 0 0 1 0 0 0 1 0"/>
<feBlend mode="normal" in2="BackgroundImageFix" result="effect1_dropShadow_7_532"/>
<feColorMatrix in="SourceAlpha" type="matrix" values="0 0 0 0 0 0 0 0 0 0 0 0 0 0 0 0 0 0 127 0" result="hardAlpha"/>
<feOffset dx="4" dy="-21"/>
<feGaussianBlur stdDeviation="23.5"/>
<feComposite in2="hardAlpha" operator="out"/>
<feColorMatrix type="matrix" values="0 0 0 0 0.230903 0 0 0 0 0.354271 0 0 0 0 0.791667 0 0 0 1 0"/>
<feBlend mode="normal" in2="effect1_dropShadow_7_532" result="effect2_dropShadow_7_532"/>
<feBlend mode="normal" in="SourceGraphic" in2="effect2_dropShadow_7_532" result="shape"/>
</filter>
<filter id="filter3_d_7_532" x="962.585" y="577.724" width="264.853" height="191.178" filterUnits="userSpaceOnUse" color-interpolation-filters="sRGB">
<feFlood flood-opacity="0" result="BackgroundImageFix"/>
<feColorMatrix in="SourceAlpha" type="matrix" values="0 0 0 0 0 0 0 0 0 0 0 0 0 0 0 0 0 0 127 0" result="hardAlpha"/>
<feOffset dy="4"/>
<feGaussianBlur stdDeviation="7.5"/>
<feComposite in2="hardAlpha" operator="out"/>
<feColorMatrix type="matrix" values="0 0 0 0 0.15 0 0 0 0 0.694 0 0 0 0 1 0 0 0 1 0"/>
<feBlend mode="normal" in2="BackgroundImageFix" result="effect1_dropShadow_7_532"/>
<feBlend mode="normal" in="SourceGraphic" in2="effect1_dropShadow_7_532" result="shape"/>
</filter>
<filter id="filter4_d_7_532" x="1128.37" y="734.297" width="99.0742" height="96.8577" filterUnits="userSpaceOnUse" color-interpolation-filters="sRGB">
<feFlood flood-opacity="0" result="BackgroundImageFix"/>
<feColorMatrix in="SourceAlpha" type="matrix" values="0 0 0 0 0 0 0 0 0 0 0 0 0 0 0 0 0 0 127 0" result="hardAlpha"/>
<feOffset dy="4"/>
<feGaussianBlur stdDeviation="7.5"/>
<feComposite in2="hardAlpha" operator="out"/>
<feColorMatrix type="matrix" values="0 0 0 0 0.15 0 0 0 0 0.694 0 0 0 0 1 0 0 0 1 0"/>
<feBlend mode="normal" in2="BackgroundImageFix" result="effect1_dropShadow_7_532"/>
<feBlend mode="normal" in="SourceGraphic" in2="effect1_dropShadow_7_532" result="shape"/>
</filter>
<filter id="filter5_d_7_532" x="861.276" y="623.775" width="99.0742" height="96.8577" filterUnits="userSpaceOnUse" color-interpolation-filters="sRGB">
<feFlood flood-opacity="0" result="BackgroundImageFix"/>
<feColorMatrix in="SourceAlpha" type="matrix" values="0 0 0 0 0 0 0 0 0 0 0 0 0 0 0 0 0 0 127 0" result="hardAlpha"/>
<feOffset dy="4"/>
<feGaussianBlur stdDeviation="7.5"/>
<feComposite in2="hardAlpha" operator="out"/>
<feColorMatrix type="matrix" values="0 0 0 0 0.15 0 0 0 0 0.694 0 0 0 0 1 0 0 0 1 0"/>
<feBlend mode="normal" in2="BackgroundImageFix" result="effect1_dropShadow_7_532"/>
<feBlend mode="normal" in="SourceGraphic" in2="effect1_dropShadow_7_532" result="shape"/>
</filter>
<filter id="filter6_d_7_532" x="962.585" y="744.584" width="264.853" height="191.178" filterUnits="userSpaceOnUse" color-interpolation-filters="sRGB">
<feFlood flood-opacity="0" result="BackgroundImageFix"/>
<feColorMatrix in="SourceAlpha" type="matrix" values="0 0 0 0 0 0 0 0 0 0 0 0 0 0 0 0 0 0 127 0" result="hardAlpha"/>
<feOffset dy="4"/>
<feGaussianBlur stdDeviation="7.5"/>
<feComposite in2="hardAlpha" operator="out"/>
<feColorMatrix type="matrix" values="0 0 0 0 0.15 0 0 0 0 0.694 0 0 0 0 1 0 0 0 1 0"/>
<feBlend mode="normal" in2="BackgroundImageFix" result="effect1_dropShadow_7_532"/>
<feBlend mode="normal" in="SourceGraphic" in2="effect1_dropShadow_7_532" result="shape"/>
</filter>
<filter id="filter7_d_7_532" x="1128.37" y="901.157" width="99.0742" height="96.8577" filterUnits="userSpaceOnUse" color-interpolation-filters="sRGB">
<feFlood flood-opacity="0" result="BackgroundImageFix"/>
<feColorMatrix in="SourceAlpha" type="matrix" values="0 0 0 0 0 0 0 0 0 0 0 0 0 0 0 0 0 0 127 0" result="hardAlpha"/>
<feOffset dy="4"/>
<feGaussianBlur stdDeviation="7.5"/>
<feComposite in2="hardAlpha" operator="out"/>
<feColorMatrix type="matrix" values="0 0 0 0 0.15 0 0 0 0 0.694 0 0 0 0 1 0 0 0 1 0"/>
<feBlend mode="normal" in2="BackgroundImageFix" result="effect1_dropShadow_7_532"/>
<feBlend mode="normal" in="SourceGraphic" in2="effect1_dropShadow_7_532" result="shape"/>
</filter>
<filter id="filter8_d_7_532" x="861.276" y="790.635" width="99.0742" height="96.8577" filterUnits="userSpaceOnUse" color-interpolation-filters="sRGB">
<feFlood flood-opacity="0" result="BackgroundImageFix"/>
<feColorMatrix in="SourceAlpha" type="matrix" values="0 0 0 0 0 0 0 0 0 0 0 0 0 0 0 0 0 0 127 0" result="hardAlpha"/>
<feOffset dy="4"/>
<feGaussianBlur stdDeviation="7.5"/>
<feComposite in2="hardAlpha" operator="out"/>
<feColorMatrix type="matrix" values="0 0 0 0 0.15 0 0 0 0 0.694 0 0 0 0 1 0 0 0 1 0"/>
<feBlend mode="normal" in2="BackgroundImageFix" result="effect1_dropShadow_7_532"/>
<feBlend mode="normal" in="SourceGraphic" in2="effect1_dropShadow_7_532" result="shape"/>
</filter>
<filter id="filter9_d_7_532" x="962.585" y="911.445" width="264.853" height="191.178" filterUnits="userSpaceOnUse" color-interpolation-filters="sRGB">
<feFlood flood-opacity="0" result="BackgroundImageFix"/>
<feColorMatrix in="SourceAlpha" type="matrix" values="0 0 0 0 0 0 0 0 0 0 0 0 0 0 0 0 0 0 127 0" result="hardAlpha"/>
<feOffset dy="4"/>
<feGaussianBlur stdDeviation="7.5"/>
<feComposite in2="hardAlpha" operator="out"/>
<feColorMatrix type="matrix" values="0 0 0 0 0.15 0 0 0 0 0.694 0 0 0 0 1 0 0 0 1 0"/>
<feBlend mode="normal" in2="BackgroundImageFix" result="effect1_dropShadow_7_532"/>
<feBlend mode="normal" in="SourceGraphic" in2="effect1_dropShadow_7_532" result="shape"/>
</filter>
<filter id="filter10_d_7_532" x="1128.37" y="1068.02" width="99.0742" height="96.8577" filterUnits="userSpaceOnUse" color-interpolation-filters="sRGB">
<feFlood flood-opacity="0" result="BackgroundImageFix"/>
<feColorMatrix in="SourceAlpha" type="matrix" values="0 0 0 0 0 0 0 0 0 0 0 0 0 0 0 0 0 0 127 0" result="hardAlpha"/>
<feOffset dy="4"/>
<feGaussianBlur stdDeviation="7.5"/>
<feComposite in2="hardAlpha" operator="out"/>
<feColorMatrix type="matrix" values="0 0 0 0 0.15 0 0 0 0 0.694 0 0 0 0 1 0 0 0 1 0"/>
<feBlend mode="normal" in2="BackgroundImageFix" result="effect1_dropShadow_7_532"/>
<feBlend mode="normal" in="SourceGraphic" in2="effect1_dropShadow_7_532" result="shape"/>
</filter>
<filter id="filter11_d_7_532" x="861.278" y="957.496" width="99.0742" height="96.8577" filterUnits="userSpaceOnUse" color-interpolation-filters="sRGB">
<feFlood flood-opacity="0" result="BackgroundImageFix"/>
<feColorMatrix in="SourceAlpha" type="matrix" values="0 0 0 0 0 0 0 0 0 0 0 0 0 0 0 0 0 0 127 0" result="hardAlpha"/>
<feOffset dy="4"/>
<feGaussianBlur stdDeviation="7.5"/>
<feComposite in2="hardAlpha" operator="out"/>
<feColorMatrix type="matrix" values="0 0 0 0 0.15 0 0 0 0 0.694 0 0 0 0 1 0 0 0 1 0"/>
<feBlend mode="normal" in2="BackgroundImageFix" result="effect1_dropShadow_7_532"/>
<feBlend mode="normal" in="SourceGraphic" in2="effect1_dropShadow_7_532" result="shape"/>
</filter>
<linearGradient id="paint0_linear_7_532" x1="2.76167e-05" y1="1236.52" x2="804.311" y2="1717.25" gradientUnits="userSpaceOnUse">
<stop stop-color="#50C0FF" stop-opacity="0.5"/>
<stop offset="1" stop-color="#000B1B" stop-opacity="0.57"/>
</linearGradient>
<linearGradient id="paint1_linear_7_532" x1="1379.3" y1="277.973" x2="728.549" y2="1329.19" gradientUnits="userSpaceOnUse">
<stop stop-color="#0F496A"/>
<stop offset="0.13715" stop-color="#519CE0"/>
<stop offset="0.308876" stop-color="#4893EC" stop-opacity="0.68"/>
<stop offset="0.876006" stop-color="#3374B0" stop-opacity="0.06"/>
<stop offset="0.984051" stop-color="#205893" stop-opacity="0.25"/>
</linearGradient>
<linearGradient id="paint2_linear_7_532" x1="43.3895" y1="1530.29" x2="45.774" y2="538.734" gradientUnits="userSpaceOnUse">
<stop stop-color="#0047FF" stop-opacity="0"/>
<stop offset="1" stop-color="#305DFF" stop-opacity="0.76"/>
</linearGradient>
<linearGradient id="paint3_linear_7_532" x1="259.36" y1="1530.29" x2="261.744" y2="538.734" gradientUnits="userSpaceOnUse">
<stop stop-color="#00A3FF" stop-opacity="0"/>
<stop offset="1" stop-color="#30CDFF" stop-opacity="0.76"/>
</linearGradient>
<linearGradient id="paint4_linear_7_532" x1="1567.02" y1="1386.63" x2="1230.29" y2="1191.79" gradientUnits="userSpaceOnUse">
<stop stop-color="#5076FF" stop-opacity="0.25"/>
<stop offset="1" stop-color="#455FE4" stop-opacity="0"/>
</linearGradient>
<linearGradient id="paint5_linear_7_532" x1="1229.58" y1="1386.63" x2="1567.02" y2="1386.63" gradientUnits="userSpaceOnUse">
<stop stop-color="#50C0FF" stop-opacity="0.5"/>
<stop offset="1" stop-color="#133A74" stop-opacity="0"/>
</linearGradient>
<linearGradient id="paint6_linear_7_532" x1="1229.58" y1="1191.79" x2="1567.02" y2="1191.79" gradientUnits="userSpaceOnUse">
<stop stop-color="#50C0FF" stop-opacity="0.5"/>
<stop offset="1" stop-color="#000B1B" stop-opacity="0.57"/>
</linearGradient>
<radialGradient id="paint7_radial_7_532" cx="0" cy="0" r="1" gradientUnits="userSpaceOnUse" gradientTransform="translate(1439.68 1040.04) rotate(135) scale(144.792)">
<stop stop-color="white" stop-opacity="0"/>
<stop offset="0.668121" stop-color="#3E9DFF" stop-opacity="0"/>
<stop offset="1" stop-color="#3E9DFF" stop-opacity="0.43"/>
</radialGradient>
<radialGradient id="paint8_radial_7_532" cx="0" cy="0" r="1" gradientUnits="userSpaceOnUse" gradientTransform="translate(1321.96 1123.44) rotate(-29.9927) scale(159.52)">
<stop stop-color="white"/>
<stop offset="0.463542" stop-color="#72DDFF"/>
<stop offset="0.733683" stop-color="#50C0FF"/>
<stop offset="1" stop-color="#0E67BA"/>
</radialGradient>
<linearGradient id="paint9_linear_7_532" x1="1229.58" y1="1383.81" x2="1398.3" y2="1289.21" gradientUnits="userSpaceOnUse">
<stop stop-color="#30CDFF" stop-opacity="0.76"/>
<stop offset="1" stop-color="#00A3FF" stop-opacity="0"/>
</linearGradient>
<radialGradient id="paint10_radial_7_532" cx="0" cy="0" r="1" gradientUnits="userSpaceOnUse" gradientTransform="translate(619.707 1104.24) rotate(93.4094) scale(208.519 197.847)">
<stop stop-color="#133A74"/>
<stop offset="1" stop-color="#134974" stop-opacity="0"/>
</radialGradient>
<radialGradient id="paint11_radial_7_532" cx="0" cy="0" r="1" gradientUnits="userSpaceOnUse" gradientTransform="translate(609.844 1269.8) rotate(93.4094) scale(133.784 126.937)">
<stop stop-color="#2A6AAC" stop-opacity="0"/>
<stop offset="0.75" stop-color="#4441CB" stop-opacity="0"/>
<stop offset="1" stop-color="#2A6AAC"/>
</radialGradient>
<radialGradient id="paint12_radial_7_532" cx="0" cy="0" r="1" gradientUnits="userSpaceOnUse" gradientTransform="translate(609.473 1276.01) rotate(93.4094) scale(127.556 121.028)">
<stop stop-color="white" stop-opacity="0"/>
<stop offset="0.929818" stop-color="#3E9DFF" stop-opacity="0"/>
<stop offset="1" stop-color="#3E9DFF"/>
</radialGradient>
<radialGradient id="paint13_radial_7_532" cx="0" cy="0" r="1" gradientUnits="userSpaceOnUse" gradientTransform="translate(625.635 1144.31) rotate(94.4753) scale(179.766 170.566)">
<stop stop-color="#1D88D5"/>
<stop offset="1" stop-color="#133A74" stop-opacity="0.41"/>
</radialGradient>
<radialGradient id="paint14_radial_7_532" cx="0" cy="0" r="1" gradientUnits="userSpaceOnUse" gradientTransform="translate(617.171 1276.64) rotate(91.322) scale(103.348 98.0592)">
<stop stop-color="#2A6AAC" stop-opacity="0"/>
<stop offset="0.75" stop-color="#4441CB" stop-opacity="0"/>
<stop offset="1" stop-color="#2A6AAC"/>
</radialGradient>
<linearGradient id="paint15_linear_7_532" x1="720.249" y1="1377.68" x2="558.909" y2="1140.83" gradientUnits="userSpaceOnUse">
<stop stop-color="#50C0FF"/>
<stop offset="0.807292" stop-color="#4982EE" stop-opacity="0"/>
<stop offset="0.864583" stop-color="#4877EB" stop-opacity="0.282239"/>
<stop offset="1" stop-color="#455FE4" stop-opacity="0.25"/>
</linearGradient>
<linearGradient id="paint16_linear_7_532" x1="611.745" y1="1067.61" x2="1085.73" y2="640.819" gradientUnits="userSpaceOnUse">
<stop stop-color="#50C0FF"/>
<stop offset="1" stop-color="#50C0FF" stop-opacity="0"/>
</linearGradient>
<linearGradient id="paint17_linear_7_532" x1="1102.16" y1="822.973" x2="234.274" y2="119.177" gradientUnits="userSpaceOnUse">
<stop stop-color="#5076FF" stop-opacity="0.25"/>
<stop offset="1" stop-color="#000520" stop-opacity="0.95"/>
</linearGradient>
<linearGradient id="paint18_linear_7_532" x1="584.505" y1="519.667" x2="759.469" y2="519.667" gradientUnits="userSpaceOnUse">
<stop stop-color="#50C0FF" stop-opacity="0.5"/>
<stop offset="1" stop-color="#000B1B" stop-opacity="0.57"/>
</linearGradient>
<linearGradient id="paint19_linear_7_532" x1="485.36" y1="412.22" x2="540.602" y2="160.56" gradientUnits="userSpaceOnUse">
<stop stop-color="#7ACDFC"/>
<stop offset="1" stop-color="#234873"/>
</linearGradient>
<linearGradient id="paint20_linear_7_532" x1="214.982" y1="960.347" x2="617.308" y2="697.251" gradientUnits="userSpaceOnUse">
<stop stop-color="#30CDFF" stop-opacity="0.76"/>
<stop offset="1" stop-color="#00A3FF" stop-opacity="0"/>
</linearGradient>
</defs>
</svg>
