<svg width="1920" height="1920" viewBox="0 0 1920 1920" fill="none" xmlns="http://www.w3.org/2000/svg">
<rect width="1920" height="1920" />
<path opacity="0.25" d="M960.221 1734.82L1837.44 1228.2L960.221 721.585L83 1228.2L960.221 1734.82Z" fill="url(#paint0_linear_11_2402)"/>
<path d="M1671.9 887.099C1673.1 663.796 1361.13 481.076 975.092 478.984C589.052 476.891 275.126 656.218 273.92 879.521C272.714 1102.82 584.685 1285.54 970.725 1287.64C1356.77 1289.73 1670.69 1110.4 1671.9 887.099Z" fill="url(#paint1_radial_11_2402)"/>
<path d="M1362.96 1265.72C1362.4 1265.9 1361.92 1266.25 1361.58 1266.71C1361.24 1267.18 1361.05 1267.75 1361.05 1268.33C1361.05 1268.91 1361.24 1269.47 1361.58 1269.94C1361.92 1270.41 1362.4 1270.75 1362.96 1270.93C1364.35 1271.65 1365.89 1272.02 1367.45 1272.02C1369.02 1272.02 1370.56 1271.65 1371.95 1270.93C1372.5 1270.75 1372.99 1270.41 1373.33 1269.94C1373.67 1269.47 1373.86 1268.91 1373.86 1268.33C1373.86 1267.75 1373.67 1267.18 1373.33 1266.71C1372.99 1266.25 1372.5 1265.9 1371.95 1265.72C1370.55 1265.04 1369.01 1264.68 1367.45 1264.68C1365.89 1264.68 1364.36 1265.04 1362.96 1265.72V1265.72Z" fill="#1D1D1B"/>
<path d="M1367.45 1279.88L1468.76 1221.23V1026.42L1367.45 1085.07V1279.88Z" fill="url(#paint2_linear_11_2402)"/>
<path d="M1279.71 1034.29L1367.46 1085.07V1279.88L1279.71 1229.1V1034.29Z" fill="url(#paint3_radial_11_2402)"/>
<path d="M1279.71 1034.29L1367.46 1085.07L1468.76 1026.42L1381.01 975.703L1279.71 1034.29Z" fill="url(#paint4_radial_11_2402)"/>
<path d="M1297.7 1061.4V1218.82L1353.01 1250.81V1093.39L1297.7 1061.4Z" fill="url(#paint5_linear_11_2402)"/>
<path d="M1353.01 1250.81V1254.8L1294.15 1220.72L1297.7 1218.81L1353.01 1250.81Z" fill="url(#paint6_linear_11_2402)"/>
<path d="M1297.7 1061.39V1218.81L1294.15 1220.72V1059.36L1297.7 1061.39Z" fill="url(#paint7_linear_11_2402)"/>
<path d="M1161.8 1284.77L1060.5 1226.18V821.139L1161.8 879.727V1284.77Z" fill="url(#paint8_linear_11_2402)"/>
<path d="M1249.55 828.946L1161.8 879.727V1284.77L1249.55 1234.05V828.946Z" fill="url(#paint9_radial_11_2402)"/>
<path d="M1249.55 828.947L1161.8 879.727L1060.5 821.139L1148.25 770.358L1249.55 828.947Z" fill="url(#paint10_radial_11_2402)"/>
<path d="M1231.62 856.052V1223.77L1176.24 1255.76V888.044L1231.62 856.052Z" fill="url(#paint11_linear_11_2402)"/>
<path d="M1231.62 856.05V1223.76L1235.1 1225.67V854.019L1231.62 856.05Z" fill="#021421"/>
<path d="M1411.68 846.151L1058.28 641.695C1042.56 632.618 1029.83 608.243 1029.83 587.296V491.321C1029.83 470.374 1042.5 460.726 1058.28 469.803L1411.68 674.195C1427.32 683.272 1440.06 707.646 1440.06 728.593V824.569C1440.06 845.516 1427.32 855.164 1411.68 846.151Z" fill="url(#paint12_linear_11_2402)"/>
<path d="M1329.12 727.83V764.202L1073.29 615.415V580.757L1074.62 579.868L1329.12 727.83Z" fill="#7ACFFF"/>
<path d="M1171.49 572.442V608.559L1073.29 551.495V516.837L1074.62 516.075L1171.49 572.442Z" fill="#7ACFFF"/>
<path d="M992.577 842.786C992.577 949.552 864.725 1036.13 707.031 1036.13C549.338 1036.13 421.485 949.552 421.485 842.786C421.485 736.019 549.338 649.375 707.031 649.375C864.725 649.375 992.577 735.956 992.577 842.786Z" fill="url(#paint13_linear_11_2402)"/>
<path d="M992.577 911.848C992.577 1018.61 864.725 1105.2 707.031 1105.2C549.338 1105.2 421.485 1018.61 421.485 911.848C421.485 805.082 549.338 718.501 707.031 718.501C864.725 718.501 992.577 805.018 992.577 911.848Z" fill="url(#paint14_linear_11_2402)"/>
<path d="M943.35 816.253C943.35 907.405 837.102 963.454 706.018 963.454C574.934 963.454 468.686 907.405 468.686 816.253V635.855C468.686 572.792 493.69 512.312 538.199 467.719C582.707 423.127 643.073 398.075 706.018 398.075V398.075C768.962 398.075 829.329 423.127 873.837 467.719C918.345 512.312 943.35 572.792 943.35 635.855V816.253Z" fill="url(#paint15_radial_11_2402)" fill-opacity="0.5"/>
<g style="mix-blend-mode:color-dodge">
<path style="mix-blend-mode:color-dodge" d="M715.524 315.111C715.524 316.225 715.304 317.328 714.876 318.356C714.449 319.384 713.823 320.318 713.033 321.103C712.244 321.887 711.308 322.508 710.278 322.929C709.248 323.349 708.146 323.561 707.034 323.553C705.911 323.578 704.795 323.379 703.751 322.966C702.706 322.553 701.755 321.935 700.952 321.149C700.15 320.362 699.512 319.423 699.077 318.386C698.641 317.349 698.417 316.235 698.417 315.111V194.507C698.417 193.379 698.641 192.262 699.076 191.222C699.51 190.182 700.147 189.238 700.949 188.447C701.75 187.655 702.701 187.032 703.746 186.612C704.791 186.192 705.908 185.984 707.034 186.001V186.001C709.286 186.001 711.445 186.897 713.037 188.492C714.629 190.087 715.524 192.251 715.524 194.507V315.111Z" fill="url(#paint16_radial_11_2402)"/>
<path style="mix-blend-mode:color-dodge" d="M257.141 653.625C256.024 653.642 254.914 653.436 253.877 653.019C252.84 652.603 251.896 651.983 251.1 651.198C250.304 650.412 249.672 649.476 249.241 648.443C248.81 647.41 248.588 646.302 248.588 645.183V645.183C248.588 644.06 248.809 642.949 249.24 641.913C249.671 640.877 250.302 639.936 251.097 639.146C251.892 638.355 252.835 637.73 253.872 637.306C254.91 636.882 256.021 636.669 257.141 636.677H377.518C379.758 636.694 381.901 637.597 383.48 639.191C385.058 640.784 385.944 642.938 385.944 645.183C385.952 646.294 385.74 647.395 385.32 648.423C384.899 649.452 384.279 650.386 383.495 651.171C382.711 651.957 381.778 652.578 380.752 653C379.726 653.421 378.626 653.633 377.518 653.625H257.141Z" fill="url(#paint17_radial_11_2402)"/>
<path style="mix-blend-mode:color-dodge" d="M382.965 332.503C381.387 330.92 380.5 328.774 380.5 326.537C380.5 324.299 381.387 322.153 382.965 320.57C383.744 319.769 384.675 319.133 385.704 318.699C386.732 318.265 387.836 318.041 388.952 318.041C390.068 318.041 391.173 318.265 392.201 318.699C393.229 319.133 394.16 319.769 394.939 320.57L480.027 405.818C481.605 407.401 482.492 409.547 482.492 411.784C482.492 414.022 481.605 416.168 480.027 417.751V417.751C478.447 419.333 476.305 420.221 474.071 420.221C471.838 420.221 469.696 419.333 468.116 417.751L382.965 332.503Z" fill="url(#paint18_radial_11_2402)"/>
</g>
<path style="mix-blend-mode:color-dodge" d="M1024.83 1087.36C849.837 1188.6 565.241 1188.09 389.174 1086.22C213.107 984.337 212.157 819.617 387.147 718.5C562.136 617.383 846.796 617.637 1022.86 719.199C1198.93 820.76 1199.88 985.797 1024.83 1087.36Z" fill="url(#paint19_radial_11_2402)"/>
<path d="M841.856 1105.38L1029.04 1213.47V1429.63L841.856 1537.71L654.672 1429.63V1213.47L841.856 1105.38Z" fill="url(#paint20_linear_11_2402)"/>
<g opacity="0.5" filter="url(#filter0_d_11_2402)">
<path d="M841.856 1537.71L1029.04 1429.63L841.856 1321.55L654.672 1429.63L841.856 1537.71Z" fill="url(#paint21_linear_11_2402)" shape-rendering="crispEdges"/>
</g>
<path d="M841.856 1321.55L1029.04 1213.47L841.856 1105.38L654.672 1213.47L841.856 1321.55Z" fill="url(#paint22_linear_11_2402)"/>
<g filter="url(#filter1_dd_11_2402)">
<path d="M910.923 1158.69C873.159 1196.46 811.933 1196.46 774.17 1158.69C736.407 1120.93 736.407 1059.7 774.17 1021.94C811.933 984.177 873.159 984.177 910.923 1021.94C948.686 1059.7 948.686 1120.93 910.923 1158.69Z" fill="url(#paint23_radial_11_2402)"/>
<path d="M910.923 1158.69C873.159 1196.46 811.933 1196.46 774.17 1158.69C736.407 1120.93 736.407 1059.7 774.17 1021.94C811.933 984.177 873.159 984.177 910.923 1021.94C948.686 1059.7 948.686 1120.93 910.923 1158.69Z" fill="url(#paint24_radial_11_2402)"/>
</g>
<path d="M842.639 1537.26L841.856 1537.71L654.672 1429.63V1213.92L655.455 1213.47L842.639 1321.55V1537.26Z" fill="url(#paint25_linear_11_2402)"/>
<defs>
<filter id="filter0_d_11_2402" x="504.672" y="1246.55" width="674.369" height="516.163" filterUnits="userSpaceOnUse" color-interpolation-filters="sRGB">
<feFlood flood-opacity="0" result="BackgroundImageFix"/>
<feColorMatrix in="SourceAlpha" type="matrix" values="0 0 0 0 0 0 0 0 0 0 0 0 0 0 0 0 0 0 127 0" result="hardAlpha"/>
<feOffset dy="75"/>
<feGaussianBlur stdDeviation="75"/>
<feComposite in2="hardAlpha" operator="out"/>
<feColorMatrix type="matrix" values="0 0 0 0 0.3125 0 0 0 0 0.67 0 0 0 0 1 0 0 0 1 0"/>
<feBlend mode="normal" in2="BackgroundImageFix" result="effect1_dropShadow_11_2402"/>
<feBlend mode="normal" in="SourceGraphic" in2="effect1_dropShadow_11_2402" result="shape"/>
</filter>
<filter id="filter1_dd_11_2402" x="682.848" y="925.618" width="307.397" height="311.397" filterUnits="userSpaceOnUse" color-interpolation-filters="sRGB">
<feFlood flood-opacity="0" result="BackgroundImageFix"/>
<feColorMatrix in="SourceAlpha" type="matrix" values="0 0 0 0 0 0 0 0 0 0 0 0 0 0 0 0 0 0 127 0" result="hardAlpha"/>
<feOffset dx="-20" dy="7"/>
<feGaussianBlur stdDeviation="21.5"/>
<feComposite in2="hardAlpha" operator="out"/>
<feColorMatrix type="matrix" values="0 0 0 0 0 0 0 0 0 0.928 0 0 0 0 1 0 0 0 1 0"/>
<feBlend mode="normal" in2="BackgroundImageFix" result="effect1_dropShadow_11_2402"/>
<feColorMatrix in="SourceAlpha" type="matrix" values="0 0 0 0 0 0 0 0 0 0 0 0 0 0 0 0 0 0 127 0" result="hardAlpha"/>
<feOffset dx="4" dy="-21"/>
<feGaussianBlur stdDeviation="23.5"/>
<feComposite in2="hardAlpha" operator="out"/>
<feColorMatrix type="matrix" values="0 0 0 0 0.230903 0 0 0 0 0.354271 0 0 0 0 0.791667 0 0 0 1 0"/>
<feBlend mode="normal" in2="effect1_dropShadow_11_2402" result="effect2_dropShadow_11_2402"/>
<feBlend mode="normal" in="SourceGraphic" in2="effect2_dropShadow_11_2402" result="shape"/>
</filter>
<linearGradient id="paint0_linear_11_2402" x1="83" y1="1228.2" x2="1837.44" y2="1228.2" gradientUnits="userSpaceOnUse">
<stop stop-color="#50C0FF" stop-opacity="0.5"/>
<stop offset="1" stop-color="#000B1B" stop-opacity="0.57"/>
</linearGradient>
<radialGradient id="paint1_radial_11_2402" cx="0" cy="0" r="1" gradientUnits="userSpaceOnUse" gradientTransform="translate(977.124 891.566) rotate(30.2435) scale(574.782 494.239)">
<stop stop-color="#5076FF" stop-opacity="0.7"/>
<stop offset="0.45" stop-color="#5076FF" stop-opacity="0.25"/>
<stop offset="1" stop-color="#455FE4" stop-opacity="0"/>
</radialGradient>
<linearGradient id="paint2_linear_11_2402" x1="1380.44" y1="1279.31" x2="1480.7" y2="945.085" gradientUnits="userSpaceOnUse">
<stop stop-color="#50C0FF"/>
<stop offset="0.81" stop-color="#4982EE" stop-opacity="0"/>
<stop offset="0.86" stop-color="#4877EB" stop-opacity="0.28"/>
<stop offset="1" stop-color="#455FE4" stop-opacity="0.25"/>
</linearGradient>
<radialGradient id="paint3_radial_11_2402" cx="0" cy="0" r="1" gradientUnits="userSpaceOnUse" gradientTransform="translate(1282.43 1015.69) rotate(180) scale(294.606 295.162)">
<stop stop-color="#2A6AAC" stop-opacity="0"/>
<stop offset="0.6" stop-color="#4441CB" stop-opacity="0"/>
<stop offset="1" stop-color="#2A6AAC"/>
</radialGradient>
<radialGradient id="paint4_radial_11_2402" cx="0" cy="0" r="1" gradientUnits="userSpaceOnUse" gradientTransform="translate(1480.8 775.882) rotate(180) scale(313.423 314.014)">
<stop stop-color="#2A6AAC" stop-opacity="0"/>
<stop offset="0.6" stop-color="#4441CB" stop-opacity="0"/>
<stop offset="1" stop-color="#2A6AAC"/>
</radialGradient>
<linearGradient id="paint5_linear_11_2402" x1="1255.75" y1="1309.01" x2="1349.37" y2="1104.18" gradientUnits="userSpaceOnUse">
<stop offset="0.07" stop-color="#50C0FF"/>
<stop offset="0.69" stop-color="#4877EB" stop-opacity="0.28"/>
<stop offset="1" stop-color="#455FE4" stop-opacity="0.25"/>
</linearGradient>
<linearGradient id="paint6_linear_11_2402" x1="1355.36" y1="1283.75" x2="1321.63" y2="1232.96" gradientUnits="userSpaceOnUse">
<stop stop-color="#50C0FF"/>
<stop offset="0.27" stop-color="#50C0FF"/>
<stop offset="1" stop-color="#07324C"/>
</linearGradient>
<linearGradient id="paint7_linear_11_2402" x1="1223.32" y1="1225.23" x2="1279.64" y2="1158.62" gradientUnits="userSpaceOnUse">
<stop stop-color="#50C0FF"/>
<stop offset="0.27" stop-color="#50C0FF"/>
<stop offset="1" stop-color="#07324C"/>
</linearGradient>
<linearGradient id="paint8_linear_11_2402" x1="1176.82" y1="1272.58" x2="1002.24" y2="690.75" gradientUnits="userSpaceOnUse">
<stop stop-color="#50C0FF"/>
<stop offset="0.81" stop-color="#4982EE" stop-opacity="0"/>
<stop offset="0.86" stop-color="#4877EB" stop-opacity="0.28"/>
<stop offset="1" stop-color="#455FE4" stop-opacity="0.25"/>
</linearGradient>
<radialGradient id="paint9_radial_11_2402" cx="0" cy="0" r="1" gradientUnits="userSpaceOnUse" gradientTransform="translate(1267.98 529.595) scale(684.247 685.538)">
<stop stop-color="#2A6AAC" stop-opacity="0"/>
<stop offset="0.54" stop-color="#4441CB" stop-opacity="0"/>
<stop offset="0.79" stop-color="#2A6AAC"/>
</radialGradient>
<radialGradient id="paint10_radial_11_2402" cx="0" cy="0" r="1" gradientUnits="userSpaceOnUse" gradientTransform="translate(1048.46 570.537) scale(313.423 314.014)">
<stop stop-color="#2A6AAC" stop-opacity="0"/>
<stop offset="0.6" stop-color="#4441CB" stop-opacity="0"/>
<stop offset="1" stop-color="#2A6AAC"/>
</radialGradient>
<linearGradient id="paint11_linear_11_2402" x1="1362.7" y1="1404.74" x2="1149.22" y2="937.414" gradientUnits="userSpaceOnUse">
<stop offset="0.07" stop-color="#50C0FF"/>
<stop offset="0.69" stop-color="#4877EB" stop-opacity="0.28"/>
<stop offset="1" stop-color="#455FE4" stop-opacity="0.25"/>
</linearGradient>
<linearGradient id="paint12_linear_11_2402" x1="1031.48" y1="362.275" x2="1513.96" y2="1060.74" gradientUnits="userSpaceOnUse">
<stop stop-color="#50C0FF"/>
<stop offset="0.81" stop-color="#4982EE" stop-opacity="0"/>
<stop offset="0.86" stop-color="#4877EB" stop-opacity="0.28"/>
<stop offset="1" stop-color="#455FE4" stop-opacity="0.25"/>
</linearGradient>
<linearGradient id="paint13_linear_11_2402" x1="707.031" y1="1055.87" x2="707.031" y2="329.648" gradientUnits="userSpaceOnUse">
<stop stop-color="#50C0FF"/>
<stop offset="0.81" stop-color="#4982EE" stop-opacity="0"/>
<stop offset="0.86" stop-color="#4877EB" stop-opacity="0.28"/>
<stop offset="1" stop-color="#455FE4" stop-opacity="0.25"/>
</linearGradient>
<linearGradient id="paint14_linear_11_2402" x1="707.031" y1="1124.94" x2="707.031" y2="398.71" gradientUnits="userSpaceOnUse">
<stop stop-color="#50C0FF"/>
<stop offset="0.81" stop-color="#4982EE" stop-opacity="0"/>
<stop offset="0.86" stop-color="#4877EB" stop-opacity="0.28"/>
<stop offset="1" stop-color="#455FE4" stop-opacity="0.25"/>
</linearGradient>
<radialGradient id="paint15_radial_11_2402" cx="0" cy="0" r="1" gradientUnits="userSpaceOnUse" gradientTransform="translate(706.018 680.796) scale(606.826 607.971)">
<stop stop-color="#4FD3FF"/>
<stop offset="0.27" stop-color="#3E9DFF"/>
<stop offset="0.32" stop-color="#388FE8"/>
<stop offset="0.45" stop-color="#286AAC"/>
<stop offset="0.58" stop-color="#1A4B7A"/>
<stop offset="0.7" stop-color="#103354"/>
<stop offset="0.81" stop-color="#082238"/>
<stop offset="0.9" stop-color="#041827"/>
<stop offset="0.98" stop-color="#021421"/>
</radialGradient>
<radialGradient id="paint16_radial_11_2402" cx="0" cy="0" r="1" gradientUnits="userSpaceOnUse" gradientTransform="translate(702.662 719.895) scale(558.36 559.412)">
<stop offset="0.15" stop-opacity="0"/>
<stop offset="1" stop-color="#00E5FF"/>
</radialGradient>
<radialGradient id="paint17_radial_11_2402" cx="0" cy="0" r="1" gradientUnits="userSpaceOnUse" gradientTransform="translate(711.975 848.686) scale(558.358 559.412)">
<stop offset="0.15" stop-opacity="0"/>
<stop offset="1" stop-color="#00E5FF"/>
</radialGradient>
<radialGradient id="paint18_radial_11_2402" cx="0" cy="0" r="1" gradientUnits="userSpaceOnUse" gradientTransform="translate(711.974 848.688) scale(558.358 559.412)">
<stop offset="0.15" stop-opacity="0"/>
<stop offset="1" stop-color="#00E5FF"/>
</radialGradient>
<radialGradient id="paint19_radial_11_2402" cx="0" cy="0" r="1" gradientUnits="userSpaceOnUse" gradientTransform="translate(681.302 905.056) rotate(29.9332) scale(369.604 317.818)">
<stop stop-color="#00E5FF"/>
<stop offset="0.85" stop-opacity="0"/>
</radialGradient>
<linearGradient id="paint20_linear_11_2402" x1="1029.04" y1="1429.63" x2="655.455" y2="1213.47" gradientUnits="userSpaceOnUse">
<stop stop-color="#5076FF" stop-opacity="0.25"/>
<stop offset="1" stop-color="#455FE4" stop-opacity="0"/>
</linearGradient>
<linearGradient id="paint21_linear_11_2402" x1="654.672" y1="1429.63" x2="1029.04" y2="1429.63" gradientUnits="userSpaceOnUse">
<stop stop-color="#50C0FF" stop-opacity="0.5"/>
<stop offset="1" stop-color="#133A74" stop-opacity="0"/>
</linearGradient>
<linearGradient id="paint22_linear_11_2402" x1="654.672" y1="1213.47" x2="1029.04" y2="1213.47" gradientUnits="userSpaceOnUse">
<stop stop-color="#50C0FF" stop-opacity="0.5"/>
<stop offset="1" stop-color="#000B1B" stop-opacity="0.57"/>
</linearGradient>
<radialGradient id="paint23_radial_11_2402" cx="0" cy="0" r="1" gradientUnits="userSpaceOnUse" gradientTransform="translate(887.758 1045.11) rotate(135) scale(160.637)">
<stop stop-color="white" stop-opacity="0"/>
<stop offset="0.668121" stop-color="#3E9DFF" stop-opacity="0"/>
<stop offset="1" stop-color="#3E9DFF" stop-opacity="0.43"/>
</radialGradient>
<radialGradient id="paint24_radial_11_2402" cx="0" cy="0" r="1" gradientUnits="userSpaceOnUse" gradientTransform="translate(757.163 1137.64) rotate(-29.9927) scale(176.977)">
<stop stop-color="white"/>
<stop offset="0.463542" stop-color="#72DDFF"/>
<stop offset="0.733683" stop-color="#50C0FF"/>
<stop offset="1" stop-color="#0E67BA"/>
</radialGradient>
<linearGradient id="paint25_linear_11_2402" x1="654.672" y1="1426.5" x2="841.856" y2="1321.55" gradientUnits="userSpaceOnUse">
<stop stop-color="#30CDFF" stop-opacity="0.76"/>
<stop offset="1" stop-color="#00A3FF" stop-opacity="0"/>
</linearGradient>
</defs>
</svg>
