<svg width="1920" height="1920" viewBox="0 0 1920 1920" fill="none" xmlns="http://www.w3.org/2000/svg">
<rect width="1920" height="1920" />
<path opacity="0.25" d="M959.901 1763.22L1770.8 1293.08L959.901 822.943L149 1293.08L959.901 1763.22Z" fill="url(#paint0_linear_11_2454)"/>
<g clip-path="url(#clip0_11_2454)">
<path d="M437.936 948.747C455.987 1252.83 698.727 1407.58 980.089 1294.3C1261.45 1181.01 1475.02 842.721 1456.97 538.638C1438.92 234.555 1196.24 79.8061 914.82 193.089C633.4 306.371 419.886 644.606 437.936 948.747Z" fill="url(#paint1_radial_11_2454)"/>
<path d="M511.113 919.26C526.586 1179.69 734.599 1312.21 975.276 1215.28C1215.95 1118.35 1399.33 828.553 1383.68 568.124C1368.04 307.695 1160.2 175.235 919.519 272.161C678.842 369.088 495.699 658.889 511.113 919.26Z" fill="url(#paint2_radial_11_2454)"/>
<path d="M881.125 1088.98L840.439 1065.2C748.753 1011.81 724.456 884.475 726.806 683.941L767.491 707.727C765.142 908.376 789.725 1035.77 881.125 1088.98Z" fill="url(#paint3_linear_11_2454)"/>
<path d="M767.491 707.899L726.806 684.114C901.067 627.444 1043.35 547.622 1146.84 440.387L1187.53 464.172C1078.14 577.57 935.278 655.837 767.491 707.899Z" fill="url(#paint4_linear_11_2454)"/>
<path d="M1187.53 464.172C1192 718.726 1151.03 903.71 979.001 1116.91C806.286 1103.73 764.454 966.773 767.492 708.014C939.251 650.807 1079.26 569.526 1187.53 464.172Z" fill="url(#paint5_radial_11_2454)"/>
<path d="M1138.48 560.638C1135.56 773.323 1090.92 900.428 978.771 1049.53C941.18 1043.37 911.038 1029.49 887.543 1005.82C840.439 959.056 819.466 873.82 816.773 735.14C945.535 693.674 1048.57 639.768 1127.48 570.659C1131.2 567.261 1135.04 564.036 1138.48 560.638Z" fill="#021421"/>
<path d="M1127.48 570.658C1122.09 771.768 1076.88 895.82 968.17 1040.2C938.759 1036.23 910.93 1024.47 887.543 1006.11C840.439 959.343 819.466 874.108 816.773 735.428C945.535 693.674 1048.57 639.768 1127.48 570.658Z" fill="url(#paint6_linear_11_2454)"/>
<path d="M1383.11 766.47C1392.73 776.111 1404.99 782.669 1418.32 785.316C1431.65 787.964 1445.47 786.581 1458.02 781.343C1470.57 776.105 1481.3 767.247 1488.84 755.888C1496.39 744.528 1500.41 731.175 1500.41 717.517C1500.41 703.859 1496.39 690.506 1488.84 679.147C1481.3 667.787 1470.57 658.929 1458.02 653.691C1445.47 648.453 1431.65 647.071 1418.32 649.718C1404.99 652.365 1392.73 658.923 1383.11 668.564C1376.7 674.985 1371.61 682.614 1368.14 691.014C1364.67 699.415 1362.88 708.421 1362.88 717.517C1362.88 726.613 1364.67 735.619 1368.14 744.02C1371.61 752.42 1376.7 760.049 1383.11 766.47V766.47Z" fill="url(#paint7_radial_11_2454)"/>
<path d="M1383.11 766.47C1392.73 776.111 1404.99 782.669 1418.32 785.316C1431.65 787.964 1445.47 786.581 1458.02 781.343C1470.57 776.105 1481.3 767.247 1488.84 755.888C1496.39 744.528 1500.41 731.175 1500.41 717.517C1500.41 703.859 1496.39 690.506 1488.84 679.147C1481.3 667.787 1470.57 658.929 1458.02 653.691C1445.47 648.453 1431.65 647.071 1418.32 649.718C1404.99 652.365 1392.73 658.923 1383.11 668.564C1376.7 674.985 1371.61 682.614 1368.14 691.014C1364.67 699.415 1362.88 708.421 1362.88 717.517C1362.88 726.613 1364.67 735.619 1368.14 744.02C1371.61 752.42 1376.7 760.049 1383.11 766.47V766.47Z" fill="url(#paint8_radial_11_2454)"/>
<path d="M366.363 1198.41C371.234 1281.05 437.191 1323.09 513.692 1292.34C590.193 1261.58 647.955 1169.61 643.256 1086.97C638.557 1004.32 572.371 962.281 495.928 993.035C419.484 1023.79 361.435 1115.76 366.363 1198.41Z" fill="#021425"/>
<path d="M366.363 1198.41C371.234 1281.05 437.191 1323.09 513.692 1292.34C590.193 1261.58 647.955 1169.61 643.256 1086.97C638.557 1004.32 572.371 962.281 495.928 993.035C419.484 1023.79 361.435 1115.76 366.363 1198.41Z" fill="url(#paint9_radial_11_2454)"/>
<path d="M366.363 1198.41C371.234 1281.05 437.191 1323.09 513.692 1292.34C590.193 1261.58 647.955 1169.61 643.256 1086.97C638.557 1004.32 572.371 962.281 495.928 993.035C419.484 1023.79 361.435 1115.76 366.363 1198.41Z" fill="url(#paint10_radial_11_2454)"/>
<path d="M366.363 1198.41C371.234 1281.05 437.191 1323.09 513.692 1292.34C590.193 1261.58 647.955 1169.61 643.256 1086.97C638.557 1004.32 572.371 962.281 495.928 993.035C419.484 1023.79 361.435 1115.76 366.363 1198.41Z" fill="url(#paint11_radial_11_2454)" fill-opacity="0.5"/>
<g opacity="0.75">
<path opacity="0.75" d="M395.359 1168.46C398.855 1227.2 445.729 1257.09 500.111 1235.21C554.492 1213.32 595.694 1147.96 592.256 1088.98C588.818 1030.01 541.828 1000.58 487.504 1022.46C433.18 1044.35 391.864 1109.72 395.359 1168.46Z" fill="url(#paint12_radial_11_2454)"/>
<path opacity="0.75" d="M395.359 1168.46C398.855 1227.2 445.729 1257.09 500.111 1235.21C554.492 1213.32 595.694 1147.96 592.256 1088.98C588.818 1030.01 541.828 1000.58 487.504 1022.46C433.18 1044.35 391.864 1109.72 395.359 1168.46Z" fill="url(#paint13_radial_11_2454)"/>
</g>
<path d="M366.765 1198.41C369.229 1240.04 387.165 1271.37 414.155 1288.25L386.248 1270.45C359.258 1253.69 341.264 1222.36 338.8 1180.73C333.93 1098.14 391.921 1006.22 468.365 975.469C506.93 959.977 542.86 962.914 569.506 980.307L597.413 998.103C570.71 980.825 534.837 977.773 496.329 993.265C419.886 1024.02 361.837 1115.93 366.765 1198.41Z" fill="#011321"/>
<path d="M366.765 1198.41C369.229 1240.04 387.165 1271.37 414.155 1288.25L386.248 1270.45C359.258 1253.69 341.264 1222.36 338.8 1180.73C333.93 1098.14 391.921 1006.22 468.365 975.469C506.93 959.977 542.86 962.914 569.506 980.307L597.413 998.103C570.71 980.825 534.837 977.773 496.329 993.265C419.886 1024.02 361.837 1115.93 366.765 1198.41Z" fill="url(#paint14_linear_11_2454)"/>
<path d="M366.363 1198.41C371.234 1281.05 437.191 1323.09 513.692 1292.34C590.193 1261.58 647.955 1169.61 643.256 1086.97C638.557 1004.32 572.371 962.281 495.928 993.035C419.484 1023.79 361.435 1115.76 366.363 1198.41Z" fill="#021425"/>
<path d="M366.363 1198.41C371.234 1281.05 437.191 1323.09 513.692 1292.34C590.193 1261.58 647.955 1169.61 643.256 1086.97C638.557 1004.32 572.371 962.281 495.928 993.035C419.484 1023.79 361.435 1115.76 366.363 1198.41Z" fill="url(#paint15_radial_11_2454)"/>
<path d="M366.363 1198.41C371.234 1281.05 437.191 1323.09 513.692 1292.34C590.193 1261.58 647.955 1169.61 643.256 1086.97C638.557 1004.32 572.371 962.281 495.928 993.035C419.484 1023.79 361.435 1115.76 366.363 1198.41Z" fill="url(#paint16_radial_11_2454)"/>
<path d="M366.363 1198.41C371.234 1281.05 437.191 1323.09 513.692 1292.34C590.193 1261.58 647.955 1169.61 643.256 1086.97C638.557 1004.32 572.371 962.281 495.928 993.035C419.484 1023.79 361.435 1115.76 366.363 1198.41Z" fill="url(#paint17_radial_11_2454)" fill-opacity="0.5"/>
<g opacity="0.75">
<path opacity="0.75" d="M395.359 1168.46C398.855 1227.2 445.729 1257.09 500.111 1235.21C554.492 1213.32 595.694 1147.96 592.256 1088.98C588.818 1030.01 541.828 1000.58 487.504 1022.46C433.18 1044.35 391.864 1109.72 395.359 1168.46Z" fill="url(#paint18_radial_11_2454)"/>
<path opacity="0.75" d="M395.359 1168.46C398.855 1227.2 445.729 1257.09 500.111 1235.21C554.492 1213.32 595.694 1147.96 592.256 1088.98C588.818 1030.01 541.828 1000.58 487.504 1022.46C433.18 1044.35 391.864 1109.72 395.359 1168.46Z" fill="url(#paint19_radial_11_2454)"/>
</g>
<path d="M366.765 1198.41C369.229 1240.04 387.165 1271.37 414.155 1288.25L386.248 1270.45C359.258 1253.69 341.264 1222.36 338.8 1180.73C333.93 1098.14 391.921 1006.22 468.365 975.469C506.93 959.977 542.86 962.914 569.506 980.307L597.413 998.103C570.71 980.825 534.837 977.773 496.329 993.265C419.886 1024.02 361.837 1115.93 366.765 1198.41Z" fill="#011321"/>
<path d="M366.765 1198.41C369.229 1240.04 387.165 1271.37 414.155 1288.25L386.248 1270.45C359.258 1253.69 341.264 1222.36 338.8 1180.73C333.93 1098.14 391.921 1006.22 468.365 975.469C506.93 959.977 542.86 962.914 569.506 980.307L597.413 998.103C570.71 980.825 534.837 977.773 496.329 993.265C419.886 1024.02 361.837 1115.93 366.765 1198.41Z" fill="url(#paint20_linear_11_2454)"/>
<path d="M1307.81 1063.93C1312.68 1146.57 1378.64 1188.62 1455.08 1158.09C1531.53 1127.57 1589.57 1035.36 1584.65 952.778C1579.72 870.192 1513.82 827.862 1437.38 858.616C1360.93 889.37 1302.88 981.286 1307.81 1063.93Z" fill="#021425"/>
<path d="M1307.81 1063.93C1312.68 1146.57 1378.64 1188.62 1455.08 1158.09C1531.53 1127.57 1589.57 1035.36 1584.65 952.778C1579.72 870.192 1513.82 827.862 1437.38 858.616C1360.93 889.37 1302.88 981.286 1307.81 1063.93Z" fill="url(#paint21_radial_11_2454)"/>
<path d="M1307.81 1063.93C1312.68 1146.57 1378.64 1188.62 1455.08 1158.09C1531.53 1127.57 1589.57 1035.36 1584.65 952.778C1579.72 870.192 1513.82 827.862 1437.38 858.616C1360.93 889.37 1302.88 981.286 1307.81 1063.93Z" fill="url(#paint22_radial_11_2454)"/>
<path d="M1307.81 1063.93C1312.68 1146.57 1378.64 1188.62 1455.08 1158.09C1531.53 1127.57 1589.57 1035.36 1584.65 952.778C1579.72 870.192 1513.82 827.862 1437.38 858.616C1360.93 889.37 1302.88 981.286 1307.81 1063.93Z" fill="url(#paint23_radial_11_2454)" fill-opacity="0.5"/>
<g opacity="0.75">
<path opacity="0.75" d="M1336.81 1034.04C1340.25 1092.78 1387.18 1122.67 1441.5 1100.79C1495.83 1078.9 1537.14 1013.54 1533.65 954.794C1530.15 896.05 1483.28 866.16 1428.89 888.045C1374.51 909.93 1333.31 975.296 1336.81 1034.04Z" fill="url(#paint24_radial_11_2454)"/>
<path opacity="0.75" d="M1336.81 1034.04C1340.25 1092.78 1387.18 1122.67 1441.5 1100.79C1495.83 1078.9 1537.14 1013.54 1533.65 954.794C1530.15 896.05 1483.28 866.16 1428.89 888.045C1374.51 909.93 1333.31 975.296 1336.81 1034.04Z" fill="url(#paint25_radial_11_2454)"/>
</g>
<path d="M1308.15 1064.16C1310.62 1105.74 1328.61 1137.07 1355.6 1154L1327.64 1136.21C1300.65 1119.28 1282.71 1087.95 1280.25 1046.31C1275.32 963.721 1333.37 871.805 1409.81 841.051C1448.32 825.501 1484.31 828.496 1510.9 845.831L1538.86 863.684C1512.1 846.407 1476.28 843.354 1437.72 858.846C1361.28 889.6 1303.28 981.516 1308.15 1064.16Z" fill="#011321"/>
<path d="M1308.15 1064.16C1310.62 1105.74 1328.61 1137.07 1355.6 1154L1327.64 1136.21C1300.65 1119.28 1282.71 1087.95 1280.25 1046.31C1275.32 963.721 1333.37 871.805 1409.81 841.051C1448.32 825.501 1484.31 828.496 1510.9 845.831L1538.86 863.684C1512.1 846.407 1476.28 843.354 1437.72 858.846C1361.28 889.6 1303.28 981.516 1308.15 1064.16Z" fill="url(#paint26_linear_11_2454)"/>
<path d="M1307.81 1063.93C1312.68 1146.57 1378.64 1188.62 1455.08 1158.09C1531.53 1127.57 1589.57 1035.36 1584.65 952.778C1579.72 870.192 1513.82 827.862 1437.38 858.616C1360.93 889.37 1302.88 981.286 1307.81 1063.93Z" fill="#021425"/>
<path d="M1307.81 1063.93C1312.68 1146.57 1378.64 1188.62 1455.08 1158.09C1531.53 1127.57 1589.57 1035.36 1584.65 952.778C1579.72 870.192 1513.82 827.862 1437.38 858.616C1360.93 889.37 1302.88 981.286 1307.81 1063.93Z" fill="url(#paint27_radial_11_2454)"/>
<path d="M1307.81 1063.93C1312.68 1146.57 1378.64 1188.62 1455.08 1158.09C1531.53 1127.57 1589.57 1035.36 1584.65 952.778C1579.72 870.192 1513.82 827.862 1437.38 858.616C1360.93 889.37 1302.88 981.286 1307.81 1063.93Z" fill="url(#paint28_radial_11_2454)"/>
<path d="M1307.81 1063.93C1312.68 1146.57 1378.64 1188.62 1455.08 1158.09C1531.53 1127.57 1589.57 1035.36 1584.65 952.778C1579.72 870.192 1513.82 827.862 1437.38 858.616C1360.93 889.37 1302.88 981.286 1307.81 1063.93Z" fill="url(#paint29_radial_11_2454)" fill-opacity="0.5"/>
<g opacity="0.75">
<path opacity="0.75" d="M1336.81 1034.04C1340.25 1092.78 1387.18 1122.67 1441.5 1100.79C1495.83 1078.9 1537.14 1013.54 1533.65 954.794C1530.15 896.05 1483.28 866.16 1428.89 888.045C1374.51 909.93 1333.31 975.296 1336.81 1034.04Z" fill="url(#paint30_radial_11_2454)"/>
<path opacity="0.75" d="M1336.81 1034.04C1340.25 1092.78 1387.18 1122.67 1441.5 1100.79C1495.83 1078.9 1537.14 1013.54 1533.65 954.794C1530.15 896.05 1483.28 866.16 1428.89 888.045C1374.51 909.93 1333.31 975.296 1336.81 1034.04Z" fill="url(#paint31_radial_11_2454)"/>
</g>
<path d="M1308.15 1064.16C1310.62 1105.74 1328.61 1137.07 1355.6 1154L1327.64 1136.21C1300.65 1119.28 1282.71 1087.95 1280.25 1046.31C1275.32 963.721 1333.37 871.805 1409.81 841.051C1448.32 825.501 1484.31 828.496 1510.9 845.831L1538.86 863.684C1512.1 846.407 1476.28 843.354 1437.72 858.846C1361.28 889.6 1303.28 981.516 1308.15 1064.16Z" fill="#011321"/>
<path d="M1308.15 1064.16C1310.62 1105.74 1328.61 1137.07 1355.6 1154L1327.64 1136.21C1300.65 1119.28 1282.71 1087.95 1280.25 1046.31C1275.32 963.721 1333.37 871.805 1409.81 841.051C1448.32 825.501 1484.31 828.496 1510.9 845.831L1538.86 863.684C1512.1 846.407 1476.28 843.354 1437.72 858.846C1361.28 889.6 1303.28 981.516 1308.15 1064.16Z" fill="url(#paint32_linear_11_2454)"/>
<path d="M395.818 779.889L765.887 565.245C782.333 555.685 795.685 530.114 795.685 508.057V407.329C795.685 385.272 782.333 375.193 765.887 384.696L395.818 599.455C379.372 608.957 366.077 634.585 366.077 656.585V757.371C366.192 779.313 379.486 789.507 395.818 779.889Z" fill="url(#paint33_linear_11_2454)"/>
<path d="M408.081 673.344L409.513 674.208L750.186 475.402V439.062L748.753 438.198L408.081 637.004V673.344Z" fill="#7ACFFF"/>
<path d="M647.382 558.853V596.748L750.186 536.795V500.397L748.81 499.648L647.382 558.853Z" fill="#7ACFFF"/>
<path d="M918.889 1381.43L1204.09 1215.97C1216.75 1208.6 1227.01 1188.85 1227.01 1171.86V1094.22C1227.01 1077.23 1216.75 1069.4 1204.09 1076.95L918.889 1242.41C906.167 1249.78 895.967 1269.53 895.967 1286.52V1364.15C895.91 1380.97 906.167 1388.8 918.889 1381.43Z" fill="url(#paint34_linear_11_2454)"/>
<path d="M928.229 1299.31L929.318 1299.94L1191.94 1146.57V1118.53L1190.85 1117.89L928.229 1271.14V1299.31Z" fill="#7ACFFF"/>
<path d="M1112.69 1211.02V1240.22L1191.94 1194.03V1165.98L1190.91 1165.35L1112.69 1211.02Z" fill="#7ACFFF"/>
</g>
<defs>
<linearGradient id="paint0_linear_11_2454" x1="149" y1="1293.08" x2="1770.8" y2="1293.08" gradientUnits="userSpaceOnUse">
<stop stop-color="#50C0FF" stop-opacity="0.5"/>
<stop offset="1" stop-color="#000B1B" stop-opacity="0.57"/>
</linearGradient>
<radialGradient id="paint1_radial_11_2454" cx="0" cy="0" r="1" gradientUnits="userSpaceOnUse" gradientTransform="translate(974.785 801.601) rotate(88.6871) scale(583.03 657.597)">
<stop stop-color="#2A6AAC" stop-opacity="0"/>
<stop offset="0.75" stop-color="#4441CB" stop-opacity="0"/>
<stop offset="1" stop-color="#2A6AAC"/>
</radialGradient>
<radialGradient id="paint2_radial_11_2454" cx="0" cy="0" r="1" gradientUnits="userSpaceOnUse" gradientTransform="translate(979.685 797.77) rotate(88.6871) scale(585.381 552.631)">
<stop stop-color="#2A6AAC" stop-opacity="0"/>
<stop offset="0.75" stop-color="#4441CB" stop-opacity="0"/>
<stop offset="1" stop-color="#2A6AAC"/>
</radialGradient>
<linearGradient id="paint3_linear_11_2454" x1="692.767" y1="914.826" x2="817.019" y2="883.618" gradientUnits="userSpaceOnUse">
<stop stop-color="#50C0FF"/>
<stop offset="0.27" stop-color="#50C0FF"/>
<stop offset="1" stop-color="#07324C"/>
</linearGradient>
<linearGradient id="paint4_linear_11_2454" x1="962.841" y1="380.549" x2="955.49" y2="629.515" gradientUnits="userSpaceOnUse">
<stop stop-color="#50C0FF"/>
<stop offset="0.27" stop-color="#50C0FF"/>
<stop offset="1" stop-color="#07324C"/>
</linearGradient>
<radialGradient id="paint5_radial_11_2454" cx="0" cy="0" r="1" gradientUnits="userSpaceOnUse" gradientTransform="translate(589.735 505.811) rotate(180) scale(655.443 658.732)">
<stop stop-color="#2A6AAC" stop-opacity="0"/>
<stop offset="0.75" stop-color="#4441CB" stop-opacity="0"/>
<stop offset="1" stop-color="#2A6AAC"/>
</radialGradient>
<linearGradient id="paint6_linear_11_2454" x1="1093.09" y1="1015.61" x2="963.165" y2="699.889" gradientUnits="userSpaceOnUse">
<stop stop-color="#50C0FF"/>
<stop offset="0.27" stop-color="#50C0FF"/>
<stop offset="1" stop-color="#07324C"/>
</linearGradient>
<radialGradient id="paint7_radial_11_2454" cx="0" cy="0" r="1" gradientUnits="userSpaceOnUse" gradientTransform="translate(1382.98 649.122) rotate(45.1434) scale(114.248 114.247)">
<stop stop-color="white" stop-opacity="0"/>
<stop offset="0.67" stop-color="#3E9DFF" stop-opacity="0"/>
<stop offset="1" stop-color="#3E9DFF" stop-opacity="0.43"/>
</radialGradient>
<radialGradient id="paint8_radial_11_2454" cx="0" cy="0" r="1" gradientUnits="userSpaceOnUse" gradientTransform="translate(1484.73 712.671) rotate(-149.886) scale(125.683 125.997)">
<stop stop-color="white"/>
<stop offset="0.46" stop-color="#72DDFF"/>
<stop offset="0.73" stop-color="#50C0FF"/>
<stop offset="1" stop-color="#0E67BA"/>
</radialGradient>
<radialGradient id="paint9_radial_11_2454" cx="0" cy="0" r="1" gradientUnits="userSpaceOnUse" gradientTransform="translate(494.069 958.784) rotate(86.6064) scale(256.149 241.828)">
<stop stop-color="#133A74"/>
<stop offset="1" stop-color="#134974" stop-opacity="0"/>
</radialGradient>
<radialGradient id="paint10_radial_11_2454" cx="0" cy="0" r="1" gradientUnits="userSpaceOnUse" gradientTransform="translate(537.725 1155.13) rotate(86.6104) scale(164.337 155.153)">
<stop stop-color="#2A6AAC" stop-opacity="0"/>
<stop offset="0.75" stop-color="#4441CB" stop-opacity="0"/>
<stop offset="1" stop-color="#2A6AAC"/>
</radialGradient>
<radialGradient id="paint11_radial_11_2454" cx="0" cy="0" r="1" gradientUnits="userSpaceOnUse" gradientTransform="translate(485.916 1113.05) rotate(86.6038) scale(156.705 147.929)">
<stop stop-color="white" stop-opacity="0"/>
<stop offset="0.93" stop-color="#3E9DFF" stop-opacity="0"/>
<stop offset="1" stop-color="#3E9DFF"/>
</radialGradient>
<radialGradient id="paint12_radial_11_2454" cx="0" cy="0" r="1" gradientUnits="userSpaceOnUse" gradientTransform="translate(494.44 1024.19) rotate(85.5474) scale(220.819 208.495)">
<stop stop-color="#1D88D5"/>
<stop offset="1" stop-color="#133A74" stop-opacity="0.41"/>
</radialGradient>
<radialGradient id="paint13_radial_11_2454" cx="0" cy="0" r="1" gradientUnits="userSpaceOnUse" gradientTransform="translate(523.562 1155.81) rotate(88.6871) scale(126.95 119.848)">
<stop stop-color="#2A6AAC" stop-opacity="0"/>
<stop offset="0.75" stop-color="#4441CB" stop-opacity="0"/>
<stop offset="1" stop-color="#2A6AAC"/>
</radialGradient>
<linearGradient id="paint14_linear_11_2454" x1="345.39" y1="1244.65" x2="544.27" y2="954.165" gradientUnits="userSpaceOnUse">
<stop stop-color="#50C0FF"/>
<stop offset="0.81" stop-color="#4982EE" stop-opacity="0"/>
<stop offset="0.86" stop-color="#4877EB" stop-opacity="0.28"/>
<stop offset="1" stop-color="#455FE4" stop-opacity="0.25"/>
</linearGradient>
<radialGradient id="paint15_radial_11_2454" cx="0" cy="0" r="1" gradientUnits="userSpaceOnUse" gradientTransform="translate(494.069 958.784) rotate(86.6064) scale(256.149 241.828)">
<stop stop-color="#133A74"/>
<stop offset="1" stop-color="#134974" stop-opacity="0"/>
</radialGradient>
<radialGradient id="paint16_radial_11_2454" cx="0" cy="0" r="1" gradientUnits="userSpaceOnUse" gradientTransform="translate(537.725 1155.13) rotate(86.6104) scale(164.337 155.153)">
<stop stop-color="#2A6AAC" stop-opacity="0"/>
<stop offset="0.75" stop-color="#4441CB" stop-opacity="0"/>
<stop offset="1" stop-color="#2A6AAC"/>
</radialGradient>
<radialGradient id="paint17_radial_11_2454" cx="0" cy="0" r="1" gradientUnits="userSpaceOnUse" gradientTransform="translate(485.916 1113.05) rotate(86.6038) scale(156.705 147.929)">
<stop stop-color="white" stop-opacity="0"/>
<stop offset="0.93" stop-color="#3E9DFF" stop-opacity="0"/>
<stop offset="1" stop-color="#3E9DFF"/>
</radialGradient>
<radialGradient id="paint18_radial_11_2454" cx="0" cy="0" r="1" gradientUnits="userSpaceOnUse" gradientTransform="translate(494.44 1024.19) rotate(85.5474) scale(220.819 208.495)">
<stop stop-color="#1D88D5"/>
<stop offset="1" stop-color="#133A74" stop-opacity="0.41"/>
</radialGradient>
<radialGradient id="paint19_radial_11_2454" cx="0" cy="0" r="1" gradientUnits="userSpaceOnUse" gradientTransform="translate(523.562 1155.81) rotate(88.6871) scale(126.95 119.848)">
<stop stop-color="#2A6AAC" stop-opacity="0"/>
<stop offset="0.75" stop-color="#4441CB" stop-opacity="0"/>
<stop offset="1" stop-color="#2A6AAC"/>
</radialGradient>
<linearGradient id="paint20_linear_11_2454" x1="307.913" y1="1325.22" x2="603.359" y2="835.502" gradientUnits="userSpaceOnUse">
<stop stop-color="#50C0FF"/>
<stop offset="0.81" stop-color="#4982EE" stop-opacity="0"/>
<stop offset="0.86" stop-color="#4877EB" stop-opacity="0.28"/>
<stop offset="1" stop-color="#455FE4" stop-opacity="0.25"/>
</linearGradient>
<radialGradient id="paint21_radial_11_2454" cx="0" cy="0" r="1" gradientUnits="userSpaceOnUse" gradientTransform="translate(1432.81 826.515) rotate(86.6064) scale(256.149 241.828)">
<stop stop-color="#133A74"/>
<stop offset="1" stop-color="#134974" stop-opacity="0"/>
</radialGradient>
<radialGradient id="paint22_radial_11_2454" cx="0" cy="0" r="1" gradientUnits="userSpaceOnUse" gradientTransform="translate(1479.51 1019.51) rotate(86.6104) scale(164.337 155.153)">
<stop stop-color="#2A6AAC" stop-opacity="0"/>
<stop offset="0.75" stop-color="#4441CB" stop-opacity="0"/>
<stop offset="1" stop-color="#2A6AAC"/>
</radialGradient>
<radialGradient id="paint23_radial_11_2454" cx="0" cy="0" r="1" gradientUnits="userSpaceOnUse" gradientTransform="translate(1427.43 978.239) rotate(86.6038) scale(156.705 147.929)">
<stop stop-color="white" stop-opacity="0"/>
<stop offset="0.93" stop-color="#3E9DFF" stop-opacity="0"/>
<stop offset="1" stop-color="#3E9DFF"/>
</radialGradient>
<radialGradient id="paint24_radial_11_2454" cx="0" cy="0" r="1" gradientUnits="userSpaceOnUse" gradientTransform="translate(1436.56 888.516) rotate(85.5474) scale(220.819 208.494)">
<stop stop-color="#1D88D5"/>
<stop offset="1" stop-color="#133A74" stop-opacity="0.41"/>
</radialGradient>
<radialGradient id="paint25_radial_11_2454" cx="0" cy="0" r="1" gradientUnits="userSpaceOnUse" gradientTransform="translate(1464.03 1023.56) rotate(88.6871) scale(126.95 119.848)">
<stop stop-color="#2A6AAC" stop-opacity="0"/>
<stop offset="0.75" stop-color="#4441CB" stop-opacity="0"/>
<stop offset="1" stop-color="#2A6AAC"/>
</radialGradient>
<linearGradient id="paint26_linear_11_2454" x1="1286.78" y1="1110.23" x2="1485.72" y2="819.747" gradientUnits="userSpaceOnUse">
<stop stop-color="#50C0FF"/>
<stop offset="0.81" stop-color="#4982EE" stop-opacity="0"/>
<stop offset="0.86" stop-color="#4877EB" stop-opacity="0.28"/>
<stop offset="1" stop-color="#455FE4" stop-opacity="0.25"/>
</linearGradient>
<radialGradient id="paint27_radial_11_2454" cx="0" cy="0" r="1" gradientUnits="userSpaceOnUse" gradientTransform="translate(1432.81 826.515) rotate(86.6064) scale(256.149 241.828)">
<stop stop-color="#133A74"/>
<stop offset="1" stop-color="#134974" stop-opacity="0"/>
</radialGradient>
<radialGradient id="paint28_radial_11_2454" cx="0" cy="0" r="1" gradientUnits="userSpaceOnUse" gradientTransform="translate(1479.51 1019.51) rotate(86.6104) scale(164.337 155.153)">
<stop stop-color="#2A6AAC" stop-opacity="0"/>
<stop offset="0.75" stop-color="#4441CB" stop-opacity="0"/>
<stop offset="1" stop-color="#2A6AAC"/>
</radialGradient>
<radialGradient id="paint29_radial_11_2454" cx="0" cy="0" r="1" gradientUnits="userSpaceOnUse" gradientTransform="translate(1427.43 978.239) rotate(86.6038) scale(156.705 147.929)">
<stop stop-color="white" stop-opacity="0"/>
<stop offset="0.93" stop-color="#3E9DFF" stop-opacity="0"/>
<stop offset="1" stop-color="#3E9DFF"/>
</radialGradient>
<radialGradient id="paint30_radial_11_2454" cx="0" cy="0" r="1" gradientUnits="userSpaceOnUse" gradientTransform="translate(1436.56 888.516) rotate(85.5474) scale(220.819 208.494)">
<stop stop-color="#1D88D5"/>
<stop offset="1" stop-color="#133A74" stop-opacity="0.41"/>
</radialGradient>
<radialGradient id="paint31_radial_11_2454" cx="0" cy="0" r="1" gradientUnits="userSpaceOnUse" gradientTransform="translate(1464.03 1023.56) rotate(88.6871) scale(126.95 119.848)">
<stop stop-color="#2A6AAC" stop-opacity="0"/>
<stop offset="0.75" stop-color="#4441CB" stop-opacity="0"/>
<stop offset="1" stop-color="#2A6AAC"/>
</radialGradient>
<linearGradient id="paint32_linear_11_2454" x1="1286.78" y1="1110.23" x2="1485.72" y2="819.747" gradientUnits="userSpaceOnUse">
<stop stop-color="#50C0FF"/>
<stop offset="0.81" stop-color="#4982EE" stop-opacity="0"/>
<stop offset="0.86" stop-color="#4877EB" stop-opacity="0.28"/>
<stop offset="1" stop-color="#455FE4" stop-opacity="0.25"/>
</linearGradient>
<linearGradient id="paint33_linear_11_2454" x1="793.966" y1="271.759" x2="286.667" y2="1003.85" gradientUnits="userSpaceOnUse">
<stop stop-color="#50C0FF"/>
<stop offset="0.81" stop-color="#4982EE" stop-opacity="0"/>
<stop offset="0.86" stop-color="#4877EB" stop-opacity="0.28"/>
<stop offset="1" stop-color="#455FE4" stop-opacity="0.25"/>
</linearGradient>
<linearGradient id="paint34_linear_11_2454" x1="1225.69" y1="989.695" x2="834.648" y2="1554.11" gradientUnits="userSpaceOnUse">
<stop stop-color="#50C0FF"/>
<stop offset="0.81" stop-color="#4982EE" stop-opacity="0"/>
<stop offset="0.86" stop-color="#4877EB" stop-opacity="0.28"/>
<stop offset="1" stop-color="#455FE4" stop-opacity="0.25"/>
</linearGradient>
<clipPath id="clip0_11_2454">
<rect width="1246.42" height="1228.2" fill="white" transform="translate(338.514 156)"/>
</clipPath>
</defs>
</svg>
