<svg width="1920" height="1920" viewBox="0 0 1920 1920" fill="none" xmlns="http://www.w3.org/2000/svg">
<rect width="1920" height="1920" />
<path opacity="0.25" d="M960.5 1791.98L1823 1297.74L960.5 803.494L98 1297.74L960.5 1791.98Z" fill="url(#paint0_linear_11_607)"/>
<g filter="url(#filter0_f_11_607)">
<path opacity="0.25" d="M915.925 1453.8L917.434 1454.67L1278.15 1247.26V322.664L1276.64 321.796L915.925 529.205V1453.8Z" fill="url(#paint1_linear_11_607)"/>
<path opacity="0.25" d="M1097.04 1453.8L1098.55 1454.67L1459.26 1247.26V322.664L1457.75 321.796L1097.04 529.205V1453.8Z" fill="url(#paint2_linear_11_607)"/>
</g>
<g clip-path="url(#clip0_11_607)">
<path d="M829.292 729.905C780.112 779.135 717.452 812.662 649.236 826.245C581.021 839.828 510.313 832.858 446.055 806.216C381.796 779.574 326.874 734.457 288.232 676.57C249.591 618.683 228.966 550.625 228.966 481.005C228.966 411.384 249.591 343.327 288.232 285.44C326.874 227.553 381.796 182.436 446.055 155.794C510.313 129.152 581.021 122.181 649.236 135.765C717.452 149.348 780.112 182.874 829.292 232.105C895.225 298.125 932.264 387.654 932.264 481.005C932.264 574.356 895.225 663.885 829.292 729.905V729.905Z" fill="url(#paint3_radial_11_607)"/>
<path d="M699.599 600.086C676.075 623.663 646.092 639.727 613.444 646.243C580.797 652.76 546.952 649.437 516.191 636.694C485.431 623.952 459.138 602.363 440.639 574.659C422.139 546.955 412.265 514.381 412.265 481.058C412.265 447.735 422.139 415.161 440.639 387.457C459.138 359.753 485.431 338.164 516.191 325.421C546.952 312.679 580.797 309.356 613.444 315.872C646.092 322.389 676.075 338.452 699.599 362.03C731.123 393.605 748.832 436.418 748.832 481.058C748.832 525.698 731.123 568.51 699.599 600.086Z" fill="url(#paint4_radial_11_607)"/>
<path d="M1571 1130.58C1572.21 906.642 1259.07 723.4 871.573 721.301C484.079 719.202 168.973 899.042 167.762 1122.98C166.552 1346.92 479.696 1530.17 867.189 1532.27C1254.68 1534.36 1569.79 1354.52 1571 1130.58Z" fill="url(#paint5_radial_11_607)"/>
<path d="M896.728 1312.29C722.695 1311.98 581.164 1230.19 580.635 1129.63C580.107 1029.06 720.686 947.753 894.72 948.07C1068.75 948.387 1210.28 1030.17 1210.81 1130.74C1211.34 1231.3 1070.71 1312.61 896.728 1312.29Z" fill="url(#paint6_radial_11_607)"/>
<path d="M556.747 880.198C571.809 1133.44 774.751 1262.25 1010.04 1167.98C1245.32 1073.71 1423.8 791.958 1408.73 538.72C1393.67 285.482 1190.73 156.773 955.232 251.043C719.735 345.313 541.685 627.065 556.747 880.198Z" fill="#021425"/>
<path d="M556.747 880.198C571.809 1133.44 774.751 1262.25 1010.04 1167.98C1245.32 1073.71 1423.8 791.958 1408.73 538.72C1393.67 285.482 1190.73 156.773 955.232 251.043C719.735 345.313 541.685 627.065 556.747 880.198Z" fill="url(#paint7_radial_11_607)"/>
<path d="M556.747 880.198C571.809 1133.44 774.751 1262.25 1010.04 1167.98C1245.32 1073.71 1423.8 791.958 1408.73 538.72C1393.67 285.482 1190.73 156.773 955.232 251.043C719.735 345.313 541.685 627.065 556.747 880.198Z" fill="url(#paint8_radial_11_607)"/>
<path d="M556.747 880.198C571.809 1133.44 774.751 1262.25 1010.04 1167.98C1245.32 1073.71 1423.8 791.958 1408.73 538.72C1393.67 285.482 1190.73 156.773 955.232 251.043C719.735 345.313 541.685 627.065 556.747 880.198Z" fill="url(#paint9_radial_11_607)" fill-opacity="0.5"/>
<g opacity="0.75">
<path opacity="0.75" d="M646.01 788.626C656.58 968.49 801.017 1060.27 968.391 993.248C1135.77 926.222 1262.6 725.885 1251.88 545.809C1241.15 365.733 1096.87 274.161 929.494 341.187C762.12 408.213 635.281 608.55 646.01 788.626Z" fill="url(#paint10_radial_11_607)"/>
<path opacity="0.75" d="M646.01 788.626C656.58 968.49 801.017 1060.27 968.391 993.248C1135.77 926.222 1262.6 725.885 1251.88 545.809C1241.15 365.733 1096.87 274.161 929.494 341.187C762.12 408.213 635.281 608.55 646.01 788.626Z" fill="url(#paint11_radial_11_607)"/>
</g>
<path d="M557.91 880.886C565.467 1008.48 620.801 1104.5 703.88 1156.34L617.894 1101.75C534.815 1049.91 479.534 953.889 471.924 826.291C456.862 573.053 635.387 291.354 870.673 197.084C989.214 149.473 1099.56 158.783 1181.8 211.896L1267.78 266.543C1185.55 213.642 1075.2 204.279 956.659 251.731C721.373 345.895 543.006 627.647 557.91 880.886Z" fill="#011321"/>
<path d="M557.91 880.886C565.467 1008.48 620.801 1104.5 703.88 1156.34L617.894 1101.75C534.815 1049.91 479.534 953.889 471.924 826.291C456.862 573.053 635.387 291.354 870.673 197.084C989.214 149.473 1099.56 158.783 1181.8 211.896L1267.78 266.543C1185.55 213.642 1075.2 204.279 956.659 251.731C721.373 345.895 543.006 627.647 557.91 880.886Z" fill="url(#paint12_linear_11_607)"/>
<path d="M1321.8 1126.77L1508.83 1234.9V1324.83L1321.8 1433.02L1134.92 1324.94V1235.01L1321.8 1126.77Z" fill="url(#paint13_linear_11_607)"/>
<path opacity="0.25" d="M1321.8 1342.98L1508.83 1234.9L1321.8 1126.77L1134.92 1234.9L1321.8 1342.98Z" fill="url(#paint14_linear_11_607)"/>
<path opacity="0.5" d="M1321.8 1342.98L1508.83 1234.9L1321.8 1126.77L1134.92 1234.9L1321.8 1342.98Z" fill="url(#paint15_linear_11_607)"/>
<path d="M1322.59 1432.38L1321.8 1432.8L1134.92 1324.57V1235.16L1135.71 1234.74L1322.75 1342.82L1322.59 1432.38Z" fill="url(#paint16_linear_11_607)"/>
<path d="M1321.8 973.674L1508.83 1081.8V1171.74L1321.8 1279.87L1134.92 1171.79V1081.86L1321.8 973.674Z" fill="url(#paint17_linear_11_607)"/>
<path opacity="0.25" d="M1321.8 1189.88L1508.83 1081.8L1321.8 973.674L1134.92 1081.8L1321.8 1189.88Z" fill="url(#paint18_linear_11_607)"/>
<path opacity="0.5" d="M1321.8 1189.88L1508.83 1081.8L1321.8 973.674L1134.92 1081.8L1321.8 1189.88Z" fill="url(#paint19_linear_11_607)"/>
<path d="M1322.59 1279.23L1321.8 1279.71L1134.92 1171.63V1082.23L1135.71 1081.8L1322.75 1189.88L1322.59 1279.23Z" fill="url(#paint20_linear_11_607)"/>
<path d="M1321.8 820.578L1508.83 928.655V1018.59L1321.8 1126.66L1134.92 1018.69V928.761L1321.8 820.578Z" fill="url(#paint21_linear_11_607)"/>
<path opacity="0.25" d="M1321.8 1036.79L1508.83 928.655L1321.8 820.578L1134.92 928.655L1321.8 1036.79Z" fill="url(#paint22_linear_11_607)"/>
<path opacity="0.5" d="M1321.8 1036.79L1508.83 928.655L1321.8 820.578L1134.92 928.655L1321.8 1036.79Z" fill="url(#paint23_linear_11_607)"/>
<path d="M1322.59 1126.14L1321.8 1126.61L1134.92 1018.48V929.131L1135.71 928.655L1322.75 1036.79L1322.59 1126.14Z" fill="url(#paint24_linear_11_607)"/>
<path d="M823.108 717.685C827.601 792.54 887.585 830.629 957.135 802.75C1026.68 774.871 1079.43 691.658 1074.99 616.749C1070.55 541.841 1010.51 503.805 940.963 531.684C871.413 559.563 818.511 642.83 823.108 717.685Z" stroke="white" stroke-miterlimit="10"/>
<path d="M948.89 743.712V900.247" stroke="white" stroke-miterlimit="10"/>
<path d="M948.89 452.174V608.708" stroke="white" stroke-miterlimit="10"/>
</g>
<defs>
<filter id="filter0_f_11_607" x="880.925" y="286.796" width="613.337" height="1202.87" filterUnits="userSpaceOnUse" color-interpolation-filters="sRGB">
<feFlood flood-opacity="0" result="BackgroundImageFix"/>
<feBlend mode="normal" in="SourceGraphic" in2="BackgroundImageFix" result="shape"/>
<feGaussianBlur stdDeviation="17.5" result="effect1_foregroundBlur_11_607"/>
</filter>
<linearGradient id="paint0_linear_11_607" x1="98" y1="1297.74" x2="1823" y2="1297.74" gradientUnits="userSpaceOnUse">
<stop stop-color="#50C0FF" stop-opacity="0.5"/>
<stop offset="1" stop-color="#000B1B" stop-opacity="0.57"/>
</linearGradient>
<linearGradient id="paint1_linear_11_607" x1="917.434" y1="1372.51" x2="919.434" y2="540.989" gradientUnits="userSpaceOnUse">
<stop stop-color="#0047FF" stop-opacity="0"/>
<stop offset="1" stop-color="#305DFF" stop-opacity="0.76"/>
</linearGradient>
<linearGradient id="paint2_linear_11_607" x1="1098.55" y1="1372.51" x2="1100.55" y2="540.989" gradientUnits="userSpaceOnUse">
<stop stop-color="#00A3FF" stop-opacity="0"/>
<stop offset="1" stop-color="#30CDFF" stop-opacity="0.76"/>
</linearGradient>
<radialGradient id="paint3_radial_11_607" cx="0" cy="0" r="1" gradientUnits="userSpaceOnUse" gradientTransform="translate(768.183 325.119) rotate(134.972) scale(584.786 584.785)">
<stop stop-color="white" stop-opacity="0"/>
<stop offset="0.67" stop-color="#3E9DFF" stop-opacity="0"/>
<stop offset="1" stop-color="#3E9DFF" stop-opacity="0.43"/>
</radialGradient>
<radialGradient id="paint4_radial_11_607" cx="0" cy="0" r="1" gradientUnits="userSpaceOnUse" gradientTransform="translate(442.057 535.19) rotate(-30.0114) scale(308.828 308.98)">
<stop stop-color="white"/>
<stop offset="0.46" stop-color="#72DDFF"/>
<stop offset="0.73" stop-color="#50C0FF"/>
<stop offset="1" stop-color="#0E67BA"/>
</radialGradient>
<radialGradient id="paint5_radial_11_607" cx="0" cy="0" r="1" gradientUnits="userSpaceOnUse" gradientTransform="translate(860.896 1102.85) rotate(30.2209) scale(576.807 495.759)">
<stop stop-color="#5076FF" stop-opacity="0.7"/>
<stop offset="0.45" stop-color="#5076FF" stop-opacity="0.25"/>
<stop offset="1" stop-color="#455FE4" stop-opacity="0"/>
</radialGradient>
<radialGradient id="paint6_radial_11_607" cx="0" cy="0" r="1" gradientUnits="userSpaceOnUse" gradientTransform="translate(1073.75 1135.28) rotate(-179.892) scale(524.451 303.092)">
<stop stop-color="white" stop-opacity="0"/>
<stop offset="0.67" stop-color="#3E9DFF" stop-opacity="0"/>
<stop offset="1" stop-color="#3E9DFF" stop-opacity="0.43"/>
</radialGradient>
<radialGradient id="paint7_radial_11_607" cx="0" cy="0" r="1" gradientUnits="userSpaceOnUse" gradientTransform="translate(910.687 36.9148) rotate(86.5928) scale(784.304 743.421)">
<stop stop-color="#133A74"/>
<stop offset="1" stop-color="#134974" stop-opacity="0"/>
</radialGradient>
<radialGradient id="paint8_radial_11_607" cx="0" cy="0" r="1" gradientUnits="userSpaceOnUse" gradientTransform="translate(965.459 690.497) rotate(86.5968) scale(503.185 476.965)">
<stop stop-color="#2A6AAC" stop-opacity="0"/>
<stop offset="0.75" stop-color="#4441CB" stop-opacity="0"/>
<stop offset="1" stop-color="#2A6AAC"/>
</radialGradient>
<radialGradient id="paint9_radial_11_607" cx="0" cy="0" r="1" gradientUnits="userSpaceOnUse" gradientTransform="translate(946.586 702.709) rotate(86.5901) scale(479.817 454.76)">
<stop stop-color="white" stop-opacity="0"/>
<stop offset="0.93" stop-color="#3E9DFF" stop-opacity="0"/>
<stop offset="1" stop-color="#3E9DFF"/>
</radialGradient>
<radialGradient id="paint10_radial_11_607" cx="0" cy="0" r="1" gradientUnits="userSpaceOnUse" gradientTransform="translate(917.113 186.836) rotate(85.5295) scale(676.135 640.941)">
<stop stop-color="#1D88D5"/>
<stop offset="1" stop-color="#133A74" stop-opacity="0.41"/>
</radialGradient>
<radialGradient id="paint11_radial_11_607" cx="0" cy="0" r="1" gradientUnits="userSpaceOnUse" gradientTransform="translate(928.957 728.759) rotate(88.6818) scale(388.705 368.437)">
<stop stop-color="#2A6AAC" stop-opacity="0"/>
<stop offset="0.75" stop-color="#4441CB" stop-opacity="0"/>
<stop offset="1" stop-color="#2A6AAC"/>
</radialGradient>
<linearGradient id="paint12_linear_11_607" x1="531.327" y1="640.449" x2="1384.53" y2="693.195" gradientUnits="userSpaceOnUse">
<stop stop-color="#50C0FF"/>
<stop offset="0.81" stop-color="#4982EE" stop-opacity="0"/>
<stop offset="0.86" stop-color="#4877EB" stop-opacity="0.28"/>
<stop offset="1" stop-color="#455FE4" stop-opacity="0.25"/>
</linearGradient>
<linearGradient id="paint13_linear_11_607" x1="1536.05" y1="1404.03" x2="1162.59" y2="1188.14" gradientUnits="userSpaceOnUse">
<stop stop-color="#5076FF" stop-opacity="0.25"/>
<stop offset="1" stop-color="#455FE4" stop-opacity="0"/>
</linearGradient>
<linearGradient id="paint14_linear_11_607" x1="1134.76" y1="1234.9" x2="1508.83" y2="1234.9" gradientUnits="userSpaceOnUse">
<stop stop-color="#50C0FF" stop-opacity="0.5"/>
<stop offset="1" stop-color="#000B1B" stop-opacity="0.57"/>
</linearGradient>
<linearGradient id="paint15_linear_11_607" x1="1134.76" y1="1234.9" x2="1508.83" y2="1234.9" gradientUnits="userSpaceOnUse">
<stop stop-color="#50C0FF" stop-opacity="0.5"/>
<stop offset="1" stop-color="#000B1B" stop-opacity="0.57"/>
</linearGradient>
<linearGradient id="paint16_linear_11_607" x1="1134.07" y1="1535.91" x2="1322.52" y2="1134.27" gradientUnits="userSpaceOnUse">
<stop stop-color="#30CDFF" stop-opacity="0.76"/>
<stop offset="1" stop-color="#00A3FF" stop-opacity="0"/>
</linearGradient>
<linearGradient id="paint17_linear_11_607" x1="1536.05" y1="1250.88" x2="1162.59" y2="1035.04" gradientUnits="userSpaceOnUse">
<stop stop-color="#5076FF" stop-opacity="0.25"/>
<stop offset="1" stop-color="#455FE4" stop-opacity="0"/>
</linearGradient>
<linearGradient id="paint18_linear_11_607" x1="1134.76" y1="1081.8" x2="1508.83" y2="1081.8" gradientUnits="userSpaceOnUse">
<stop stop-color="#50C0FF" stop-opacity="0.5"/>
<stop offset="1" stop-color="#000B1B" stop-opacity="0.57"/>
</linearGradient>
<linearGradient id="paint19_linear_11_607" x1="1134.76" y1="1081.8" x2="1508.83" y2="1081.8" gradientUnits="userSpaceOnUse">
<stop stop-color="#50C0FF" stop-opacity="0.5"/>
<stop offset="1" stop-color="#000B1B" stop-opacity="0.57"/>
</linearGradient>
<linearGradient id="paint20_linear_11_607" x1="1134.07" y1="1382.81" x2="1322.52" y2="981.169" gradientUnits="userSpaceOnUse">
<stop stop-color="#30CDFF" stop-opacity="0.76"/>
<stop offset="1" stop-color="#00A3FF" stop-opacity="0"/>
</linearGradient>
<linearGradient id="paint21_linear_11_607" x1="1536.05" y1="1097.78" x2="1162.59" y2="881.943" gradientUnits="userSpaceOnUse">
<stop stop-color="#5076FF" stop-opacity="0.25"/>
<stop offset="1" stop-color="#455FE4" stop-opacity="0"/>
</linearGradient>
<linearGradient id="paint22_linear_11_607" x1="1134.76" y1="928.708" x2="1508.83" y2="928.708" gradientUnits="userSpaceOnUse">
<stop stop-color="#50C0FF" stop-opacity="0.5"/>
<stop offset="1" stop-color="#000B1B" stop-opacity="0.57"/>
</linearGradient>
<linearGradient id="paint23_linear_11_607" x1="1134.76" y1="928.708" x2="1508.83" y2="928.708" gradientUnits="userSpaceOnUse">
<stop stop-color="#50C0FF" stop-opacity="0.5"/>
<stop offset="1" stop-color="#000B1B" stop-opacity="0.57"/>
</linearGradient>
<linearGradient id="paint24_linear_11_607" x1="1134.07" y1="1229.72" x2="1322.52" y2="828.073" gradientUnits="userSpaceOnUse">
<stop stop-color="#30CDFF" stop-opacity="0.76"/>
<stop offset="1" stop-color="#00A3FF" stop-opacity="0"/>
</linearGradient>
<clipPath id="clip0_11_607">
<rect width="1403.26" height="1403.26" fill="white" transform="translate(167.775 129)"/>
</clipPath>
</defs>
</svg>
