<svg width="1920" height="1920" viewBox="0 0 1920 1920" fill="none" xmlns="http://www.w3.org/2000/svg">
<rect width="1920" height="1920" />
<path opacity="0.25" d="M960 1732.17L1798 1248.21L960 764.238L122 1248.21L960 1732.17Z" fill="url(#paint0_linear_11_1160)"/>
<g filter="url(#filter0_f_11_1160)">
<path opacity="0.25" d="M645.518 1286.85L646.984 1287.69L997.453 1086.17V187.843L995.987 187L645.518 388.517V1286.85Z" fill="url(#paint1_linear_11_1160)"/>
<path opacity="0.25" d="M821.485 1286.85L822.951 1287.69L1173.42 1086.17V187.843L1171.95 187L821.485 388.517V1286.85Z" fill="url(#paint2_linear_11_1160)"/>
</g>
<g clip-path="url(#clip0_11_1160)">
<path d="M1573.56 641.094C1573.56 739.209 1504.84 828.355 1393.32 893.041C1281.79 957.728 1127.34 997.723 956.799 997.723C786.26 997.723 631.527 957.681 519.821 893.041C408.115 828.401 339.576 739.209 339.576 641.094C339.576 542.978 408.254 453.832 519.821 389.146C631.388 324.46 785.89 284.464 956.43 284.464C1126.97 284.464 1281.29 324.506 1392.95 389.146C1504.6 453.786 1573.56 542.932 1573.56 641.094Z" stroke="url(#paint3_radial_11_1160)" stroke-miterlimit="10"/>
<path d="M1628.74 899.237C1603.68 924.309 1571.74 941.383 1536.97 948.298C1502.21 955.213 1466.17 951.659 1433.43 938.086C1400.68 924.514 1372.69 901.531 1353 872.045C1333.31 842.559 1322.8 807.893 1322.8 772.431C1322.8 736.969 1333.31 702.303 1353 672.817C1372.69 643.331 1400.68 620.348 1433.43 606.775C1466.17 593.203 1502.21 589.649 1536.97 596.564C1571.74 603.479 1603.68 620.552 1628.74 645.625C1662.34 679.265 1681.21 724.875 1681.21 772.431C1681.21 819.987 1662.34 865.597 1628.74 899.237Z" fill="url(#paint4_radial_11_1160)"/>
<path d="M1562.65 833.118C1550.66 845.118 1535.37 853.29 1518.73 856.6C1502.09 859.91 1484.85 858.21 1469.17 851.714C1453.5 845.218 1440.11 834.219 1430.68 820.107C1421.26 805.995 1416.23 789.403 1416.23 772.431C1416.23 755.459 1421.26 738.867 1430.68 724.755C1440.11 710.643 1453.5 699.644 1469.17 693.148C1484.85 686.652 1502.09 684.952 1518.73 688.262C1535.37 691.572 1550.66 699.744 1562.65 711.744C1570.62 719.713 1576.94 729.174 1581.25 739.587C1585.56 750 1587.78 761.16 1587.78 772.431C1587.78 783.702 1585.56 794.862 1581.25 805.275C1576.94 815.688 1570.62 825.149 1562.65 833.118Z" fill="url(#paint5_radial_11_1160)"/>
<path d="M458.861 607.618C441.138 625.347 418.557 637.421 393.975 642.311C369.393 647.202 343.914 644.69 320.758 635.094C297.603 625.498 277.812 609.248 263.888 588.399C249.964 567.55 242.532 543.038 242.532 517.963C242.532 492.889 249.964 468.377 263.888 447.528C277.812 426.679 297.603 410.429 320.758 400.832C343.914 391.236 369.393 388.724 393.975 393.615C418.557 398.506 441.138 410.579 458.861 428.309C470.63 440.082 479.966 454.059 486.336 469.442C492.705 484.825 495.984 501.313 495.984 517.963C495.984 534.614 492.705 551.101 486.336 566.484C479.966 581.867 470.63 595.845 458.861 607.618Z" fill="url(#paint6_radial_11_1160)"/>
<path d="M412.136 560.872C403.655 569.352 392.85 575.126 381.089 577.464C369.328 579.802 357.138 578.598 346.06 574.006C334.982 569.413 325.514 561.638 318.853 551.662C312.192 541.687 308.637 529.96 308.637 517.963C308.637 505.967 312.192 494.24 318.853 484.264C325.514 474.289 334.982 466.514 346.06 461.921C357.138 457.328 369.328 456.125 381.089 458.463C392.85 460.801 403.655 466.575 412.136 475.055C417.771 480.689 422.241 487.378 425.29 494.74C428.34 502.102 429.909 509.994 429.909 517.963C429.909 525.933 428.34 533.824 425.29 541.187C422.241 548.549 417.771 555.238 412.136 560.872V560.872Z" fill="url(#paint7_radial_11_1160)"/>
<path d="M597.049 895.168L905.637 715.813C925.048 704.578 951.854 706.103 981.432 723.257L672.844 902.566C643.265 885.551 616.367 883.886 597.049 895.168Z" fill="url(#paint8_linear_11_1160)"/>
<path d="M1059.12 1249.35L1367.71 1069.9V1087.61L1058.98 1267.06L1059.12 1249.35Z" fill="url(#paint9_linear_11_1160)"/>
<path d="M672.844 902.566L981.433 723.257L1261.51 885.967L952.963 1065.41L672.844 902.566Z" fill="url(#paint10_linear_11_1160)"/>
<path d="M952.963 1065.41L1261.51 885.967C1320.43 919.859 1367.8 1002.25 1367.8 1069.9L1059.26 1249.35C1059.26 1181.7 1011.66 1099.35 952.963 1065.41Z" fill="url(#paint11_linear_11_1160)"/>
<path d="M952.963 1065.41C1011.66 1099.35 1059.26 1181.7 1059.26 1249.35V1267.06L566.038 981.123V963.553C566.038 895.908 614.288 868.72 672.983 902.566L952.963 1065.41Z" fill="url(#paint12_linear_11_1160)"/>
<path d="M988.227 576.731C977.977 581.824 966.67 584.424 955.225 584.32C943.781 584.215 932.524 581.409 922.368 576.13C913.633 570.813 909.289 563.97 909.289 557.265L908.688 778.511C908.688 785.308 913.31 792.105 921.813 797.284C939.699 808.103 969.186 808.334 987.58 798.023C996.823 792.706 1001.44 785.771 1001.44 778.789L1002.05 557.45C1002.28 564.524 997.516 571.552 988.227 576.731Z" fill="#021421"/>
<path d="M1010.6 340.273C981.571 322.934 933.691 322.472 903.696 339.302C873.702 356.132 873.055 383.829 902.125 401.26C931.195 418.692 979.214 419.108 1009.16 402.37C1039.11 385.632 1039.8 357.751 1010.6 340.273Z" fill="url(#paint13_radial_11_1160)"/>
<path d="M1009.16 402.37C979.214 419.108 931.241 418.784 902.125 401.26C887.844 392.66 880.726 381.655 880.726 370.604L880.311 568.824C880.311 579.875 887.382 591.018 901.663 599.526C930.918 617.004 978.752 617.466 1008.7 600.636C1023.95 592.128 1031.81 580.754 1031.81 569.333L1032.41 371.206C1032.09 382.349 1024.32 393.769 1009.16 402.37Z" fill="url(#paint14_linear_11_1160)"/>
<path d="M1188.07 688.302C1177.82 693.373 1166.52 695.961 1155.09 695.857C1143.66 695.752 1132.41 692.959 1122.25 687.701C1113.52 682.384 1109.13 675.587 1109.13 668.79L1108.57 890.036C1108.57 896.879 1112.78 903.63 1121.61 908.855C1139.59 919.628 1169.03 919.859 1187.47 909.595C1196.71 904.37 1201.33 897.342 1201.33 890.314L1201.93 669.067C1202.12 676.049 1197.4 683.077 1188.07 688.302Z" fill="#021421"/>
<path d="M1210.48 451.89C1181.41 434.458 1133.49 434.042 1103.49 450.78C1073.5 467.518 1072.9 495.353 1102.01 512.877C1131.13 530.401 1179.06 530.679 1209 513.941C1238.95 497.203 1239.74 469.321 1210.48 451.89Z" fill="url(#paint15_radial_11_1160)"/>
<path d="M1209 513.941C1179.06 530.679 1131.13 530.17 1102.01 512.877C1087.73 504.231 1080.57 493.18 1080.57 482.129L1080.06 680.211C1080.06 691.215 1087.08 702.266 1101.36 710.866C1130.57 728.297 1178.5 728.806 1208.45 711.929C1223.7 703.375 1231.33 692.047 1231.33 680.673L1231.97 482.546C1231.97 493.92 1224.21 505.294 1209 513.941Z" fill="url(#paint16_linear_11_1160)"/>
<path d="M1006.9 791.966C996.655 797.081 985.345 799.693 973.897 799.589C962.449 799.485 951.188 796.666 941.04 791.365C932.305 786.187 927.96 779.251 927.96 772.454L927.406 993.746C927.406 1000.54 931.75 1007.29 940.439 1012.66C950.589 1017.93 961.838 1020.73 973.273 1020.83C984.708 1020.93 996.006 1018.34 1006.25 1013.26C1015.49 1008.08 1020.35 1001.01 1020.35 993.931L1020.9 772.824C1020.9 779.76 1016.19 786.741 1006.9 791.966Z" fill="#021421"/>
<path d="M1029.41 555.647C1000.2 538.215 952.316 537.707 922.368 554.583C892.42 571.46 891.726 599.064 920.843 616.495C949.959 633.927 997.886 634.482 1027.83 617.605C1057.78 600.728 1058.48 572.986 1029.41 555.647Z" fill="url(#paint17_radial_11_1160)"/>
<path d="M1027.83 617.605C997.886 634.482 949.913 633.973 920.843 616.495C906.469 607.941 899.352 596.891 899.352 585.84L898.797 783.828C898.797 794.879 905.868 806.069 920.288 814.484C949.358 832.008 997.193 832.47 1027.14 815.594C1042.48 807.132 1050.25 795.712 1050.25 784.383L1050.8 586.21C1050.71 597.723 1042.99 609.005 1027.83 617.605Z" fill="url(#paint18_linear_11_1160)"/>
<path d="M807.011 680.534C796.752 685.584 785.449 688.148 774.017 688.02C762.584 687.891 751.342 685.073 741.199 679.794C732.464 674.57 728.119 667.773 728.119 660.883L727.472 882.129C727.472 888.926 731.724 895.723 740.551 901.041C750.7 906.305 761.944 909.111 773.375 909.231C784.807 909.352 796.106 906.784 806.364 901.734C815.607 896.463 820.229 889.481 820.229 882.453L821.107 661.299C821.107 668.143 816.347 675.171 807.011 680.534Z" fill="#021421"/>
<path d="M829.472 443.983C800.356 426.459 752.522 425.997 722.573 442.874C692.625 459.75 691.886 487.354 721.002 504.832C750.118 522.31 798.045 522.818 827.993 505.941C857.942 489.065 858.635 461.415 829.472 443.983Z" fill="url(#paint19_radial_11_1160)"/>
<path d="M827.947 506.08C797.999 522.957 750.072 522.402 720.956 504.971C706.629 496.463 699.465 485.32 699.558 474.269L699.003 672.443C699.003 683.493 706.028 694.498 720.447 703.098C749.518 720.437 797.398 720.9 827.393 704.208C842.598 695.561 850.501 684.187 850.501 672.766L851.056 474.778C850.917 486.198 843.337 497.526 827.947 506.08Z" fill="url(#paint20_linear_11_1160)"/>
<path d="M1378.53 1118.17V1147.49C1378.25 1165.98 1390.31 1184.48 1414.71 1198.35C1462.92 1226.09 1541.07 1226.09 1589.27 1198.35C1613.12 1184.48 1625.18 1166.63 1625.46 1148.6V1119.23L1378.53 1118.17Z" fill="url(#paint21_linear_11_1160)"/>
<path d="M1589.27 1169.22C1637.52 1141.48 1637.52 1096.25 1589.27 1068.37C1541.02 1040.49 1462.92 1040.63 1414.71 1068.37C1366.51 1096.12 1366.51 1141.38 1414.71 1169.22C1462.92 1197.05 1541.21 1197.1 1589.27 1169.22Z" fill="#021421"/>
<path d="M1584.88 1166.67C1630.64 1140.23 1630.64 1097.32 1584.88 1070.96C1539.13 1044.61 1464.72 1044.52 1419.1 1070.96C1373.49 1097.41 1373.35 1140.32 1419.1 1166.67C1464.86 1193.03 1539.13 1193.03 1584.88 1166.67Z" fill="url(#paint22_linear_11_1160)"/>
<path d="M1420.03 1076.14C1465.32 1050.02 1538.71 1050.02 1583.96 1076.14C1610.58 1091.54 1621.44 1112.53 1616.73 1132.55C1624.44 1110.96 1613.86 1087.65 1584.88 1070.96C1539.13 1044.52 1464.72 1044.52 1419.1 1070.96C1390.17 1087.65 1379.59 1110.96 1387.26 1132.55C1382.55 1112.53 1393.32 1091.54 1420.03 1076.14Z" fill="url(#paint23_linear_11_1160)"/>
<path d="M673.076 1267.47V1300.58C672.706 1321.48 686.34 1342.19 713.885 1358.33C768.374 1389.77 856.694 1389.77 911.137 1358.33C938.036 1342.75 951.669 1322.45 951.993 1302.1V1268.95L673.076 1267.47Z" fill="url(#paint24_linear_11_1160)"/>
<path d="M911.137 1325.18C965.627 1293.69 965.627 1242.69 911.137 1211.25C856.648 1179.81 768.374 1179.76 713.885 1211.25C659.395 1242.74 659.442 1293.69 713.885 1325.18C768.328 1356.66 856.694 1356.62 911.137 1325.18Z" fill="#021421"/>
<path d="M906.146 1322.49C957.862 1292.63 957.862 1244.21 906.146 1214.35C854.429 1184.48 770.593 1184.48 718.876 1214.35C667.16 1244.21 667.16 1292.63 718.876 1322.49C770.593 1352.36 854.429 1352.13 906.146 1322.49Z" fill="url(#paint25_linear_11_1160)"/>
<path d="M719.939 1219.99C771.055 1190.44 853.968 1190.44 905.129 1219.99C935.216 1237.37 947.464 1261.09 942.103 1283.7C950.791 1259.33 938.821 1232.84 906.1 1214.11C854.383 1184.24 770.547 1184.24 718.83 1214.11C686.109 1233.03 674.185 1259.33 682.874 1283.7C677.605 1261.09 689.852 1237.37 719.939 1219.99Z" fill="url(#paint26_linear_11_1160)"/>
<path d="M458.353 1079.66L608.095 1166.12V1238.16L458.353 1324.67L308.611 1238.16V1166.12L458.353 1079.66Z" fill="url(#paint27_linear_11_1160)"/>
<path opacity="0.25" d="M458.353 1252.63L608.095 1166.12L458.353 1079.66L308.611 1166.12L458.353 1252.63Z" fill="url(#paint28_linear_11_1160)"/>
<path opacity="0.5" d="M458.353 1252.63L608.095 1166.12L458.353 1079.66L308.611 1166.12L458.353 1252.63Z" fill="url(#paint29_linear_11_1160)"/>
<path d="M458.954 1324.16L458.353 1324.53L308.611 1238.02V1166.49L309.258 1166.12L458.954 1252.63V1324.16Z" fill="url(#paint30_linear_11_1160)"/>
<path d="M458.353 957.219L608.095 1043.73V1115.77L458.353 1202.28L308.611 1115.81V1043.64L458.353 957.219Z" fill="url(#paint31_linear_11_1160)"/>
<path opacity="0.25" d="M458.353 1130.1L608.095 1043.64L458.353 957.219L308.611 1043.64L458.353 1130.1Z" fill="url(#paint32_linear_11_1160)"/>
<path opacity="0.5" d="M458.353 1130.1L608.095 1043.64L458.353 957.219L308.611 1043.64L458.353 1130.1Z" fill="url(#paint33_linear_11_1160)"/>
<path d="M458.954 1201.63L458.353 1202L308.611 1115.49V1044.01L309.258 1043.64L458.954 1130.1V1201.63Z" fill="url(#paint34_linear_11_1160)"/>
<path d="M1562.65 833.118C1550.66 845.118 1535.37 853.29 1518.73 856.6C1502.09 859.91 1484.85 858.21 1469.17 851.714C1453.5 845.218 1440.11 834.219 1430.68 820.107C1421.26 805.995 1416.23 789.403 1416.23 772.431C1416.23 755.459 1421.26 738.867 1430.68 724.755C1440.11 710.643 1453.5 699.644 1469.17 693.148C1484.85 686.652 1502.09 684.952 1518.73 688.262C1535.37 691.572 1550.66 699.744 1562.65 711.744C1570.62 719.713 1576.94 729.174 1581.25 739.587C1585.56 750 1587.78 761.16 1587.78 772.431C1587.78 783.702 1585.56 794.862 1581.25 805.275C1576.94 815.688 1570.62 825.149 1562.65 833.118Z" fill="url(#paint35_radial_11_1160)"/>
<path d="M1628.74 899.237C1603.68 924.309 1571.74 941.383 1536.97 948.298C1502.21 955.213 1466.17 951.659 1433.43 938.086C1400.68 924.514 1372.69 901.531 1353 872.045C1333.31 842.559 1322.8 807.893 1322.8 772.431C1322.8 736.969 1333.31 702.303 1353 672.817C1372.69 643.331 1400.68 620.348 1433.43 606.775C1466.17 593.203 1502.21 589.649 1536.97 596.564C1571.74 603.479 1603.68 620.552 1628.74 645.625C1662.34 679.265 1681.21 724.875 1681.21 772.431C1681.21 819.987 1662.34 865.597 1628.74 899.237Z" fill="url(#paint36_radial_11_1160)"/>
<path d="M1562.65 833.118C1550.66 845.118 1535.37 853.29 1518.73 856.6C1502.09 859.91 1484.85 858.21 1469.17 851.714C1453.5 845.218 1440.11 834.219 1430.68 820.107C1421.26 805.995 1416.23 789.403 1416.23 772.431C1416.23 755.459 1421.26 738.867 1430.68 724.755C1440.11 710.643 1453.5 699.644 1469.17 693.148C1484.85 686.652 1502.09 684.952 1518.73 688.262C1535.37 691.572 1550.66 699.744 1562.65 711.744C1570.62 719.713 1576.94 729.174 1581.25 739.587C1585.56 750 1587.78 761.16 1587.78 772.431C1587.78 783.702 1585.56 794.862 1581.25 805.275C1576.94 815.688 1570.62 825.149 1562.65 833.118Z" fill="url(#paint37_radial_11_1160)"/>
<path d="M1562.65 833.118C1550.66 845.118 1535.37 853.29 1518.73 856.6C1502.09 859.91 1484.85 858.21 1469.17 851.714C1453.5 845.218 1440.11 834.219 1430.68 820.107C1421.26 805.995 1416.23 789.403 1416.23 772.431C1416.23 755.459 1421.26 738.867 1430.68 724.755C1440.11 710.643 1453.5 699.644 1469.17 693.148C1484.85 686.652 1502.09 684.952 1518.73 688.262C1535.37 691.572 1550.66 699.744 1562.65 711.744C1570.62 719.713 1576.94 729.174 1581.25 739.587C1585.56 750 1587.78 761.16 1587.78 772.431C1587.78 783.702 1585.56 794.862 1581.25 805.275C1576.94 815.688 1570.62 825.149 1562.65 833.118Z" fill="url(#paint38_radial_11_1160)"/>
</g>
<defs>
<filter id="filter0_f_11_1160" x="610.518" y="152" width="597.903" height="1170.69" filterUnits="userSpaceOnUse" color-interpolation-filters="sRGB">
<feFlood flood-opacity="0" result="BackgroundImageFix"/>
<feBlend mode="normal" in="SourceGraphic" in2="BackgroundImageFix" result="shape"/>
<feGaussianBlur stdDeviation="17.5" result="effect1_foregroundBlur_11_1160"/>
</filter>
<linearGradient id="paint0_linear_11_1160" x1="122" y1="1248.21" x2="1798" y2="1248.21" gradientUnits="userSpaceOnUse">
<stop stop-color="#50C0FF" stop-opacity="0.5"/>
<stop offset="1" stop-color="#000B1B" stop-opacity="0.57"/>
</linearGradient>
<linearGradient id="paint1_linear_11_1160" x1="646.984" y1="1207.87" x2="648.927" y2="399.967" gradientUnits="userSpaceOnUse">
<stop stop-color="#0047FF" stop-opacity="0"/>
<stop offset="1" stop-color="#305DFF" stop-opacity="0.76"/>
</linearGradient>
<linearGradient id="paint2_linear_11_1160" x1="822.951" y1="1207.87" x2="824.894" y2="399.967" gradientUnits="userSpaceOnUse">
<stop stop-color="#00A3FF" stop-opacity="0"/>
<stop offset="1" stop-color="#30CDFF" stop-opacity="0.76"/>
</linearGradient>
<radialGradient id="paint3_radial_11_1160" cx="0" cy="0" r="1" gradientUnits="userSpaceOnUse" gradientTransform="translate(956.43 641.094) scale(506.026 506.254)">
<stop stop-color="#2A6AAC" stop-opacity="0"/>
<stop offset="0.75" stop-color="#4441CB" stop-opacity="0"/>
<stop offset="1" stop-color="#2A6AAC"/>
</radialGradient>
<radialGradient id="paint4_radial_11_1160" cx="0" cy="0" r="1" gradientUnits="userSpaceOnUse" gradientTransform="translate(1613.08 689.634) rotate(134.987) scale(298.368)">
<stop stop-color="white" stop-opacity="0"/>
<stop offset="0.67" stop-color="#3E9DFF" stop-opacity="0"/>
<stop offset="1" stop-color="#3E9DFF" stop-opacity="0.43"/>
</radialGradient>
<radialGradient id="paint5_radial_11_1160" cx="0" cy="0" r="1" gradientUnits="userSpaceOnUse" gradientTransform="translate(1428.61 782.27) rotate(-29.9983) scale(156.335 156.37)">
<stop stop-color="white"/>
<stop offset="0.46" stop-color="#72DDFF"/>
<stop offset="0.73" stop-color="#50C0FF"/>
<stop offset="1" stop-color="#0E67BA"/>
</radialGradient>
<radialGradient id="paint6_radial_11_1160" cx="0" cy="0" r="1" gradientUnits="userSpaceOnUse" gradientTransform="translate(455.811 458.076) rotate(134.987) scale(211.277)">
<stop stop-color="white" stop-opacity="0"/>
<stop offset="0.67" stop-color="#3E9DFF" stop-opacity="0"/>
<stop offset="1" stop-color="#3E9DFF" stop-opacity="0.43"/>
</radialGradient>
<radialGradient id="paint7_radial_11_1160" cx="0" cy="0" r="1" gradientUnits="userSpaceOnUse" gradientTransform="translate(316.8 515.184) rotate(-29.9983) scale(110.145 110.17)">
<stop stop-color="white"/>
<stop offset="0.46" stop-color="#72DDFF"/>
<stop offset="0.73" stop-color="#50C0FF"/>
<stop offset="1" stop-color="#0E67BA"/>
</radialGradient>
<linearGradient id="paint8_linear_11_1160" x1="633.606" y1="772.269" x2="1326.88" y2="923.659" gradientUnits="userSpaceOnUse">
<stop stop-color="#50C0FF"/>
<stop offset="0.81" stop-color="#4982EE" stop-opacity="0"/>
<stop offset="0.86" stop-color="#4877EB" stop-opacity="0.28"/>
<stop offset="1" stop-color="#455FE4" stop-opacity="0.25"/>
</linearGradient>
<linearGradient id="paint9_linear_11_1160" x1="1416.7" y1="1243.43" x2="793.634" y2="1014" gradientUnits="userSpaceOnUse">
<stop stop-color="#50C0FF"/>
<stop offset="0.81" stop-color="#4982EE" stop-opacity="0"/>
<stop offset="0.86" stop-color="#4877EB" stop-opacity="0.28"/>
<stop offset="1" stop-color="#455FE4" stop-opacity="0.25"/>
</linearGradient>
<linearGradient id="paint10_linear_11_1160" x1="623.346" y1="819.154" x2="1316.62" y2="970.544" gradientUnits="userSpaceOnUse">
<stop stop-color="#50C0FF"/>
<stop offset="0.81" stop-color="#4982EE" stop-opacity="0"/>
<stop offset="0.86" stop-color="#4877EB" stop-opacity="0.28"/>
<stop offset="1" stop-color="#455FE4" stop-opacity="0.25"/>
</linearGradient>
<linearGradient id="paint11_linear_11_1160" x1="1443.04" y1="1171.85" x2="820.024" y2="942.42" gradientUnits="userSpaceOnUse">
<stop stop-color="#50C0FF"/>
<stop offset="0.81" stop-color="#4982EE" stop-opacity="0"/>
<stop offset="0.86" stop-color="#4877EB" stop-opacity="0.28"/>
<stop offset="1" stop-color="#455FE4" stop-opacity="0.25"/>
</linearGradient>
<linearGradient id="paint12_linear_11_1160" x1="484.789" y1="876.719" x2="1237.49" y2="1287.25" gradientUnits="userSpaceOnUse">
<stop stop-color="#50C0FF"/>
<stop offset="0.81" stop-color="#4982EE" stop-opacity="0"/>
<stop offset="0.86" stop-color="#4877EB" stop-opacity="0.28"/>
<stop offset="1" stop-color="#455FE4" stop-opacity="0.25"/>
</linearGradient>
<radialGradient id="paint13_radial_11_1160" cx="0" cy="0" r="1" gradientUnits="userSpaceOnUse" gradientTransform="translate(330.055 140.481) scale(637.882 638.169)">
<stop stop-color="#2A6AAC" stop-opacity="0"/>
<stop offset="0.75" stop-color="#4441CB" stop-opacity="0"/>
<stop offset="1" stop-color="#2A6AAC"/>
</radialGradient>
<linearGradient id="paint14_linear_11_1160" x1="864.458" y1="488.51" x2="1167.36" y2="496.317" gradientUnits="userSpaceOnUse">
<stop stop-color="#50C0FF"/>
<stop offset="0.81" stop-color="#4982EE" stop-opacity="0"/>
<stop offset="0.86" stop-color="#4877EB" stop-opacity="0.28"/>
<stop offset="1" stop-color="#455FE4" stop-opacity="0.25"/>
</linearGradient>
<radialGradient id="paint15_radial_11_1160" cx="0" cy="0" r="1" gradientUnits="userSpaceOnUse" gradientTransform="translate(330.056 140.481) scale(637.881 638.169)">
<stop stop-color="#2A6AAC" stop-opacity="0"/>
<stop offset="0.75" stop-color="#4441CB" stop-opacity="0"/>
<stop offset="1" stop-color="#2A6AAC"/>
</radialGradient>
<linearGradient id="paint16_linear_11_1160" x1="1116.85" y1="603.364" x2="1357.31" y2="590.891" gradientUnits="userSpaceOnUse">
<stop stop-color="#50C0FF"/>
<stop offset="0.81" stop-color="#4982EE" stop-opacity="0"/>
<stop offset="0.86" stop-color="#4877EB" stop-opacity="0.28"/>
<stop offset="1" stop-color="#455FE4" stop-opacity="0.25"/>
</linearGradient>
<radialGradient id="paint17_radial_11_1160" cx="0" cy="0" r="1" gradientUnits="userSpaceOnUse" gradientTransform="translate(330.056 140.481) scale(637.882 638.169)">
<stop stop-color="#2A6AAC" stop-opacity="0"/>
<stop offset="0.75" stop-color="#4441CB" stop-opacity="0"/>
<stop offset="1" stop-color="#2A6AAC"/>
</radialGradient>
<linearGradient id="paint18_linear_11_1160" x1="923.939" y1="708.277" x2="1178.46" y2="686.426" gradientUnits="userSpaceOnUse">
<stop stop-color="#50C0FF"/>
<stop offset="0.81" stop-color="#4982EE" stop-opacity="0"/>
<stop offset="0.86" stop-color="#4877EB" stop-opacity="0.28"/>
<stop offset="1" stop-color="#455FE4" stop-opacity="0.25"/>
</linearGradient>
<radialGradient id="paint19_radial_11_1160" cx="0" cy="0" r="1" gradientUnits="userSpaceOnUse" gradientTransform="translate(330.056 140.481) scale(637.881 638.169)">
<stop stop-color="#2A6AAC" stop-opacity="0"/>
<stop offset="0.75" stop-color="#4441CB" stop-opacity="0"/>
<stop offset="1" stop-color="#2A6AAC"/>
</radialGradient>
<linearGradient id="paint20_linear_11_1160" x1="673.353" y1="589.77" x2="1007.5" y2="603.814" gradientUnits="userSpaceOnUse">
<stop stop-color="#50C0FF"/>
<stop offset="0.81" stop-color="#4982EE" stop-opacity="0"/>
<stop offset="0.86" stop-color="#4877EB" stop-opacity="0.28"/>
<stop offset="1" stop-color="#455FE4" stop-opacity="0.25"/>
</linearGradient>
<linearGradient id="paint21_linear_11_1160" x1="1355.65" y1="1128.3" x2="1766.67" y2="1213.99" gradientUnits="userSpaceOnUse">
<stop stop-color="#50C0FF"/>
<stop offset="0.81" stop-color="#4982EE" stop-opacity="0"/>
<stop offset="0.86" stop-color="#4877EB" stop-opacity="0.28"/>
<stop offset="1" stop-color="#455FE4" stop-opacity="0.25"/>
</linearGradient>
<linearGradient id="paint22_linear_11_1160" x1="1367.25" y1="1085.62" x2="1710.1" y2="1169.98" gradientUnits="userSpaceOnUse">
<stop stop-color="#50C0FF"/>
<stop offset="0.81" stop-color="#4982EE" stop-opacity="0"/>
<stop offset="0.86" stop-color="#4877EB" stop-opacity="0.28"/>
<stop offset="1" stop-color="#455FE4" stop-opacity="0.25"/>
</linearGradient>
<linearGradient id="paint23_linear_11_1160" x1="1520.36" y1="1035.87" x2="1495.02" y2="1150.16" gradientUnits="userSpaceOnUse">
<stop stop-color="#50C0FF"/>
<stop offset="0.81" stop-color="#4982EE" stop-opacity="0"/>
<stop offset="0.86" stop-color="#4877EB" stop-opacity="0.28"/>
<stop offset="1" stop-color="#455FE4" stop-opacity="0.25"/>
</linearGradient>
<linearGradient id="paint24_linear_11_1160" x1="647.148" y1="1278.94" x2="1111.5" y2="1375.72" gradientUnits="userSpaceOnUse">
<stop stop-color="#50C0FF"/>
<stop offset="0.81" stop-color="#4982EE" stop-opacity="0"/>
<stop offset="0.86" stop-color="#4877EB" stop-opacity="0.28"/>
<stop offset="1" stop-color="#455FE4" stop-opacity="0.25"/>
</linearGradient>
<linearGradient id="paint25_linear_11_1160" x1="660.273" y1="1230.71" x2="1047.59" y2="1326.02" gradientUnits="userSpaceOnUse">
<stop stop-color="#50C0FF"/>
<stop offset="0.81" stop-color="#4982EE" stop-opacity="0"/>
<stop offset="0.86" stop-color="#4877EB" stop-opacity="0.28"/>
<stop offset="1" stop-color="#455FE4" stop-opacity="0.25"/>
</linearGradient>
<linearGradient id="paint26_linear_11_1160" x1="833.262" y1="1174.49" x2="804.63" y2="1303.62" gradientUnits="userSpaceOnUse">
<stop stop-color="#50C0FF"/>
<stop offset="0.81" stop-color="#4982EE" stop-opacity="0"/>
<stop offset="0.86" stop-color="#4877EB" stop-opacity="0.28"/>
<stop offset="1" stop-color="#455FE4" stop-opacity="0.25"/>
</linearGradient>
<linearGradient id="paint27_linear_11_1160" x1="629.863" y1="1301.46" x2="330.958" y2="1128.55" gradientUnits="userSpaceOnUse">
<stop stop-color="#5076FF" stop-opacity="0.25"/>
<stop offset="1" stop-color="#455FE4" stop-opacity="0"/>
</linearGradient>
<linearGradient id="paint28_linear_11_1160" x1="308.611" y1="1166.12" x2="608.095" y2="1166.12" gradientUnits="userSpaceOnUse">
<stop stop-color="#50C0FF" stop-opacity="0.5"/>
<stop offset="1" stop-color="#000B1B" stop-opacity="0.57"/>
</linearGradient>
<linearGradient id="paint29_linear_11_1160" x1="308.611" y1="1166.12" x2="608.095" y2="1166.12" gradientUnits="userSpaceOnUse">
<stop stop-color="#50C0FF" stop-opacity="0.5"/>
<stop offset="1" stop-color="#000B1B" stop-opacity="0.57"/>
</linearGradient>
<linearGradient id="paint30_linear_11_1160" x1="308.056" y1="1407.02" x2="458.788" y2="1085.53" gradientUnits="userSpaceOnUse">
<stop stop-color="#30CDFF" stop-opacity="0.76"/>
<stop offset="1" stop-color="#00A3FF" stop-opacity="0"/>
</linearGradient>
<linearGradient id="paint31_linear_11_1160" x1="629.863" y1="1178.93" x2="330.958" y2="1006.02" gradientUnits="userSpaceOnUse">
<stop stop-color="#5076FF" stop-opacity="0.25"/>
<stop offset="1" stop-color="#455FE4" stop-opacity="0"/>
</linearGradient>
<linearGradient id="paint32_linear_11_1160" x1="308.611" y1="1043.59" x2="608.095" y2="1043.59" gradientUnits="userSpaceOnUse">
<stop stop-color="#50C0FF" stop-opacity="0.5"/>
<stop offset="1" stop-color="#000B1B" stop-opacity="0.57"/>
</linearGradient>
<linearGradient id="paint33_linear_11_1160" x1="308.611" y1="1043.59" x2="608.095" y2="1043.59" gradientUnits="userSpaceOnUse">
<stop stop-color="#50C0FF" stop-opacity="0.5"/>
<stop offset="1" stop-color="#000B1B" stop-opacity="0.57"/>
</linearGradient>
<linearGradient id="paint34_linear_11_1160" x1="308.056" y1="1284.49" x2="458.787" y2="963.051" gradientUnits="userSpaceOnUse">
<stop stop-color="#30CDFF" stop-opacity="0.76"/>
<stop offset="1" stop-color="#00A3FF" stop-opacity="0"/>
</linearGradient>
<radialGradient id="paint35_radial_11_1160" cx="0" cy="0" r="1" gradientUnits="userSpaceOnUse" gradientTransform="translate(1428.61 782.27) rotate(-29.9983) scale(156.335 156.37)">
<stop stop-color="white"/>
<stop offset="0.46" stop-color="#72DDFF"/>
<stop offset="0.73" stop-color="#50C0FF"/>
<stop offset="1" stop-color="#0E67BA"/>
</radialGradient>
<radialGradient id="paint36_radial_11_1160" cx="0" cy="0" r="1" gradientUnits="userSpaceOnUse" gradientTransform="translate(1613.08 689.634) rotate(134.987) scale(298.368)">
<stop stop-color="white" stop-opacity="0"/>
<stop offset="0.67" stop-color="#3E9DFF" stop-opacity="0"/>
<stop offset="1" stop-color="#3E9DFF" stop-opacity="0.43"/>
</radialGradient>
<radialGradient id="paint37_radial_11_1160" cx="0" cy="0" r="1" gradientUnits="userSpaceOnUse" gradientTransform="translate(1428.61 782.27) rotate(-29.9983) scale(156.335 156.37)">
<stop stop-color="white"/>
<stop offset="0.46" stop-color="#72DDFF"/>
<stop offset="0.73" stop-color="#50C0FF"/>
<stop offset="1" stop-color="#0E67BA"/>
</radialGradient>
<radialGradient id="paint38_radial_11_1160" cx="0" cy="0" r="1" gradientUnits="userSpaceOnUse" gradientTransform="translate(1428.61 782.27) rotate(-29.9983) scale(156.335 156.37)">
<stop stop-color="white"/>
<stop offset="0.46" stop-color="#72DDFF"/>
<stop offset="0.73" stop-color="#50C0FF"/>
<stop offset="1" stop-color="#0E67BA"/>
</radialGradient>
<clipPath id="clip0_11_1160">
<rect width="1438.72" height="1099.76" fill="white" transform="translate(242.521 282.152)"/>
</clipPath>
</defs>
</svg>
