<?xml version="1.0" encoding="utf-8"?>
<!-- Generator: Adobe Illustrator 25.3.1, SVG Export Plug-In . SVG Version: 6.00 Build 0)  -->
<svg version="1.1" id="Layer_1" xmlns="http://www.w3.org/2000/svg" xmlns:xlink="http://www.w3.org/1999/xlink" x="0px" y="0px"
	 viewBox="0 0 841.89 595.28" style="enable-background:new 0 0 841.89 595.28;" xml:space="preserve">
<style type="text/css">
	.st0{fill:#FC1414;}
</style>
<g>
	<path class="st0" d="M145.95,165.51c7.05,3.03,14.35,5.22,20.75,9.95c10.52,7.77,15.02,18.34,15.06,30.61
		c0.24,72.04,0.07,144.08,0.22,216.12c0.01,4.44-1.25,5.42-5.49,5.33c-13.21-0.28-26.43-0.39-39.63,0.04
		c-5.18,0.17-5.89-1.69-5.88-6.21c0.13-68.75,0.04-137.49,0.2-206.24c0.01-4.9-0.81-6.65-6.23-6.51
		c-15.68,0.42-31.38,0.37-47.06,0.02c-5.07-0.11-6.45,1.06-6.43,6.3c0.2,68.54,0.06,137.08,0.26,205.62
		c0.02,5.54-1.25,7.2-6.96,7.02c-14.23-0.45-28.48-0.15-42.73-0.15c0-85.49,0.05-170.97-0.13-256.46c-0.01-4.85,1.33-5.66,5.8-5.57
		c14.63,0.31,29.26,0.11,43.9,0.11c2.23,3.18,2.06,6.4,0.53,9.49c5.34-6.83,13.37-8.58,21.77-9.49
		C111.25,165.51,128.6,165.51,145.95,165.51z"/>
	<path class="st0" d="M533.76,165.51c9.22,3.3,18.25,6.79,25.09,14.41c6.04,6.73,9.62,14.22,9.61,23.34
		c-0.02,72.47-0.09,144.95,0.14,217.42c0.02,5.85-1.72,7.04-7.13,6.86c-11.96-0.4-23.96-0.4-35.92,0c-5.23,0.17-6.83-0.91-6.81-6.56
		c0.24-68.56,0.08-137.12,0.29-205.68c0.02-5.4-1.2-6.84-6.68-6.7c-15.68,0.42-31.39,0.38-47.07,0.01
		c-5.04-0.12-5.96,1.48-5.95,6.14c0.15,68.77,0.05,137.54,0.21,206.3c0.01,4.91-0.8,6.71-6.23,6.51
		c-12.37-0.47-24.78-0.42-37.16-0.02c-5.11,0.17-6.43-1.12-6.42-6.32c0.19-77.83,0.13-155.65,0.13-233.48c0-7.41,0-14.82,0-22.24
		c16.52,0,33.04,0,49.56,0c2.32,2.34,1.08,5.47,1.77,8.04c5.12-5.8,12.28-6.75,19.29-8.04C498.24,165.51,516,165.51,533.76,165.51z"
		/>
	<path class="st0" d="M790.24,429.89c-15.27-7.64-20.21-19.96-13.52-33.73c3.9-8.04,12.44-12.57,22.6-11.98
		c8.39,0.48,16.44,6.88,19.39,15.53c0.27,0.79,0.28,1.57,1.27,1.77c0,3.71,0,7.41,0,11.12c-1.33,9.51-6.79,15.19-16.11,17.3
		C799.33,429.89,794.79,429.89,790.24,429.89z"/>
	<path class="st0" d="M371.47,201.96c0-8.33-3.49-14.94-8.74-21.2c-6.93-8.25-16.35-11.82-25.98-15.26c-28.5,0-57,0-85.49,0
		c-5.39,2.37-11.27,3.62-16.26,6.92c-9.72,6.43-17.66,14.6-18.24,26.7c-0.78,16.22-0.11,32.51-0.26,48.77
		c-0.03,3.18,0.83,4.2,4.12,4.16c13.83-0.17,27.66-0.18,41.49,0c3.36,0.05,4.13-1.04,4.09-4.2c-0.17-11.32,0.07-22.64-0.14-33.96
		c-0.07-3.76,0.56-5.35,4.92-5.27c15.27,0.29,30.55,0.24,45.83,0.03c3.91-0.05,5.23,0.81,5.19,5c-0.22,22.64-0.09,45.28-0.14,67.92
		c0,1.24,0.82,2.94-0.98,3.6c-7.72-4.45-15.77-7.25-24.65-7.25c-11.97-0.01-23.95,0.2-35.92-0.07c-8.13-0.18-15.69,1.62-22.58,5.63
		c-13.2,7.68-21.71,18.02-21.3,34.59c0.6,24.27,0.17,48.57,0.14,72.86c-0.01,5.16,1.69,9.73,4.2,14.16
		c9.34,16.46,25,21.78,42.28,22.12c34.05,0.67,68.12,0.07,102.18,0.33c5.18,0.04,6.37-1.25,6.36-6.37
		C371.39,348.11,371.43,275.04,371.47,201.96z M321.96,379.79c0.03,3.45-0.9,4.51-4.43,4.47c-15.67-0.18-31.34-0.18-47.01,0
		c-3.48,0.04-4.55-0.92-4.47-4.43c0.23-10.07,0.08-20.14,0.08-30.22c0-10.07,0.14-20.15-0.08-30.22c-0.07-3.46,0.9-4.51,4.43-4.47
		c15.67,0.18,31.34,0.18,47.01,0c3.48-0.04,4.5,0.93,4.47,4.43C321.81,339.49,321.81,359.64,321.96,379.79z"/>
	<path class="st0" d="M759.29,201.97c0.01-8.33-3.49-14.94-8.74-21.2c-6.93-8.26-16.35-11.82-25.98-15.26c-28.5,0-57,0-85.49,0
		c-4.36,1.73-9.01,2.95-13.02,5.28c-13.34,7.74-21.96,18.06-21.85,34.91c0.42,61.96,0.16,123.92,0.17,185.89
		c0,9.57,4.93,17.04,11.59,22.99c11.21,10.03,25.15,12.88,39.84,12.85c15.48-0.03,30.97-0.17,46.45,0.06
		c9.01,0.13,17.93-0.46,26.63-2.62c16.41-4.07,30.75-19.07,30.58-37.62C758.91,325.49,759.25,263.72,759.29,201.97z M704.11,384.3
		c-15.05-0.33-30.12-0.28-45.18-0.02c-4.09,0.07-5.08-1.13-5.07-5.11c0.13-55.13,0.13-110.27,0-165.4
		c-0.01-3.98,0.96-5.18,5.06-5.11c15.26,0.25,30.54,0.25,45.8,0c4.09-0.07,5.1,1.12,5.07,5.11c-0.17,27.57-0.09,55.13-0.09,82.7
		c0,27.36-0.12,54.72,0.11,82.08C709.86,383.11,708.81,384.41,704.11,384.3z"/>
</g>
</svg>
