<svg width="485" height="584" viewBox="0 0 485 584" fill="none" xmlns="http://www.w3.org/2000/svg">
<g opacity="0.5">
<g filter="url(#filter0_f_232_1164)">
<path opacity="0.25" d="M303.118 204.792L303.025 204.845L280.941 192.133V135.465L281.033 135.412L303.118 148.124V204.792Z" fill="url(#paint0_linear_232_1164)"/>
<path opacity="0.25" d="M309 305.866L308.767 306L253 273.961V131.134L253.233 131L309 163.039V305.866Z" fill="url(#paint1_linear_232_1164)"/>
</g>
<path d="M313.236 136.112C312.162 154.127 297.711 163.293 280.957 156.585C264.203 149.878 251.492 129.837 252.565 111.822C253.638 93.8077 268.09 84.6416 284.844 91.3491C301.597 98.0566 314.309 118.098 313.236 136.112Z" fill="#021425"/>
<path d="M313.236 136.112C312.162 154.127 297.711 163.293 280.957 156.585C264.203 149.878 251.492 129.837 252.565 111.822C253.638 93.8077 268.09 84.6416 284.844 91.3491C301.597 98.0566 314.309 118.098 313.236 136.112Z" fill="url(#paint2_radial_232_1164)"/>
<path d="M313.236 136.112C312.162 154.127 297.711 163.293 280.957 156.585C264.203 149.878 251.492 129.837 252.565 111.822C253.638 93.8077 268.09 84.6416 284.844 91.3491C301.597 98.0566 314.309 118.098 313.236 136.112Z" fill="url(#paint3_radial_232_1164)"/>
<path d="M313.236 136.112C312.162 154.127 297.711 163.293 280.957 156.585C264.203 149.878 251.492 129.837 252.565 111.822C253.638 93.8077 268.09 84.6416 284.844 91.3491C301.597 98.0566 314.309 118.098 313.236 136.112Z" fill="url(#paint4_radial_232_1164)" fill-opacity="0.5"/>
<g opacity="0.75">
<path d="M306.88 129.59C306.117 142.399 295.841 148.917 283.929 144.147C272.016 139.378 262.978 125.128 263.741 112.319C264.504 99.5098 274.78 92.9923 286.692 97.7617C298.605 102.531 307.643 116.781 306.88 129.59Z" fill="url(#paint5_radial_232_1164)"/>
<path d="M306.88 129.59C306.117 142.399 295.841 148.917 283.929 144.147C272.016 139.378 262.978 125.128 263.741 112.319C264.504 99.5098 274.78 92.9923 286.692 97.7617C298.605 102.531 307.643 116.781 306.88 129.59Z" fill="url(#paint6_radial_232_1164)"/>
</g>
<path d="M313.153 136.156C312.613 145.233 308.676 152.063 302.76 155.749L302.761 155.751L308.883 151.867L308.882 151.865C314.798 148.18 318.735 141.349 319.275 132.272C320.347 114.257 307.634 94.2172 290.88 87.5109C282.438 84.1319 274.581 84.7828 268.725 88.5649L268.725 88.5643L262.603 92.448L262.603 92.4486C268.459 88.6665 276.316 88.0156 284.758 91.3946C301.512 98.1009 314.225 118.141 313.153 136.156Z" fill="url(#paint7_linear_232_1164)"/>
<path d="M292.5 108.165V389.136L292.217 389.299L105.5 281.711V0.740319L105.783 0.577064L292.5 108.165Z" stroke="url(#paint8_linear_232_1164)"/>
</g>
<g opacity="0.5">
<g filter="url(#filter1_f_232_1164)">
<path opacity="0.25" d="M77.1176 221.792L77.0252 221.845L54.9409 209.133V152.465L55.0333 152.412L77.1176 165.124V221.792Z" fill="url(#paint9_linear_232_1164)"/>
<path opacity="0.25" d="M83 322.866L82.7667 323L27 290.961V148.134L27.2333 148L83 180.039V322.866Z" fill="url(#paint10_linear_232_1164)"/>
</g>
<path d="M87.2355 243.112C86.1623 261.127 71.7107 270.293 54.9571 263.585C38.2035 256.878 25.492 236.837 26.5652 218.822C27.6385 200.808 42.09 191.642 58.8436 198.349C75.5973 205.057 88.3087 225.098 87.2355 243.112Z" fill="#021425"/>
<path d="M87.2355 243.112C86.1623 261.127 71.7107 270.293 54.9571 263.585C38.2035 256.878 25.492 236.837 26.5652 218.822C27.6385 200.808 42.09 191.642 58.8436 198.349C75.5973 205.057 88.3087 225.098 87.2355 243.112Z" fill="url(#paint11_radial_232_1164)"/>
<path d="M87.2355 243.112C86.1623 261.127 71.7107 270.293 54.9571 263.585C38.2035 256.878 25.492 236.837 26.5652 218.822C27.6385 200.808 42.09 191.642 58.8436 198.349C75.5973 205.057 88.3087 225.098 87.2355 243.112Z" fill="url(#paint12_radial_232_1164)"/>
<path d="M87.2355 243.112C86.1623 261.127 71.7107 270.293 54.9571 263.585C38.2035 256.878 25.492 236.837 26.5652 218.822C27.6385 200.808 42.09 191.642 58.8436 198.349C75.5973 205.057 88.3087 225.098 87.2355 243.112Z" fill="url(#paint13_radial_232_1164)" fill-opacity="0.5"/>
<g opacity="0.75">
<path d="M80.8802 236.59C80.1171 249.399 69.8414 255.917 57.9289 251.147C46.0163 246.378 36.9779 232.128 37.7411 219.319C38.5042 206.51 48.7798 199.992 60.6924 204.762C72.6049 209.531 81.6433 223.781 80.8802 236.59Z" fill="url(#paint14_radial_232_1164)"/>
<path d="M80.8802 236.59C80.1171 249.399 69.8414 255.917 57.9289 251.147C46.0163 246.378 36.9779 232.128 37.7411 219.319C38.5042 206.51 48.7798 199.992 60.6924 204.762C72.6049 209.531 81.6433 223.781 80.8802 236.59Z" fill="url(#paint15_radial_232_1164)"/>
</g>
<path d="M87.153 243.156C86.6129 252.233 82.6762 259.063 76.7597 262.749L76.7606 262.751L82.8827 258.867L82.8818 258.865C88.7983 255.18 92.735 248.349 93.2751 239.272C94.3469 221.257 81.6339 201.217 64.8798 194.511C56.438 191.132 48.581 191.783 42.7255 195.565L42.7251 195.564L36.603 199.448L36.6034 199.449C42.4588 195.667 50.3159 195.016 58.7577 198.395C75.5118 205.101 88.2248 225.141 87.153 243.156Z" fill="url(#paint16_linear_232_1164)"/>
</g>
<g filter="url(#filter2_b_232_1164)">
<path d="M80.5 14.5032L267.5 122.506V403.5L239 420L52 311.997V31.0031L80.5 14.5032Z" fill="url(#paint17_linear_232_1164)"/>
</g>
<path opacity="0.5" d="M240.5 138.306L267.5 122.5L80.5004 14.5L53.5005 30.3055L240.5 138.306Z" fill="url(#paint18_linear_232_1164)"/>
<path d="M240 419.425L239.217 419.876L52 312L52 30.4514L52.7833 30L240 137.876V419.425Z" fill="url(#paint19_linear_232_1164)"/>
<path d="M223 383.632L222.358 384L69 296.011L69 66.3681L69.6417 66L223 153.989V383.632Z" fill="url(#paint20_linear_232_1164)"/>
<g filter="url(#filter3_f_232_1164)">
<path opacity="0.25" d="M34.9999 419.024L35.3892 419.248L128.443 365.742V127.224L128.054 127L34.9999 180.505V419.024Z" fill="url(#paint21_linear_232_1164)"/>
<path opacity="0.25" d="M81.7216 419.024L82.1109 419.248L175.165 365.742V127.224L174.776 127L81.7216 180.505V419.024Z" fill="url(#paint22_linear_232_1164)"/>
</g>
<g opacity="0.25" filter="url(#filter4_b_232_1164)">
<path d="M89 206.085L88.7077 206.254L18.8413 165.778V84.9948L19.1336 84.8254L89 125.302V206.085Z" fill="url(#paint23_linear_232_1164)"/>
</g>
<g filter="url(#filter5_b_232_1164)">
<path d="M74.1587 212.831L73.8664 213L4 172.524V91.7408L4.29233 91.5714L74.1587 132.048V212.831Z" fill="url(#paint24_linear_232_1164)"/>
</g>
<g clip-path="url(#clip0_232_1164)">
<path d="M36.4347 132.314C36.4347 134.551 35.6712 136.241 34.3121 137.014C32.953 137.787 31.1097 137.579 29.1877 136.435C27.2657 135.292 25.4224 133.307 24.0633 130.917C22.7042 128.527 21.9407 125.928 21.9407 123.691C21.9407 121.455 22.7042 119.764 24.0633 118.991C25.4224 118.219 27.2657 118.427 29.1877 119.57C31.1097 120.714 32.953 122.699 34.3121 125.089C35.6712 127.479 36.4347 130.078 36.4347 132.314V132.314ZM48.6821 153.272C48.4102 152.951 48.1024 152.713 47.8023 152.591C47.5021 152.469 47.2247 152.468 47.0095 152.59L36.2549 162.079L28.5442 148.141C28.2658 147.76 27.9318 147.464 27.599 147.304C27.2661 147.145 26.9548 147.13 26.7179 147.264L16.1489 155.662V162.408C16.1489 163.303 16.4543 164.342 16.998 165.298C17.5416 166.254 18.2789 167.048 19.0477 167.506L59.6308 191.65C60.0115 191.877 60.3884 192.014 60.7401 192.053C61.0918 192.093 61.4114 192.035 61.6806 191.882C61.9497 191.729 62.1633 191.484 62.3089 191.161C62.4546 190.839 62.5296 190.445 62.5296 190.002V174.823L48.6821 153.272V153.272Z" fill="#5EB1EE"/>
</g>
<path fill-rule="evenodd" clip-rule="evenodd" d="M121.546 175.704V223.208L157.188 267.551L192.705 264.279V216.775L157.12 172.451L121.546 175.704ZM116.752 170.01L157.12 166.284L197.499 216.616V270.182L157.188 273.823L116.752 223.576V170.01ZM169.203 200.292L157.132 185.222L150.194 185.764V212.573L168.071 222.894V229.74L150.194 219.419V253.388L145.397 246.96V179.649L157.132 178.324L171.964 196.922L169.203 200.292ZM129.964 183.072C129.964 183.44 134.098 201.257 135.893 208.969L135.938 181.296L141.052 181.008V241.838L137.431 237.344L129.964 200.709V228.068L125.709 222.79V183.386L129.964 183.072ZM171.692 203.297L178.074 211.789V261.07L183.369 260.731V218.191L189.931 227.154V220.674L174.317 200.266L171.692 203.297Z" fill="#B6E8F9"/>
<g filter="url(#filter6_dd_232_1164)">
<path d="M281.556 247.556C272.965 256.148 259.035 256.148 250.444 247.556C241.852 238.965 241.852 225.035 250.444 216.444C259.035 207.852 272.965 207.852 281.556 216.444C290.148 225.035 290.148 238.965 281.556 247.556Z" fill="url(#paint25_radial_232_1164)"/>
<path d="M281.556 247.556C272.965 256.148 259.035 256.148 250.444 247.556C241.852 238.965 241.852 225.035 250.444 216.444C259.035 207.852 272.965 207.852 281.556 216.444C290.148 225.035 290.148 238.965 281.556 247.556Z" fill="url(#paint26_radial_232_1164)"/>
</g>
<path d="M205.5 166.165V447.136L205.217 447.299L18.5 339.711V58.7403L18.7833 58.5771L205.5 166.165Z" stroke="url(#paint27_linear_232_1164)"/>
<path d="M308.5 297L335 312.301V342.904L308.5 358.205L282 342.904V312.301L308.5 297Z" fill="url(#paint28_linear_232_1164)"/>
<g opacity="0.5" filter="url(#filter7_d_232_1164)">
<path d="M308.5 358.205L335 342.904L308.5 327.602L282 342.904L308.5 358.205Z" fill="url(#paint29_linear_232_1164)" shape-rendering="crispEdges"/>
</g>
<path d="M308.5 327.603L335 312.301L308.5 297L282 312.301L308.5 327.603Z" fill="url(#paint30_linear_232_1164)"/>
<path d="M308.611 358.141L308.5 358.205L282 342.904V312.365L282.111 312.301L308.611 327.603V358.141Z" fill="url(#paint31_linear_232_1164)"/>
<defs>
<filter id="filter0_f_232_1164" x="232" y="110" width="98" height="217" filterUnits="userSpaceOnUse" color-interpolation-filters="sRGB">
<feFlood flood-opacity="0" result="BackgroundImageFix"/>
<feBlend mode="normal" in="SourceGraphic" in2="BackgroundImageFix" result="shape"/>
<feGaussianBlur stdDeviation="10.5" result="effect1_foregroundBlur_232_1164"/>
</filter>
<filter id="filter1_f_232_1164" x="6" y="127" width="98" height="217" filterUnits="userSpaceOnUse" color-interpolation-filters="sRGB">
<feFlood flood-opacity="0" result="BackgroundImageFix"/>
<feBlend mode="normal" in="SourceGraphic" in2="BackgroundImageFix" result="shape"/>
<feGaussianBlur stdDeviation="10.5" result="effect1_foregroundBlur_232_1164"/>
</filter>
<filter id="filter2_b_232_1164" x="31" y="-6.49683" width="257.5" height="447.496" filterUnits="userSpaceOnUse" color-interpolation-filters="sRGB">
<feFlood flood-opacity="0" result="BackgroundImageFix"/>
<feGaussianBlur in="BackgroundImage" stdDeviation="10.5"/>
<feComposite in2="SourceAlpha" operator="in" result="effect1_backgroundBlur_232_1164"/>
<feBlend mode="normal" in="SourceGraphic" in2="effect1_backgroundBlur_232_1164" result="shape"/>
</filter>
<filter id="filter3_f_232_1164" x="0" y="92" width="210.165" height="362.248" filterUnits="userSpaceOnUse" color-interpolation-filters="sRGB">
<feFlood flood-opacity="0" result="BackgroundImageFix"/>
<feBlend mode="normal" in="SourceGraphic" in2="BackgroundImageFix" result="shape"/>
<feGaussianBlur stdDeviation="17.5" result="effect1_foregroundBlur_232_1164"/>
</filter>
<filter id="filter4_b_232_1164" x="4.84131" y="70.8254" width="98.1587" height="149.429" filterUnits="userSpaceOnUse" color-interpolation-filters="sRGB">
<feFlood flood-opacity="0" result="BackgroundImageFix"/>
<feGaussianBlur in="BackgroundImage" stdDeviation="7"/>
<feComposite in2="SourceAlpha" operator="in" result="effect1_backgroundBlur_232_1164"/>
<feBlend mode="normal" in="SourceGraphic" in2="effect1_backgroundBlur_232_1164" result="shape"/>
</filter>
<filter id="filter5_b_232_1164" x="-10" y="77.5714" width="98.1587" height="149.429" filterUnits="userSpaceOnUse" color-interpolation-filters="sRGB">
<feFlood flood-opacity="0" result="BackgroundImageFix"/>
<feGaussianBlur in="BackgroundImage" stdDeviation="7"/>
<feComposite in2="SourceAlpha" operator="in" result="effect1_backgroundBlur_232_1164"/>
<feBlend mode="normal" in="SourceGraphic" in2="effect1_backgroundBlur_232_1164" result="shape"/>
</filter>
<filter id="filter6_dd_232_1164" x="181" y="142" width="158" height="162" filterUnits="userSpaceOnUse" color-interpolation-filters="sRGB">
<feFlood flood-opacity="0" result="BackgroundImageFix"/>
<feColorMatrix in="SourceAlpha" type="matrix" values="0 0 0 0 0 0 0 0 0 0 0 0 0 0 0 0 0 0 127 0" result="hardAlpha"/>
<feOffset dx="-20" dy="7"/>
<feGaussianBlur stdDeviation="21.5"/>
<feComposite in2="hardAlpha" operator="out"/>
<feColorMatrix type="matrix" values="0 0 0 0 0 0 0 0 0 0.928 0 0 0 0 1 0 0 0 1 0"/>
<feBlend mode="normal" in2="BackgroundImageFix" result="effect1_dropShadow_232_1164"/>
<feColorMatrix in="SourceAlpha" type="matrix" values="0 0 0 0 0 0 0 0 0 0 0 0 0 0 0 0 0 0 127 0" result="hardAlpha"/>
<feOffset dx="4" dy="-21"/>
<feGaussianBlur stdDeviation="23.5"/>
<feComposite in2="hardAlpha" operator="out"/>
<feColorMatrix type="matrix" values="0 0 0 0 0.230903 0 0 0 0 0.354271 0 0 0 0 0.791667 0 0 0 1 0"/>
<feBlend mode="normal" in2="effect1_dropShadow_232_1164" result="effect2_dropShadow_232_1164"/>
<feBlend mode="normal" in="SourceGraphic" in2="effect2_dropShadow_232_1164" result="shape"/>
</filter>
<filter id="filter7_d_232_1164" x="132" y="252.602" width="353" height="330.603" filterUnits="userSpaceOnUse" color-interpolation-filters="sRGB">
<feFlood flood-opacity="0" result="BackgroundImageFix"/>
<feColorMatrix in="SourceAlpha" type="matrix" values="0 0 0 0 0 0 0 0 0 0 0 0 0 0 0 0 0 0 127 0" result="hardAlpha"/>
<feOffset dy="75"/>
<feGaussianBlur stdDeviation="75"/>
<feComposite in2="hardAlpha" operator="out"/>
<feColorMatrix type="matrix" values="0 0 0 0 0.3125 0 0 0 0 0.67 0 0 0 0 1 0 0 0 1 0"/>
<feBlend mode="normal" in2="BackgroundImageFix" result="effect1_dropShadow_232_1164"/>
<feBlend mode="normal" in="SourceGraphic" in2="effect1_dropShadow_232_1164" result="shape"/>
</filter>
<linearGradient id="paint0_linear_232_1164" x1="303.025" y1="199.81" x2="302.902" y2="148.846" gradientUnits="userSpaceOnUse">
<stop stop-color="#0047FF" stop-opacity="0"/>
<stop offset="1" stop-color="#305DFF" stop-opacity="0.76"/>
</linearGradient>
<linearGradient id="paint1_linear_232_1164" x1="308.767" y1="293.309" x2="308.458" y2="164.86" gradientUnits="userSpaceOnUse">
<stop stop-color="#00A3FF" stop-opacity="0"/>
<stop offset="1" stop-color="#30CDFF" stop-opacity="0.76"/>
</linearGradient>
<radialGradient id="paint2_radial_232_1164" cx="0" cy="0" r="1" gradientUnits="userSpaceOnUse" gradientTransform="translate(285.738 76.3373) rotate(93.4094) scale(55.9453 53.0821)">
<stop stop-color="#133A74"/>
<stop offset="1" stop-color="#134974" stop-opacity="0"/>
</radialGradient>
<radialGradient id="paint3_radial_232_1164" cx="0" cy="0" r="1" gradientUnits="userSpaceOnUse" gradientTransform="translate(283.092 120.755) rotate(93.4094) scale(35.8941 34.0571)">
<stop stop-color="#2A6AAC" stop-opacity="0"/>
<stop offset="0.75" stop-color="#4441CB" stop-opacity="0"/>
<stop offset="1" stop-color="#2A6AAC"/>
</radialGradient>
<radialGradient id="paint4_radial_232_1164" cx="0" cy="0" r="1" gradientUnits="userSpaceOnUse" gradientTransform="translate(282.992 122.423) rotate(93.4094) scale(34.2232 32.4717)">
<stop stop-color="white" stop-opacity="0"/>
<stop offset="0.929818" stop-color="#3E9DFF" stop-opacity="0"/>
<stop offset="1" stop-color="#3E9DFF"/>
</radialGradient>
<radialGradient id="paint5_radial_232_1164" cx="0" cy="0" r="1" gradientUnits="userSpaceOnUse" gradientTransform="translate(287.328 87.0876) rotate(94.4753) scale(48.2311 45.7627)">
<stop stop-color="#1D88D5"/>
<stop offset="1" stop-color="#133A74" stop-opacity="0.41"/>
</radialGradient>
<radialGradient id="paint6_radial_232_1164" cx="0" cy="0" r="1" gradientUnits="userSpaceOnUse" gradientTransform="translate(285.058 122.591) rotate(91.322) scale(27.7282 26.3091)">
<stop stop-color="#2A6AAC" stop-opacity="0"/>
<stop offset="0.75" stop-color="#4441CB" stop-opacity="0"/>
<stop offset="1" stop-color="#2A6AAC"/>
</radialGradient>
<linearGradient id="paint7_linear_232_1164" x1="312.714" y1="149.699" x2="269.427" y2="86.1545" gradientUnits="userSpaceOnUse">
<stop stop-color="#50C0FF"/>
<stop offset="0.807292" stop-color="#4982EE" stop-opacity="0"/>
<stop offset="0.864583" stop-color="#4877EB" stop-opacity="0.282239"/>
<stop offset="1" stop-color="#455FE4" stop-opacity="0.25"/>
</linearGradient>
<linearGradient id="paint8_linear_232_1164" x1="105" y1="280.5" x2="293" y2="108.5" gradientUnits="userSpaceOnUse">
<stop stop-color="#50C0FF"/>
<stop offset="1" stop-color="#50C0FF" stop-opacity="0"/>
</linearGradient>
<linearGradient id="paint9_linear_232_1164" x1="77.0252" y1="216.81" x2="76.9025" y2="165.846" gradientUnits="userSpaceOnUse">
<stop stop-color="#0047FF" stop-opacity="0"/>
<stop offset="1" stop-color="#305DFF" stop-opacity="0.76"/>
</linearGradient>
<linearGradient id="paint10_linear_232_1164" x1="82.7667" y1="310.309" x2="82.458" y2="181.86" gradientUnits="userSpaceOnUse">
<stop stop-color="#00A3FF" stop-opacity="0"/>
<stop offset="1" stop-color="#30CDFF" stop-opacity="0.76"/>
</linearGradient>
<radialGradient id="paint11_radial_232_1164" cx="0" cy="0" r="1" gradientUnits="userSpaceOnUse" gradientTransform="translate(59.7381 183.337) rotate(93.4094) scale(55.9453 53.0821)">
<stop stop-color="#133A74"/>
<stop offset="1" stop-color="#134974" stop-opacity="0"/>
</radialGradient>
<radialGradient id="paint12_radial_232_1164" cx="0" cy="0" r="1" gradientUnits="userSpaceOnUse" gradientTransform="translate(57.0918 227.755) rotate(93.4094) scale(35.8941 34.0571)">
<stop stop-color="#2A6AAC" stop-opacity="0"/>
<stop offset="0.75" stop-color="#4441CB" stop-opacity="0"/>
<stop offset="1" stop-color="#2A6AAC"/>
</radialGradient>
<radialGradient id="paint13_radial_232_1164" cx="0" cy="0" r="1" gradientUnits="userSpaceOnUse" gradientTransform="translate(56.9925 229.423) rotate(93.4094) scale(34.2232 32.4717)">
<stop stop-color="white" stop-opacity="0"/>
<stop offset="0.929818" stop-color="#3E9DFF" stop-opacity="0"/>
<stop offset="1" stop-color="#3E9DFF"/>
</radialGradient>
<radialGradient id="paint14_radial_232_1164" cx="0" cy="0" r="1" gradientUnits="userSpaceOnUse" gradientTransform="translate(61.3284 194.088) rotate(94.4753) scale(48.2311 45.7627)">
<stop stop-color="#1D88D5"/>
<stop offset="1" stop-color="#133A74" stop-opacity="0.41"/>
</radialGradient>
<radialGradient id="paint15_radial_232_1164" cx="0" cy="0" r="1" gradientUnits="userSpaceOnUse" gradientTransform="translate(59.0576 229.591) rotate(91.322) scale(27.7282 26.3091)">
<stop stop-color="#2A6AAC" stop-opacity="0"/>
<stop offset="0.75" stop-color="#4441CB" stop-opacity="0"/>
<stop offset="1" stop-color="#2A6AAC"/>
</radialGradient>
<linearGradient id="paint16_linear_232_1164" x1="86.7137" y1="256.699" x2="43.4266" y2="193.154" gradientUnits="userSpaceOnUse">
<stop stop-color="#50C0FF"/>
<stop offset="0.807292" stop-color="#4982EE" stop-opacity="0"/>
<stop offset="0.864583" stop-color="#4877EB" stop-opacity="0.282239"/>
<stop offset="1" stop-color="#455FE4" stop-opacity="0.25"/>
</linearGradient>
<linearGradient id="paint17_linear_232_1164" x1="426" y1="247.009" x2="51.9314" y2="-56.9156" gradientUnits="userSpaceOnUse">
<stop stop-color="#5076FF" stop-opacity="0.25"/>
<stop offset="1" stop-color="#455FE4" stop-opacity="0"/>
</linearGradient>
<linearGradient id="paint18_linear_232_1164" x1="203" y1="116.653" x2="278" y2="116.653" gradientUnits="userSpaceOnUse">
<stop stop-color="#50C0FF" stop-opacity="0.5"/>
<stop offset="1" stop-color="#000B1B" stop-opacity="0.57"/>
</linearGradient>
<linearGradient id="paint19_linear_232_1164" x1="43" y1="306" x2="216.819" y2="191.725" gradientUnits="userSpaceOnUse">
<stop stop-color="#30CDFF" stop-opacity="0.76"/>
<stop offset="1" stop-color="#00A3FF" stop-opacity="0"/>
</linearGradient>
<linearGradient id="paint20_linear_232_1164" x1="168.5" y1="240" x2="232.674" y2="378.688" gradientUnits="userSpaceOnUse">
<stop stop-color="#011321"/>
<stop offset="1" stop-color="#133A74" stop-opacity="0.47"/>
</linearGradient>
<linearGradient id="paint21_linear_232_1164" x1="35.3892" y1="398.053" x2="35.9051" y2="183.545" gradientUnits="userSpaceOnUse">
<stop stop-color="#0047FF" stop-opacity="0"/>
<stop offset="1" stop-color="#305DFF" stop-opacity="0.76"/>
</linearGradient>
<linearGradient id="paint22_linear_232_1164" x1="82.1109" y1="398.053" x2="82.6267" y2="183.545" gradientUnits="userSpaceOnUse">
<stop stop-color="#00A3FF" stop-opacity="0"/>
<stop offset="1" stop-color="#30CDFF" stop-opacity="0.76"/>
</linearGradient>
<linearGradient id="paint23_linear_232_1164" x1="18.8413" y1="164.605" x2="88.8191" y2="125.501" gradientUnits="userSpaceOnUse">
<stop stop-color="#30CDFF" stop-opacity="0.76"/>
<stop offset="1" stop-color="#00A3FF" stop-opacity="0"/>
</linearGradient>
<linearGradient id="paint24_linear_232_1164" x1="4" y1="171.351" x2="73.9778" y2="132.247" gradientUnits="userSpaceOnUse">
<stop stop-color="#30CDFF" stop-opacity="0.76"/>
<stop offset="1" stop-color="#00A3FF" stop-opacity="0"/>
</linearGradient>
<radialGradient id="paint25_radial_232_1164" cx="0" cy="0" r="1" gradientUnits="userSpaceOnUse" gradientTransform="translate(276.286 221.714) rotate(135) scale(36.5467)">
<stop stop-color="white" stop-opacity="0"/>
<stop offset="0.668121" stop-color="#3E9DFF" stop-opacity="0"/>
<stop offset="1" stop-color="#3E9DFF" stop-opacity="0.43"/>
</radialGradient>
<radialGradient id="paint26_radial_232_1164" cx="0" cy="0" r="1" gradientUnits="userSpaceOnUse" gradientTransform="translate(246.574 242.766) rotate(-29.9927) scale(40.2642)">
<stop stop-color="white"/>
<stop offset="0.463542" stop-color="#72DDFF"/>
<stop offset="0.733683" stop-color="#50C0FF"/>
<stop offset="1" stop-color="#0E67BA"/>
</radialGradient>
<linearGradient id="paint27_linear_232_1164" x1="18" y1="338.5" x2="206" y2="166.5" gradientUnits="userSpaceOnUse">
<stop stop-color="#50C0FF"/>
<stop offset="1" stop-color="#50C0FF" stop-opacity="0"/>
</linearGradient>
<linearGradient id="paint28_linear_232_1164" x1="335" y1="342.904" x2="282.111" y2="312.301" gradientUnits="userSpaceOnUse">
<stop stop-color="#5076FF" stop-opacity="0.25"/>
<stop offset="1" stop-color="#455FE4" stop-opacity="0"/>
</linearGradient>
<linearGradient id="paint29_linear_232_1164" x1="282" y1="342.904" x2="335" y2="342.904" gradientUnits="userSpaceOnUse">
<stop stop-color="#50C0FF" stop-opacity="0.5"/>
<stop offset="1" stop-color="#133A74" stop-opacity="0"/>
</linearGradient>
<linearGradient id="paint30_linear_232_1164" x1="282" y1="312.301" x2="335" y2="312.301" gradientUnits="userSpaceOnUse">
<stop stop-color="#50C0FF" stop-opacity="0.5"/>
<stop offset="1" stop-color="#000B1B" stop-opacity="0.57"/>
</linearGradient>
<linearGradient id="paint31_linear_232_1164" x1="282" y1="342.46" x2="308.5" y2="327.603" gradientUnits="userSpaceOnUse">
<stop stop-color="#30CDFF" stop-opacity="0.76"/>
<stop offset="1" stop-color="#00A3FF" stop-opacity="0"/>
</linearGradient>
<clipPath id="clip0_232_1164">
<rect width="53.9683" height="53.9683" fill="white" transform="matrix(0.859406 0.511293 0 1 16.1431 111.81)"/>
</clipPath>
</defs>
</svg>
