<svg width="181" height="181" viewBox="0 0 181 181" fill="none" xmlns="http://www.w3.org/2000/svg">
<g opacity="0.75">
<path d="M154.493 154.493C119.151 189.836 61.8493 189.836 26.5068 154.493C-8.83561 119.151 -8.83561 61.8493 26.5068 26.5068C61.8493 -8.83561 119.151 -8.83561 154.493 26.5068C189.836 61.8493 189.836 119.151 154.493 154.493Z" fill="url(#paint0_radial_232_1161)"/>
<path d="M154.493 154.493C119.151 189.836 61.8493 189.836 26.5068 154.493C-8.83561 119.151 -8.83561 61.8493 26.5068 26.5068C61.8493 -8.83561 119.151 -8.83561 154.493 26.5068C189.836 61.8493 189.836 119.151 154.493 154.493Z" fill="url(#paint1_radial_232_1161)"/>
<path d="M154.493 154.493C119.151 189.836 61.8493 189.836 26.5068 154.493C-8.83561 119.151 -8.83561 61.8493 26.5068 26.5068C61.8493 -8.83561 119.151 -8.83561 154.493 26.5068C189.836 61.8493 189.836 119.151 154.493 154.493Z" fill="url(#paint2_radial_232_1161)" fill-opacity="0.5"/>
</g>
<defs>
<radialGradient id="paint0_radial_232_1161" cx="0" cy="0" r="1" gradientUnits="userSpaceOnUse" gradientTransform="translate(183.945 -2.94447) rotate(135) scale(154.947)">
<stop stop-color="#133A74"/>
<stop offset="1" stop-color="#134974" stop-opacity="0"/>
</radialGradient>
<radialGradient id="paint1_radial_232_1161" cx="0" cy="0" r="1" gradientUnits="userSpaceOnUse" gradientTransform="translate(96.8026 84.1977) rotate(135) scale(99.4129)">
<stop stop-color="#2A6AAC" stop-opacity="0"/>
<stop offset="0.75" stop-color="#4441CB" stop-opacity="0"/>
<stop offset="1" stop-color="#2A6AAC"/>
</radialGradient>
<radialGradient id="paint2_radial_232_1161" cx="0" cy="0" r="1" gradientUnits="userSpaceOnUse" gradientTransform="translate(93.5302 87.4701) rotate(135) scale(94.785)">
<stop stop-color="white" stop-opacity="0"/>
<stop offset="0.929818" stop-color="#3E9DFF" stop-opacity="0"/>
<stop offset="1" stop-color="#3E9DFF"/>
</radialGradient>
</defs>
</svg>
