<?xml version="1.0" standalone="no"?>
<!DOCTYPE svg PUBLIC "-//W3C//DTD SVG 20010904//EN"
 "http://www.w3.org/TR/2001/REC-SVG-20010904/DTD/svg10.dtd">
<svg version="1.0" xmlns="http://www.w3.org/2000/svg"
 width="512.000000pt" height="512.000000pt" viewBox="0 0 512.000000 512.000000"
 preserveAspectRatio="xMidYMid meet">

<g transform="translate(0.000000,512.000000) scale(0.100000,-0.100000)"
fill="#000000" stroke="none">
<path d="M345 5095 l-25 -24 0 -2111 0 -2111 25 -24 24 -25 1190 0 1190 0 16
-57 c25 -86 87 -213 145 -297 59 -85 189 -214 270 -267 323 -213 708 -236
1050 -64 102 51 151 86 242 173 341 326 423 805 211 1227 -53 104 -113 183
-210 276 -93 89 -142 124 -249 177 -146 74 -307 112 -470 112 l-74 0 0 1257 0
1258 -263 262 -262 263 -1393 0 -1393 0 -24 -25z m2695 -350 c0 -288 -23 -265
265 -265 l215 0 0 -1214 0 -1215 -57 -16 c-76 -22 -208 -84 -280 -132 -78 -51
-202 -171 -262 -252 -128 -173 -201 -398 -201 -617 l0 -74 -120 0 -120 0 0
302 0 302 200 201 200 201 0 186 0 186 30 12 c68 28 130 129 130 210 0 125
-114 240 -238 240 -126 0 -242 -115 -242 -240 0 -81 62 -182 130 -210 l30 -12
0 -151 0 -151 -200 -201 -200 -201 0 -337 0 -337 -120 0 -120 0 0 849 0 849
30 12 c68 28 130 129 130 210 0 125 -114 240 -238 240 -126 0 -242 -115 -242
-240 0 -81 62 -182 130 -210 l30 -12 0 -849 0 -849 -120 0 -120 0 0 337 0 337
-200 201 -200 201 0 151 0 151 30 12 c68 28 130 129 130 210 0 125 -114 240
-238 240 -126 0 -242 -115 -242 -240 0 -81 62 -182 130 -210 l30 -12 0 -186 0
-186 200 -201 200 -201 0 -302 0 -302 -520 0 -520 0 0 2000 0 2000 1280 0
1280 0 0 -215z m265 -5 l100 -100 -103 0 -102 0 0 100 c0 55 1 100 3 100 1 0
47 -45 102 -100z m-1250 -1805 c50 -49 15 -135 -55 -135 -41 0 -80 39 -80 80
0 41 39 80 80 80 19 0 40 -9 55 -25z m-800 -320 c16 -15 25 -36 25 -55 0 -19
-9 -40 -25 -55 -15 -16 -36 -25 -55 -25 -19 0 -40 9 -55 25 -50 49 -15 135 55
135 19 0 40 -9 55 -25z m1600 0 c50 -49 15 -135 -55 -135 -41 0 -80 39 -80 80
0 19 9 40 25 55 15 16 36 25 55 25 19 0 40 -9 55 -25z m1060 -710 c336 -59
606 -310 698 -650 31 -114 31 -316 0 -430 -44 -162 -121 -297 -237 -410 -345
-341 -900 -337 -1241 9 -340 344 -338 894 5 1236 206 206 487 295 775 245z"/>
<path d="M1161 4464 c-253 -68 -410 -331 -346 -579 45 -172 178 -304 352 -350
47 -13 119 -15 385 -14 l328 2 44 -41 c53 -49 125 -87 203 -107 83 -22 623
-22 706 0 258 67 417 329 352 580 -45 172 -178 304 -352 350 -47 13 -119 15
-385 14 l-328 -2 -44 41 c-53 49 -125 87 -203 107 -81 21 -633 20 -712 -1z
m724 -172 c90 -42 91 -45 24 -109 -67 -64 -121 -160 -140 -250 -11 -55 -8
-160 7 -226 l7 -28 -294 3 -294 3 -51 27 c-76 40 -107 70 -145 140 -31 58 -34
70 -33 148 0 69 5 94 24 135 42 86 124 153 215 176 17 4 165 7 330 6 290 -2
302 -3 350 -25z m983 -171 c70 -38 101 -70 140 -145 22 -43 26 -64 26 -136 1
-78 -2 -90 -33 -148 -38 -70 -69 -100 -145 -140 l-51 -27 -320 0 c-312 0 -321
1 -370 23 -90 42 -91 45 -24 109 67 64 121 160 140 250 11 55 8 160 -7 226
l-7 28 294 -3 294 -3 63 -34z m-793 -119 c0 -91 -30 -166 -90 -226 -50 -50
-60 -38 -59 67 0 93 25 154 89 223 48 50 60 37 60 -64z"/>
<path d="M3641 1744 c-184 -49 -325 -206 -355 -395 -7 -45 -15 -69 -24 -69 -7
0 -24 -11 -37 -25 l-25 -24 0 -312 c0 -215 4 -324 12 -353 16 -55 99 -138 154
-154 58 -17 730 -17 788 0 55 16 138 99 154 154 8 29 12 138 12 353 l0 312
-25 24 c-13 14 -30 25 -37 25 -9 0 -17 24 -24 69 -45 280 -325 467 -593 395z
m270 -185 c90 -48 149 -132 164 -232 l7 -47 -322 0 -322 0 7 47 c19 126 114
231 240 264 62 17 161 2 226 -32z m249 -694 l0 -256 -25 -24 -24 -25 -351 0
-351 0 -24 25 -25 24 0 256 0 255 400 0 400 0 0 -255z"/>
<path d="M3680 840 l0 -120 80 0 80 0 0 120 0 120 -80 0 -80 0 0 -120z"/>
</g>
</svg>
