<svg width="1920" height="1920" viewBox="0 0 1920 1920" fill="none" xmlns="http://www.w3.org/2000/svg">
<rect width="1920" height="1920" />
<path opacity="0.25" d="M960.019 1768L1808.04 1276.34L960.019 784.679L112 1276.34L960.019 1768Z" fill="url(#paint0_linear_11_1695)"/>
<g clip-path="url(#clip0_11_1695)">
<path d="M531.517 1068.34L513.303 1057.85V737.985L531.517 748.538V1068.34Z" fill="url(#paint1_linear_11_1695)"/>
<path d="M547.302 739.441L531.517 748.538V1068.34L547.302 1059.24V739.441Z" fill="url(#paint2_linear_11_1695)"/>
<path d="M547.302 739.441L531.517 748.538L513.303 737.986L529.088 728.888L547.302 739.441Z" fill="url(#paint3_radial_11_1695)"/>
<path d="M1425.92 751.813L1370 719.609V275.723L1425.92 307.927V751.813Z" fill="url(#paint4_linear_11_1695)"/>
<path d="M1474.31 280.029L1425.92 307.927V751.813L1474.31 723.915V280.029Z" fill="url(#paint5_linear_11_1695)"/>
<path d="M1474.31 280.029L1425.92 307.927L1370 275.723L1418.45 247.825L1474.31 280.029Z" fill="url(#paint6_radial_11_1695)"/>
<path d="M1321.74 784.139L847.034 1057.97C841.013 1056.05 834.479 1056.55 828.821 1059.36C827.521 1059.81 826.393 1060.65 825.595 1061.77C824.797 1062.89 824.369 1064.23 824.369 1065.61C824.369 1066.98 824.797 1068.32 825.595 1069.44C826.393 1070.56 827.521 1071.41 828.821 1071.86C832.179 1073.56 835.892 1074.45 839.658 1074.45C843.424 1074.45 847.137 1073.56 850.495 1071.86C855.413 1069 856.202 1064.7 852.923 1061.3L1313.78 795.662V884.694L1026.62 1050.32C1020.6 1048.4 1014.06 1048.9 1008.41 1051.72C1007.11 1052.17 1005.98 1053.01 1005.18 1054.13C1004.38 1055.25 1003.95 1056.59 1003.95 1057.97C1003.95 1059.34 1004.38 1060.68 1005.18 1061.8C1005.98 1062.92 1007.11 1063.76 1008.41 1064.21C1011.75 1065.92 1015.46 1066.81 1019.21 1066.81C1022.97 1066.81 1026.67 1065.92 1030.02 1064.21C1035 1061.36 1035.79 1057.06 1032.51 1053.66L1322.04 886.695L1321.74 784.139ZM920.131 1070.4L1209.3 903.677C1212.59 905.267 1216.21 906.092 1219.86 906.092C1223.52 906.092 1227.13 905.267 1230.43 903.677C1231.73 903.227 1232.86 902.384 1233.65 901.264C1234.45 900.145 1234.88 898.805 1234.88 897.43C1234.88 896.056 1234.45 894.716 1233.65 893.596C1232.86 892.476 1231.73 891.633 1230.43 891.183C1227.07 889.479 1223.36 888.59 1219.59 888.59C1215.82 888.59 1212.11 889.479 1208.75 891.183C1204.75 893.488 1203.53 896.763 1204.87 899.674L914.303 1067.06L920.131 1070.4ZM464.794 1200.61C458.765 1198.71 452.231 1199.23 446.581 1202.07C445.281 1202.52 444.153 1203.36 443.355 1204.48C442.557 1205.6 442.129 1206.94 442.129 1208.31C442.129 1209.69 442.557 1211.03 443.355 1212.15C444.153 1213.27 445.281 1214.11 446.581 1214.56C449.939 1216.23 453.638 1217.1 457.388 1217.1C461.137 1217.1 464.836 1216.23 468.194 1214.56C473.173 1211.71 474.265 1207.34 470.683 1204.01L1321.43 713.18C1327.46 715.101 1333.99 714.6 1339.65 711.785C1340.95 711.336 1342.08 710.492 1342.87 709.373C1343.67 708.253 1344.1 706.913 1344.1 705.538C1344.1 704.164 1343.67 702.824 1342.87 701.704C1342.08 700.585 1340.95 699.741 1339.65 699.292C1336.29 697.587 1332.58 696.699 1328.81 696.699C1325.04 696.699 1321.33 697.587 1317.97 699.292C1313.06 702.142 1312.27 706.448 1315.48 709.845L464.794 1200.61ZM683.599 1022.67L1202.2 723.551C1208.23 725.453 1214.76 724.931 1220.41 722.096C1221.71 721.646 1222.84 720.803 1223.64 719.683C1224.43 718.563 1224.86 717.223 1224.86 715.849C1224.86 714.474 1224.43 713.134 1223.64 712.015C1222.84 710.895 1221.71 710.052 1220.41 709.602C1217.04 707.925 1213.33 707.052 1209.57 707.052C1205.81 707.052 1202.1 707.925 1198.74 709.602C1193.82 712.513 1193.03 716.819 1196.31 720.155L691.856 1011.27V926.966L1081.26 702.567C1087.29 704.469 1093.82 703.946 1099.47 701.111C1100.68 700.62 1101.71 699.78 1102.44 698.7C1103.17 697.62 1103.55 696.348 1103.55 695.046C1103.55 693.745 1103.17 692.473 1102.44 691.393C1101.71 690.312 1100.68 689.473 1099.47 688.982C1096.13 687.277 1092.42 686.389 1088.67 686.389C1084.91 686.389 1081.21 687.277 1077.86 688.982C1072.88 691.832 1072.09 696.138 1075.37 699.474L683.599 924.843V1022.67ZM1541.15 872.382C1537.79 870.678 1534.08 869.789 1530.31 869.789C1526.55 869.789 1522.83 870.678 1519.48 872.382C1514.56 875.233 1513.77 879.539 1517.05 882.935L1056.25 1148.64H777.762L575.593 1265.26C570.11 1263.97 564.346 1264.66 559.322 1267.2C558.022 1267.65 556.895 1268.5 556.097 1269.62C555.299 1270.74 554.87 1272.08 554.87 1273.45C554.87 1274.82 555.299 1276.17 556.097 1277.28C556.895 1278.4 558.022 1279.25 559.322 1279.7C562.669 1281.4 566.372 1282.29 570.129 1282.29C573.885 1282.29 577.589 1281.4 580.936 1279.7C586.46 1276.54 587.007 1271.63 582.271 1268.17L781.162 1153.43H1059.71L1522.88 886.271C1528.9 888.192 1535.43 887.691 1541.09 884.876C1542.39 884.433 1543.52 883.595 1544.33 882.479C1545.13 881.363 1545.57 880.025 1545.57 878.651C1545.58 877.276 1545.16 875.934 1544.36 874.811C1543.57 873.687 1542.45 872.838 1541.15 872.382V872.382ZM739.271 1106.85H1033.72L1273.53 968.571C1279.56 970.473 1286.1 969.95 1291.75 967.115C1293.05 966.665 1294.17 965.822 1294.97 964.703C1295.77 963.583 1296.2 962.243 1296.2 960.868C1296.2 959.494 1295.77 958.154 1294.97 957.034C1294.17 955.915 1293.05 955.071 1291.75 954.622C1288.38 952.945 1284.67 952.072 1280.91 952.072C1277.15 952.072 1273.44 952.945 1270.07 954.622C1265.09 957.472 1264.37 961.839 1267.58 965.174L1030.2 1102.12H735.871L397.405 1297.29C391.383 1295.36 384.849 1295.87 379.191 1298.68C377.891 1299.13 376.764 1299.97 375.966 1301.09C375.168 1302.21 374.739 1303.55 374.739 1304.93C374.739 1306.3 375.168 1307.64 375.966 1308.76C376.764 1309.88 377.891 1310.72 379.191 1311.17C382.538 1312.88 386.241 1313.77 389.998 1313.77C393.754 1313.77 397.457 1312.88 400.804 1311.17C405.783 1308.32 406.572 1304.02 403.294 1300.68L739.271 1106.85ZM399.287 1183.39C402.644 1185.09 406.357 1185.98 410.124 1185.98C413.89 1185.98 417.603 1185.09 420.961 1183.39C425.878 1180.54 426.667 1176.23 423.45 1172.83L615.602 1062.03V910.409L1085.15 639.614C1091.17 641.534 1097.7 641.034 1103.36 638.219C1104.66 637.769 1105.79 636.926 1106.58 635.806C1107.38 634.687 1107.81 633.346 1107.81 631.972C1107.81 630.598 1107.38 629.257 1106.58 628.138C1105.79 627.018 1104.66 626.175 1103.36 625.725C1100 624.021 1096.29 623.132 1092.52 623.132C1088.76 623.132 1085.04 624.021 1081.68 625.725C1076.77 628.576 1075.98 632.882 1079.2 636.217L606.981 908.771V1060.09L417.318 1169.26C411.289 1167.35 404.754 1167.88 399.104 1170.71C397.735 1171.11 396.531 1171.94 395.672 1173.08C394.813 1174.22 394.345 1175.6 394.338 1177.03C394.331 1178.45 394.786 1179.84 395.634 1180.99C396.482 1182.13 397.678 1182.98 399.044 1183.39H399.287ZM753.903 929.938L759.974 933.334L1283.43 631.426C1289.45 633.347 1295.98 632.846 1301.64 630.031C1302.94 629.582 1304.07 628.738 1304.87 627.619C1305.67 626.499 1306.09 625.159 1306.09 623.784C1306.09 622.41 1305.67 621.07 1304.87 619.95C1304.07 618.831 1302.94 617.987 1301.64 617.538C1298.3 615.834 1294.59 614.945 1290.84 614.945C1287.08 614.945 1283.38 615.834 1280.03 617.538C1275.05 620.388 1273.96 624.694 1277.54 628.03L753.903 929.938Z" fill="url(#paint7_linear_11_1695)"/>
<path style="mix-blend-mode:color-dodge" d="M822.021 1426.41C683.903 1506.16 458.966 1505.73 319.755 1425.62C180.543 1345.5 180.118 1215.53 318.176 1135.78C456.234 1056.03 681.474 1056.39 820.686 1136.69C959.897 1216.99 960.565 1346.77 822.021 1426.41Z" fill="url(#paint8_radial_11_1695)"/>
<path style="mix-blend-mode:color-dodge" d="M1538.42 772.98C1400.06 852.732 1175.06 852.368 1035.91 772.07C896.757 691.771 896.272 562.044 1034.33 482.231C1172.39 402.418 1397.63 402.903 1536.84 483.141C1676.05 563.379 1676.96 693.166 1538.42 772.98Z" fill="url(#paint9_radial_11_1695)"/>
<path style="mix-blend-mode:color-dodge" d="M1562.7 1200.25C1371.64 1310.45 1060.92 1309.9 868.709 1199.03C676.496 1088.17 675.464 908.953 866.523 798.755C1057.58 688.557 1368.3 689.103 1560.52 799.968C1752.73 910.833 1753.58 1090.05 1562.7 1200.25Z" fill="url(#paint10_radial_11_1695)"/>
<path d="M1234.07 1457.71L1178.22 1425.45V981.563L1234.07 1013.83V1457.71Z" fill="url(#paint11_linear_11_1695)"/>
<path d="M1282.52 985.93L1234.07 1013.83V1457.71L1282.52 1429.76V985.93Z" fill="url(#paint12_linear_11_1695)"/>
<path d="M1282.52 985.93L1234.07 1013.83L1178.22 981.563L1226.6 953.665L1282.52 985.93Z" fill="url(#paint13_radial_11_1695)"/>
<path d="M1155.15 740.29C1106.9 788.48 1045.43 821.297 978.518 834.59C911.603 847.884 842.244 841.057 779.213 814.974C716.181 788.891 662.308 744.722 624.404 688.053C586.501 631.384 566.27 564.759 566.27 496.605C566.27 428.45 586.501 361.826 624.404 305.157C662.308 248.487 716.181 204.319 779.213 178.235C842.244 152.152 911.603 145.325 978.518 158.619C1045.43 171.912 1106.9 204.729 1155.15 252.919C1187.19 284.915 1212.61 322.904 1229.95 364.717C1247.3 406.529 1256.22 451.345 1256.22 496.605C1256.22 541.864 1247.3 586.68 1229.95 628.492C1212.61 670.305 1187.19 708.294 1155.15 740.29V740.29Z" fill="url(#paint14_radial_11_1695)"/>
<path d="M1016.3 601.284C995.573 621.989 969.167 636.089 940.419 641.802C911.672 647.515 881.874 644.584 854.794 633.379C827.714 622.174 804.568 603.199 788.284 578.853C771.999 554.508 763.308 525.885 763.308 496.604C763.308 467.324 771.999 438.701 788.284 414.355C804.568 390.01 827.714 371.035 854.794 359.83C881.874 348.625 911.672 345.694 940.419 351.407C969.167 357.12 995.573 371.22 1016.3 391.925C1044.09 419.688 1059.7 457.342 1059.7 496.604C1059.7 535.866 1044.09 573.52 1016.3 601.284V601.284Z" fill="url(#paint15_radial_11_1695)"/>
<path d="M920.435 369.364C945.565 371.212 969.583 380.458 989.457 395.933C1009.33 411.409 1024.17 432.421 1032.1 456.314C1040.02 480.208 1040.68 505.913 1034 530.183C1027.31 554.452 1013.57 576.198 994.522 592.673C975.471 609.149 951.96 619.616 926.958 622.752C901.956 625.888 876.585 621.552 854.048 610.293C831.511 599.034 812.819 581.356 800.333 559.491C787.847 537.627 782.126 512.557 783.894 487.447C785.071 470.728 789.54 454.405 797.045 439.415C804.549 424.424 814.942 411.061 827.627 400.091C840.312 389.121 855.039 380.76 870.965 375.487C886.891 370.215 903.702 368.134 920.435 369.364V369.364Z" fill="url(#paint16_radial_11_1695)"/>
</g>
<defs>
<linearGradient id="paint0_linear_11_1695" x1="112" y1="1276.34" x2="1808.04" y2="1276.34" gradientUnits="userSpaceOnUse">
<stop stop-color="#50C0FF" stop-opacity="0.5"/>
<stop offset="1" stop-color="#000B1B" stop-opacity="0.57"/>
</linearGradient>
<linearGradient id="paint1_linear_11_1695" x1="312.226" y1="1365.27" x2="596.957" y2="737.944" gradientUnits="userSpaceOnUse">
<stop stop-color="#2A6AAC" stop-opacity="0"/>
<stop offset="0.54" stop-color="#4441CB" stop-opacity="0"/>
<stop offset="0.79" stop-color="#2A6AAC"/>
</linearGradient>
<linearGradient id="paint2_linear_11_1695" x1="717.415" y1="1265.14" x2="480.673" y2="783.701" gradientUnits="userSpaceOnUse">
<stop stop-color="#2A6AAC" stop-opacity="0"/>
<stop offset="0.54" stop-color="#4441CB" stop-opacity="0"/>
<stop offset="0.79" stop-color="#2A6AAC"/>
</linearGradient>
<radialGradient id="paint3_radial_11_1695" cx="0" cy="0" r="1" gradientUnits="userSpaceOnUse" gradientTransform="translate(527.692 692.56) scale(56.2797 56.2214)">
<stop stop-color="white"/>
<stop offset="0.46" stop-color="#72DDFF"/>
<stop offset="0.73" stop-color="#50C0FF"/>
<stop offset="1" stop-color="#0E67BA"/>
</radialGradient>
<linearGradient id="paint4_linear_11_1695" x1="1103.84" y1="1160.4" x2="1502.33" y2="282.506" gradientUnits="userSpaceOnUse">
<stop stop-color="#2A6AAC" stop-opacity="0"/>
<stop offset="0.54" stop-color="#4441CB" stop-opacity="0"/>
<stop offset="0.79" stop-color="#2A6AAC"/>
</linearGradient>
<linearGradient id="paint5_linear_11_1695" x1="1698.39" y1="1019.82" x2="1368.19" y2="348.29" gradientUnits="userSpaceOnUse">
<stop stop-color="#2A6AAC" stop-opacity="0"/>
<stop offset="0.54" stop-color="#4441CB" stop-opacity="0"/>
<stop offset="0.79" stop-color="#2A6AAC"/>
</linearGradient>
<radialGradient id="paint6_radial_11_1695" cx="0" cy="0" r="1" gradientUnits="userSpaceOnUse" gradientTransform="translate(1414.2 136.414) scale(172.542 172.363)">
<stop stop-color="white"/>
<stop offset="0.46" stop-color="#72DDFF"/>
<stop offset="0.73" stop-color="#50C0FF"/>
<stop offset="1" stop-color="#0E67BA"/>
</radialGradient>
<linearGradient id="paint7_linear_11_1695" x1="284.481" y1="1473.29" x2="1438.26" y2="629.251" gradientUnits="userSpaceOnUse">
<stop stop-color="#50C0FF"/>
<stop offset="0.27" stop-color="#50C0FF"/>
<stop offset="1" stop-color="#07324C"/>
</linearGradient>
<radialGradient id="paint8_radial_11_1695" cx="0" cy="0" r="1" gradientUnits="userSpaceOnUse" gradientTransform="translate(543.489 1281.58) rotate(29.8608) scale(291.978 250.699)">
<stop stop-color="#00E5FF"/>
<stop offset="0.85" stop-opacity="0"/>
</radialGradient>
<radialGradient id="paint9_radial_11_1695" cx="0" cy="0" r="1" gradientUnits="userSpaceOnUse" gradientTransform="translate(1258.27 624.815) rotate(29.8608) scale(291.978 250.699)">
<stop stop-color="#00E5FF"/>
<stop offset="0.85" stop-opacity="0"/>
</radialGradient>
<radialGradient id="paint10_radial_11_1695" cx="0" cy="0" r="1" gradientUnits="userSpaceOnUse" gradientTransform="translate(1187.64 998.046) rotate(29.8608) scale(403.191 346.188)">
<stop stop-color="#00E5FF"/>
<stop offset="0.85" stop-opacity="0"/>
</radialGradient>
<linearGradient id="paint11_linear_11_1695" x1="912.058" y1="1866.24" x2="1310.49" y2="988.408" gradientUnits="userSpaceOnUse">
<stop stop-color="#2A6AAC" stop-opacity="0"/>
<stop offset="0.54" stop-color="#4441CB" stop-opacity="0"/>
<stop offset="0.79" stop-color="#2A6AAC"/>
</linearGradient>
<linearGradient id="paint12_linear_11_1695" x1="1506.54" y1="1725.66" x2="1176.4" y2="1054.19" gradientUnits="userSpaceOnUse">
<stop stop-color="#2A6AAC" stop-opacity="0"/>
<stop offset="0.54" stop-color="#4441CB" stop-opacity="0"/>
<stop offset="0.79" stop-color="#2A6AAC"/>
</linearGradient>
<radialGradient id="paint13_radial_11_1695" cx="0" cy="0" r="1" gradientUnits="userSpaceOnUse" gradientTransform="translate(1222.35 842.254) scale(172.542 172.363)">
<stop stop-color="white"/>
<stop offset="0.46" stop-color="#72DDFF"/>
<stop offset="0.73" stop-color="#50C0FF"/>
<stop offset="1" stop-color="#0E67BA"/>
</radialGradient>
<radialGradient id="paint14_radial_11_1695" cx="0" cy="0" r="1" gradientUnits="userSpaceOnUse" gradientTransform="translate(1093.5 308.829) rotate(135.03) scale(573.719 573.719)">
<stop stop-color="white" stop-opacity="0"/>
<stop offset="0.67" stop-color="#3E9DFF" stop-opacity="0"/>
<stop offset="1" stop-color="#3E9DFF" stop-opacity="0.43"/>
</radialGradient>
<radialGradient id="paint15_radial_11_1695" cx="0" cy="0" r="1" gradientUnits="userSpaceOnUse" gradientTransform="translate(1002.13 400.096) rotate(135.03) scale(245.577 245.577)">
<stop stop-color="white" stop-opacity="0"/>
<stop offset="0.67" stop-color="#3E9DFF" stop-opacity="0"/>
<stop offset="1" stop-color="#3E9DFF" stop-opacity="0.43"/>
</radialGradient>
<radialGradient id="paint16_radial_11_1695" cx="0" cy="0" r="1" gradientUnits="userSpaceOnUse" gradientTransform="translate(1003.77 496.79) rotate(-160.895) scale(233.293 233.103)">
<stop stop-color="white"/>
<stop offset="0.46" stop-color="#72DDFF"/>
<stop offset="0.73" stop-color="#50C0FF"/>
<stop offset="1" stop-color="#0E67BA"/>
</radialGradient>
<clipPath id="clip0_11_1695">
<rect width="1490.23" height="1333.96" fill="white" transform="translate(214.906 152)"/>
</clipPath>
</defs>
</svg>
