<svg width="1920" height="1920" viewBox="0 0 1920 1920" fill="none" xmlns="http://www.w3.org/2000/svg">
<rect width="1920" height="1920" />
<path opacity="0.25" d="M960.331 1786L1854.66 1265.48L960.331 744.958L66 1265.48L960.331 1786Z" fill="url(#paint0_linear_11_278)"/>
<path d="M339.323 1078.57L407.159 1117.74V1196.08L339.323 1235.25L271.487 1196.08V1117.74L339.323 1078.57Z" fill="url(#paint1_linear_11_278)"/>
<g opacity="0.5" filter="url(#filter0_d_11_278)">
<path d="M339.323 1235.25L407.159 1196.08L339.323 1156.91L271.487 1196.08L339.323 1235.25Z" fill="url(#paint2_linear_11_278)" shape-rendering="crispEdges"/>
</g>
<path d="M339.323 1156.91L407.159 1117.74L339.323 1078.57L271.487 1117.74L339.323 1156.91Z" fill="url(#paint3_linear_11_278)"/>
<path d="M339.607 1235.08L339.323 1235.25L271.487 1196.08V1117.91L271.771 1117.74L339.607 1156.91V1235.08Z" fill="url(#paint4_linear_11_278)"/>
<rect x="841.757" y="322.912" width="16.0779" height="623.017" fill="url(#paint5_linear_11_278)" fill-opacity="0.76"/>
<path d="M307.765 984.478L170.506 1274.68L938.224 817.932V192.32L899.838 156.837L756.764 459.331L734.663 438.902L565.997 795.501L512.49 746.04L474.104 827.197L452.003 806.768L349.641 1023.19L307.765 984.478Z" fill="url(#paint6_linear_11_278)" fill-opacity="0.5"/>
<path opacity="0.5" d="M339.92 1016.63L202.662 1306.83L970.38 850.087V224.475L931.994 188.992L788.919 491.487L766.818 471.057L598.153 827.656L544.645 778.196L506.259 859.353L484.158 838.923L381.796 1055.34L339.92 1016.63Z" fill="url(#paint7_linear_11_278)" fill-opacity="0.5"/>
<path opacity="0.25" d="M372.076 1048.79L234.817 1338.99L1002.54 882.243V256.631L964.149 221.148L821.075 523.642L798.974 503.213L630.308 859.812L576.801 810.351L538.415 891.508L516.314 871.079L413.952 1087.5L372.076 1048.79Z" fill="url(#paint8_linear_11_278)" fill-opacity="0.5"/>
<g filter="url(#filter1_f_11_278)">
<path opacity="0.25" d="M528.238 1412.29L529.803 1413.19L903.831 1198.12V239.406L902.266 238.506L528.238 453.569V1412.29Z" fill="url(#paint9_linear_11_278)"/>
<path opacity="0.25" d="M716.034 1412.28L717.599 1413.18L1091.63 1198.12V239.405L1090.06 238.506L716.034 453.569V1412.28Z" fill="url(#paint10_linear_11_278)"/>
</g>
<g filter="url(#filter2_b_11_278)">
<path d="M1034.57 883.395L1633.59 1229.28V1260.34L1223.73 1497.65L624.706 1151.77L624.706 1120.71L1034.57 883.395Z" fill="url(#paint11_linear_11_278)"/>
</g>
<path d="M1223.73 1466.59L1633.59 1231.05L1034.57 885.165L624.706 1120.71L1223.73 1466.59Z" fill="url(#paint12_linear_11_278)"/>
<rect width="691.696" height="502.102" transform="matrix(0.866025 0.5 0 1 1034.57 383.874)" fill="url(#paint13_linear_11_278)"/>
<rect width="648.01" height="416.295" transform="matrix(0.866025 0.5 0 1 1053.48 421.221)" fill="url(#paint14_linear_11_278)"/>
<path d="M1293.09 1358.08L1528.76 1222.7L1030.63 938.762L794.957 1074.15L1293.09 1358.08Z" fill="url(#paint15_linear_11_278)"/>
<path d="M1226.24 1495.6L1223.73 1497.04L624.706 1151.16L624.706 1122.15L627.212 1120.71L1226.24 1466.59V1495.6Z" fill="url(#paint16_linear_11_278)"/>
<g clip-path="url(#clip0_11_278)">
<path d="M1293.1 725.099L1293.44 725.238L1293.59 724.972L1323.03 673.084L1352.47 758.965L1352.62 759.406L1352.96 759.658L1418.76 808.706L1371.14 834.78L1370.89 834.914L1370.95 835.336L1382.21 917.519L1323.33 847.813L1323.03 847.455L1322.73 847.464L1263.85 849.183L1275.1 780L1275.16 779.644L1274.92 779.228L1227.3 698.092L1293.1 725.099Z" stroke="#B3E2FC" stroke-width="1.5"/>
</g>
<path d="M1633.47 845.445L1737.85 905.715V1026.26L1633.47 1086.53L1529.09 1026.26V905.715L1633.47 845.445Z" fill="url(#paint17_linear_11_278)"/>
<g opacity="0.5" filter="url(#filter3_d_11_278)">
<path d="M1633.47 1086.53L1737.85 1026.26L1633.47 965.985L1529.09 1026.26L1633.47 1086.53Z" fill="url(#paint18_linear_11_278)" shape-rendering="crispEdges"/>
</g>
<path d="M1633.47 965.986L1737.85 905.715L1633.47 845.445L1529.09 905.715L1633.47 965.986Z" fill="url(#paint19_linear_11_278)"/>
<path d="M1633.9 1086.27L1633.47 1086.53L1529.09 1026.26V905.966L1529.52 905.714L1633.9 965.985V1086.27Z" fill="url(#paint20_linear_11_278)"/>
<path d="M476.84 1342.45C484.309 1467.8 584.872 1531.59 701.455 1484.91C818.038 1438.24 906.493 1298.77 899.025 1173.42C891.556 1048.06 790.993 984.271 674.41 1030.95C557.827 1077.62 469.372 1217.09 476.84 1342.45Z" fill="#021425"/>
<path d="M476.84 1342.45C484.309 1467.8 584.872 1531.59 701.455 1484.91C818.038 1438.24 906.493 1298.77 899.025 1173.42C891.556 1048.06 790.993 984.271 674.41 1030.95C557.827 1077.62 469.372 1217.09 476.84 1342.45Z" fill="url(#paint21_radial_11_278)"/>
<path d="M476.84 1342.45C484.309 1467.8 584.872 1531.59 701.455 1484.91C818.038 1438.24 906.493 1298.77 899.025 1173.42C891.556 1048.06 790.993 984.271 674.41 1030.95C557.827 1077.62 469.372 1217.09 476.84 1342.45Z" fill="url(#paint22_radial_11_278)"/>
<path d="M476.84 1342.45C484.309 1467.8 584.872 1531.59 701.455 1484.91C818.038 1438.24 906.493 1298.77 899.025 1173.42C891.556 1048.06 790.993 984.271 674.41 1030.95C557.827 1077.62 469.372 1217.09 476.84 1342.45Z" fill="url(#paint23_radial_11_278)" fill-opacity="0.5"/>
<g opacity="0.75">
<path d="M521.065 1297.06C526.375 1386.2 597.88 1431.55 680.776 1398.36C763.671 1365.17 826.566 1266.01 821.256 1176.87C815.946 1087.74 744.441 1042.38 661.546 1075.57C578.65 1108.76 515.755 1207.92 521.065 1297.06Z" fill="url(#paint24_radial_11_278)"/>
<path d="M521.065 1297.06C526.375 1386.2 597.88 1431.55 680.776 1398.36C763.671 1365.17 826.566 1266.01 821.256 1176.87C815.946 1087.74 744.441 1042.38 661.546 1075.57C578.65 1108.76 515.755 1207.92 521.065 1297.06Z" fill="url(#paint25_radial_11_278)"/>
</g>
<path d="M691.302 1302.42V1337.99M619.972 1202.57L701.492 1154.07C709.6 1149.25 717.375 1148.37 723.108 1151.63C728.841 1154.89 732.062 1162.02 732.062 1171.46C732.062 1180.89 728.841 1191.85 723.108 1201.93C717.375 1212.02 709.6 1220.39 701.492 1225.21C709.6 1220.39 717.375 1219.51 723.108 1222.77C728.841 1226.03 732.062 1233.16 732.062 1242.6C732.062 1252.03 728.841 1263 723.108 1273.08C717.375 1283.16 709.6 1291.53 701.492 1296.36L619.972 1344.85V1202.57ZM640.352 1190.45V1332.73V1190.45ZM640.352 1261.59L701.492 1225.21L640.352 1261.59ZM650.542 1148.81V1184.38V1148.81ZM691.302 1124.56V1160.13V1124.56ZM650.542 1326.67V1362.24V1326.67Z" stroke="white" stroke-width="1.5" stroke-linecap="round" stroke-linejoin="round"/>
<path d="M477.415 1342.75C481.173 1405.91 508.567 1453.44 549.738 1479.09L549.732 1479.1L507.13 1452.08L507.136 1452.07C465.965 1426.42 438.571 1378.88 434.813 1315.72C427.354 1190.36 515.82 1050.91 632.406 1004.24C691.15 980.724 745.824 985.254 786.571 1011.57L786.573 1011.57L829.175 1038.59L829.172 1038.6C788.426 1012.28 733.751 1007.75 675.008 1031.26C558.421 1077.93 469.956 1217.39 477.415 1342.75Z" fill="#011321"/>
<path d="M477.415 1342.75C481.173 1405.91 508.567 1453.44 549.738 1479.09L549.732 1479.1L507.13 1452.08L507.136 1452.07C465.965 1426.42 438.571 1378.88 434.813 1315.72C427.354 1190.36 515.82 1050.91 632.406 1004.24C691.15 980.724 745.824 985.254 786.571 1011.57L786.573 1011.57L829.175 1038.59L829.172 1038.6C788.426 1012.28 733.751 1007.75 675.008 1031.26C558.421 1077.93 469.956 1217.39 477.415 1342.75Z" fill="url(#paint26_linear_11_278)"/>
<g filter="url(#filter4_dd_11_278)">
<path d="M895.273 368.39C870.158 393.505 829.438 393.505 804.323 368.39C779.208 343.274 779.208 302.555 804.323 277.439C829.438 252.324 870.158 252.324 895.273 277.439C920.389 302.555 920.389 343.274 895.273 368.39Z" fill="url(#paint27_radial_11_278)"/>
<path d="M895.273 368.39C870.158 393.505 829.438 393.505 804.323 368.39C779.208 343.274 779.208 302.555 804.323 277.439C829.438 252.324 870.158 252.324 895.273 277.439C920.389 302.555 920.389 343.274 895.273 368.39Z" fill="url(#paint28_radial_11_278)"/>
</g>
<defs>
<filter id="filter0_d_11_278" x="121.487" y="1081.91" width="435.671" height="378.338" filterUnits="userSpaceOnUse" color-interpolation-filters="sRGB">
<feFlood flood-opacity="0" result="BackgroundImageFix"/>
<feColorMatrix in="SourceAlpha" type="matrix" values="0 0 0 0 0 0 0 0 0 0 0 0 0 0 0 0 0 0 127 0" result="hardAlpha"/>
<feOffset dy="75"/>
<feGaussianBlur stdDeviation="75"/>
<feComposite in2="hardAlpha" operator="out"/>
<feColorMatrix type="matrix" values="0 0 0 0 0.3125 0 0 0 0 0.67 0 0 0 0 1 0 0 0 1 0"/>
<feBlend mode="normal" in2="BackgroundImageFix" result="effect1_dropShadow_11_278"/>
<feBlend mode="normal" in="SourceGraphic" in2="effect1_dropShadow_11_278" result="shape"/>
</filter>
<filter id="filter1_f_11_278" x="493.238" y="203.506" width="633.389" height="1244.68" filterUnits="userSpaceOnUse" color-interpolation-filters="sRGB">
<feFlood flood-opacity="0" result="BackgroundImageFix"/>
<feBlend mode="normal" in="SourceGraphic" in2="BackgroundImageFix" result="shape"/>
<feGaussianBlur stdDeviation="17.5" result="effect1_foregroundBlur_11_278"/>
</filter>
<filter id="filter2_b_11_278" x="522.706" y="781.395" width="1212.89" height="818.259" filterUnits="userSpaceOnUse" color-interpolation-filters="sRGB">
<feFlood flood-opacity="0" result="BackgroundImageFix"/>
<feGaussianBlur in="BackgroundImage" stdDeviation="51"/>
<feComposite in2="SourceAlpha" operator="in" result="effect1_backgroundBlur_11_278"/>
<feBlend mode="normal" in="SourceGraphic" in2="effect1_backgroundBlur_11_278" result="shape"/>
</filter>
<filter id="filter3_d_11_278" x="1379.09" y="890.985" width="508.765" height="420.542" filterUnits="userSpaceOnUse" color-interpolation-filters="sRGB">
<feFlood flood-opacity="0" result="BackgroundImageFix"/>
<feColorMatrix in="SourceAlpha" type="matrix" values="0 0 0 0 0 0 0 0 0 0 0 0 0 0 0 0 0 0 127 0" result="hardAlpha"/>
<feOffset dy="75"/>
<feGaussianBlur stdDeviation="75"/>
<feComposite in2="hardAlpha" operator="out"/>
<feColorMatrix type="matrix" values="0 0 0 0 0.3125 0 0 0 0 0.67 0 0 0 0 1 0 0 0 1 0"/>
<feBlend mode="normal" in2="BackgroundImageFix" result="effect1_dropShadow_11_278"/>
<feBlend mode="normal" in="SourceGraphic" in2="effect1_dropShadow_11_278" result="shape"/>
</filter>
<filter id="filter4_dd_11_278" x="722.487" y="190.603" width="242.623" height="246.623" filterUnits="userSpaceOnUse" color-interpolation-filters="sRGB">
<feFlood flood-opacity="0" result="BackgroundImageFix"/>
<feColorMatrix in="SourceAlpha" type="matrix" values="0 0 0 0 0 0 0 0 0 0 0 0 0 0 0 0 0 0 127 0" result="hardAlpha"/>
<feOffset dx="-20" dy="7"/>
<feGaussianBlur stdDeviation="21.5"/>
<feComposite in2="hardAlpha" operator="out"/>
<feColorMatrix type="matrix" values="0 0 0 0 0 0 0 0 0 0.928 0 0 0 0 1 0 0 0 1 0"/>
<feBlend mode="normal" in2="BackgroundImageFix" result="effect1_dropShadow_11_278"/>
<feColorMatrix in="SourceAlpha" type="matrix" values="0 0 0 0 0 0 0 0 0 0 0 0 0 0 0 0 0 0 127 0" result="hardAlpha"/>
<feOffset dx="4" dy="-21"/>
<feGaussianBlur stdDeviation="23.5"/>
<feComposite in2="hardAlpha" operator="out"/>
<feColorMatrix type="matrix" values="0 0 0 0 0.230903 0 0 0 0 0.354271 0 0 0 0 0.791667 0 0 0 1 0"/>
<feBlend mode="normal" in2="effect1_dropShadow_11_278" result="effect2_dropShadow_11_278"/>
<feBlend mode="normal" in="SourceGraphic" in2="effect2_dropShadow_11_278" result="shape"/>
</filter>
<linearGradient id="paint0_linear_11_278" x1="66" y1="1265.48" x2="1854.66" y2="1265.48" gradientUnits="userSpaceOnUse">
<stop stop-color="#50C0FF" stop-opacity="0.5"/>
<stop offset="1" stop-color="#000B1B" stop-opacity="0.57"/>
</linearGradient>
<linearGradient id="paint1_linear_11_278" x1="407.159" y1="1196.08" x2="271.771" y2="1117.74" gradientUnits="userSpaceOnUse">
<stop stop-color="#5076FF" stop-opacity="0.25"/>
<stop offset="1" stop-color="#455FE4" stop-opacity="0"/>
</linearGradient>
<linearGradient id="paint2_linear_11_278" x1="271.487" y1="1196.08" x2="407.159" y2="1196.08" gradientUnits="userSpaceOnUse">
<stop stop-color="#50C0FF" stop-opacity="0.5"/>
<stop offset="1" stop-color="#133A74" stop-opacity="0"/>
</linearGradient>
<linearGradient id="paint3_linear_11_278" x1="271.487" y1="1117.74" x2="407.159" y2="1117.74" gradientUnits="userSpaceOnUse">
<stop stop-color="#50C0FF" stop-opacity="0.5"/>
<stop offset="1" stop-color="#000B1B" stop-opacity="0.57"/>
</linearGradient>
<linearGradient id="paint4_linear_11_278" x1="271.487" y1="1194.94" x2="339.323" y2="1156.91" gradientUnits="userSpaceOnUse">
<stop stop-color="#30CDFF" stop-opacity="0.76"/>
<stop offset="1" stop-color="#00A3FF" stop-opacity="0"/>
</linearGradient>
<linearGradient id="paint5_linear_11_278" x1="849.796" y1="322.912" x2="849.796" y2="945.929" gradientUnits="userSpaceOnUse">
<stop stop-color="#30CDFF"/>
<stop offset="1" stop-color="#30CDFF" stop-opacity="0"/>
</linearGradient>
<linearGradient id="paint6_linear_11_278" x1="-63.8262" y1="360.574" x2="179.417" y2="1090.31" gradientUnits="userSpaceOnUse">
<stop stop-color="#50C0FF"/>
<stop offset="1" stop-color="#5096FF" stop-opacity="0"/>
</linearGradient>
<linearGradient id="paint7_linear_11_278" x1="-31.6709" y1="392.729" x2="211.573" y2="1122.46" gradientUnits="userSpaceOnUse">
<stop stop-color="#50C0FF"/>
<stop offset="1" stop-color="#5096FF" stop-opacity="0"/>
</linearGradient>
<linearGradient id="paint8_linear_11_278" x1="0.484871" y1="424.885" x2="243.728" y2="1154.62" gradientUnits="userSpaceOnUse">
<stop stop-color="#50C0FF"/>
<stop offset="1" stop-color="#5096FF" stop-opacity="0"/>
</linearGradient>
<linearGradient id="paint9_linear_11_278" x1="529.803" y1="1327.99" x2="531.877" y2="465.788" gradientUnits="userSpaceOnUse">
<stop stop-color="#0047FF" stop-opacity="0"/>
<stop offset="1" stop-color="#305DFF" stop-opacity="0.76"/>
</linearGradient>
<linearGradient id="paint10_linear_11_278" x1="717.599" y1="1327.99" x2="719.672" y2="465.788" gradientUnits="userSpaceOnUse">
<stop stop-color="#00A3FF" stop-opacity="0"/>
<stop offset="1" stop-color="#30CDFF" stop-opacity="0.76"/>
</linearGradient>
<linearGradient id="paint11_linear_11_278" x1="1822.76" y1="1812.49" x2="627.201" y2="1120.74" gradientUnits="userSpaceOnUse">
<stop stop-color="#5076FF" stop-opacity="0.25"/>
<stop offset="1" stop-color="#455FE4" stop-opacity="0"/>
</linearGradient>
<linearGradient id="paint12_linear_11_278" x1="624.706" y1="1120.71" x2="1822.76" y2="1121.62" gradientUnits="userSpaceOnUse">
<stop stop-color="#50C0FF" stop-opacity="0.9"/>
<stop offset="1" stop-color="#133466" stop-opacity="0.41"/>
</linearGradient>
<linearGradient id="paint13_linear_11_278" x1="0" y1="0" x2="252.976" y2="545.195" gradientUnits="userSpaceOnUse">
<stop stop-color="#329FDD"/>
<stop offset="1" stop-color="#07263C"/>
</linearGradient>
<linearGradient id="paint14_linear_11_278" x1="294.881" y1="94.1282" x2="356.518" y2="152.948" gradientUnits="userSpaceOnUse">
<stop stop-color="#063A60"/>
<stop offset="1" stop-color="#001F31"/>
</linearGradient>
<linearGradient id="paint15_linear_11_278" x1="794.957" y1="1074.15" x2="1483.84" y2="1074.67" gradientUnits="userSpaceOnUse">
<stop stop-color="#0D4A6B" stop-opacity="0.9"/>
<stop offset="1" stop-color="#001432" stop-opacity="0.57"/>
</linearGradient>
<linearGradient id="paint16_linear_11_278" x1="612.095" y1="1112.16" x2="1549.56" y2="1681.68" gradientUnits="userSpaceOnUse">
<stop stop-color="#30CDFF" stop-opacity="0.76"/>
<stop offset="1" stop-color="#00A3FF" stop-opacity="0"/>
</linearGradient>
<linearGradient id="paint17_linear_11_278" x1="1737.85" y1="1026.26" x2="1529.52" y2="905.715" gradientUnits="userSpaceOnUse">
<stop stop-color="#5076FF" stop-opacity="0.25"/>
<stop offset="1" stop-color="#455FE4" stop-opacity="0"/>
</linearGradient>
<linearGradient id="paint18_linear_11_278" x1="1529.09" y1="1026.26" x2="1737.85" y2="1026.26" gradientUnits="userSpaceOnUse">
<stop stop-color="#50C0FF" stop-opacity="0.5"/>
<stop offset="1" stop-color="#133A74" stop-opacity="0"/>
</linearGradient>
<linearGradient id="paint19_linear_11_278" x1="1529.09" y1="905.715" x2="1737.85" y2="905.715" gradientUnits="userSpaceOnUse">
<stop stop-color="#50C0FF" stop-opacity="0.5"/>
<stop offset="1" stop-color="#000B1B" stop-opacity="0.57"/>
</linearGradient>
<linearGradient id="paint20_linear_11_278" x1="1529.09" y1="1024.51" x2="1633.47" y2="965.985" gradientUnits="userSpaceOnUse">
<stop stop-color="#30CDFF" stop-opacity="0.76"/>
<stop offset="1" stop-color="#00A3FF" stop-opacity="0"/>
</linearGradient>
<radialGradient id="paint21_radial_11_278" cx="0" cy="0" r="1" gradientUnits="userSpaceOnUse" gradientTransform="translate(668.186 926.484) rotate(86.5906) scale(389.311 369.381)">
<stop stop-color="#133A74"/>
<stop offset="1" stop-color="#134974" stop-opacity="0"/>
</radialGradient>
<radialGradient id="paint22_radial_11_278" cx="0" cy="0" r="1" gradientUnits="userSpaceOnUse" gradientTransform="translate(686.6 1235.58) rotate(86.5906) scale(249.779 236.992)">
<stop stop-color="#2A6AAC" stop-opacity="0"/>
<stop offset="0.75" stop-color="#4441CB" stop-opacity="0"/>
<stop offset="1" stop-color="#2A6AAC"/>
</radialGradient>
<radialGradient id="paint23_radial_11_278" cx="0" cy="0" r="1" gradientUnits="userSpaceOnUse" gradientTransform="translate(687.292 1247.18) rotate(86.5906) scale(238.152 225.96)">
<stop stop-color="white" stop-opacity="0"/>
<stop offset="0.929818" stop-color="#3E9DFF" stop-opacity="0"/>
<stop offset="1" stop-color="#3E9DFF"/>
</radialGradient>
<radialGradient id="paint24_radial_11_278" cx="0" cy="0" r="1" gradientUnits="userSpaceOnUse" gradientTransform="translate(657.12 1001.29) rotate(85.5248) scale(335.629 318.447)">
<stop stop-color="#1D88D5"/>
<stop offset="1" stop-color="#133A74" stop-opacity="0.41"/>
</radialGradient>
<radialGradient id="paint25_radial_11_278" cx="0" cy="0" r="1" gradientUnits="userSpaceOnUse" gradientTransform="translate(672.922 1248.35) rotate(88.6781) scale(192.955 183.076)">
<stop stop-color="#2A6AAC" stop-opacity="0"/>
<stop offset="0.75" stop-color="#4441CB" stop-opacity="0"/>
<stop offset="1" stop-color="#2A6AAC"/>
</radialGradient>
<linearGradient id="paint26_linear_11_278" x1="480.471" y1="1436.99" x2="781.698" y2="994.804" gradientUnits="userSpaceOnUse">
<stop stop-color="#50C0FF"/>
<stop offset="0.807292" stop-color="#4982EE" stop-opacity="0"/>
<stop offset="0.864583" stop-color="#4877EB" stop-opacity="0.282239"/>
<stop offset="1" stop-color="#455FE4" stop-opacity="0.25"/>
</linearGradient>
<radialGradient id="paint27_radial_11_278" cx="0" cy="0" r="1" gradientUnits="userSpaceOnUse" gradientTransform="translate(879.867 292.846) rotate(135) scale(106.835)">
<stop stop-color="white" stop-opacity="0"/>
<stop offset="0.668121" stop-color="#3E9DFF" stop-opacity="0"/>
<stop offset="1" stop-color="#3E9DFF" stop-opacity="0.43"/>
</radialGradient>
<radialGradient id="paint28_radial_11_278" cx="0" cy="0" r="1" gradientUnits="userSpaceOnUse" gradientTransform="translate(793.013 354.386) rotate(-29.9927) scale(117.702)">
<stop stop-color="white"/>
<stop offset="0.463542" stop-color="#72DDFF"/>
<stop offset="0.733683" stop-color="#50C0FF"/>
<stop offset="1" stop-color="#0E67BA"/>
</radialGradient>
<clipPath id="clip0_11_278">
<rect width="243.808" height="243.808" fill="white" transform="matrix(0.866025 0.5 0 1 1217.46 595.199)"/>
</clipPath>
</defs>
</svg>
