<svg width="197" height="194" viewBox="0 0 197 194" fill="none" xmlns="http://www.w3.org/2000/svg">
<path d="M103.616 29L164.232 64V134L103.616 169L43 134V64L103.616 29Z" fill="url(#paint0_linear_705_572)"/>
<path opacity="0.5" d="M103.616 169L164.232 134L103.616 99L43 134L103.616 169Z" fill="url(#paint1_linear_705_572)"/>
<g opacity="0.75">
<path d="M133.28 128.412C117.037 144.655 90.7006 144.655 74.4571 128.412C58.2135 112.168 58.2135 85.832 74.4571 69.5885C90.7006 53.3449 117.037 53.3449 133.28 69.5885C149.524 85.832 149.524 112.168 133.28 128.412Z" fill="url(#paint2_radial_705_572)"/>
<path d="M133.28 128.412C117.037 144.655 90.7006 144.655 74.4571 128.412C58.2135 112.168 58.2135 85.832 74.4571 69.5885C90.7006 53.3449 117.037 53.3449 133.28 69.5885C149.524 85.832 149.524 112.168 133.28 128.412Z" fill="url(#paint3_radial_705_572)"/>
<path d="M133.28 128.412C117.037 144.655 90.7006 144.655 74.4571 128.412C58.2135 112.168 58.2135 85.832 74.4571 69.5885C90.7006 53.3449 117.037 53.3449 133.28 69.5885C149.524 85.832 149.524 112.168 133.28 128.412Z" fill="url(#paint4_radial_705_572)" fill-opacity="0.5"/>
</g>
<g filter="url(#filter0_dd_705_572)">
<path d="M120.728 115.858C111.417 125.168 96.3224 125.168 87.012 115.858C77.7017 106.548 77.7017 91.4525 87.012 82.1422C96.3224 72.8318 111.417 72.8318 120.728 82.1422C130.038 91.4525 130.038 106.548 120.728 115.858Z" fill="url(#paint5_radial_705_572)"/>
<path d="M120.728 115.858C111.417 125.168 96.3224 125.168 87.012 115.858C77.7017 106.548 77.7017 91.4525 87.012 82.1422C96.3224 72.8318 111.417 72.8318 120.728 82.1422C130.038 91.4525 130.038 106.548 120.728 115.858Z" fill="url(#paint6_radial_705_572)"/>
</g>
<path d="M103.616 99L164.232 64L103.616 29L43 64L103.616 99Z" fill="url(#paint7_linear_705_572)"/>
<path d="M103.87 168.854L103.616 169L43 134V64.1464L43.2536 64L103.87 99V168.854Z" fill="url(#paint8_linear_705_572)"/>
<defs>
<filter id="filter0_dd_705_572" x="0.0292969" y="0.159424" width="196.682" height="193.681" filterUnits="userSpaceOnUse" color-interpolation-filters="sRGB">
<feFlood flood-opacity="0" result="BackgroundImageFix"/>
<feColorMatrix in="SourceAlpha" type="matrix" values="0 0 0 0 0 0 0 0 0 0 0 0 0 0 0 0 0 0 127 0" result="hardAlpha"/>
<feOffset dx="-37" dy="28"/>
<feGaussianBlur stdDeviation="21.5"/>
<feComposite in2="hardAlpha" operator="out"/>
<feColorMatrix type="matrix" values="0 0 0 0 0 0 0 0 0 0.928 0 0 0 0 1 0 0 0 1 0"/>
<feBlend mode="normal" in2="BackgroundImageFix" result="effect1_dropShadow_705_572"/>
<feColorMatrix in="SourceAlpha" type="matrix" values="0 0 0 0 0 0 0 0 0 0 0 0 0 0 0 0 0 0 127 0" result="hardAlpha"/>
<feOffset dx="22" dy="-28"/>
<feGaussianBlur stdDeviation="23.5"/>
<feComposite in2="hardAlpha" operator="out"/>
<feColorMatrix type="matrix" values="0 0 0 0 0.230903 0 0 0 0 0.354271 0 0 0 0 0.791667 0 0 0 1 0"/>
<feBlend mode="normal" in2="effect1_dropShadow_705_572" result="effect2_dropShadow_705_572"/>
<feBlend mode="normal" in="SourceGraphic" in2="effect2_dropShadow_705_572" result="shape"/>
</filter>
<linearGradient id="paint0_linear_705_572" x1="164.232" y1="134" x2="43.2536" y2="64" gradientUnits="userSpaceOnUse">
<stop stop-color="#5076FF" stop-opacity="0.25"/>
<stop offset="1" stop-color="#455FE4" stop-opacity="0"/>
</linearGradient>
<linearGradient id="paint1_linear_705_572" x1="43" y1="134" x2="164.232" y2="134" gradientUnits="userSpaceOnUse">
<stop stop-color="#50C0FF" stop-opacity="0.5"/>
<stop offset="1" stop-color="#133A74" stop-opacity="0"/>
</linearGradient>
<radialGradient id="paint2_radial_705_572" cx="0" cy="0" r="1" gradientUnits="userSpaceOnUse" gradientTransform="translate(146.816 56.0525) rotate(135) scale(71.2143)">
<stop stop-color="#133A74"/>
<stop offset="1" stop-color="#134974" stop-opacity="0"/>
</radialGradient>
<radialGradient id="paint3_radial_705_572" cx="0" cy="0" r="1" gradientUnits="userSpaceOnUse" gradientTransform="translate(106.765 96.1035) rotate(135) scale(45.6906)">
<stop stop-color="#2A6AAC" stop-opacity="0"/>
<stop offset="0.75" stop-color="#4441CB" stop-opacity="0"/>
<stop offset="1" stop-color="#2A6AAC"/>
</radialGradient>
<radialGradient id="paint4_radial_705_572" cx="0" cy="0" r="1" gradientUnits="userSpaceOnUse" gradientTransform="translate(105.261 97.6075) rotate(135) scale(43.5636)">
<stop stop-color="white" stop-opacity="0"/>
<stop offset="0.929818" stop-color="#3E9DFF" stop-opacity="0"/>
<stop offset="1" stop-color="#3E9DFF"/>
</radialGradient>
<radialGradient id="paint5_radial_705_572" cx="0" cy="0" r="1" gradientUnits="userSpaceOnUse" gradientTransform="translate(115.017 87.8534) rotate(135) scale(39.6043)">
<stop stop-color="white" stop-opacity="0"/>
<stop offset="0.668121" stop-color="#3E9DFF" stop-opacity="0"/>
<stop offset="1" stop-color="#3E9DFF" stop-opacity="0.43"/>
</radialGradient>
<radialGradient id="paint6_radial_705_572" cx="0" cy="0" r="1" gradientUnits="userSpaceOnUse" gradientTransform="translate(82.8192 110.667) rotate(-29.9927) scale(43.6328)">
<stop stop-color="white"/>
<stop offset="0.463542" stop-color="#72DDFF"/>
<stop offset="0.733683" stop-color="#50C0FF"/>
<stop offset="1" stop-color="#0E67BA"/>
</radialGradient>
<linearGradient id="paint7_linear_705_572" x1="43" y1="64" x2="164.232" y2="64" gradientUnits="userSpaceOnUse">
<stop stop-color="#50C0FF" stop-opacity="0.5"/>
<stop offset="1" stop-color="#000B1B" stop-opacity="0.57"/>
</linearGradient>
<linearGradient id="paint8_linear_705_572" x1="43" y1="132.985" x2="103.616" y2="99" gradientUnits="userSpaceOnUse">
<stop stop-color="#30CDFF" stop-opacity="0.76"/>
<stop offset="1" stop-color="#00A3FF" stop-opacity="0"/>
</linearGradient>
</defs>
</svg>
