<svg width="1920" height="1920" viewBox="0 0 1920 1920" fill="none" xmlns="http://www.w3.org/2000/svg">
<g clip-path="url(#clip0_11_1575)">
<rect width="1920" height="1920" />
<g opacity="0.5">
<g filter="url(#filter0_b_11_1575)">
<path d="M952.035 817.521L1570.35 1174.55V1310.74L952.035 1667.77L333.721 1310.74L333.721 1174.55L952.035 817.521Z" fill="url(#paint0_linear_11_1575)"/>
</g>
<path opacity="0.75" d="M952.035 1531.57L1570.35 1174.55L952.035 817.521L333.721 1174.55L952.035 1531.57Z" fill="url(#paint1_linear_11_1575)"/>
<path d="M954.622 1665.64L952.035 1667.14L333.721 1310.11L333.721 1176.04L336.309 1174.54L954.622 1531.57V1665.64Z" fill="url(#paint2_linear_11_1575)"/>
</g>
<path d="M748.717 794.712L1053.1 970.48V1116.83L748.717 1292.6L444.296 1116.83V970.48L748.717 794.712Z" fill="url(#paint3_linear_11_1575)"/>
<path opacity="0.5" d="M748.717 1146.21L1053.1 970.48L748.717 794.712L444.296 970.48L748.717 1146.21Z" fill="url(#paint4_linear_11_1575)"/>
<path d="M749.991 1291.58L748.717 1292.3L444.296 1116.53V971.243L445.569 970.521L749.991 1146.25V1291.58Z" fill="url(#paint5_linear_11_1575)"/>
<g opacity="0.25">
<path opacity="0.25" d="M981.912 1134.79L982.676 1135.21L1035.31 1103.21V1010.51L1034.54 1010.08L981.912 1042.13V1134.79Z" fill="#7ACFFF"/>
</g>
<path d="M748.717 620.98L1053.1 796.748V943.144L748.717 1118.87L444.296 943.144V796.748L748.717 620.98Z" fill="url(#paint6_linear_11_1575)"/>
<path opacity="0.25" d="M748.717 972.516L1053.1 796.748L748.717 620.98L444.296 796.748L748.717 972.516Z" fill="url(#paint7_linear_11_1575)"/>
<path opacity="0.5" d="M748.717 972.516L1053.1 796.748L748.717 620.98L444.296 796.748L748.717 972.516Z" fill="url(#paint8_linear_11_1575)"/>
<path d="M749.991 1117.85L748.717 1118.57L444.296 942.806V797.471L445.569 796.75L749.991 972.518V1117.85Z" fill="url(#paint9_linear_11_1575)"/>
<path d="M748.717 446.528L1053.1 622.296V768.692L748.717 944.418L444.296 768.692V622.296L748.717 446.528Z" fill="url(#paint10_linear_11_1575)"/>
<path opacity="0.25" d="M748.717 798.065L1053.1 622.296L748.717 446.528L444.296 622.296L748.717 798.065Z" fill="url(#paint11_linear_11_1575)"/>
<path opacity="0.5" d="M748.717 798.065L1053.1 622.296L748.717 446.528L444.296 622.296L748.717 798.065Z" fill="url(#paint12_linear_11_1575)"/>
<path d="M749.991 943.398L748.717 944.119L444.296 768.351V623.186L445.569 622.465L749.991 798.233V943.398Z" fill="url(#paint13_linear_11_1575)"/>
<path d="M981.914 786.138L982.678 786.605L1035.31 754.771V735.543L1034.55 735.118L981.914 767.165V786.138Z" fill="#7ACFFF"/>
<path d="M775.414 1083.39L776.178 1083.81L957.21 978.842V959.656L956.446 959.189L775.627 1064.16L775.414 1083.39Z" fill="#7ACFFF"/>
<g opacity="0.25">
<path opacity="0.25" d="M981.912 953.501L982.676 953.926L1035.31 921.879V902.693L1034.54 902.227L981.912 934.273V953.501Z" fill="#7ACFFF"/>
</g>
<path style="mix-blend-mode:color-dodge" d="M1183.46 1070.54C1188.3 1070.51 1192.94 1067.89 1196.37 1063.27C1199.79 1058.65 1201.73 1052.39 1201.76 1045.85V490.564C1201.74 484.014 1199.81 477.736 1196.38 473.098C1192.96 468.459 1188.31 465.836 1183.46 465.799V465.799C1178.59 465.817 1173.93 468.433 1170.49 473.073C1167.06 477.713 1165.12 484.002 1165.1 490.564V1045.85C1165.13 1052.4 1167.08 1058.67 1170.51 1063.3C1173.95 1067.92 1178.6 1070.53 1183.46 1070.54V1070.54Z" fill="url(#paint14_radial_11_1575)"/>
<path style="mix-blend-mode:color-dodge" d="M1364.85 1130.72C1369.68 1130.72 1374.3 1128.8 1377.72 1125.39C1381.13 1121.98 1383.04 1117.36 1383.04 1112.53V703.557C1383.03 698.738 1381.11 694.119 1377.7 690.711C1374.29 687.303 1369.67 685.383 1364.85 685.369C1360.04 685.383 1355.42 687.303 1352.01 690.711C1348.6 694.119 1346.68 698.738 1346.67 703.557V1112.53C1346.67 1117.36 1348.58 1121.98 1351.99 1125.39C1355.4 1128.8 1360.03 1130.72 1364.85 1130.72Z" fill="url(#paint15_radial_11_1575)"/>
<path style="mix-blend-mode:color-dodge" d="M1264.98 1190.69C1269.8 1190.66 1274.41 1188.74 1277.81 1185.33C1281.22 1181.93 1283.14 1177.32 1283.17 1172.5V763.528C1283.16 758.708 1281.24 754.09 1277.83 750.682C1274.42 747.274 1269.8 745.353 1264.98 745.339V745.339C1260.15 745.339 1255.52 747.254 1252.1 750.663C1248.68 754.073 1246.75 758.699 1246.74 763.528V1172.5C1246.77 1177.33 1248.7 1181.95 1252.12 1185.35C1255.53 1188.76 1260.16 1190.68 1264.98 1190.69V1190.69Z" fill="url(#paint16_radial_11_1575)"/>
<path d="M196.267 563.536L302.534 624.895V747.613L196.267 808.973L90 747.613V624.895L196.267 563.536Z" fill="url(#paint17_linear_11_1575)"/>
<g opacity="0.5" filter="url(#filter1_d_11_1575)">
<path d="M196.267 808.971L302.534 747.612L196.267 686.252L90 747.612L196.267 808.971Z" fill="url(#paint18_linear_11_1575)" shape-rendering="crispEdges"/>
</g>
<path d="M196.267 686.254L302.534 624.895L196.267 563.536L90 624.895L196.267 686.254Z" fill="url(#paint19_linear_11_1575)"/>
<path d="M196.712 808.717L196.267 808.973L90 747.614V625.152L90.4446 624.896L196.712 686.255V808.717Z" fill="url(#paint20_linear_11_1575)"/>
<path d="M955.709 252L1045.63 303.923V407.768L955.709 459.69L865.785 407.768V303.923L955.709 252Z" fill="url(#paint21_linear_11_1575)"/>
<g opacity="0.5" filter="url(#filter2_d_11_1575)">
<path d="M955.709 459.69L1045.63 407.768L955.709 355.845L865.785 407.768L955.709 459.69Z" fill="url(#paint22_linear_11_1575)" shape-rendering="crispEdges"/>
</g>
<path d="M955.709 355.845L1045.63 303.923L955.709 252L865.785 303.923L955.709 355.845Z" fill="url(#paint23_linear_11_1575)"/>
<path d="M956.085 459.473L955.709 459.691L865.785 407.768V304.14L866.161 303.923L956.085 355.845V459.473Z" fill="url(#paint24_linear_11_1575)"/>
<path d="M1683.7 587.892L1829.67 672.178V840.748L1683.7 925.034L1537.72 840.748V672.178L1683.7 587.892Z" fill="url(#paint25_linear_11_1575)"/>
<g opacity="0.5" filter="url(#filter3_d_11_1575)">
<path d="M1683.7 925.033L1829.67 840.747L1683.7 756.462L1537.72 840.747L1683.7 925.033Z" fill="url(#paint26_linear_11_1575)" shape-rendering="crispEdges"/>
</g>
<path d="M1683.7 756.463L1829.67 672.178L1683.7 587.892L1537.72 672.178L1683.7 756.463Z" fill="url(#paint27_linear_11_1575)"/>
<path d="M1684.31 924.68L1683.7 925.033L1537.72 840.748V672.529L1538.34 672.177L1684.31 756.462V924.68Z" fill="url(#paint28_linear_11_1575)"/>
<g filter="url(#filter4_dd_11_1575)">
<path d="M1190.16 1284.97C1149.5 1325.64 1083.56 1325.64 1042.89 1284.97C1002.22 1244.3 1002.22 1178.37 1042.89 1137.7C1083.56 1097.03 1149.5 1097.03 1190.16 1137.7C1230.83 1178.37 1230.83 1244.3 1190.16 1284.97Z" fill="url(#paint29_radial_11_1575)"/>
<path d="M1190.16 1284.97C1149.5 1325.64 1083.56 1325.64 1042.89 1284.97C1002.22 1244.3 1002.22 1178.37 1042.89 1137.7C1083.56 1097.03 1149.5 1097.03 1190.16 1137.7C1230.83 1178.37 1230.83 1244.3 1190.16 1284.97Z" fill="url(#paint30_radial_11_1575)"/>
</g>
</g>
<defs>
<filter id="filter0_b_11_1575" x="231.721" y="715.521" width="1440.63" height="1054.25" filterUnits="userSpaceOnUse" color-interpolation-filters="sRGB">
<feFlood flood-opacity="0" result="BackgroundImageFix"/>
<feGaussianBlur in="BackgroundImage" stdDeviation="51"/>
<feComposite in2="SourceAlpha" operator="in" result="effect1_backgroundBlur_11_1575"/>
<feBlend mode="normal" in="SourceGraphic" in2="effect1_backgroundBlur_11_1575" result="shape"/>
</filter>
<filter id="filter1_d_11_1575" x="-60" y="611.252" width="512.534" height="422.718" filterUnits="userSpaceOnUse" color-interpolation-filters="sRGB">
<feFlood flood-opacity="0" result="BackgroundImageFix"/>
<feColorMatrix in="SourceAlpha" type="matrix" values="0 0 0 0 0 0 0 0 0 0 0 0 0 0 0 0 0 0 127 0" result="hardAlpha"/>
<feOffset dy="75"/>
<feGaussianBlur stdDeviation="75"/>
<feComposite in2="hardAlpha" operator="out"/>
<feColorMatrix type="matrix" values="0 0 0 0 0.3125 0 0 0 0 0.67 0 0 0 0 1 0 0 0 1 0"/>
<feBlend mode="normal" in2="BackgroundImageFix" result="effect1_dropShadow_11_1575"/>
<feBlend mode="normal" in="SourceGraphic" in2="effect1_dropShadow_11_1575" result="shape"/>
</filter>
<filter id="filter2_d_11_1575" x="715.785" y="280.845" width="479.848" height="403.845" filterUnits="userSpaceOnUse" color-interpolation-filters="sRGB">
<feFlood flood-opacity="0" result="BackgroundImageFix"/>
<feColorMatrix in="SourceAlpha" type="matrix" values="0 0 0 0 0 0 0 0 0 0 0 0 0 0 0 0 0 0 127 0" result="hardAlpha"/>
<feOffset dy="75"/>
<feGaussianBlur stdDeviation="75"/>
<feComposite in2="hardAlpha" operator="out"/>
<feColorMatrix type="matrix" values="0 0 0 0 0.3125 0 0 0 0 0.67 0 0 0 0 1 0 0 0 1 0"/>
<feBlend mode="normal" in2="BackgroundImageFix" result="effect1_dropShadow_11_1575"/>
<feBlend mode="normal" in="SourceGraphic" in2="effect1_dropShadow_11_1575" result="shape"/>
</filter>
<filter id="filter3_d_11_1575" x="1387.72" y="681.462" width="591.945" height="468.571" filterUnits="userSpaceOnUse" color-interpolation-filters="sRGB">
<feFlood flood-opacity="0" result="BackgroundImageFix"/>
<feColorMatrix in="SourceAlpha" type="matrix" values="0 0 0 0 0 0 0 0 0 0 0 0 0 0 0 0 0 0 127 0" result="hardAlpha"/>
<feOffset dy="75"/>
<feGaussianBlur stdDeviation="75"/>
<feComposite in2="hardAlpha" operator="out"/>
<feColorMatrix type="matrix" values="0 0 0 0 0.3125 0 0 0 0 0.67 0 0 0 0 1 0 0 0 1 0"/>
<feBlend mode="normal" in2="BackgroundImageFix" result="effect1_dropShadow_11_1575"/>
<feBlend mode="normal" in="SourceGraphic" in2="effect1_dropShadow_11_1575" result="shape"/>
</filter>
<filter id="filter4_dd_11_1575" x="949.39" y="1039.2" width="322.274" height="326.274" filterUnits="userSpaceOnUse" color-interpolation-filters="sRGB">
<feFlood flood-opacity="0" result="BackgroundImageFix"/>
<feColorMatrix in="SourceAlpha" type="matrix" values="0 0 0 0 0 0 0 0 0 0 0 0 0 0 0 0 0 0 127 0" result="hardAlpha"/>
<feOffset dx="-20" dy="7"/>
<feGaussianBlur stdDeviation="21.5"/>
<feComposite in2="hardAlpha" operator="out"/>
<feColorMatrix type="matrix" values="0 0 0 0 0 0 0 0 0 0.928 0 0 0 0 1 0 0 0 1 0"/>
<feBlend mode="normal" in2="BackgroundImageFix" result="effect1_dropShadow_11_1575"/>
<feColorMatrix in="SourceAlpha" type="matrix" values="0 0 0 0 0 0 0 0 0 0 0 0 0 0 0 0 0 0 127 0" result="hardAlpha"/>
<feOffset dx="4" dy="-21"/>
<feGaussianBlur stdDeviation="23.5"/>
<feComposite in2="hardAlpha" operator="out"/>
<feColorMatrix type="matrix" values="0 0 0 0 0.230903 0 0 0 0 0.354271 0 0 0 0 0.791667 0 0 0 1 0"/>
<feBlend mode="normal" in2="effect1_dropShadow_11_1575" result="effect2_dropShadow_11_1575"/>
<feBlend mode="normal" in="SourceGraphic" in2="effect2_dropShadow_11_1575" result="shape"/>
</filter>
<linearGradient id="paint0_linear_11_1575" x1="1570.35" y1="1888.59" x2="336.296" y2="1174.57" gradientUnits="userSpaceOnUse">
<stop stop-color="#5076FF" stop-opacity="0.25"/>
<stop offset="1" stop-color="#455FE4" stop-opacity="0"/>
</linearGradient>
<linearGradient id="paint1_linear_11_1575" x1="333.721" y1="1174.55" x2="1570.35" y2="1175.49" gradientUnits="userSpaceOnUse">
<stop stop-color="#50C0FF" stop-opacity="0.9"/>
<stop offset="1" stop-color="#000B1B" stop-opacity="0.57"/>
</linearGradient>
<linearGradient id="paint2_linear_11_1575" x1="337.612" y1="1290.3" x2="1288.36" y2="1753.58" gradientUnits="userSpaceOnUse">
<stop stop-color="#30CDFF" stop-opacity="0.76"/>
<stop offset="1" stop-color="#00A3FF" stop-opacity="0"/>
</linearGradient>
<linearGradient id="paint3_linear_11_1575" x1="1097.41" y1="1245.4" x2="489.883" y2="893.865" gradientUnits="userSpaceOnUse">
<stop stop-color="#5076FF" stop-opacity="0.25"/>
<stop offset="1" stop-color="#455FE4" stop-opacity="0"/>
</linearGradient>
<linearGradient id="paint4_linear_11_1575" x1="444.296" y1="970.438" x2="1053.1" y2="970.438" gradientUnits="userSpaceOnUse">
<stop stop-color="#50C0FF" stop-opacity="0.5"/>
<stop offset="1" stop-color="#000B1B" stop-opacity="0.57"/>
</linearGradient>
<linearGradient id="paint5_linear_11_1575" x1="509.747" y1="1322.95" x2="815.909" y2="651.838" gradientUnits="userSpaceOnUse">
<stop stop-color="#30CDFF" stop-opacity="0.76"/>
<stop offset="1" stop-color="#00A3FF" stop-opacity="0"/>
</linearGradient>
<linearGradient id="paint6_linear_11_1575" x1="1097.41" y1="1071.67" x2="489.883" y2="720.176" gradientUnits="userSpaceOnUse">
<stop stop-color="#5076FF" stop-opacity="0.25"/>
<stop offset="1" stop-color="#455FE4" stop-opacity="0"/>
</linearGradient>
<linearGradient id="paint7_linear_11_1575" x1="444.296" y1="796.706" x2="1053.1" y2="796.706" gradientUnits="userSpaceOnUse">
<stop stop-color="#50C0FF" stop-opacity="0.5"/>
<stop offset="1" stop-color="#000B1B" stop-opacity="0.57"/>
</linearGradient>
<linearGradient id="paint8_linear_11_1575" x1="444.296" y1="796.706" x2="1053.1" y2="796.706" gradientUnits="userSpaceOnUse">
<stop stop-color="#50C0FF" stop-opacity="0.5"/>
<stop offset="1" stop-color="#000B1B" stop-opacity="0.57"/>
</linearGradient>
<linearGradient id="paint9_linear_11_1575" x1="509.747" y1="1149.26" x2="815.909" y2="478.151" gradientUnits="userSpaceOnUse">
<stop stop-color="#30CDFF" stop-opacity="0.76"/>
<stop offset="1" stop-color="#00A3FF" stop-opacity="0"/>
</linearGradient>
<linearGradient id="paint10_linear_11_1575" x1="1097.41" y1="897.218" x2="489.882" y2="545.724" gradientUnits="userSpaceOnUse">
<stop stop-color="#5076FF" stop-opacity="0.25"/>
<stop offset="1" stop-color="#455FE4" stop-opacity="0"/>
</linearGradient>
<linearGradient id="paint11_linear_11_1575" x1="444.296" y1="622.254" x2="1053.1" y2="622.254" gradientUnits="userSpaceOnUse">
<stop stop-color="#50C0FF" stop-opacity="0.5"/>
<stop offset="1" stop-color="#000B1B" stop-opacity="0.57"/>
</linearGradient>
<linearGradient id="paint12_linear_11_1575" x1="444.296" y1="622.254" x2="1053.1" y2="622.254" gradientUnits="userSpaceOnUse">
<stop stop-color="#50C0FF" stop-opacity="0.5"/>
<stop offset="1" stop-color="#000B1B" stop-opacity="0.57"/>
</linearGradient>
<linearGradient id="paint13_linear_11_1575" x1="443.15" y1="1111.74" x2="749.354" y2="458.454" gradientUnits="userSpaceOnUse">
<stop stop-color="#30CDFF" stop-opacity="0.76"/>
<stop offset="1" stop-color="#00A3FF" stop-opacity="0"/>
</linearGradient>
<radialGradient id="paint14_radial_11_1575" cx="0" cy="0" r="1" gradientUnits="userSpaceOnUse" gradientTransform="translate(1173.21 429.774) rotate(180) scale(431.084 575.927)">
<stop stop-color="#D3FFE6"/>
<stop offset="0.85" stop-opacity="0"/>
</radialGradient>
<radialGradient id="paint15_radial_11_1575" cx="0" cy="0" r="1" gradientUnits="userSpaceOnUse" gradientTransform="translate(1354.88 658.541) rotate(180) scale(428.463 424.178)">
<stop stop-color="#D3FFE6"/>
<stop offset="0.85" stop-opacity="0"/>
</radialGradient>
<radialGradient id="paint16_radial_11_1575" cx="0" cy="0" r="1" gradientUnits="userSpaceOnUse" gradientTransform="translate(1254.95 718.223) rotate(180) scale(428.463 424.178)">
<stop stop-color="#D3FFE6"/>
<stop offset="0.85" stop-opacity="0"/>
</radialGradient>
<linearGradient id="paint17_linear_11_1575" x1="302.534" y1="747.613" x2="90.4446" y2="624.895" gradientUnits="userSpaceOnUse">
<stop stop-color="#5076FF" stop-opacity="0.25"/>
<stop offset="1" stop-color="#455FE4" stop-opacity="0"/>
</linearGradient>
<linearGradient id="paint18_linear_11_1575" x1="90" y1="747.612" x2="302.534" y2="747.612" gradientUnits="userSpaceOnUse">
<stop stop-color="#50C0FF" stop-opacity="0.5"/>
<stop offset="1" stop-color="#133A74" stop-opacity="0"/>
</linearGradient>
<linearGradient id="paint19_linear_11_1575" x1="90" y1="624.895" x2="302.534" y2="624.895" gradientUnits="userSpaceOnUse">
<stop stop-color="#50C0FF" stop-opacity="0.5"/>
<stop offset="1" stop-color="#000B1B" stop-opacity="0.57"/>
</linearGradient>
<linearGradient id="paint20_linear_11_1575" x1="90" y1="745.835" x2="196.267" y2="686.255" gradientUnits="userSpaceOnUse">
<stop stop-color="#30CDFF" stop-opacity="0.76"/>
<stop offset="1" stop-color="#00A3FF" stop-opacity="0"/>
</linearGradient>
<linearGradient id="paint21_linear_11_1575" x1="1045.63" y1="407.768" x2="866.161" y2="303.923" gradientUnits="userSpaceOnUse">
<stop stop-color="#5076FF" stop-opacity="0.25"/>
<stop offset="1" stop-color="#455FE4" stop-opacity="0"/>
</linearGradient>
<linearGradient id="paint22_linear_11_1575" x1="865.785" y1="407.768" x2="1045.63" y2="407.768" gradientUnits="userSpaceOnUse">
<stop stop-color="#50C0FF" stop-opacity="0.5"/>
<stop offset="1" stop-color="#133A74" stop-opacity="0"/>
</linearGradient>
<linearGradient id="paint23_linear_11_1575" x1="865.785" y1="303.923" x2="1045.63" y2="303.923" gradientUnits="userSpaceOnUse">
<stop stop-color="#50C0FF" stop-opacity="0.5"/>
<stop offset="1" stop-color="#000B1B" stop-opacity="0.57"/>
</linearGradient>
<linearGradient id="paint24_linear_11_1575" x1="865.785" y1="406.263" x2="955.709" y2="355.845" gradientUnits="userSpaceOnUse">
<stop stop-color="#30CDFF" stop-opacity="0.76"/>
<stop offset="1" stop-color="#00A3FF" stop-opacity="0"/>
</linearGradient>
<linearGradient id="paint25_linear_11_1575" x1="1829.67" y1="840.748" x2="1538.34" y2="672.178" gradientUnits="userSpaceOnUse">
<stop stop-color="#5076FF" stop-opacity="0.25"/>
<stop offset="1" stop-color="#455FE4" stop-opacity="0"/>
</linearGradient>
<linearGradient id="paint26_linear_11_1575" x1="1537.72" y1="840.747" x2="1829.67" y2="840.747" gradientUnits="userSpaceOnUse">
<stop stop-color="#50C0FF" stop-opacity="0.5"/>
<stop offset="1" stop-color="#133A74" stop-opacity="0"/>
</linearGradient>
<linearGradient id="paint27_linear_11_1575" x1="1537.72" y1="672.178" x2="1829.67" y2="672.178" gradientUnits="userSpaceOnUse">
<stop stop-color="#50C0FF" stop-opacity="0.5"/>
<stop offset="1" stop-color="#000B1B" stop-opacity="0.57"/>
</linearGradient>
<linearGradient id="paint28_linear_11_1575" x1="1537.72" y1="838.305" x2="1683.7" y2="756.462" gradientUnits="userSpaceOnUse">
<stop stop-color="#30CDFF" stop-opacity="0.76"/>
<stop offset="1" stop-color="#00A3FF" stop-opacity="0"/>
</linearGradient>
<radialGradient id="paint29_radial_11_1575" cx="0" cy="0" r="1" gradientUnits="userSpaceOnUse" gradientTransform="translate(1165.22 1162.64) rotate(135) scale(172.994)">
<stop stop-color="white" stop-opacity="0"/>
<stop offset="0.668121" stop-color="#3E9DFF" stop-opacity="0"/>
<stop offset="1" stop-color="#3E9DFF" stop-opacity="0.43"/>
</radialGradient>
<radialGradient id="paint30_radial_11_1575" cx="0" cy="0" r="1" gradientUnits="userSpaceOnUse" gradientTransform="translate(1024.58 1262.29) rotate(-29.9927) scale(190.59)">
<stop stop-color="white"/>
<stop offset="0.463542" stop-color="#72DDFF"/>
<stop offset="0.733683" stop-color="#50C0FF"/>
<stop offset="1" stop-color="#0E67BA"/>
</radialGradient>
<clipPath id="clip0_11_1575">
<rect width="1920" height="1920" fill="white"/>
</clipPath>
</defs>
</svg>
