<svg width="1920" height="1920" viewBox="0 0 1920 1920" fill="none" xmlns="http://www.w3.org/2000/svg">
<rect width="1920" height="1920" />
<g opacity="0.5">
<g filter="url(#filter0_b_10_79)">
<path d="M909.662 960.833L1400.49 1244.25V1352.37L909.662 1635.78L418.829 1352.37L418.829 1244.25L909.662 960.833Z" fill="url(#paint0_linear_10_79)"/>
</g>
<path opacity="0.75" d="M909.662 1527.66L1400.49 1244.25L909.662 960.833L418.829 1244.25L909.662 1527.66Z" fill="url(#paint1_linear_10_79)"/>
<path d="M911.716 1634.09L909.662 1635.28L418.829 1351.86L418.829 1245.43L420.883 1244.25L911.716 1527.66V1634.09Z" fill="url(#paint2_linear_10_79)"/>
</g>
<path d="M1233.33 1031.76C1220.41 1248.63 1046.43 1358.98 844.741 1278.23C643.047 1197.48 490.016 956.209 502.936 739.336C515.857 522.462 689.836 412.113 891.53 492.863C1093.22 573.614 1246.26 814.886 1233.33 1031.76Z" fill="#021425"/>
<path d="M1233.33 1031.76C1220.41 1248.63 1046.43 1358.98 844.741 1278.23C643.047 1197.48 490.016 956.209 502.936 739.336C515.857 522.462 689.836 412.113 891.53 492.863C1093.22 573.614 1246.26 814.886 1233.33 1031.76Z" fill="url(#paint3_radial_10_79)"/>
<path d="M1233.33 1031.76C1220.41 1248.63 1046.43 1358.98 844.741 1278.23C643.047 1197.48 490.016 956.209 502.936 739.336C515.857 522.462 689.836 412.113 891.53 492.863C1093.22 573.614 1246.26 814.886 1233.33 1031.76Z" fill="url(#paint4_radial_10_79)"/>
<path d="M1233.33 1031.76C1220.41 1248.63 1046.43 1358.98 844.741 1278.23C643.047 1197.48 490.016 956.209 502.936 739.336C515.857 522.462 689.836 412.113 891.53 492.863C1093.22 573.614 1246.26 814.886 1233.33 1031.76Z" fill="url(#paint5_radial_10_79)" fill-opacity="0.5"/>
<g opacity="0.75">
<path d="M1152.61 956.446C1143.42 1110.65 1019.71 1189.12 876.301 1131.7C732.888 1074.28 624.077 902.727 633.264 748.521C642.451 594.314 766.158 515.851 909.571 573.268C1052.98 630.685 1161.8 802.24 1152.61 956.446Z" fill="url(#paint6_radial_10_79)"/>
<path d="M1152.61 956.446C1143.42 1110.65 1019.71 1189.12 876.301 1131.7C732.888 1074.28 624.077 902.727 633.264 748.521C642.451 594.314 766.158 515.851 909.571 573.268C1052.98 630.685 1161.8 802.24 1152.61 956.446Z" fill="url(#paint7_radial_10_79)"/>
</g>
<path d="M922.468 956.956L927.199 1004.52M796.193 736.41L918.879 771.012C931.081 774.453 943.282 782.765 952.797 794.119C962.313 805.473 968.363 818.939 969.618 831.554C970.873 844.17 967.229 854.902 959.488 861.389C951.747 867.877 940.544 869.588 928.342 866.146C940.544 869.588 952.744 877.9 962.259 889.254C971.775 900.608 977.825 914.074 979.08 926.689C980.335 939.305 976.691 950.037 968.95 956.524C961.209 963.011 950.006 964.723 937.804 961.281L815.117 926.68L796.193 736.41ZM826.865 745.061L845.789 935.33L826.865 745.061ZM836.327 840.196L928.342 866.146L836.327 840.196ZM837.469 701.818L842.2 749.386L837.469 701.818ZM898.813 719.119L903.544 766.686L898.813 719.119ZM861.125 939.656L865.856 987.223L861.125 939.656Z" stroke="white" stroke-width="1.5" stroke-linecap="round" stroke-linejoin="round"/>
<path d="M1232.34 1032.28C1225.84 1141.56 1178.45 1223.79 1107.22 1268.16L1107.23 1268.18L1180.93 1221.43L1180.92 1221.41C1252.15 1177.04 1299.54 1094.8 1306.04 985.526C1318.95 768.651 1165.9 527.391 964.199 446.656C862.57 405.977 767.98 413.812 697.488 459.344L697.483 459.337L623.78 506.092L623.785 506.099C694.277 460.568 788.867 452.732 890.496 493.411C1092.2 574.146 1245.25 815.407 1232.34 1032.28Z" fill="#021422"/>
<path d="M1232.34 1032.28C1225.84 1141.56 1178.45 1223.79 1107.22 1268.16L1107.23 1268.18L1180.93 1221.43L1180.92 1221.41C1252.15 1177.04 1299.54 1094.8 1306.04 985.526C1318.95 768.651 1165.9 527.391 964.199 446.656C862.57 405.977 767.98 413.812 697.488 459.344L697.483 459.337L623.78 506.092L623.785 506.099C694.277 460.568 788.867 452.732 890.496 493.411C1092.2 574.146 1245.25 815.407 1232.34 1032.28Z" fill="url(#paint8_linear_10_79)"/>
<g opacity="0.8">
<g filter="url(#filter1_b_10_79)">
<path d="M1435.33 1006.53L1651 1131.06V1234.77L1435.33 1359.29L1219.67 1234.77L1219.67 1131.06L1435.33 1006.53Z" fill="url(#paint9_linear_10_79)"/>
</g>
<path opacity="0.25" d="M1435.33 1255.58L1651 1131.06L1435.33 1006.53L1219.67 1131.06L1435.33 1255.58Z" fill="url(#paint10_linear_10_79)"/>
<path opacity="0.5" d="M1435.33 1255.58L1651 1131.06L1435.33 1006.53L1219.67 1131.06L1435.33 1255.58Z" fill="url(#paint11_linear_10_79)"/>
<path d="M1436.24 1358.55L1435.33 1359.07L1219.67 1234.55L1219.67 1131.58L1220.57 1131.06L1436.24 1255.58V1358.55Z" fill="url(#paint12_linear_10_79)"/>
<g filter="url(#filter2_b_10_79)">
<path d="M1435.33 882.931L1651 1007.46V1111.17L1435.33 1235.7L1219.67 1111.17L1219.67 1007.46L1435.33 882.931Z" fill="url(#paint13_linear_10_79)"/>
</g>
<path opacity="0.25" d="M1435.33 1131.98L1651 1007.46L1435.33 882.931L1219.67 1007.46L1435.33 1131.98Z" fill="url(#paint14_linear_10_79)"/>
<path opacity="0.5" d="M1435.33 1131.98L1651 1007.46L1435.33 882.931L1219.67 1007.46L1435.33 1131.98Z" fill="url(#paint15_linear_10_79)"/>
<path d="M1436.24 1234.95L1435.33 1235.47L1219.67 1110.95L1219.67 1007.98L1220.57 1007.46L1436.24 1131.98V1234.95Z" fill="url(#paint16_linear_10_79)"/>
<g filter="url(#filter3_b_10_79)">
<path d="M1435.33 759.333L1651 883.86V987.57L1435.33 1112.1L1219.67 987.57L1219.67 883.86L1435.33 759.333Z" fill="url(#paint17_linear_10_79)"/>
</g>
<path opacity="0.25" d="M1435.33 1008.39L1651 883.86L1435.33 759.333L1219.67 883.86L1435.33 1008.39Z" fill="url(#paint18_linear_10_79)"/>
<path opacity="0.5" d="M1435.33 1008.39L1651 883.86L1435.33 759.333L1219.67 883.86L1435.33 1008.39Z" fill="url(#paint19_linear_10_79)"/>
<path d="M1436.24 1111.36L1435.33 1111.88L1219.67 987.35L1219.67 884.381L1220.57 883.86L1436.24 1008.39V1111.36Z" fill="url(#paint20_linear_10_79)"/>
<g filter="url(#filter4_d_10_79)">
<path d="M1600.55 999.957L1601.09 1000.27L1638.39 977.567L1638.39 963.959L1637.85 963.648L1600.55 986.349V999.957Z" fill="#7ACFFF"/>
</g>
<g filter="url(#filter5_d_10_79)">
<path d="M1454.25 1210.53L1454.79 1210.84L1582.9 1136.48L1582.9 1122.87L1582.36 1122.56L1454.25 1196.92V1210.53Z" fill="#7ACFFF"/>
</g>
<g opacity="0.25" filter="url(#filter6_d_10_79)">
<path d="M1600.56 1118.51L1601.09 1118.82L1638.39 1096.12L1638.39 1082.51L1637.86 1082.2L1600.56 1104.9V1118.51Z" fill="#7ACFFF"/>
</g>
<g opacity="0.25" filter="url(#filter7_d_10_79)">
<path d="M1519.83 1254.72L1520.37 1255.03L1557.67 1232.33L1557.67 1218.72L1557.13 1218.41L1519.83 1241.11V1254.72Z" fill="#7ACFFF"/>
</g>
</g>
<path d="M416.25 816.166L563.5 901.189V1071.23L416.25 1156.26L269 1071.23V901.189L416.25 816.166Z" fill="url(#paint21_linear_10_79)"/>
<g opacity="0.5" filter="url(#filter8_d_10_79)">
<path d="M416.25 1156.26L563.5 1071.23L416.25 986.211L269 1071.23L416.25 1156.26Z" fill="url(#paint22_linear_10_79)" shape-rendering="crispEdges"/>
</g>
<path d="M416.25 986.212L563.5 901.189L416.25 816.166L269 901.189L416.25 986.212Z" fill="url(#paint23_linear_10_79)"/>
<path d="M416.866 1155.9L416.25 1156.26L269 1071.23V901.543L269.616 901.188L416.866 986.211V1155.9Z" fill="url(#paint24_linear_10_79)"/>
<g filter="url(#filter9_dd_10_79)">
<path d="M472.122 838.454C439.839 870.737 387.497 870.737 355.214 838.454C322.931 806.17 322.931 753.829 355.214 721.545C387.497 689.262 439.839 689.262 472.122 721.545C504.405 753.829 504.405 806.17 472.122 838.454Z" fill="url(#paint25_radial_10_79)"/>
<path d="M472.122 838.454C439.839 870.737 387.497 870.737 355.214 838.454C322.931 806.17 322.931 753.829 355.214 721.545C387.497 689.262 439.839 689.262 472.122 721.545C504.405 753.829 504.405 806.17 472.122 838.454Z" fill="url(#paint26_radial_10_79)"/>
</g>
<defs>
<filter id="filter0_b_10_79" x="316.829" y="858.833" width="1185.67" height="878.948" filterUnits="userSpaceOnUse" color-interpolation-filters="sRGB">
<feFlood flood-opacity="0" result="BackgroundImageFix"/>
<feGaussianBlur in="BackgroundImage" stdDeviation="51"/>
<feComposite in2="SourceAlpha" operator="in" result="effect1_backgroundBlur_10_79"/>
<feBlend mode="normal" in="SourceGraphic" in2="effect1_backgroundBlur_10_79" result="shape"/>
</filter>
<filter id="filter1_b_10_79" x="1198.67" y="985.529" width="473.332" height="394.764" filterUnits="userSpaceOnUse" color-interpolation-filters="sRGB">
<feFlood flood-opacity="0" result="BackgroundImageFix"/>
<feGaussianBlur in="BackgroundImage" stdDeviation="10.5"/>
<feComposite in2="SourceAlpha" operator="in" result="effect1_backgroundBlur_10_79"/>
<feBlend mode="normal" in="SourceGraphic" in2="effect1_backgroundBlur_10_79" result="shape"/>
</filter>
<filter id="filter2_b_10_79" x="1198.67" y="861.931" width="473.332" height="394.764" filterUnits="userSpaceOnUse" color-interpolation-filters="sRGB">
<feFlood flood-opacity="0" result="BackgroundImageFix"/>
<feGaussianBlur in="BackgroundImage" stdDeviation="10.5"/>
<feComposite in2="SourceAlpha" operator="in" result="effect1_backgroundBlur_10_79"/>
<feBlend mode="normal" in="SourceGraphic" in2="effect1_backgroundBlur_10_79" result="shape"/>
</filter>
<filter id="filter3_b_10_79" x="1198.67" y="738.333" width="473.332" height="394.764" filterUnits="userSpaceOnUse" color-interpolation-filters="sRGB">
<feFlood flood-opacity="0" result="BackgroundImageFix"/>
<feGaussianBlur in="BackgroundImage" stdDeviation="10.5"/>
<feComposite in2="SourceAlpha" operator="in" result="effect1_backgroundBlur_10_79"/>
<feBlend mode="normal" in="SourceGraphic" in2="effect1_backgroundBlur_10_79" result="shape"/>
</filter>
<filter id="filter4_d_10_79" x="1585.55" y="952.648" width="67.8359" height="66.6208" filterUnits="userSpaceOnUse" color-interpolation-filters="sRGB">
<feFlood flood-opacity="0" result="BackgroundImageFix"/>
<feColorMatrix in="SourceAlpha" type="matrix" values="0 0 0 0 0 0 0 0 0 0 0 0 0 0 0 0 0 0 127 0" result="hardAlpha"/>
<feOffset dy="4"/>
<feGaussianBlur stdDeviation="7.5"/>
<feComposite in2="hardAlpha" operator="out"/>
<feColorMatrix type="matrix" values="0 0 0 0 0.15 0 0 0 0 0.694 0 0 0 0 1 0 0 0 1 0"/>
<feBlend mode="normal" in2="BackgroundImageFix" result="effect1_dropShadow_10_79"/>
<feBlend mode="normal" in="SourceGraphic" in2="effect1_dropShadow_10_79" result="shape"/>
</filter>
<filter id="filter5_d_10_79" x="1439.25" y="1111.56" width="158.643" height="118.284" filterUnits="userSpaceOnUse" color-interpolation-filters="sRGB">
<feFlood flood-opacity="0" result="BackgroundImageFix"/>
<feColorMatrix in="SourceAlpha" type="matrix" values="0 0 0 0 0 0 0 0 0 0 0 0 0 0 0 0 0 0 127 0" result="hardAlpha"/>
<feOffset dy="4"/>
<feGaussianBlur stdDeviation="7.5"/>
<feComposite in2="hardAlpha" operator="out"/>
<feColorMatrix type="matrix" values="0 0 0 0 0.15 0 0 0 0 0.694 0 0 0 0 1 0 0 0 1 0"/>
<feBlend mode="normal" in2="BackgroundImageFix" result="effect1_dropShadow_10_79"/>
<feBlend mode="normal" in="SourceGraphic" in2="effect1_dropShadow_10_79" result="shape"/>
</filter>
<filter id="filter6_d_10_79" x="1585.56" y="1071.2" width="67.8359" height="66.6208" filterUnits="userSpaceOnUse" color-interpolation-filters="sRGB">
<feFlood flood-opacity="0" result="BackgroundImageFix"/>
<feColorMatrix in="SourceAlpha" type="matrix" values="0 0 0 0 0 0 0 0 0 0 0 0 0 0 0 0 0 0 127 0" result="hardAlpha"/>
<feOffset dy="4"/>
<feGaussianBlur stdDeviation="7.5"/>
<feComposite in2="hardAlpha" operator="out"/>
<feColorMatrix type="matrix" values="0 0 0 0 0.15 0 0 0 0 0.694 0 0 0 0 1 0 0 0 1 0"/>
<feBlend mode="normal" in2="BackgroundImageFix" result="effect1_dropShadow_10_79"/>
<feBlend mode="normal" in="SourceGraphic" in2="effect1_dropShadow_10_79" result="shape"/>
</filter>
<filter id="filter7_d_10_79" x="1504.83" y="1207.41" width="67.8359" height="66.6208" filterUnits="userSpaceOnUse" color-interpolation-filters="sRGB">
<feFlood flood-opacity="0" result="BackgroundImageFix"/>
<feColorMatrix in="SourceAlpha" type="matrix" values="0 0 0 0 0 0 0 0 0 0 0 0 0 0 0 0 0 0 127 0" result="hardAlpha"/>
<feOffset dy="4"/>
<feGaussianBlur stdDeviation="7.5"/>
<feComposite in2="hardAlpha" operator="out"/>
<feColorMatrix type="matrix" values="0 0 0 0 0.15 0 0 0 0 0.694 0 0 0 0 1 0 0 0 1 0"/>
<feBlend mode="normal" in2="BackgroundImageFix" result="effect1_dropShadow_10_79"/>
<feBlend mode="normal" in="SourceGraphic" in2="effect1_dropShadow_10_79" result="shape"/>
</filter>
<filter id="filter8_d_10_79" x="119" y="911.211" width="594.5" height="470.046" filterUnits="userSpaceOnUse" color-interpolation-filters="sRGB">
<feFlood flood-opacity="0" result="BackgroundImageFix"/>
<feColorMatrix in="SourceAlpha" type="matrix" values="0 0 0 0 0 0 0 0 0 0 0 0 0 0 0 0 0 0 127 0" result="hardAlpha"/>
<feOffset dy="75"/>
<feGaussianBlur stdDeviation="75"/>
<feComposite in2="hardAlpha" operator="out"/>
<feColorMatrix type="matrix" values="0 0 0 0 0.3125 0 0 0 0 0.67 0 0 0 0 1 0 0 0 1 0"/>
<feBlend mode="normal" in2="BackgroundImageFix" result="effect1_dropShadow_10_79"/>
<feBlend mode="normal" in="SourceGraphic" in2="effect1_dropShadow_10_79" result="shape"/>
</filter>
<filter id="filter9_dd_10_79" x="268.001" y="629.333" width="279.333" height="283.333" filterUnits="userSpaceOnUse" color-interpolation-filters="sRGB">
<feFlood flood-opacity="0" result="BackgroundImageFix"/>
<feColorMatrix in="SourceAlpha" type="matrix" values="0 0 0 0 0 0 0 0 0 0 0 0 0 0 0 0 0 0 127 0" result="hardAlpha"/>
<feOffset dx="-20" dy="7"/>
<feGaussianBlur stdDeviation="21.5"/>
<feComposite in2="hardAlpha" operator="out"/>
<feColorMatrix type="matrix" values="0 0 0 0 0 0 0 0 0 0.928 0 0 0 0 1 0 0 0 1 0"/>
<feBlend mode="normal" in2="BackgroundImageFix" result="effect1_dropShadow_10_79"/>
<feColorMatrix in="SourceAlpha" type="matrix" values="0 0 0 0 0 0 0 0 0 0 0 0 0 0 0 0 0 0 127 0" result="hardAlpha"/>
<feOffset dx="4" dy="-21"/>
<feGaussianBlur stdDeviation="23.5"/>
<feComposite in2="hardAlpha" operator="out"/>
<feColorMatrix type="matrix" values="0 0 0 0 0.230903 0 0 0 0 0.354271 0 0 0 0 0.791667 0 0 0 1 0"/>
<feBlend mode="normal" in2="effect1_dropShadow_10_79" result="effect2_dropShadow_10_79"/>
<feBlend mode="normal" in="SourceGraphic" in2="effect2_dropShadow_10_79" result="shape"/>
</filter>
<linearGradient id="paint0_linear_10_79" x1="1400.49" y1="1811.08" x2="420.873" y2="1244.26" gradientUnits="userSpaceOnUse">
<stop stop-color="#5076FF" stop-opacity="0.25"/>
<stop offset="1" stop-color="#455FE4" stop-opacity="0"/>
</linearGradient>
<linearGradient id="paint1_linear_10_79" x1="418.829" y1="1244.25" x2="1400.5" y2="1245" gradientUnits="userSpaceOnUse">
<stop stop-color="#50C0FF" stop-opacity="0.9"/>
<stop offset="1" stop-color="#000B1B" stop-opacity="0.57"/>
</linearGradient>
<linearGradient id="paint2_linear_10_79" x1="421.918" y1="1336.14" x2="1176.64" y2="1703.9" gradientUnits="userSpaceOnUse">
<stop stop-color="#30CDFF" stop-opacity="0.76"/>
<stop offset="1" stop-color="#00A3FF" stop-opacity="0"/>
</linearGradient>
<radialGradient id="paint3_radial_10_79" cx="0" cy="0" r="1" gradientUnits="userSpaceOnUse" gradientTransform="translate(902.298 312.139) rotate(93.4094) scale(673.515 639.046)">
<stop stop-color="#133A74"/>
<stop offset="1" stop-color="#134974" stop-opacity="0"/>
</radialGradient>
<radialGradient id="paint4_radial_10_79" cx="0" cy="0" r="1" gradientUnits="userSpaceOnUse" gradientTransform="translate(870.441 846.874) rotate(93.4094) scale(432.123 410.007)">
<stop stop-color="#2A6AAC" stop-opacity="0"/>
<stop offset="0.75" stop-color="#4441CB" stop-opacity="0"/>
<stop offset="1" stop-color="#2A6AAC"/>
</radialGradient>
<radialGradient id="paint5_radial_10_79" cx="0" cy="0" r="1" gradientUnits="userSpaceOnUse" gradientTransform="translate(869.244 866.955) rotate(93.4094) scale(412.007 390.921)">
<stop stop-color="white" stop-opacity="0"/>
<stop offset="0.929818" stop-color="#3E9DFF" stop-opacity="0"/>
<stop offset="1" stop-color="#3E9DFF"/>
</radialGradient>
<radialGradient id="paint6_radial_10_79" cx="0" cy="0" r="1" gradientUnits="userSpaceOnUse" gradientTransform="translate(917.227 444.766) rotate(94.4753) scale(580.645 550.928)">
<stop stop-color="#1D88D5"/>
<stop offset="1" stop-color="#133A74" stop-opacity="0.41"/>
</radialGradient>
<radialGradient id="paint7_radial_10_79" cx="0" cy="0" r="1" gradientUnits="userSpaceOnUse" gradientTransform="translate(889.89 872.18) rotate(91.322) scale(333.815 316.731)">
<stop stop-color="#2A6AAC" stop-opacity="0"/>
<stop offset="0.75" stop-color="#4441CB" stop-opacity="0"/>
<stop offset="1" stop-color="#2A6AAC"/>
</radialGradient>
<linearGradient id="paint8_linear_10_79" x1="1227.05" y1="1195.33" x2="705.928" y2="430.326" gradientUnits="userSpaceOnUse">
<stop stop-color="#50C0FF"/>
<stop offset="0.807292" stop-color="#4982EE" stop-opacity="0"/>
<stop offset="0.864583" stop-color="#4877EB" stop-opacity="0.282239"/>
<stop offset="1" stop-color="#455FE4" stop-opacity="0.25"/>
</linearGradient>
<linearGradient id="paint9_linear_10_79" x1="1651" y1="1380.11" x2="1220.57" y2="1131.06" gradientUnits="userSpaceOnUse">
<stop stop-color="#5076FF" stop-opacity="0.25"/>
<stop offset="1" stop-color="#455FE4" stop-opacity="0"/>
</linearGradient>
<linearGradient id="paint10_linear_10_79" x1="1219.67" y1="1131.06" x2="1651" y2="1131.06" gradientUnits="userSpaceOnUse">
<stop stop-color="#50C0FF" stop-opacity="0.5"/>
<stop offset="1" stop-color="#000B1B" stop-opacity="0.57"/>
</linearGradient>
<linearGradient id="paint11_linear_10_79" x1="1219.67" y1="1131.06" x2="1651" y2="1131.06" gradientUnits="userSpaceOnUse">
<stop stop-color="#50C0FF" stop-opacity="0.5"/>
<stop offset="1" stop-color="#000B1B" stop-opacity="0.57"/>
</linearGradient>
<linearGradient id="paint12_linear_10_79" x1="1219.67" y1="1236.07" x2="1436.59" y2="747.982" gradientUnits="userSpaceOnUse">
<stop stop-color="#30CDFF" stop-opacity="0.76"/>
<stop offset="1" stop-color="#00A3FF" stop-opacity="0"/>
</linearGradient>
<linearGradient id="paint13_linear_10_79" x1="1651" y1="1256.51" x2="1220.57" y2="1007.46" gradientUnits="userSpaceOnUse">
<stop stop-color="#5076FF" stop-opacity="0.25"/>
<stop offset="1" stop-color="#455FE4" stop-opacity="0"/>
</linearGradient>
<linearGradient id="paint14_linear_10_79" x1="1219.67" y1="1007.46" x2="1651" y2="1007.46" gradientUnits="userSpaceOnUse">
<stop stop-color="#50C0FF" stop-opacity="0.5"/>
<stop offset="1" stop-color="#000B1B" stop-opacity="0.57"/>
</linearGradient>
<linearGradient id="paint15_linear_10_79" x1="1219.67" y1="1007.46" x2="1651" y2="1007.46" gradientUnits="userSpaceOnUse">
<stop stop-color="#50C0FF" stop-opacity="0.5"/>
<stop offset="1" stop-color="#000B1B" stop-opacity="0.57"/>
</linearGradient>
<linearGradient id="paint16_linear_10_79" x1="1219.67" y1="1236.07" x2="1436.59" y2="760.594" gradientUnits="userSpaceOnUse">
<stop stop-color="#30CDFF" stop-opacity="0.76"/>
<stop offset="1" stop-color="#00A3FF" stop-opacity="0"/>
</linearGradient>
<linearGradient id="paint17_linear_10_79" x1="1651" y1="1132.91" x2="1220.57" y2="883.86" gradientUnits="userSpaceOnUse">
<stop stop-color="#5076FF" stop-opacity="0.25"/>
<stop offset="1" stop-color="#455FE4" stop-opacity="0"/>
</linearGradient>
<linearGradient id="paint18_linear_10_79" x1="1219.67" y1="883.86" x2="1651" y2="883.86" gradientUnits="userSpaceOnUse">
<stop stop-color="#50C0FF" stop-opacity="0.5"/>
<stop offset="1" stop-color="#000B1B" stop-opacity="0.57"/>
</linearGradient>
<linearGradient id="paint19_linear_10_79" x1="1219.67" y1="883.86" x2="1651" y2="883.86" gradientUnits="userSpaceOnUse">
<stop stop-color="#50C0FF" stop-opacity="0.5"/>
<stop offset="1" stop-color="#000B1B" stop-opacity="0.57"/>
</linearGradient>
<linearGradient id="paint20_linear_10_79" x1="1219.67" y1="1231.02" x2="1436.59" y2="768.161" gradientUnits="userSpaceOnUse">
<stop stop-color="#30CDFF" stop-opacity="0.76"/>
<stop offset="1" stop-color="#00A3FF" stop-opacity="0"/>
</linearGradient>
<linearGradient id="paint21_linear_10_79" x1="563.5" y1="1071.23" x2="269.616" y2="901.189" gradientUnits="userSpaceOnUse">
<stop stop-color="#5076FF" stop-opacity="0.25"/>
<stop offset="1" stop-color="#455FE4" stop-opacity="0"/>
</linearGradient>
<linearGradient id="paint22_linear_10_79" x1="269" y1="1071.23" x2="563.5" y2="1071.23" gradientUnits="userSpaceOnUse">
<stop stop-color="#50C0FF" stop-opacity="0.5"/>
<stop offset="1" stop-color="#133A74" stop-opacity="0"/>
</linearGradient>
<linearGradient id="paint23_linear_10_79" x1="269" y1="901.189" x2="563.5" y2="901.189" gradientUnits="userSpaceOnUse">
<stop stop-color="#50C0FF" stop-opacity="0.5"/>
<stop offset="1" stop-color="#000B1B" stop-opacity="0.57"/>
</linearGradient>
<linearGradient id="paint24_linear_10_79" x1="269" y1="1068.77" x2="416.25" y2="986.211" gradientUnits="userSpaceOnUse">
<stop stop-color="#30CDFF" stop-opacity="0.76"/>
<stop offset="1" stop-color="#00A3FF" stop-opacity="0"/>
</linearGradient>
<radialGradient id="paint25_radial_10_79" cx="0" cy="0" r="1" gradientUnits="userSpaceOnUse" gradientTransform="translate(452.319 741.349) rotate(135) scale(137.327)">
<stop stop-color="white" stop-opacity="0"/>
<stop offset="0.668121" stop-color="#3E9DFF" stop-opacity="0"/>
<stop offset="1" stop-color="#3E9DFF" stop-opacity="0.43"/>
</radialGradient>
<radialGradient id="paint26_radial_10_79" cx="0" cy="0" r="1" gradientUnits="userSpaceOnUse" gradientTransform="translate(340.675 820.453) rotate(-29.9927) scale(151.295)">
<stop stop-color="white"/>
<stop offset="0.463542" stop-color="#72DDFF"/>
<stop offset="0.733683" stop-color="#50C0FF"/>
<stop offset="1" stop-color="#0E67BA"/>
</radialGradient>
</defs>
</svg>
