<svg width="235" height="240" viewBox="0 0 235 240" fill="none" xmlns="http://www.w3.org/2000/svg">
<path opacity="0.25" d="M117.22 240L234.44 172.039L117.22 104.078L0 172.039L117.22 240Z" fill="url(#paint0_linear_203_407)"/>
<path d="M115.209 100.656L172.305 133.627V161.08L115.209 194.051L58.1055 161.08V133.627L115.209 100.656Z" fill="url(#paint1_linear_203_407)"/>
<path opacity="0.5" d="M115.209 166.59L172.305 133.627L115.209 100.656L58.1055 133.627L115.209 166.59Z" fill="url(#paint2_linear_203_407)"/>
<path d="M115.448 193.86L115.209 193.995L58.1055 161.024V133.77L58.3443 133.635L115.448 166.598V193.86Z" fill="url(#paint3_linear_203_407)"/>
<g opacity="0.25">
<path opacity="0.25" d="M158.953 164.448L159.096 164.528L168.969 158.524V141.135L168.826 141.056L158.953 147.067V164.448Z" fill="#7ACFFF"/>
</g>
<path d="M115.209 68.0676L172.305 101.038V128.499L115.209 161.462L58.1055 128.499V101.038L115.209 68.0676Z" fill="url(#paint4_linear_203_407)"/>
<path opacity="0.25" d="M115.209 134.009L172.305 101.038L115.209 68.0676L58.1055 101.038L115.209 134.009Z" fill="url(#paint5_linear_203_407)"/>
<path opacity="0.5" d="M115.209 134.009L172.305 101.038L115.209 68.0676L58.1055 101.038L115.209 134.009Z" fill="url(#paint6_linear_203_407)"/>
<path d="M115.448 161.271L115.209 161.407L58.1055 128.436V101.174L58.3443 101.038L115.448 134.009V161.271Z" fill="url(#paint7_linear_203_407)"/>
<path d="M115.209 35.3438L172.305 68.3145V95.7755L115.209 128.738L58.1055 95.7755V68.3145L115.209 35.3438Z" fill="url(#paint8_linear_203_407)"/>
<path opacity="0.25" d="M115.209 101.285L172.305 68.3145L115.209 35.3438L58.1055 68.3145L115.209 101.285Z" fill="url(#paint9_linear_203_407)"/>
<path opacity="0.5" d="M115.209 101.285L172.305 68.3145L115.209 35.3438L58.1055 68.3145L115.209 101.285Z" fill="url(#paint10_linear_203_407)"/>
<path d="M115.448 128.547L115.209 128.683L58.1055 95.7119V68.4817L58.3443 68.3464L115.448 101.317V128.547Z" fill="url(#paint11_linear_203_407)"/>
<path d="M158.953 99.0479L159.096 99.1355L168.969 93.164V89.5572L168.826 89.4775L158.953 95.4889V99.0479Z" fill="#7ACFFF"/>
<path d="M120.215 154.806L120.358 154.886L154.316 135.196V131.597L154.173 131.509L120.255 151.199L120.215 154.806Z" fill="#7ACFFF"/>
<g opacity="0.25">
<path opacity="0.25" d="M158.953 130.442L159.096 130.522L168.969 124.511V120.912L168.826 120.824L158.953 126.835V130.442Z" fill="#7ACFFF"/>
</g>
<path style="mix-blend-mode:color-dodge" d="M154.028 91.0063C133.327 102.949 99.711 102.886 78.8982 90.871C58.0855 78.8563 57.974 59.4369 78.6753 47.4938C99.3766 35.5508 132.992 35.6145 153.797 47.6292C174.602 59.6439 174.705 79.0633 154.028 91.0063Z" fill="url(#paint12_radial_203_407)"/>
<path d="M122.588 70.0741C121.254 71.4149 119.552 72.3294 117.697 72.7017C115.842 73.0741 113.919 72.8875 112.17 72.1657C110.422 71.4439 108.927 70.2193 107.875 68.6471C106.823 67.0749 106.262 65.2259 106.262 63.3342C106.262 61.4426 106.823 59.5935 107.875 58.0213C108.927 56.4491 110.422 55.2245 112.17 54.5027C113.919 53.7809 115.842 53.5944 117.697 53.9667C119.552 54.3391 121.254 55.2536 122.588 56.5944C124.37 58.3848 125.371 60.8081 125.371 63.3342C125.371 65.8603 124.37 68.2836 122.588 70.0741Z" fill="url(#paint13_radial_203_407)"/>
<path d="M122.588 70.0741C121.254 71.4149 119.552 72.3294 117.697 72.7017C115.842 73.0741 113.919 72.8875 112.17 72.1657C110.422 71.4439 108.927 70.2193 107.875 68.6471C106.823 67.0749 106.262 65.2259 106.262 63.3342C106.262 61.4426 106.823 59.5935 107.875 58.0213C108.927 56.4491 110.422 55.2245 112.17 54.5027C113.919 53.7809 115.842 53.5944 117.697 53.9667C119.552 54.3391 121.254 55.2536 122.588 56.5944C124.37 58.3848 125.371 60.8081 125.371 63.3342C125.371 65.8603 124.37 68.2836 122.588 70.0741Z" fill="url(#paint14_radial_203_407)"/>
<path style="mix-blend-mode:color-dodge" d="M48.0172 156.128C47.2787 156.126 46.5712 155.831 46.049 155.309C45.5268 154.787 45.2326 154.079 45.2305 153.341V90.6798C45.2326 89.9413 45.5268 89.2338 46.049 88.7116C46.5712 88.1894 47.2787 87.8952 48.0172 87.8931V87.8931C48.7563 87.8931 49.4651 88.1867 49.9877 88.7093C50.5103 89.2319 50.8039 89.9407 50.8039 90.6798V153.341C50.8039 154.08 50.5103 154.789 49.9877 155.311C49.4651 155.834 48.7563 156.128 48.0172 156.128V156.128Z" fill="url(#paint15_radial_203_407)"/>
<path style="mix-blend-mode:color-dodge" d="M20.1734 165.435C19.435 165.433 18.7274 165.139 18.2052 164.617C17.6831 164.095 17.3888 163.387 17.3867 162.648V99.9873C17.3867 99.2483 17.6803 98.5394 18.2029 98.0168C18.7255 97.4942 19.4343 97.2006 20.1734 97.2006V97.2006C20.9125 97.2006 21.6213 97.4942 22.1439 98.0168C22.6665 98.5394 22.9601 99.2483 22.9601 99.9873V162.648C22.958 163.387 22.6638 164.095 22.1416 164.617C21.6195 165.139 20.9119 165.433 20.1734 165.435V165.435Z" fill="url(#paint16_radial_203_407)"/>
<path style="mix-blend-mode:color-dodge" d="M35.4781 174.616C34.7397 174.613 34.0321 174.319 33.5099 173.797C32.9878 173.275 32.6935 172.567 32.6914 171.829V109.168C32.6956 108.43 32.9905 107.724 33.5122 107.202C34.0339 106.68 34.7403 106.385 35.4781 106.381V106.381C36.2173 106.383 36.9257 106.677 37.4491 107.199C37.9726 107.721 38.2686 108.429 38.2728 109.168V171.829C38.2707 172.569 37.9753 173.277 37.4514 173.8C36.9276 174.322 36.2179 174.616 35.4781 174.616V174.616Z" fill="url(#paint17_radial_203_407)"/>
<path style="mix-blend-mode:color-dodge" d="M186.166 152.792C186.904 152.787 187.61 152.493 188.132 151.971C188.653 151.449 188.948 150.743 188.952 150.005V87.3438C188.95 86.6046 188.656 85.8962 188.134 85.3728C187.613 84.8494 186.905 84.5533 186.166 84.5491V84.5491C185.425 84.5512 184.716 84.8463 184.192 85.37C183.668 85.8936 183.373 86.6033 183.371 87.3438V150.005C183.375 150.744 183.671 151.452 184.195 151.974C184.718 152.496 185.427 152.79 186.166 152.792V152.792Z" fill="url(#paint18_radial_203_407)"/>
<path style="mix-blend-mode:color-dodge" d="M213.978 162.091C214.717 162.091 215.426 161.798 215.949 161.275C216.471 160.753 216.765 160.044 216.765 159.305V96.6435C216.763 95.905 216.468 95.1974 215.946 94.6753C215.424 94.1531 214.717 93.8589 213.978 93.8568C213.24 93.8589 212.532 94.1531 212.01 94.6753C211.488 95.1974 211.194 95.905 211.191 96.6435V159.305C211.191 160.044 211.485 160.753 212.008 161.275C212.53 161.798 213.239 162.091 213.978 162.091Z" fill="url(#paint19_radial_203_407)"/>
<path style="mix-blend-mode:color-dodge" d="M198.674 171.28C199.411 171.275 200.118 170.98 200.639 170.459C201.161 169.937 201.456 169.231 201.46 168.493V105.832C201.458 105.093 201.164 104.386 200.642 103.863C200.12 103.341 199.412 103.047 198.674 103.045V103.045C197.934 103.045 197.224 103.338 196.7 103.861C196.176 104.383 195.881 105.092 195.879 105.832V168.493C195.883 169.232 196.179 169.94 196.703 170.461C197.226 170.983 197.934 171.277 198.674 171.28V171.28Z" fill="url(#paint20_radial_203_407)"/>
<path d="M134.276 32.1271C133.615 43.5208 124.459 49.3171 113.869 45.0734C103.28 40.8296 95.238 28.162 95.9148 16.7684C96.5915 5.3747 105.748 -0.413692 116.329 3.82211C126.911 8.05791 134.961 20.7096 134.276 32.1271Z" fill="#021425"/>
<path d="M134.276 32.1271C133.615 43.5208 124.459 49.3171 113.869 45.0734C103.28 40.8296 95.238 28.162 95.9148 16.7684C96.5915 5.3747 105.748 -0.413692 116.329 3.82211C126.911 8.05791 134.961 20.7096 134.276 32.1271Z" fill="url(#paint21_radial_203_407)"/>
<path d="M134.276 32.1271C133.615 43.5208 124.459 49.3171 113.869 45.0734C103.28 40.8296 95.238 28.162 95.9148 16.7684C96.5915 5.3747 105.748 -0.413692 116.329 3.82211C126.911 8.05791 134.961 20.7096 134.276 32.1271Z" fill="url(#paint22_radial_203_407)"/>
<path d="M134.276 32.1271C133.615 43.5208 124.459 49.3171 113.869 45.0734C103.28 40.8296 95.238 28.162 95.9148 16.7684C96.5915 5.3747 105.748 -0.413692 116.329 3.82211C126.911 8.05791 134.961 20.7096 134.276 32.1271Z" fill="url(#paint23_radial_203_407)" fill-opacity="0.5"/>
<g opacity="0.75">
<path opacity="0.75" d="M130.262 28.0027C129.776 36.1001 123.279 40.2244 115.747 37.2068C108.215 34.1892 102.499 25.1841 103.008 17.0867C103.518 8.98936 109.959 4.86503 117.491 7.87468C125.023 10.8843 130.74 19.9133 130.262 28.0027Z" fill="url(#paint24_radial_203_407)"/>
<path opacity="0.75" d="M130.262 28.0027C129.776 36.1001 123.279 40.2244 115.747 37.2068C108.215 34.1892 102.499 25.1841 103.008 17.0867C103.518 8.98936 109.959 4.86503 117.491 7.87468C125.023 10.8843 130.74 19.9133 130.262 28.0027Z" fill="url(#paint25_radial_203_407)"/>
</g>
<path d="M134.229 32.151C133.887 37.8916 131.395 42.215 127.653 44.5399L131.53 42.0796C135.264 39.7467 137.756 35.4313 138.099 29.6907C138.776 18.297 130.734 5.62945 120.144 1.38569C114.81 -0.748132 109.842 -0.334106 106.139 2.0545L102.262 4.50681C105.964 2.1182 110.932 1.69621 116.275 3.838C126.864 8.08972 134.906 20.7653 134.229 32.151Z" fill="#011321"/>
<path d="M134.229 32.151C133.887 37.8916 131.395 42.215 127.653 44.5399L131.53 42.0796C135.264 39.7467 137.756 35.4313 138.099 29.6907C138.776 18.297 130.734 5.62945 120.144 1.38569C114.81 -0.748132 109.842 -0.334106 106.139 2.0545L102.262 4.50681C105.964 2.1182 110.932 1.69621 116.275 3.838C126.864 8.08972 134.906 20.7653 134.229 32.151Z" fill="url(#paint26_linear_203_407)"/>
<path d="M134.276 32.1271C133.615 43.5208 124.459 49.3171 113.869 45.0734C103.28 40.8296 95.238 28.162 95.9148 16.7684C96.5915 5.3747 105.748 -0.413692 116.329 3.82211C126.911 8.05791 134.961 20.7096 134.276 32.1271Z" fill="#021425"/>
<path d="M134.276 32.1271C133.615 43.5208 124.459 49.3171 113.869 45.0734C103.28 40.8296 95.238 28.162 95.9148 16.7684C96.5915 5.3747 105.748 -0.413692 116.329 3.82211C126.911 8.05791 134.961 20.7096 134.276 32.1271Z" fill="url(#paint27_radial_203_407)"/>
<path d="M134.276 32.1271C133.615 43.5208 124.459 49.3171 113.869 45.0734C103.28 40.8296 95.238 28.162 95.9148 16.7684C96.5915 5.3747 105.748 -0.413692 116.329 3.82211C126.911 8.05791 134.961 20.7096 134.276 32.1271Z" fill="url(#paint28_radial_203_407)"/>
<path d="M134.276 32.1271C133.615 43.5208 124.459 49.3171 113.869 45.0734C103.28 40.8296 95.238 28.162 95.9148 16.7684C96.5915 5.3747 105.748 -0.413692 116.329 3.82211C126.911 8.05791 134.961 20.7096 134.276 32.1271Z" fill="url(#paint29_radial_203_407)" fill-opacity="0.5"/>
<g opacity="0.75">
<path opacity="0.75" d="M130.262 28.0027C129.776 36.1001 123.279 40.2244 115.747 37.2068C108.215 34.1892 102.499 25.1841 103.008 17.0867C103.518 8.98936 109.959 4.86503 117.491 7.87468C125.023 10.8843 130.74 19.9133 130.262 28.0027Z" fill="url(#paint30_radial_203_407)"/>
<path opacity="0.75" d="M130.262 28.0027C129.776 36.1001 123.279 40.2244 115.747 37.2068C108.215 34.1892 102.499 25.1841 103.008 17.0867C103.518 8.98936 109.959 4.86503 117.491 7.87468C125.023 10.8843 130.74 19.9133 130.262 28.0027Z" fill="url(#paint31_radial_203_407)"/>
</g>
<path d="M134.229 32.151C133.887 37.8916 131.395 42.215 127.653 44.5399L131.53 42.0796C135.264 39.7467 137.756 35.4313 138.099 29.6907C138.776 18.297 130.734 5.62945 120.144 1.38569C114.81 -0.748132 109.842 -0.334106 106.139 2.0545L102.262 4.50681C105.964 2.1182 110.932 1.69621 116.275 3.838C126.864 8.08972 134.906 20.7653 134.229 32.151Z" fill="#011321"/>
<path d="M134.229 32.151C133.887 37.8916 131.395 42.215 127.653 44.5399L131.53 42.0796C135.264 39.7467 137.756 35.4313 138.099 29.6907C138.776 18.297 130.734 5.62945 120.144 1.38569C114.81 -0.748132 109.842 -0.334106 106.139 2.0545L102.262 4.50681C105.964 2.1182 110.932 1.69621 116.275 3.838C126.864 8.08972 134.906 20.7653 134.229 32.151Z" fill="url(#paint32_linear_203_407)"/>
<defs>
<linearGradient id="paint0_linear_203_407" x1="1.74671e-06" y1="172.039" x2="234.44" y2="172.039" gradientUnits="userSpaceOnUse">
<stop stop-color="#50C0FF" stop-opacity="0.5"/>
<stop offset="1" stop-color="#000B1B" stop-opacity="0.57"/>
</linearGradient>
<linearGradient id="paint1_linear_203_407" x1="180.617" y1="185.197" x2="66.6567" y2="119.256" gradientUnits="userSpaceOnUse">
<stop stop-color="#5076FF" stop-opacity="0.25"/>
<stop offset="1" stop-color="#455FE4" stop-opacity="0"/>
</linearGradient>
<linearGradient id="paint2_linear_203_407" x1="58.1055" y1="133.619" x2="172.305" y2="133.619" gradientUnits="userSpaceOnUse">
<stop stop-color="#50C0FF" stop-opacity="0.5"/>
<stop offset="1" stop-color="#000B1B" stop-opacity="0.57"/>
</linearGradient>
<linearGradient id="paint3_linear_203_407" x1="70.3829" y1="199.744" x2="127.813" y2="73.8561" gradientUnits="userSpaceOnUse">
<stop stop-color="#30CDFF" stop-opacity="0.76"/>
<stop offset="1" stop-color="#00A3FF" stop-opacity="0"/>
</linearGradient>
<linearGradient id="paint4_linear_203_407" x1="180.617" y1="152.608" x2="66.6567" y2="86.6749" gradientUnits="userSpaceOnUse">
<stop stop-color="#5076FF" stop-opacity="0.25"/>
<stop offset="1" stop-color="#455FE4" stop-opacity="0"/>
</linearGradient>
<linearGradient id="paint5_linear_203_407" x1="58.1055" y1="101.03" x2="172.305" y2="101.03" gradientUnits="userSpaceOnUse">
<stop stop-color="#50C0FF" stop-opacity="0.5"/>
<stop offset="1" stop-color="#000B1B" stop-opacity="0.57"/>
</linearGradient>
<linearGradient id="paint6_linear_203_407" x1="58.1055" y1="101.03" x2="172.305" y2="101.03" gradientUnits="userSpaceOnUse">
<stop stop-color="#50C0FF" stop-opacity="0.5"/>
<stop offset="1" stop-color="#000B1B" stop-opacity="0.57"/>
</linearGradient>
<linearGradient id="paint7_linear_203_407" x1="70.3829" y1="167.163" x2="127.813" y2="41.2754" gradientUnits="userSpaceOnUse">
<stop stop-color="#30CDFF" stop-opacity="0.76"/>
<stop offset="1" stop-color="#00A3FF" stop-opacity="0"/>
</linearGradient>
<linearGradient id="paint8_linear_203_407" x1="180.617" y1="119.885" x2="66.6567" y2="53.951" gradientUnits="userSpaceOnUse">
<stop stop-color="#5076FF" stop-opacity="0.25"/>
<stop offset="1" stop-color="#455FE4" stop-opacity="0"/>
</linearGradient>
<linearGradient id="paint9_linear_203_407" x1="58.1055" y1="68.3065" x2="172.305" y2="68.3065" gradientUnits="userSpaceOnUse">
<stop stop-color="#50C0FF" stop-opacity="0.5"/>
<stop offset="1" stop-color="#000B1B" stop-opacity="0.57"/>
</linearGradient>
<linearGradient id="paint10_linear_203_407" x1="58.1055" y1="68.3065" x2="172.305" y2="68.3065" gradientUnits="userSpaceOnUse">
<stop stop-color="#50C0FF" stop-opacity="0.5"/>
<stop offset="1" stop-color="#000B1B" stop-opacity="0.57"/>
</linearGradient>
<linearGradient id="paint11_linear_203_407" x1="57.8905" y1="160.125" x2="115.329" y2="37.5811" gradientUnits="userSpaceOnUse">
<stop stop-color="#30CDFF" stop-opacity="0.76"/>
<stop offset="1" stop-color="#00A3FF" stop-opacity="0"/>
</linearGradient>
<radialGradient id="paint12_radial_203_407" cx="0" cy="0" r="1" gradientUnits="userSpaceOnUse" gradientTransform="translate(114.74 69.9428) rotate(29.8865) scale(43.6623 37.5091)">
<stop stop-color="#00E5FF"/>
<stop offset="0.85" stop-opacity="0"/>
</radialGradient>
<radialGradient id="paint13_radial_203_407" cx="0" cy="0" r="1" gradientUnits="userSpaceOnUse" gradientTransform="translate(121.392 55.9881) rotate(135) scale(15.8337)">
<stop stop-color="white" stop-opacity="0"/>
<stop offset="0.67" stop-color="#3E9DFF" stop-opacity="0"/>
<stop offset="1" stop-color="#3E9DFF" stop-opacity="0.43"/>
</radialGradient>
<radialGradient id="paint14_radial_203_407" cx="0" cy="0" r="1" gradientUnits="userSpaceOnUse" gradientTransform="translate(103.847 66.8083) rotate(-29.9871) scale(17.4432)">
<stop stop-color="white"/>
<stop offset="0.46" stop-color="#72DDFF"/>
<stop offset="0.73" stop-color="#50C0FF"/>
<stop offset="1" stop-color="#0E67BA"/>
</radialGradient>
<radialGradient id="paint15_radial_203_407" cx="0" cy="0" r="1" gradientUnits="userSpaceOnUse" gradientTransform="translate(49.5459 83.8104) scale(65.6469 64.9905)">
<stop stop-color="#D3FFE6"/>
<stop offset="0.85" stop-opacity="0"/>
</radialGradient>
<radialGradient id="paint16_radial_203_407" cx="0" cy="0" r="1" gradientUnits="userSpaceOnUse" gradientTransform="translate(21.7021 93.0647) scale(65.6469 64.9905)">
<stop stop-color="#D3FFE6"/>
<stop offset="0.85" stop-opacity="0"/>
</radialGradient>
<radialGradient id="paint17_radial_203_407" cx="0" cy="0" r="1" gradientUnits="userSpaceOnUse" gradientTransform="translate(37.0068 102.209) scale(65.6469 64.9905)">
<stop stop-color="#D3FFE6"/>
<stop offset="0.85" stop-opacity="0"/>
</radialGradient>
<radialGradient id="paint18_radial_203_407" cx="0" cy="0" r="1" gradientUnits="userSpaceOnUse" gradientTransform="translate(184.605 80.484) rotate(180) scale(65.6469 64.9905)">
<stop stop-color="#D3FFE6"/>
<stop offset="0.85" stop-opacity="0"/>
</radialGradient>
<radialGradient id="paint19_radial_203_407" cx="0" cy="0" r="1" gradientUnits="userSpaceOnUse" gradientTransform="translate(212.449 89.7463) rotate(180) scale(65.6469 64.9905)">
<stop stop-color="#D3FFE6"/>
<stop offset="0.85" stop-opacity="0"/>
</radialGradient>
<radialGradient id="paint20_radial_203_407" cx="0" cy="0" r="1" gradientUnits="userSpaceOnUse" gradientTransform="translate(197.137 98.8903) rotate(180) scale(65.647 64.9905)">
<stop stop-color="#D3FFE6"/>
<stop offset="0.85" stop-opacity="0"/>
</radialGradient>
<radialGradient id="paint21_radial_203_407" cx="0" cy="0" r="1" gradientUnits="userSpaceOnUse" gradientTransform="translate(116.098 -1.67735) rotate(93.4106) scale(35.4132 33.5999)">
<stop stop-color="#133A74"/>
<stop offset="1" stop-color="#134974" stop-opacity="0"/>
</radialGradient>
<radialGradient id="paint22_radial_203_407" cx="0" cy="0" r="1" gradientUnits="userSpaceOnUse" gradientTransform="translate(111.402 25.0898) rotate(93.4066) scale(22.72 21.5571)">
<stop stop-color="#2A6AAC" stop-opacity="0"/>
<stop offset="0.75" stop-color="#4441CB" stop-opacity="0"/>
<stop offset="1" stop-color="#2A6AAC"/>
</radialGradient>
<radialGradient id="paint23_radial_203_407" cx="0" cy="0" r="1" gradientUnits="userSpaceOnUse" gradientTransform="translate(116.712 20.5645) rotate(93.4132) scale(21.6649 20.5535)">
<stop stop-color="white" stop-opacity="0"/>
<stop offset="0.93" stop-color="#3E9DFF" stop-opacity="0"/>
<stop offset="1" stop-color="#3E9DFF"/>
</radialGradient>
<radialGradient id="paint24_radial_203_407" cx="0" cy="0" r="1" gradientUnits="userSpaceOnUse" gradientTransform="translate(116.689 6.38944) rotate(94.4748) scale(30.5292 28.9681)">
<stop stop-color="#1D88D5"/>
<stop offset="1" stop-color="#133A74" stop-opacity="0.41"/>
</radialGradient>
<radialGradient id="paint25_radial_203_407" cx="0" cy="0" r="1" gradientUnits="userSpaceOnUse" gradientTransform="translate(113.375 25.3803) rotate(91.3195) scale(17.5509 16.652)">
<stop stop-color="#2A6AAC" stop-opacity="0"/>
<stop offset="0.75" stop-color="#4441CB" stop-opacity="0"/>
<stop offset="1" stop-color="#2A6AAC"/>
</radialGradient>
<linearGradient id="paint26_linear_203_407" x1="137.199" y1="38.5047" x2="109.826" y2="-1.67173" gradientUnits="userSpaceOnUse">
<stop stop-color="#50C0FF"/>
<stop offset="0.81" stop-color="#4982EE" stop-opacity="0"/>
<stop offset="0.86" stop-color="#4877EB" stop-opacity="0.28"/>
<stop offset="1" stop-color="#455FE4" stop-opacity="0.25"/>
</linearGradient>
<radialGradient id="paint27_radial_203_407" cx="0" cy="0" r="1" gradientUnits="userSpaceOnUse" gradientTransform="translate(116.098 -1.67735) rotate(93.4106) scale(35.4132 33.5999)">
<stop stop-color="#133A74"/>
<stop offset="1" stop-color="#134974" stop-opacity="0"/>
</radialGradient>
<radialGradient id="paint28_radial_203_407" cx="0" cy="0" r="1" gradientUnits="userSpaceOnUse" gradientTransform="translate(111.402 25.0898) rotate(93.4066) scale(22.72 21.5571)">
<stop stop-color="#2A6AAC" stop-opacity="0"/>
<stop offset="0.75" stop-color="#4441CB" stop-opacity="0"/>
<stop offset="1" stop-color="#2A6AAC"/>
</radialGradient>
<radialGradient id="paint29_radial_203_407" cx="0" cy="0" r="1" gradientUnits="userSpaceOnUse" gradientTransform="translate(116.712 20.5645) rotate(93.4132) scale(21.6649 20.5535)">
<stop stop-color="white" stop-opacity="0"/>
<stop offset="0.93" stop-color="#3E9DFF" stop-opacity="0"/>
<stop offset="1" stop-color="#3E9DFF"/>
</radialGradient>
<radialGradient id="paint30_radial_203_407" cx="0" cy="0" r="1" gradientUnits="userSpaceOnUse" gradientTransform="translate(116.689 6.38944) rotate(94.4748) scale(30.5292 28.9681)">
<stop stop-color="#1D88D5"/>
<stop offset="1" stop-color="#133A74" stop-opacity="0.41"/>
</radialGradient>
<radialGradient id="paint31_radial_203_407" cx="0" cy="0" r="1" gradientUnits="userSpaceOnUse" gradientTransform="translate(113.375 25.3803) rotate(91.3195) scale(17.5509 16.652)">
<stop stop-color="#2A6AAC" stop-opacity="0"/>
<stop offset="0.75" stop-color="#4441CB" stop-opacity="0"/>
<stop offset="1" stop-color="#2A6AAC"/>
</radialGradient>
<linearGradient id="paint32_linear_203_407" x1="142.382" y1="49.6197" x2="101.744" y2="-18.0735" gradientUnits="userSpaceOnUse">
<stop stop-color="#50C0FF"/>
<stop offset="0.81" stop-color="#4982EE" stop-opacity="0"/>
<stop offset="0.86" stop-color="#4877EB" stop-opacity="0.28"/>
<stop offset="1" stop-color="#455FE4" stop-opacity="0.25"/>
</linearGradient>
</defs>
</svg>
