<svg width="1920" height="1920" viewBox="0 0 1920 1920" fill="none" xmlns="http://www.w3.org/2000/svg">
<g clip-path="url(#clip0_11_279)">
<rect width="1920" height="1920" />
<path opacity="0.25" d="M960 1702.63L1807 1213.46L960 724.297L113 1213.46L960 1702.63Z" fill="url(#paint0_linear_11_279)"/>
<g filter="url(#filter0_b_11_279)">
<path d="M1046.69 218L1228.38 323.709V715.308L1200.69 731.457L1019 625.748V234.149L1046.69 218Z" fill="url(#paint1_linear_11_279)"/>
</g>
<path opacity="0.5" d="M1201.96 337.64L1228.38 322.367L1045.42 218L1019 233.274L1201.96 337.64Z" fill="url(#paint2_linear_11_279)"/>
<path d="M1203.45 731.015L1202.68 731.457L1019 625.735L1019 233.397L1019.77 232.955L1203.45 338.677V731.015Z" fill="url(#paint3_linear_11_279)"/>
<path d="M1193.48 701.149L1192.8 701.547L1028.98 606.397L1028.98 253.293L1029.66 252.895L1193.48 348.045V701.149Z" fill="url(#paint4_linear_11_279)"/>
<g filter="url(#filter1_b_11_279)">
<path d="M825.696 897.206L326.181 1185.63V1211.54L667.955 1409.42L1167.47 1121L1167.47 1095.09L825.696 897.206Z" fill="url(#paint5_linear_11_279)"/>
</g>
<path d="M667.955 1383.52L326.181 1187.11L825.696 898.682L1167.47 1095.09L667.955 1383.52Z" fill="url(#paint6_linear_11_279)"/>
<rect width="576.791" height="418.692" transform="matrix(-0.866025 0.5 0 1 825.698 480.665)" fill="url(#paint7_linear_11_279)"/>
<rect width="540.362" height="347.14" transform="matrix(-0.866025 0.5 0 1 809.928 511.808)" fill="url(#paint8_linear_11_279)"/>
<path d="M610.111 1293.04L413.591 1180.14L828.978 943.375L1025.5 1056.27L610.111 1293.04Z" fill="url(#paint9_linear_11_279)"/>
<path d="M665.865 1407.71L667.955 1408.91L1167.47 1120.49L1167.47 1096.3L1165.38 1095.09L665.865 1383.52V1407.71Z" fill="url(#paint10_linear_11_279)"/>
<g filter="url(#filter2_b_11_279)">
<path d="M1402.02 762.364L948.314 1024.34V1047.87L1258.74 1227.61L1712.45 965.63L1712.45 942.104L1402.02 762.364Z" fill="url(#paint11_linear_11_279)"/>
</g>
<path d="M1258.74 1204.08L948.314 1025.68L1402.02 763.705L1712.45 942.104L1258.74 1204.08Z" fill="url(#paint12_linear_11_279)"/>
<path d="M1259.93 1183.61L980.903 1022.71L1402.5 779.142L1681.52 940.04L1259.93 1183.61Z" fill="url(#paint13_linear_11_279)"/>
<path d="M1256.85 1226.05L1258.74 1227.14L1712.45 965.167L1712.45 943.201L1710.55 942.105L1256.85 1204.08V1226.05Z" fill="url(#paint14_linear_11_279)"/>
<g filter="url(#filter3_f_11_279)">
<path opacity="0.25" d="M287.842 577.024L288.232 577.248L381.286 523.742V285.224L380.896 285L287.842 338.506V577.024Z" fill="url(#paint15_linear_11_279)"/>
<path opacity="0.25" d="M334.564 577.024L334.953 577.248L428.007 523.742V285.224L427.618 285L334.564 338.506V577.024Z" fill="url(#paint16_linear_11_279)"/>
</g>
<g filter="url(#filter4_dd_11_279)">
<path d="M944.797 966.048C901.685 1009.16 831.786 1009.16 788.674 966.048C745.562 922.936 745.562 853.037 788.674 809.925C831.786 766.813 901.685 766.813 944.797 809.925C987.909 853.037 987.909 922.936 944.797 966.048Z" fill="url(#paint17_radial_11_279)"/>
<path d="M944.797 966.048C901.685 1009.16 831.786 1009.16 788.674 966.048C745.562 922.936 745.562 853.037 788.674 809.925C831.786 766.813 901.685 766.813 944.797 809.925C987.909 853.037 987.909 922.936 944.797 966.048Z" fill="url(#paint18_radial_11_279)"/>
</g>
<path d="M1510.07 518.239L1586.21 562.2V650.121L1510.07 694.082L1433.94 650.121V562.2L1510.07 518.239Z" fill="url(#paint19_linear_11_279)"/>
<g opacity="0.5" filter="url(#filter5_d_11_279)">
<path d="M1510.07 694.081L1586.21 650.12L1510.07 606.16L1433.94 650.12L1510.07 694.081Z" fill="url(#paint20_linear_11_279)" shape-rendering="crispEdges"/>
</g>
<path d="M1510.07 606.161L1586.21 562.2L1510.07 518.239L1433.94 562.2L1510.07 606.161Z" fill="url(#paint21_linear_11_279)"/>
<path d="M1510.39 693.897L1510.07 694.081L1433.94 650.12V562.383L1434.26 562.199L1510.39 606.159V693.897Z" fill="url(#paint22_linear_11_279)"/>
<path d="M967.614 1382.86L1019 1412.54V1471.88L967.614 1501.56L916.223 1471.88V1412.54L967.614 1382.86Z" fill="url(#paint23_linear_11_279)"/>
<g opacity="0.5" filter="url(#filter6_d_11_279)">
<path d="M967.614 1501.56L1019 1471.88L967.614 1442.21L916.223 1471.88L967.614 1501.56Z" fill="url(#paint24_linear_11_279)" shape-rendering="crispEdges"/>
</g>
<path d="M967.614 1442.21L1019 1412.54L967.614 1382.86L916.223 1412.54L967.614 1442.21Z" fill="url(#paint25_linear_11_279)"/>
<path d="M967.829 1501.43L967.614 1501.56L916.223 1471.88V1412.66L916.438 1412.54L967.829 1442.21V1501.43Z" fill="url(#paint26_linear_11_279)"/>
<path d="M1665.65 693.843C1665.65 812.375 1582.53 919.78 1447.92 997.58C1313.34 1075.37 1127.37 1123.5 921.933 1123.5C716.495 1123.5 530.53 1075.37 395.941 997.58C261.34 919.78 178.215 812.375 178.215 693.843C178.215 575.311 261.34 467.905 395.941 390.105C530.53 312.313 716.495 264.181 921.933 264.181C1127.37 264.181 1313.34 312.313 1447.92 390.105C1582.53 467.905 1665.65 575.311 1665.65 693.843Z" stroke="url(#paint27_linear_11_279)"/>
<path d="M259.56 385.497L383.279 456.933V599.805L259.56 671.241L135.841 599.805V456.933L259.56 385.497Z" fill="url(#paint28_linear_11_279)"/>
<g opacity="0.5" filter="url(#filter7_d_11_279)">
<path d="M259.56 671.24L383.279 599.804L259.56 528.368L135.841 599.804L259.56 671.24Z" fill="url(#paint29_linear_11_279)" shape-rendering="crispEdges"/>
</g>
<path d="M259.56 528.369L383.279 456.933L259.56 385.497L135.841 456.933L259.56 528.369Z" fill="url(#paint30_linear_11_279)"/>
<path d="M260.078 670.94L259.56 671.239L135.841 599.803V457.23L136.358 456.931L260.078 528.367V670.94Z" fill="url(#paint31_linear_11_279)"/>
<path opacity="0.5" d="M1665.65 830.885C1665.65 949.417 1582.53 1056.82 1447.92 1134.62C1313.34 1212.42 1127.37 1260.55 921.933 1260.55C716.495 1260.55 530.53 1212.42 395.941 1134.62C261.34 1056.82 178.215 949.417 178.215 830.885C178.215 712.354 261.34 604.948 395.941 527.148C530.53 449.355 716.495 401.224 921.933 401.224C1127.37 401.224 1313.34 449.355 1447.92 527.148C1582.53 604.948 1665.65 712.354 1665.65 830.885Z" stroke="url(#paint32_linear_11_279)"/>
<path opacity="0.25" d="M1665.65 967.928C1665.65 1086.46 1582.53 1193.87 1447.92 1271.67C1313.34 1349.46 1127.37 1397.59 921.933 1397.59C716.495 1397.59 530.53 1349.46 395.941 1271.67C261.34 1193.87 178.215 1086.46 178.215 967.928C178.215 849.396 261.34 741.991 395.941 664.191C530.53 586.398 716.495 538.266 921.933 538.266C1127.37 538.266 1313.34 586.398 1447.92 664.191C1582.53 741.991 1665.65 849.396 1665.65 967.928Z" stroke="url(#paint33_linear_11_279)"/>
</g>
<defs>
<filter id="filter0_b_11_279" x="998.005" y="197" width="251.371" height="555.457" filterUnits="userSpaceOnUse" color-interpolation-filters="sRGB">
<feFlood flood-opacity="0" result="BackgroundImageFix"/>
<feGaussianBlur in="BackgroundImage" stdDeviation="10.5"/>
<feComposite in2="SourceAlpha" operator="in" result="effect1_backgroundBlur_11_279"/>
<feBlend mode="normal" in="SourceGraphic" in2="effect1_backgroundBlur_11_279" result="shape"/>
</filter>
<filter id="filter1_b_11_279" x="224.181" y="795.206" width="1045.29" height="716.218" filterUnits="userSpaceOnUse" color-interpolation-filters="sRGB">
<feFlood flood-opacity="0" result="BackgroundImageFix"/>
<feGaussianBlur in="BackgroundImage" stdDeviation="51"/>
<feComposite in2="SourceAlpha" operator="in" result="effect1_backgroundBlur_11_279"/>
<feBlend mode="normal" in="SourceGraphic" in2="effect1_backgroundBlur_11_279" result="shape"/>
</filter>
<filter id="filter2_b_11_279" x="846.314" y="660.364" width="968.135" height="669.243" filterUnits="userSpaceOnUse" color-interpolation-filters="sRGB">
<feFlood flood-opacity="0" result="BackgroundImageFix"/>
<feGaussianBlur in="BackgroundImage" stdDeviation="51"/>
<feComposite in2="SourceAlpha" operator="in" result="effect1_backgroundBlur_11_279"/>
<feBlend mode="normal" in="SourceGraphic" in2="effect1_backgroundBlur_11_279" result="shape"/>
</filter>
<filter id="filter3_f_11_279" x="252.842" y="250" width="210.165" height="362.248" filterUnits="userSpaceOnUse" color-interpolation-filters="sRGB">
<feFlood flood-opacity="0" result="BackgroundImageFix"/>
<feBlend mode="normal" in="SourceGraphic" in2="BackgroundImageFix" result="shape"/>
<feGaussianBlur stdDeviation="17.5" result="effect1_foregroundBlur_11_279"/>
</filter>
<filter id="filter4_dd_11_279" x="693.34" y="709.591" width="334.791" height="338.791" filterUnits="userSpaceOnUse" color-interpolation-filters="sRGB">
<feFlood flood-opacity="0" result="BackgroundImageFix"/>
<feColorMatrix in="SourceAlpha" type="matrix" values="0 0 0 0 0 0 0 0 0 0 0 0 0 0 0 0 0 0 127 0" result="hardAlpha"/>
<feOffset dx="-20" dy="7"/>
<feGaussianBlur stdDeviation="21.5"/>
<feComposite in2="hardAlpha" operator="out"/>
<feColorMatrix type="matrix" values="0 0 0 0 0 0 0 0 0 0.928 0 0 0 0 1 0 0 0 1 0"/>
<feBlend mode="normal" in2="BackgroundImageFix" result="effect1_dropShadow_11_279"/>
<feColorMatrix in="SourceAlpha" type="matrix" values="0 0 0 0 0 0 0 0 0 0 0 0 0 0 0 0 0 0 127 0" result="hardAlpha"/>
<feOffset dx="4" dy="-21"/>
<feGaussianBlur stdDeviation="23.5"/>
<feComposite in2="hardAlpha" operator="out"/>
<feColorMatrix type="matrix" values="0 0 0 0 0.230903 0 0 0 0 0.354271 0 0 0 0 0.791667 0 0 0 1 0"/>
<feBlend mode="normal" in2="effect1_dropShadow_11_279" result="effect2_dropShadow_11_279"/>
<feBlend mode="normal" in="SourceGraphic" in2="effect2_dropShadow_11_279" result="shape"/>
</filter>
<filter id="filter5_d_11_279" x="1283.94" y="531.16" width="452.27" height="387.921" filterUnits="userSpaceOnUse" color-interpolation-filters="sRGB">
<feFlood flood-opacity="0" result="BackgroundImageFix"/>
<feColorMatrix in="SourceAlpha" type="matrix" values="0 0 0 0 0 0 0 0 0 0 0 0 0 0 0 0 0 0 127 0" result="hardAlpha"/>
<feOffset dy="75"/>
<feGaussianBlur stdDeviation="75"/>
<feComposite in2="hardAlpha" operator="out"/>
<feColorMatrix type="matrix" values="0 0 0 0 0.3125 0 0 0 0 0.67 0 0 0 0 1 0 0 0 1 0"/>
<feBlend mode="normal" in2="BackgroundImageFix" result="effect1_dropShadow_11_279"/>
<feBlend mode="normal" in="SourceGraphic" in2="effect1_dropShadow_11_279" result="shape"/>
</filter>
<filter id="filter6_d_11_279" x="766.223" y="1367.21" width="402.782" height="359.347" filterUnits="userSpaceOnUse" color-interpolation-filters="sRGB">
<feFlood flood-opacity="0" result="BackgroundImageFix"/>
<feColorMatrix in="SourceAlpha" type="matrix" values="0 0 0 0 0 0 0 0 0 0 0 0 0 0 0 0 0 0 127 0" result="hardAlpha"/>
<feOffset dy="75"/>
<feGaussianBlur stdDeviation="75"/>
<feComposite in2="hardAlpha" operator="out"/>
<feColorMatrix type="matrix" values="0 0 0 0 0.3125 0 0 0 0 0.67 0 0 0 0 1 0 0 0 1 0"/>
<feBlend mode="normal" in2="BackgroundImageFix" result="effect1_dropShadow_11_279"/>
<feBlend mode="normal" in="SourceGraphic" in2="effect1_dropShadow_11_279" result="shape"/>
</filter>
<filter id="filter7_d_11_279" x="-14.1592" y="453.368" width="547.438" height="442.872" filterUnits="userSpaceOnUse" color-interpolation-filters="sRGB">
<feFlood flood-opacity="0" result="BackgroundImageFix"/>
<feColorMatrix in="SourceAlpha" type="matrix" values="0 0 0 0 0 0 0 0 0 0 0 0 0 0 0 0 0 0 127 0" result="hardAlpha"/>
<feOffset dy="75"/>
<feGaussianBlur stdDeviation="75"/>
<feComposite in2="hardAlpha" operator="out"/>
<feColorMatrix type="matrix" values="0 0 0 0 0.3125 0 0 0 0 0.67 0 0 0 0 1 0 0 0 1 0"/>
<feBlend mode="normal" in2="BackgroundImageFix" result="effect1_dropShadow_11_279"/>
<feBlend mode="normal" in="SourceGraphic" in2="effect1_dropShadow_11_279" result="shape"/>
</filter>
<linearGradient id="paint0_linear_11_279" x1="113" y1="1213.46" x2="1807" y2="1213.46" gradientUnits="userSpaceOnUse">
<stop stop-color="#50C0FF" stop-opacity="0.5"/>
<stop offset="1" stop-color="#000B1B" stop-opacity="0.57"/>
</linearGradient>
<linearGradient id="paint1_linear_11_279" x1="1382.37" y1="445.568" x2="1016.81" y2="150.741" gradientUnits="userSpaceOnUse">
<stop stop-color="#5076FF" stop-opacity="0.25"/>
<stop offset="1" stop-color="#455FE4" stop-opacity="0"/>
</linearGradient>
<linearGradient id="paint2_linear_11_279" x1="1165.27" y1="316.716" x2="1238.65" y2="316.716" gradientUnits="userSpaceOnUse">
<stop stop-color="#50C0FF" stop-opacity="0.5"/>
<stop offset="1" stop-color="#000B1B" stop-opacity="0.57"/>
</linearGradient>
<linearGradient id="paint3_linear_11_279" x1="1010.18" y1="503.442" x2="1180.6" y2="391.279" gradientUnits="userSpaceOnUse">
<stop stop-color="#30CDFF" stop-opacity="0.76"/>
<stop offset="1" stop-color="#00A3FF" stop-opacity="0"/>
</linearGradient>
<linearGradient id="paint4_linear_11_279" x1="1090" y1="530.632" x2="1009.74" y2="424.309" gradientUnits="userSpaceOnUse">
<stop stop-color="#005D7A" stop-opacity="0.76"/>
<stop offset="1" stop-color="#01152D" stop-opacity="0.71"/>
</linearGradient>
<linearGradient id="paint5_linear_11_279" x1="168.439" y1="1671.96" x2="1165.39" y2="1095.12" gradientUnits="userSpaceOnUse">
<stop stop-color="#5076FF" stop-opacity="0.25"/>
<stop offset="1" stop-color="#455FE4" stop-opacity="0"/>
</linearGradient>
<linearGradient id="paint6_linear_11_279" x1="1167.47" y1="1095.09" x2="168.439" y2="1095.86" gradientUnits="userSpaceOnUse">
<stop stop-color="#50C0FF" stop-opacity="0.9"/>
<stop offset="1" stop-color="#133466" stop-opacity="0.41"/>
</linearGradient>
<linearGradient id="paint7_linear_11_279" x1="0" y1="0" x2="210.952" y2="454.627" gradientUnits="userSpaceOnUse">
<stop stop-color="#329FDD"/>
<stop offset="1" stop-color="#07263C"/>
</linearGradient>
<linearGradient id="paint8_linear_11_279" x1="245.895" y1="78.4915" x2="297.293" y2="127.54" gradientUnits="userSpaceOnUse">
<stop stop-color="#063A60"/>
<stop offset="1" stop-color="#001F31"/>
</linearGradient>
<linearGradient id="paint9_linear_11_279" x1="1025.5" y1="1056.27" x2="451.055" y2="1056.71" gradientUnits="userSpaceOnUse">
<stop stop-color="#0D4A6B" stop-opacity="0.9"/>
<stop offset="1" stop-color="#001432" stop-opacity="0.57"/>
</linearGradient>
<linearGradient id="paint10_linear_11_279" x1="1177.99" y1="1087.97" x2="396.25" y2="1562.88" gradientUnits="userSpaceOnUse">
<stop stop-color="#30CDFF" stop-opacity="0.76"/>
<stop offset="1" stop-color="#00A3FF" stop-opacity="0"/>
</linearGradient>
<linearGradient id="paint11_linear_11_279" x1="805.039" y1="1466.07" x2="1710.56" y2="942.128" gradientUnits="userSpaceOnUse">
<stop stop-color="#5076FF" stop-opacity="0.25"/>
<stop offset="1" stop-color="#455FE4" stop-opacity="0"/>
</linearGradient>
<linearGradient id="paint12_linear_11_279" x1="1712.45" y1="942.104" x2="805.039" y2="942.799" gradientUnits="userSpaceOnUse">
<stop stop-color="#50C0FF" stop-opacity="0.9"/>
<stop offset="1" stop-color="#133466" stop-opacity="0.41"/>
</linearGradient>
<linearGradient id="paint13_linear_11_279" x1="1382.13" y1="909.49" x2="1266.04" y2="915.6" gradientUnits="userSpaceOnUse">
<stop stop-color="#186D9D" stop-opacity="0.9"/>
<stop offset="1" stop-color="#001432" stop-opacity="0.57"/>
</linearGradient>
<linearGradient id="paint14_linear_11_279" x1="1722" y1="935.635" x2="1011.96" y2="1366.99" gradientUnits="userSpaceOnUse">
<stop stop-color="#30CDFF" stop-opacity="0.76"/>
<stop offset="1" stop-color="#00A3FF" stop-opacity="0"/>
</linearGradient>
<linearGradient id="paint15_linear_11_279" x1="288.231" y1="556.053" x2="288.747" y2="341.546" gradientUnits="userSpaceOnUse">
<stop stop-color="#0047FF" stop-opacity="0"/>
<stop offset="1" stop-color="#305DFF" stop-opacity="0.76"/>
</linearGradient>
<linearGradient id="paint16_linear_11_279" x1="334.953" y1="556.053" x2="335.469" y2="341.546" gradientUnits="userSpaceOnUse">
<stop stop-color="#00A3FF" stop-opacity="0"/>
<stop offset="1" stop-color="#30CDFF" stop-opacity="0.76"/>
</linearGradient>
<radialGradient id="paint17_radial_11_279" cx="0" cy="0" r="1" gradientUnits="userSpaceOnUse" gradientTransform="translate(918.351 836.371) rotate(135) scale(183.391)">
<stop stop-color="white" stop-opacity="0"/>
<stop offset="0.668121" stop-color="#3E9DFF" stop-opacity="0"/>
<stop offset="1" stop-color="#3E9DFF" stop-opacity="0.43"/>
</radialGradient>
<radialGradient id="paint18_radial_11_279" cx="0" cy="0" r="1" gradientUnits="userSpaceOnUse" gradientTransform="translate(769.258 942.01) rotate(-29.9927) scale(202.045)">
<stop stop-color="white"/>
<stop offset="0.463542" stop-color="#72DDFF"/>
<stop offset="0.733683" stop-color="#50C0FF"/>
<stop offset="1" stop-color="#0E67BA"/>
</radialGradient>
<linearGradient id="paint19_linear_11_279" x1="1586.21" y1="650.121" x2="1434.26" y2="562.2" gradientUnits="userSpaceOnUse">
<stop stop-color="#5076FF" stop-opacity="0.25"/>
<stop offset="1" stop-color="#455FE4" stop-opacity="0"/>
</linearGradient>
<linearGradient id="paint20_linear_11_279" x1="1433.94" y1="650.12" x2="1586.21" y2="650.12" gradientUnits="userSpaceOnUse">
<stop stop-color="#50C0FF" stop-opacity="0.5"/>
<stop offset="1" stop-color="#133A74" stop-opacity="0"/>
</linearGradient>
<linearGradient id="paint21_linear_11_279" x1="1433.94" y1="562.2" x2="1586.21" y2="562.2" gradientUnits="userSpaceOnUse">
<stop stop-color="#50C0FF" stop-opacity="0.5"/>
<stop offset="1" stop-color="#000B1B" stop-opacity="0.57"/>
</linearGradient>
<linearGradient id="paint22_linear_11_279" x1="1433.94" y1="648.846" x2="1510.07" y2="606.159" gradientUnits="userSpaceOnUse">
<stop stop-color="#30CDFF" stop-opacity="0.76"/>
<stop offset="1" stop-color="#00A3FF" stop-opacity="0"/>
</linearGradient>
<linearGradient id="paint23_linear_11_279" x1="1019" y1="1471.88" x2="916.438" y2="1412.54" gradientUnits="userSpaceOnUse">
<stop stop-color="#5076FF" stop-opacity="0.25"/>
<stop offset="1" stop-color="#455FE4" stop-opacity="0"/>
</linearGradient>
<linearGradient id="paint24_linear_11_279" x1="916.223" y1="1471.88" x2="1019" y2="1471.88" gradientUnits="userSpaceOnUse">
<stop stop-color="#50C0FF" stop-opacity="0.5"/>
<stop offset="1" stop-color="#133A74" stop-opacity="0"/>
</linearGradient>
<linearGradient id="paint25_linear_11_279" x1="916.223" y1="1412.54" x2="1019" y2="1412.54" gradientUnits="userSpaceOnUse">
<stop stop-color="#50C0FF" stop-opacity="0.5"/>
<stop offset="1" stop-color="#000B1B" stop-opacity="0.57"/>
</linearGradient>
<linearGradient id="paint26_linear_11_279" x1="916.223" y1="1471.02" x2="967.614" y2="1442.21" gradientUnits="userSpaceOnUse">
<stop stop-color="#30CDFF" stop-opacity="0.76"/>
<stop offset="1" stop-color="#00A3FF" stop-opacity="0"/>
</linearGradient>
<linearGradient id="paint27_linear_11_279" x1="177.715" y1="1124" x2="923.199" y2="-165.749" gradientUnits="userSpaceOnUse">
<stop stop-color="#409FEA"/>
<stop offset="1" stop-color="#0D3656" stop-opacity="0.5"/>
</linearGradient>
<linearGradient id="paint28_linear_11_279" x1="383.279" y1="599.805" x2="136.358" y2="456.933" gradientUnits="userSpaceOnUse">
<stop stop-color="#5076FF" stop-opacity="0.25"/>
<stop offset="1" stop-color="#455FE4" stop-opacity="0"/>
</linearGradient>
<linearGradient id="paint29_linear_11_279" x1="135.841" y1="599.804" x2="383.279" y2="599.804" gradientUnits="userSpaceOnUse">
<stop stop-color="#50C0FF" stop-opacity="0.5"/>
<stop offset="1" stop-color="#133A74" stop-opacity="0"/>
</linearGradient>
<linearGradient id="paint30_linear_11_279" x1="135.841" y1="456.933" x2="383.279" y2="456.933" gradientUnits="userSpaceOnUse">
<stop stop-color="#50C0FF" stop-opacity="0.5"/>
<stop offset="1" stop-color="#000B1B" stop-opacity="0.57"/>
</linearGradient>
<linearGradient id="paint31_linear_11_279" x1="135.841" y1="597.732" x2="259.56" y2="528.367" gradientUnits="userSpaceOnUse">
<stop stop-color="#30CDFF" stop-opacity="0.76"/>
<stop offset="1" stop-color="#00A3FF" stop-opacity="0"/>
</linearGradient>
<linearGradient id="paint32_linear_11_279" x1="177.715" y1="1261.05" x2="923.199" y2="-28.7063" gradientUnits="userSpaceOnUse">
<stop stop-color="#409FEA"/>
<stop offset="1" stop-color="#0D3656" stop-opacity="0.5"/>
</linearGradient>
<linearGradient id="paint33_linear_11_279" x1="177.715" y1="1398.09" x2="923.199" y2="108.336" gradientUnits="userSpaceOnUse">
<stop stop-color="#409FEA"/>
<stop offset="1" stop-color="#0D3656" stop-opacity="0.5"/>
</linearGradient>
<clipPath id="clip0_11_279">
<rect width="1920" height="1920" fill="white"/>
</clipPath>
</defs>
</svg>
