<svg width="1920" height="1920" viewBox="0 0 1920 1920" fill="none" xmlns="http://www.w3.org/2000/svg">
<rect width="1920" height="1920" />
<path opacity="0.25" d="M960.5 1677.67L1779 1203.13L960.5 728.581L142 1203.13L960.5 1677.67Z" fill="url(#paint0_linear_11_2530)"/>
<path d="M1033.44 1057.21C1322.83 1055.65 1556.69 918.86 1555.78 751.69C1554.88 584.521 1319.55 450.273 1030.17 451.84C740.78 453.407 506.918 590.194 507.822 757.364C508.726 924.533 744.053 1058.78 1033.44 1057.21Z" fill="url(#paint1_radial_11_2530)"/>
<path d="M1049.13 707.731L492.204 1029.46V1058.37L873.272 1279.14L1430.2 957.363V928.504L1049.13 707.731Z" fill="url(#paint2_linear_11_2530)"/>
<path d="M873.272 1250.29L492.204 1031.31L1049.13 709.531L1430.2 928.507L873.272 1250.29Z" fill="url(#paint3_linear_11_2530)"/>
<path d="M1049.13 243L492.204 564.725V1031.87L1049.13 710.091V243Z" fill="url(#paint4_linear_11_2530)"/>
<path d="M1031.57 277.757L509.768 579.157V966.462L1031.57 665.006V277.757Z" fill="url(#paint5_linear_11_2530)"/>
<path d="M808.797 1149.33L589.674 1023.45L1052.84 759.556L1271.68 885.495L808.797 1149.33Z" fill="url(#paint6_linear_11_2530)"/>
<path d="M870.915 1277.24L873.271 1278.58L1430.2 956.803V929.852L1427.9 928.505L870.915 1250.29V1277.24Z" fill="url(#paint7_linear_11_2530)"/>
<path d="M474.136 1040.3L715.424 900.938C717.223 899.676 719.326 898.916 721.516 898.739C723.705 898.561 725.903 898.971 727.881 899.927V899.927L751.281 913.459L734.84 919.467V1095.26C734.727 1102.54 732.912 1109.68 729.54 1116.13C726.168 1122.58 721.334 1128.14 715.424 1132.38L484.797 1265.5V1286.11L461.173 1272.52C458.851 1270.71 457.028 1268.34 455.879 1265.63C454.731 1262.91 454.293 1259.95 454.608 1257.03V1077.35C454.72 1063.2 463.418 1046.58 474.136 1040.3Z" fill="url(#paint8_linear_11_2530)"/>
<path d="M497.984 1285.38L739.273 1146.02C750.046 1139.84 758.688 1123.22 758.688 1108.96V929.29C758.688 914.972 750.046 908.403 739.273 914.636L497.984 1053.99C492.076 1058.22 487.241 1063.77 483.869 1070.21C480.497 1076.65 478.681 1083.78 478.569 1091.05V1270.72C478.625 1284.98 487.266 1291.61 497.984 1285.38Z" fill="url(#paint9_linear_11_2530)"/>
<path d="M392.209 1005.93L713.123 820.648C727.376 812.45 738.935 790.328 738.935 771.294V684.209C738.935 665.175 727.376 656.135 713.123 664.67L392.209 849.957C377.956 858.266 366.397 880.389 366.397 899.366V986.395C366.397 1005.43 377.956 1014.19 392.209 1005.93Z" fill="url(#paint10_linear_11_2530)"/>
<path d="M392.209 590.666L713.123 405.379C727.376 397.125 738.935 375.003 738.935 356.025V268.94C738.935 249.906 727.376 241.147 713.123 249.401L392.209 434.8C377.956 442.998 366.397 465.12 366.397 484.435V571.126C366.397 590.16 377.956 598.919 392.209 590.666Z" fill="url(#paint11_linear_11_2530)"/>
<path d="M392.209 800.095L713.123 614.808C727.376 606.61 738.935 584.488 738.935 565.454V478.369C738.935 459.335 727.376 450.296 713.123 458.83L392.209 644.173C377.956 652.427 366.397 674.549 366.397 693.527V780.555C366.397 799.589 377.956 808.348 392.209 800.095Z" fill="url(#paint12_linear_11_2530)"/>
<path d="M402.702 498.641L403.937 499.371L699.431 327.728V296.341L698.196 295.611L402.702 467.254V498.641Z" fill="#7ACFFF"/>
<path d="M467.177 692.853V725.811L699.431 590.889V559.446L698.253 558.66L467.177 692.853Z" fill="#7ACFFF"/>
<path d="M467.177 864.666V897.624L699.431 762.702V731.259L698.253 730.529L467.177 864.666Z" fill="#7ACFFF"/>
<path d="M610.268 399.766V432.5L699.432 380.788V349.346L698.254 348.672L610.268 399.766Z" fill="#7ACFFF"/>
<path d="M610.268 551.926V584.66L699.432 532.892V501.449L698.254 500.775L610.268 551.926Z" fill="#7ACFFF"/>
<path d="M1310 468.49L1126.79 574.272V662.424L1310 768.262L1493.16 662.48V574.272L1310 468.49Z" fill="url(#paint13_linear_11_2530)"/>
<path opacity="0.25" d="M1310 680.165L1126.79 574.271L1310 468.433L1493.16 574.271L1310 680.165Z" fill="url(#paint14_linear_11_2530)"/>
<path opacity="0.5" d="M1310 680.165L1126.79 574.271L1310 468.433L1493.16 574.271L1310 680.165Z" fill="url(#paint15_linear_11_2530)"/>
<path d="M1309.11 767.698L1309.89 768.147L1493.16 662.309V574.775L1492.43 574.326L1309.11 680.164V767.698Z" fill="url(#paint16_linear_11_2530)"/>
<path d="M1310 318.632L1126.79 424.47V512.509L1310 618.347L1493.16 512.509V424.47L1310 318.632Z" fill="url(#paint17_linear_11_2530)"/>
<path opacity="0.25" d="M1310 530.308L1126.79 424.47L1310 318.632L1493.16 424.47L1310 530.308Z" fill="url(#paint18_linear_11_2530)"/>
<path opacity="0.5" d="M1310 530.308L1126.79 424.47L1310 318.632L1493.16 424.47L1310 530.308Z" fill="url(#paint19_linear_11_2530)"/>
<path d="M1309.11 617.784L1309.89 618.233L1493.16 512.507V424.861L1492.43 424.468L1309.11 530.306V617.784Z" fill="url(#paint20_linear_11_2530)"/>
<path d="M1310 468.49L1126.79 574.272V662.424L1310 768.262L1493.16 662.48V574.272L1310 468.49Z" fill="url(#paint21_linear_11_2530)"/>
<path opacity="0.25" d="M1310 680.165L1126.79 574.271L1310 468.433L1493.16 574.271L1310 680.165Z" fill="url(#paint22_linear_11_2530)"/>
<path opacity="0.5" d="M1310 680.165L1126.79 574.271L1310 468.433L1493.16 574.271L1310 680.165Z" fill="url(#paint23_linear_11_2530)"/>
<path d="M1309.11 767.698L1309.89 768.147L1493.16 662.309V574.775L1492.43 574.326L1309.11 680.164V767.698Z" fill="url(#paint24_linear_11_2530)"/>
<path d="M1310 318.632L1126.79 424.47V512.509L1310 618.347L1493.16 512.509V424.47L1310 318.632Z" fill="url(#paint25_linear_11_2530)"/>
<path opacity="0.25" d="M1310 530.308L1126.79 424.47L1310 318.632L1493.16 424.47L1310 530.308Z" fill="url(#paint26_linear_11_2530)"/>
<path opacity="0.5" d="M1310 530.308L1126.79 424.47L1310 318.632L1493.16 424.47L1310 530.308Z" fill="url(#paint27_linear_11_2530)"/>
<path d="M1309.11 617.784L1309.89 618.233L1493.16 512.507V424.861L1492.43 424.468L1309.11 530.306V617.784Z" fill="url(#paint28_linear_11_2530)"/>
<path d="M1310 468.49L1126.79 574.272V662.424L1310 768.262L1493.16 662.48V574.272L1310 468.49Z" fill="url(#paint29_linear_11_2530)"/>
<path opacity="0.25" d="M1310 680.165L1126.79 574.271L1310 468.433L1493.16 574.271L1310 680.165Z" fill="url(#paint30_linear_11_2530)"/>
<path opacity="0.5" d="M1310 680.165L1126.79 574.271L1310 468.433L1493.16 574.271L1310 680.165Z" fill="url(#paint31_linear_11_2530)"/>
<path d="M1309.11 767.698L1309.89 768.147L1493.16 662.309V574.775L1492.43 574.326L1309.11 680.164V767.698Z" fill="url(#paint32_linear_11_2530)"/>
<path d="M1310 318.632L1126.79 424.47V512.509L1310 618.347L1493.16 512.509V424.47L1310 318.632Z" fill="url(#paint33_linear_11_2530)"/>
<path opacity="0.25" d="M1310 530.308L1126.79 424.47L1310 318.632L1493.16 424.47L1310 530.308Z" fill="url(#paint34_linear_11_2530)"/>
<path opacity="0.5" d="M1310 530.308L1126.79 424.47L1310 318.632L1493.16 424.47L1310 530.308Z" fill="url(#paint35_linear_11_2530)"/>
<path d="M1309.11 617.784L1309.89 618.233L1493.16 512.507V424.861L1492.43 424.468L1309.11 530.306V617.784Z" fill="url(#paint36_linear_11_2530)"/>
<path style="mix-blend-mode:color-dodge" fill-rule="evenodd" clip-rule="evenodd" d="M819.626 433.902L822.263 432.386V497.068L832.756 490.835V614.697L822.263 620.929V685.443L819.626 687.015V622.501L809.189 628.734V504.872L819.626 498.64V433.902ZM860.196 510.094L870.689 503.862V685.443L860.196 691.675V727.329L857.559 728.845V693.247L847.178 699.48V518.123L857.615 511.891V476.012L860.252 474.44L860.196 510.094ZM787.248 596.168L797.742 589.936V692.18L787.248 698.581V734.235L784.611 735.807V700.153L774.174 706.386V603.973L784.611 597.74V562.087L787.248 560.514V596.168ZM898.241 551.812L908.734 545.579V608.521L898.241 614.753V674.157L895.604 675.729V616.325L885.167 622.557V559.784L895.604 553.552V422.672L898.241 421.156V551.812ZM936.23 496.057L946.723 490.049V600.941L936.23 607.229V690.327L933.593 691.9V608.745L923.155 614.978V504.03L933.593 497.798V440.583L936.23 439.011V496.057ZM974.219 518.123L984.712 511.891V571.126L974.219 577.359V640.805L971.582 642.377V578.931L961.201 585.163V525.759L971.638 519.527V473.71L974.275 472.138L974.219 518.123Z" fill="url(#paint37_radial_11_2530)"/>
<path d="M1243.79 400.214C1254.01 410.37 1267.01 417.27 1281.15 420.045C1295.28 422.819 1309.92 421.343 1323.22 415.803C1336.52 410.264 1347.89 400.908 1355.88 388.916C1363.87 376.924 1368.14 362.832 1368.14 348.418C1368.14 334.003 1363.87 319.912 1355.88 307.919C1347.89 295.927 1336.52 286.572 1323.22 281.032C1309.92 275.492 1295.28 274.016 1281.15 276.791C1267.01 279.565 1254.01 286.465 1243.79 296.622C1236.96 303.406 1231.54 311.476 1227.84 320.365C1224.14 329.255 1222.24 338.789 1222.24 348.418C1222.24 358.047 1224.14 367.581 1227.84 376.47C1231.54 385.36 1236.96 393.429 1243.79 400.214V400.214Z" fill="url(#paint38_radial_11_2530)"/>
<path d="M1243.79 400.214C1254.01 410.37 1267.01 417.27 1281.15 420.045C1295.28 422.819 1309.92 421.343 1323.22 415.803C1336.52 410.264 1347.89 400.908 1355.88 388.916C1363.87 376.924 1368.14 362.832 1368.14 348.418C1368.14 334.003 1363.87 319.912 1355.88 307.919C1347.89 295.927 1336.52 286.572 1323.22 281.032C1309.92 275.492 1295.28 274.016 1281.15 276.791C1267.01 279.565 1254.01 286.465 1243.79 296.622C1236.96 303.406 1231.54 311.476 1227.84 320.365C1224.14 329.255 1222.24 338.789 1222.24 348.418C1222.24 358.047 1224.14 367.581 1227.84 376.47C1231.54 385.36 1236.96 393.429 1243.79 400.214V400.214Z" fill="url(#paint39_radial_11_2530)"/>
<defs>
<linearGradient id="paint0_linear_11_2530" x1="142" y1="1203.13" x2="1779" y2="1203.13" gradientUnits="userSpaceOnUse">
<stop stop-color="#50C0FF" stop-opacity="0.5"/>
<stop offset="1" stop-color="#000B1B" stop-opacity="0.57"/>
</linearGradient>
<radialGradient id="paint1_radial_11_2530" cx="0" cy="0" r="1" gradientUnits="userSpaceOnUse" gradientTransform="translate(1035.88 737.211) rotate(149.788) scale(430.701 370.114)">
<stop stop-color="#5076FF" stop-opacity="0.7"/>
<stop offset="0.45" stop-color="#5076FF" stop-opacity="0.25"/>
<stop offset="1" stop-color="#455FE4" stop-opacity="0"/>
</radialGradient>
<linearGradient id="paint2_linear_11_2530" x1="227.404" y1="1418.28" x2="1339.3" y2="775.298" gradientUnits="userSpaceOnUse">
<stop stop-color="#5076FF" stop-opacity="0.25"/>
<stop offset="1" stop-color="#455FE4" stop-opacity="0"/>
</linearGradient>
<linearGradient id="paint3_linear_11_2530" x1="1430.26" y1="979.489" x2="316.344" y2="980.33" gradientUnits="userSpaceOnUse">
<stop stop-color="#50C0FF" stop-opacity="0.9"/>
<stop offset="1" stop-color="#133466" stop-opacity="0.41"/>
</linearGradient>
<linearGradient id="paint4_linear_11_2530" x1="992.521" y1="249.289" x2="1017.98" y2="864.689" gradientUnits="userSpaceOnUse">
<stop stop-color="#329FDD"/>
<stop offset="1" stop-color="#07263C"/>
</linearGradient>
<linearGradient id="paint5_linear_11_2530" x1="933.089" y1="278.094" x2="501.373" y2="1191.36" gradientUnits="userSpaceOnUse">
<stop stop-color="#77DAFF"/>
<stop offset="0.41" stop-color="#063A60"/>
<stop offset="1" stop-color="#001F31"/>
</linearGradient>
<linearGradient id="paint6_linear_11_2530" x1="1271.96" y1="954.051" x2="631.478" y2="954.499" gradientUnits="userSpaceOnUse">
<stop stop-color="#0D4A6B" stop-opacity="0.9"/>
<stop offset="1" stop-color="#001432" stop-opacity="0.57"/>
</linearGradient>
<linearGradient id="paint7_linear_11_2530" x1="1444.56" y1="924.855" x2="572.667" y2="1454.2" gradientUnits="userSpaceOnUse">
<stop stop-color="#30CDFF" stop-opacity="0.76"/>
<stop offset="1" stop-color="#00A3FF" stop-opacity="0"/>
</linearGradient>
<linearGradient id="paint8_linear_11_2530" x1="751.169" y1="1092.46" x2="454.72" y2="1092.46" gradientUnits="userSpaceOnUse">
<stop stop-color="#50C0FF"/>
<stop offset="0.27" stop-color="#50C0FF"/>
<stop offset="1" stop-color="#07324C"/>
</linearGradient>
<linearGradient id="paint9_linear_11_2530" x1="793.254" y1="846.585" x2="379.751" y2="1445.95" gradientUnits="userSpaceOnUse">
<stop stop-color="#50C0FF"/>
<stop offset="0.81" stop-color="#4982EE" stop-opacity="0"/>
<stop offset="0.86" stop-color="#4877EB" stop-opacity="0.28"/>
<stop offset="1" stop-color="#455FE4" stop-opacity="0.25"/>
</linearGradient>
<linearGradient id="paint10_linear_11_2530" x1="737.42" y1="567.142" x2="300.049" y2="1201.14" gradientUnits="userSpaceOnUse">
<stop stop-color="#50C0FF"/>
<stop offset="0.81" stop-color="#4982EE" stop-opacity="0"/>
<stop offset="0.86" stop-color="#4877EB" stop-opacity="0.28"/>
<stop offset="1" stop-color="#455FE4" stop-opacity="0.25"/>
</linearGradient>
<linearGradient id="paint11_linear_11_2530" x1="737.42" y1="151.873" x2="300.049" y2="785.868" gradientUnits="userSpaceOnUse">
<stop stop-color="#50C0FF"/>
<stop offset="0.81" stop-color="#4982EE" stop-opacity="0"/>
<stop offset="0.86" stop-color="#4877EB" stop-opacity="0.28"/>
<stop offset="1" stop-color="#455FE4" stop-opacity="0.25"/>
</linearGradient>
<linearGradient id="paint12_linear_11_2530" x1="737.42" y1="361.302" x2="300.049" y2="995.297" gradientUnits="userSpaceOnUse">
<stop stop-color="#50C0FF"/>
<stop offset="0.81" stop-color="#4982EE" stop-opacity="0"/>
<stop offset="0.86" stop-color="#4877EB" stop-opacity="0.28"/>
<stop offset="1" stop-color="#455FE4" stop-opacity="0.25"/>
</linearGradient>
<linearGradient id="paint13_linear_11_2530" x1="1100.14" y1="739.964" x2="1465.83" y2="528.479" gradientUnits="userSpaceOnUse">
<stop stop-color="#5076FF" stop-opacity="0.25"/>
<stop offset="1" stop-color="#455FE4" stop-opacity="0"/>
</linearGradient>
<linearGradient id="paint14_linear_11_2530" x1="1493.16" y1="574.383" x2="1126.79" y2="574.383" gradientUnits="userSpaceOnUse">
<stop stop-color="#50C0FF" stop-opacity="0.5"/>
<stop offset="1" stop-color="#000B1B" stop-opacity="0.57"/>
</linearGradient>
<linearGradient id="paint15_linear_11_2530" x1="1493.16" y1="574.383" x2="1126.79" y2="574.383" gradientUnits="userSpaceOnUse">
<stop stop-color="#50C0FF" stop-opacity="0.5"/>
<stop offset="1" stop-color="#000B1B" stop-opacity="0.57"/>
</linearGradient>
<linearGradient id="paint16_linear_11_2530" x1="1493.83" y1="869.101" x2="1309.43" y2="475.817" gradientUnits="userSpaceOnUse">
<stop stop-color="#30CDFF" stop-opacity="0.76"/>
<stop offset="1" stop-color="#00A3FF" stop-opacity="0"/>
</linearGradient>
<linearGradient id="paint17_linear_11_2530" x1="1100.14" y1="590.049" x2="1465.83" y2="378.564" gradientUnits="userSpaceOnUse">
<stop stop-color="#5076FF" stop-opacity="0.25"/>
<stop offset="1" stop-color="#455FE4" stop-opacity="0"/>
</linearGradient>
<linearGradient id="paint18_linear_11_2530" x1="1493.16" y1="424.47" x2="1126.79" y2="424.47" gradientUnits="userSpaceOnUse">
<stop stop-color="#50C0FF" stop-opacity="0.5"/>
<stop offset="1" stop-color="#000B1B" stop-opacity="0.57"/>
</linearGradient>
<linearGradient id="paint19_linear_11_2530" x1="1493.16" y1="424.47" x2="1126.79" y2="424.47" gradientUnits="userSpaceOnUse">
<stop stop-color="#50C0FF" stop-opacity="0.5"/>
<stop offset="1" stop-color="#000B1B" stop-opacity="0.57"/>
</linearGradient>
<linearGradient id="paint20_linear_11_2530" x1="1493.83" y1="719.186" x2="1309.43" y2="325.902" gradientUnits="userSpaceOnUse">
<stop stop-color="#30CDFF" stop-opacity="0.76"/>
<stop offset="1" stop-color="#00A3FF" stop-opacity="0"/>
</linearGradient>
<linearGradient id="paint21_linear_11_2530" x1="1100.14" y1="739.964" x2="1465.83" y2="528.479" gradientUnits="userSpaceOnUse">
<stop stop-color="#5076FF" stop-opacity="0.25"/>
<stop offset="1" stop-color="#455FE4" stop-opacity="0"/>
</linearGradient>
<linearGradient id="paint22_linear_11_2530" x1="1493.16" y1="574.383" x2="1126.79" y2="574.383" gradientUnits="userSpaceOnUse">
<stop stop-color="#50C0FF" stop-opacity="0.5"/>
<stop offset="1" stop-color="#000B1B" stop-opacity="0.57"/>
</linearGradient>
<linearGradient id="paint23_linear_11_2530" x1="1493.16" y1="574.383" x2="1126.79" y2="574.383" gradientUnits="userSpaceOnUse">
<stop stop-color="#50C0FF" stop-opacity="0.5"/>
<stop offset="1" stop-color="#000B1B" stop-opacity="0.57"/>
</linearGradient>
<linearGradient id="paint24_linear_11_2530" x1="1493.83" y1="869.101" x2="1309.43" y2="475.817" gradientUnits="userSpaceOnUse">
<stop stop-color="#30CDFF" stop-opacity="0.76"/>
<stop offset="1" stop-color="#00A3FF" stop-opacity="0"/>
</linearGradient>
<linearGradient id="paint25_linear_11_2530" x1="1100.14" y1="590.049" x2="1465.83" y2="378.564" gradientUnits="userSpaceOnUse">
<stop stop-color="#5076FF" stop-opacity="0.25"/>
<stop offset="1" stop-color="#455FE4" stop-opacity="0"/>
</linearGradient>
<linearGradient id="paint26_linear_11_2530" x1="1493.16" y1="424.47" x2="1126.79" y2="424.47" gradientUnits="userSpaceOnUse">
<stop stop-color="#50C0FF" stop-opacity="0.5"/>
<stop offset="1" stop-color="#000B1B" stop-opacity="0.57"/>
</linearGradient>
<linearGradient id="paint27_linear_11_2530" x1="1493.16" y1="424.47" x2="1126.79" y2="424.47" gradientUnits="userSpaceOnUse">
<stop stop-color="#50C0FF" stop-opacity="0.5"/>
<stop offset="1" stop-color="#000B1B" stop-opacity="0.57"/>
</linearGradient>
<linearGradient id="paint28_linear_11_2530" x1="1493.83" y1="719.186" x2="1309.43" y2="325.902" gradientUnits="userSpaceOnUse">
<stop stop-color="#30CDFF" stop-opacity="0.76"/>
<stop offset="1" stop-color="#00A3FF" stop-opacity="0"/>
</linearGradient>
<linearGradient id="paint29_linear_11_2530" x1="1100.14" y1="739.964" x2="1465.83" y2="528.479" gradientUnits="userSpaceOnUse">
<stop stop-color="#5076FF" stop-opacity="0.25"/>
<stop offset="1" stop-color="#455FE4" stop-opacity="0"/>
</linearGradient>
<linearGradient id="paint30_linear_11_2530" x1="1493.16" y1="574.383" x2="1126.79" y2="574.383" gradientUnits="userSpaceOnUse">
<stop stop-color="#50C0FF" stop-opacity="0.5"/>
<stop offset="1" stop-color="#000B1B" stop-opacity="0.57"/>
</linearGradient>
<linearGradient id="paint31_linear_11_2530" x1="1493.16" y1="574.383" x2="1126.79" y2="574.383" gradientUnits="userSpaceOnUse">
<stop stop-color="#50C0FF" stop-opacity="0.5"/>
<stop offset="1" stop-color="#000B1B" stop-opacity="0.57"/>
</linearGradient>
<linearGradient id="paint32_linear_11_2530" x1="1493.83" y1="869.101" x2="1309.43" y2="475.817" gradientUnits="userSpaceOnUse">
<stop stop-color="#30CDFF" stop-opacity="0.76"/>
<stop offset="1" stop-color="#00A3FF" stop-opacity="0"/>
</linearGradient>
<linearGradient id="paint33_linear_11_2530" x1="1100.14" y1="590.049" x2="1465.83" y2="378.564" gradientUnits="userSpaceOnUse">
<stop stop-color="#5076FF" stop-opacity="0.25"/>
<stop offset="1" stop-color="#455FE4" stop-opacity="0"/>
</linearGradient>
<linearGradient id="paint34_linear_11_2530" x1="1493.16" y1="424.47" x2="1126.79" y2="424.47" gradientUnits="userSpaceOnUse">
<stop stop-color="#50C0FF" stop-opacity="0.5"/>
<stop offset="1" stop-color="#000B1B" stop-opacity="0.57"/>
</linearGradient>
<linearGradient id="paint35_linear_11_2530" x1="1493.16" y1="424.47" x2="1126.79" y2="424.47" gradientUnits="userSpaceOnUse">
<stop stop-color="#50C0FF" stop-opacity="0.5"/>
<stop offset="1" stop-color="#000B1B" stop-opacity="0.57"/>
</linearGradient>
<linearGradient id="paint36_linear_11_2530" x1="1493.83" y1="719.186" x2="1309.43" y2="325.902" gradientUnits="userSpaceOnUse">
<stop stop-color="#30CDFF" stop-opacity="0.76"/>
<stop offset="1" stop-color="#00A3FF" stop-opacity="0"/>
</linearGradient>
<radialGradient id="paint37_radial_11_2530" cx="0" cy="0" r="1" gradientUnits="userSpaceOnUse" gradientTransform="translate(907.444 687.183) rotate(180) scale(545.986 546.315)">
<stop stop-color="#00E5FF"/>
<stop offset="0.85" stop-opacity="0"/>
</radialGradient>
<radialGradient id="paint38_radial_11_2530" cx="0" cy="0" r="1" gradientUnits="userSpaceOnUse" gradientTransform="translate(1227.85 272.767) rotate(45.0173) scale(121.421)">
<stop stop-color="white" stop-opacity="0"/>
<stop offset="0.67" stop-color="#3E9DFF" stop-opacity="0"/>
<stop offset="1" stop-color="#3E9DFF" stop-opacity="0.43"/>
</radialGradient>
<radialGradient id="paint39_radial_11_2530" cx="0" cy="0" r="1" gradientUnits="userSpaceOnUse" gradientTransform="translate(1335.58 338.323) rotate(-149.995) scale(133.72 133.76)">
<stop stop-color="white"/>
<stop offset="0.46" stop-color="#72DDFF"/>
<stop offset="0.73" stop-color="#50C0FF"/>
<stop offset="1" stop-color="#0E67BA"/>
</radialGradient>
</defs>
</svg>
