<svg width="1920" height="1920" viewBox="0 0 1920 1920" fill="none" xmlns="http://www.w3.org/2000/svg">
<rect width="1920" height="1920" />
<path opacity="0.25" d="M960 1765.61L1764 1301.28L960 836.948L156 1301.28L960 1765.61Z" fill="url(#paint0_linear_11_1088)"/>
<g clip-path="url(#clip0_11_1088)">
<path d="M438.005 708.693C441.846 773.122 493.601 805.917 553.443 781.915C613.284 757.912 658.772 686.257 654.981 621.828C651.191 557.4 599.385 524.655 539.544 548.657C479.702 572.66 434.164 644.163 438.005 708.693Z" fill="#021425"/>
<path d="M438.005 708.693C441.846 773.122 493.601 805.917 553.443 781.915C613.284 757.912 658.772 686.257 654.981 621.828C651.191 557.4 599.385 524.655 539.544 548.657C479.702 572.66 434.164 644.163 438.005 708.693Z" fill="url(#paint1_radial_11_1088)"/>
<path d="M438.005 708.693C441.846 773.122 493.601 805.917 553.443 781.915C613.284 757.912 658.772 686.257 654.981 621.828C651.191 557.4 599.385 524.655 539.544 548.657C479.702 572.66 434.164 644.163 438.005 708.693Z" fill="url(#paint2_radial_11_1088)"/>
<path d="M438.005 708.693C441.846 773.122 493.601 805.917 553.443 781.915C613.284 757.912 658.772 686.257 654.981 621.828C651.191 557.4 599.385 524.655 539.544 548.657C479.702 572.66 434.164 644.163 438.005 708.693Z" fill="url(#paint3_radial_11_1088)" fill-opacity="0.5"/>
<g opacity="0.75">
<path opacity="0.75" d="M460.749 685.398C463.478 731.18 500.222 754.526 542.829 737.446C585.436 720.366 617.732 669.429 615.003 623.647C612.273 577.865 575.529 554.519 532.923 571.548C490.316 588.578 458.019 639.565 460.749 685.398Z" fill="url(#paint4_radial_11_1088)"/>
<path opacity="0.75" d="M460.749 685.398C463.478 731.18 500.222 754.526 542.829 737.446C585.436 720.366 617.732 669.429 615.003 623.647C612.273 577.865 575.529 554.519 532.923 571.548C490.316 588.578 458.019 639.565 460.749 685.398Z" fill="url(#paint5_radial_11_1088)"/>
</g>
<path d="M438.308 708.845C440.229 741.337 454.33 765.744 475.456 778.933L453.572 765.037C432.395 751.848 418.192 727.441 416.373 694.999C412.582 630.57 458.019 558.915 517.962 534.913C548.287 522.835 576.237 525.16 597.212 538.703L619.097 552.599C598.172 539.107 570.071 536.782 539.847 548.86C479.955 572.761 434.467 644.467 438.308 708.845Z" fill="#011321"/>
<path d="M438.308 708.845C440.229 741.337 454.33 765.744 475.456 778.933L453.572 765.037C432.395 751.848 418.192 727.441 416.373 694.999C412.582 630.57 458.019 558.915 517.962 534.913C548.287 522.835 576.237 525.16 597.212 538.703L619.097 552.599C598.172 539.107 570.071 536.782 539.847 548.86C479.955 572.761 434.467 644.467 438.308 708.845Z" fill="url(#paint6_linear_11_1088)"/>
<path opacity="0.3" d="M1128.51 1228.06L1027.73 1286.23H882.622L781.943 1228.06V1149.49L882.622 1091.32H1027.73L1128.51 1149.49V1228.06Z" fill="black"/>
<path d="M639.263 935.533L609.898 976.616L566.331 976.565V893.338L639.263 935.533Z" fill="url(#paint7_linear_11_1088)"/>
<path d="M1344.22 976.565L1300.81 976.616L1271.34 935.533L1344.17 893.338L1344.22 976.565Z" fill="url(#paint8_linear_11_1088)"/>
<path d="M609.645 1093.65V1151.71L566.331 1176.77V1247.22H506.641V1093.65H609.645Z" fill="url(#paint9_linear_11_1088)"/>
<path d="M639.111 1134.68L609.645 1151.71V1093.65L639.111 1134.68Z" fill="url(#paint10_linear_11_1088)"/>
<path d="M1403.96 1093.65V1247.22H1344.27V1176.88L1300.81 1151.81V1093.65H1403.96Z" fill="url(#paint11_linear_11_1088)"/>
<path d="M1300.81 1093.65L1300.76 1151.76L1271.44 1134.78L1300.81 1093.65Z" fill="url(#paint12_linear_11_1088)"/>
<path d="M1300.65 1151.76L1271.34 1134.78L1300.65 1093.9H1403.76V976.565H1300.65L1271.19 935.482L1344.02 893.288L1200.63 810.516L1127.7 852.609L1056.54 835.63V776.154H853.864V835.681L782.701 852.66L709.718 810.566L566.331 893.338L639.263 935.533L609.898 976.615H506.641V1093.9H609.645L639.162 1134.88L609.696 1151.91L566.381 1177.18L609.746 1202.44L654.476 1228.27L709.769 1260.25L782.751 1218.21L853.914 1235.09V1294.67H1056.84V1235.19L1128 1218.11L1200.94 1260.25L1271.69 1219.47L1300.96 1202.6L1344.47 1177.33L1301.01 1152.06L1300.65 1151.76ZM1134.37 1077.93L1075.59 1111.94L1029.45 1138.57H881.156L834.961 1111.89L776.231 1077.93V992.028L881.156 931.389H1029.55L1134.52 992.028L1134.37 1077.93Z" fill="url(#paint13_linear_11_1088)"/>
<path d="M881.156 1085.26L834.86 1111.89L776.13 1077.93V992.28L881.055 931.743L881.156 1085.26Z" fill="url(#paint14_linear_11_1088)"/>
<path d="M1134.42 992.28L1134.37 1077.93L1075.59 1111.94L1029.45 1085.31V931.743L1134.42 992.28Z" fill="url(#paint15_linear_11_1088)"/>
<path d="M1344.27 1176.88V1330.44L1200.78 1413.16V1259.6L1300.76 1201.94L1344.27 1176.88Z" fill="url(#paint16_linear_11_1088)"/>
<path d="M1056.74 1294.06H853.813V1447.63H1056.74V1294.06Z" fill="url(#paint17_linear_11_1088)"/>
<path d="M709.718 1259.6V1413.21L566.331 1330.44V1176.77L609.696 1201.84L709.718 1259.6Z" fill="url(#paint18_linear_11_1088)"/>
<path d="M1127.9 1217.5L1200.73 1259.6V1413.16L1127.9 1371.07V1217.5Z" fill="url(#paint19_linear_11_1088)"/>
<path d="M782.701 1217.6L853.864 1234.48V1388.1L782.701 1371.07V1217.6Z" fill="url(#paint20_linear_11_1088)"/>
<path d="M1029.45 931.743V1085.31L881.156 1085.26L881.055 931.743H1029.45Z" fill="url(#paint21_linear_11_1088)"/>
<path d="M1056.69 1234.58L1127.9 1217.5V1371.07L1056.69 1388.1V1234.58Z" fill="url(#paint22_linear_11_1088)"/>
<path d="M709.718 1259.6L782.701 1217.6V1371.07L709.718 1413.21V1259.6Z" fill="url(#paint23_linear_11_1088)"/>
<path d="M1300.65 1151.76L1271.34 1134.78L1300.65 1093.9H1403.76V976.565H1300.65L1271.19 935.482L1344.02 893.288L1200.63 810.516L1127.7 852.609L1056.54 835.63V776.154H853.864V835.681L782.701 852.66L709.718 810.566L566.331 893.338L639.263 935.533L609.898 976.615H506.641V1093.9H609.645L639.162 1134.88L609.696 1151.91L566.381 1177.18L609.746 1202.44L654.476 1228.27L709.769 1260.25L782.751 1218.21L853.914 1235.09V1294.67H1056.84V1235.19L1128 1218.11L1200.94 1260.25L1271.69 1219.47L1300.96 1202.6L1344.47 1177.33L1301.01 1152.06L1300.65 1151.76ZM1134.37 1077.93L1075.59 1111.94L1029.45 1138.57H881.156L834.961 1111.89L776.231 1077.93V992.028L881.156 931.389H1029.55L1134.52 992.028L1134.37 1077.93Z" fill="url(#paint24_radial_11_1088)"/>
<path d="M1150.04 946.751C1112.81 983.971 1065.38 1009.32 1013.74 1019.58C962.1 1029.85 908.577 1024.58 859.936 1004.43C811.295 984.29 769.721 950.176 740.471 906.408C711.221 862.64 695.609 811.183 695.609 758.543C695.609 705.904 711.221 654.447 740.471 610.679C769.721 566.911 811.295 532.797 859.936 512.652C908.577 492.507 962.1 487.234 1013.74 497.502C1065.38 507.77 1112.81 533.116 1150.04 570.336C1174.76 595.051 1194.37 624.392 1207.75 656.685C1221.13 688.978 1228.02 723.59 1228.02 758.543C1228.02 793.497 1221.13 828.109 1207.75 860.402C1194.37 892.694 1174.76 922.036 1150.04 946.751Z" fill="url(#paint25_radial_11_1088)"/>
<path d="M1051.89 848.617C1034.07 866.435 1011.36 878.569 986.648 883.486C961.931 888.403 936.311 885.881 913.028 876.24C889.745 866.598 869.844 850.27 855.843 829.32C841.841 808.37 834.368 783.74 834.368 758.543C834.368 733.347 841.841 708.716 855.843 687.766C869.844 666.817 889.745 650.488 913.028 640.847C936.311 631.205 961.931 628.684 986.648 633.6C1011.36 638.517 1034.07 650.652 1051.89 668.47C1075.77 692.366 1089.18 724.764 1089.18 758.543C1089.18 792.323 1075.77 824.72 1051.89 848.617V848.617Z" fill="url(#paint26_radial_11_1088)"/>
<path d="M1271.59 800.814C1274.83 854.681 1318.04 882.12 1368.13 862.059C1418.21 841.998 1456.27 782.066 1453.04 728.199C1449.8 674.331 1406.79 646.69 1356.5 666.751C1306.21 686.813 1268.41 746.694 1271.59 800.814Z" fill="#021425"/>
<path d="M1271.59 800.814C1274.83 854.681 1318.04 882.12 1368.13 862.059C1418.21 841.998 1456.27 782.066 1453.04 728.199C1449.8 674.331 1406.79 646.69 1356.5 666.751C1306.21 686.813 1268.41 746.694 1271.59 800.814Z" fill="url(#paint27_radial_11_1088)"/>
<path d="M1271.59 800.814C1274.83 854.681 1318.04 882.12 1368.13 862.059C1418.21 841.998 1456.27 782.066 1453.04 728.199C1449.8 674.331 1406.79 646.69 1356.5 666.751C1306.21 686.813 1268.41 746.694 1271.59 800.814Z" fill="url(#paint28_radial_11_1088)"/>
<path d="M1271.59 800.814C1274.83 854.681 1318.04 882.12 1368.13 862.059C1418.21 841.998 1456.27 782.066 1453.04 728.199C1449.8 674.331 1406.79 646.69 1356.5 666.751C1306.21 686.813 1268.41 746.694 1271.59 800.814Z" fill="url(#paint29_radial_11_1088)" fill-opacity="0.5"/>
<g opacity="0.75">
<path opacity="0.75" d="M1290.55 781.056C1292.87 819.359 1323.6 838.865 1359.23 824.614C1394.86 810.364 1421.85 767.715 1419.58 729.412C1417.31 691.108 1386.58 671.653 1351.2 685.903C1315.82 700.153 1288.32 742.803 1290.55 781.056Z" fill="url(#paint30_radial_11_1088)"/>
<path opacity="0.75" d="M1290.55 781.056C1292.87 819.359 1323.6 838.865 1359.23 824.614C1394.86 810.364 1421.85 767.715 1419.58 729.412C1417.31 691.108 1386.58 671.653 1351.2 685.903C1315.82 700.153 1288.32 742.803 1290.55 781.056Z" fill="url(#paint31_radial_11_1088)"/>
</g>
<path d="M1271.85 800.814C1273.46 827.949 1285.24 848.364 1302.93 859.38L1284.63 847.809C1266.94 836.742 1255.17 816.327 1253.55 789.191C1250.37 735.324 1288.37 675.392 1338.46 655.382C1363.73 645.275 1387.23 647.195 1404.72 658.515L1423.02 670.137C1405.53 658.818 1382.03 656.847 1356.76 666.953C1306.67 686.914 1268.66 746.845 1271.85 800.814Z" fill="#011321"/>
<path d="M1271.85 800.814C1273.46 827.949 1285.24 848.364 1302.93 859.38L1284.63 847.809C1266.94 836.742 1255.17 816.327 1253.55 789.191C1250.37 735.324 1288.37 675.392 1338.46 655.382C1363.73 645.275 1387.23 647.195 1404.72 658.515L1423.02 670.137C1405.53 658.818 1382.03 656.847 1356.76 666.953C1306.67 686.914 1268.66 746.845 1271.85 800.814Z" fill="url(#paint32_linear_11_1088)"/>
<path d="M836.275 400.901C841.329 488.423 911.734 532.993 992.955 500.399C1074.18 467.806 1136.19 370.38 1130.99 282.807C1125.78 195.235 1055.73 150.716 974.305 183.309C892.882 215.902 831.069 313.329 836.275 400.901Z" fill="#021425"/>
<path d="M836.275 400.901C841.329 488.423 911.734 532.993 992.955 500.399C1074.18 467.806 1136.19 370.38 1130.99 282.807C1125.78 195.235 1055.73 150.716 974.305 183.309C892.882 215.902 831.069 313.329 836.275 400.901Z" fill="url(#paint33_radial_11_1088)"/>
<path d="M836.275 400.901C841.329 488.423 911.734 532.993 992.955 500.399C1074.18 467.806 1136.19 370.38 1130.99 282.807C1125.78 195.235 1055.73 150.716 974.305 183.309C892.882 215.902 831.069 313.329 836.275 400.901Z" fill="url(#paint34_radial_11_1088)"/>
<path d="M836.275 400.901C841.329 488.423 911.734 532.993 992.955 500.399C1074.18 467.806 1136.19 370.38 1130.99 282.807C1125.78 195.235 1055.73 150.716 974.305 183.309C892.882 215.902 831.069 313.329 836.275 400.901Z" fill="url(#paint35_radial_11_1088)" fill-opacity="0.5"/>
<g opacity="0.75">
<path opacity="0.75" d="M867.156 369.167C870.897 431.422 920.832 463.106 978.753 439.912C1036.67 416.717 1080.59 347.488 1076.85 285.384C1073.11 223.28 1023.18 191.293 965.309 214.639C907.438 237.985 863.467 306.911 867.156 369.167Z" fill="url(#paint36_radial_11_1088)"/>
<path opacity="0.75" d="M867.156 369.167C870.897 431.422 920.832 463.106 978.753 439.912C1036.67 416.717 1080.59 347.488 1076.85 285.384C1073.11 223.28 1023.18 191.293 965.309 214.639C907.438 237.985 863.467 306.911 867.156 369.167Z" fill="url(#paint37_radial_11_1088)"/>
</g>
<path d="M836.68 401.103C839.308 445.218 858.413 478.417 887.221 496.306L857.452 477.407C828.694 459.468 809.539 426.268 806.91 382.153C801.856 294.631 863.517 197.205 944.94 164.864C985.98 148.441 1024.19 151.625 1052.65 169.918L1082.41 188.766C1053.91 170.373 1015.75 167.24 974.71 183.713C893.287 216.155 831.474 313.531 836.68 401.103Z" fill="#011321"/>
<path d="M836.68 401.103C839.308 445.218 858.413 478.417 887.221 496.306L857.452 477.407C828.694 459.468 809.539 426.268 806.91 382.153C801.856 294.631 863.517 197.205 944.94 164.864C985.98 148.441 1024.19 151.625 1052.65 169.918L1082.41 188.766C1053.91 170.373 1015.75 167.24 974.71 183.713C893.287 216.155 831.474 313.531 836.68 401.103Z" fill="url(#paint38_linear_11_1088)"/>
<path d="M581.039 758.518C581.078 683.25 603.436 609.683 645.284 547.116C687.133 484.549 746.594 435.79 816.153 407.002C885.711 378.215 962.244 370.69 1036.08 385.381C1109.91 400.071 1177.74 436.316 1230.97 489.535C1284.21 542.754 1320.47 610.558 1335.17 684.376C1349.87 758.195 1342.36 834.715 1313.57 904.264C1284.79 973.813 1236.03 1033.27 1173.46 1075.12C1110.88 1116.97 1037.31 1139.33 962.024 1139.38C911.987 1139.41 862.434 1129.58 816.199 1110.46C769.964 1091.33 727.954 1063.28 692.57 1027.91C657.187 992.533 629.124 950.534 609.986 904.311C590.849 858.087 581.012 808.545 581.039 758.518V758.518Z" fill="url(#paint39_radial_11_1088)"/>
</g>
<defs>
<linearGradient id="paint0_linear_11_1088" x1="156" y1="1301.28" x2="1764" y2="1301.28" gradientUnits="userSpaceOnUse">
<stop stop-color="#50C0FF" stop-opacity="0.5"/>
<stop offset="1" stop-color="#000B1B" stop-opacity="0.57"/>
</linearGradient>
<radialGradient id="paint1_radial_11_1088" cx="0" cy="0" r="1" gradientUnits="userSpaceOnUse" gradientTransform="translate(491.219 498.44) rotate(86.5888) scale(199.783 189.589)">
<stop stop-color="#133A74"/>
<stop offset="1" stop-color="#134974" stop-opacity="0"/>
</radialGradient>
<radialGradient id="paint2_radial_11_1088" cx="0" cy="0" r="1" gradientUnits="userSpaceOnUse" gradientTransform="translate(535.154 697.442) rotate(86.5928) scale(128.174 121.637)">
<stop stop-color="#2A6AAC" stop-opacity="0"/>
<stop offset="0.75" stop-color="#4441CB" stop-opacity="0"/>
<stop offset="1" stop-color="#2A6AAC"/>
</radialGradient>
<radialGradient id="paint3_radial_11_1088" cx="0" cy="0" r="1" gradientUnits="userSpaceOnUse" gradientTransform="translate(495.394 676.633) rotate(86.5862) scale(122.222 115.974)">
<stop stop-color="white" stop-opacity="0"/>
<stop offset="0.93" stop-color="#3E9DFF" stop-opacity="0"/>
<stop offset="1" stop-color="#3E9DFF"/>
</radialGradient>
<radialGradient id="paint4_radial_11_1088" cx="0" cy="0" r="1" gradientUnits="userSpaceOnUse" gradientTransform="translate(528.389 539.186) rotate(85.5243) scale(172.23 163.454)">
<stop stop-color="#1D88D5"/>
<stop offset="1" stop-color="#133A74" stop-opacity="0.41"/>
</radialGradient>
<radialGradient id="paint5_radial_11_1088" cx="0" cy="0" r="1" gradientUnits="userSpaceOnUse" gradientTransform="translate(513.032 717.106) rotate(88.6803) scale(99.013 93.96)">
<stop stop-color="#2A6AAC" stop-opacity="0"/>
<stop offset="0.75" stop-color="#4441CB" stop-opacity="0"/>
<stop offset="1" stop-color="#2A6AAC"/>
</radialGradient>
<linearGradient id="paint6_linear_11_1088" x1="421.528" y1="744.824" x2="576.298" y2="517.553" gradientUnits="userSpaceOnUse">
<stop stop-color="#50C0FF"/>
<stop offset="0.81" stop-color="#4982EE" stop-opacity="0"/>
<stop offset="0.86" stop-color="#4877EB" stop-opacity="0.28"/>
<stop offset="1" stop-color="#455FE4" stop-opacity="0.25"/>
</linearGradient>
<linearGradient id="paint7_linear_11_1088" x1="547.529" y1="847.405" x2="630.342" y2="1010.28" gradientUnits="userSpaceOnUse">
<stop stop-color="#50C0FF"/>
<stop offset="0.81" stop-color="#4982EE" stop-opacity="0"/>
<stop offset="0.86" stop-color="#4877EB" stop-opacity="0.28"/>
<stop offset="1" stop-color="#455FE4" stop-opacity="0.25"/>
</linearGradient>
<linearGradient id="paint8_linear_11_1088" x1="1206.9" y1="879.341" x2="1434.37" y2="988.878" gradientUnits="userSpaceOnUse">
<stop stop-color="#50C0FF"/>
<stop offset="0.81" stop-color="#4982EE" stop-opacity="0"/>
<stop offset="0.86" stop-color="#4877EB" stop-opacity="0.28"/>
<stop offset="1" stop-color="#455FE4" stop-opacity="0.25"/>
</linearGradient>
<linearGradient id="paint9_linear_11_1088" x1="459.991" y1="1043.02" x2="634.066" y2="1269.08" gradientUnits="userSpaceOnUse">
<stop stop-color="#50C0FF"/>
<stop offset="0.81" stop-color="#4982EE" stop-opacity="0"/>
<stop offset="0.86" stop-color="#4877EB" stop-opacity="0.28"/>
<stop offset="1" stop-color="#455FE4" stop-opacity="0.25"/>
</linearGradient>
<linearGradient id="paint10_linear_11_1088" x1="609.645" y1="1122.65" x2="639.111" y2="1122.65" gradientUnits="userSpaceOnUse">
<stop stop-color="#50C0FF"/>
<stop offset="0.81" stop-color="#4982EE" stop-opacity="0"/>
<stop offset="0.86" stop-color="#4877EB" stop-opacity="0.28"/>
<stop offset="1" stop-color="#455FE4" stop-opacity="0.25"/>
</linearGradient>
<linearGradient id="paint11_linear_11_1088" x1="1223.78" y1="1052.31" x2="1479.28" y2="1253.13" gradientUnits="userSpaceOnUse">
<stop stop-color="#50C0FF"/>
<stop offset="0.81" stop-color="#4982EE" stop-opacity="0"/>
<stop offset="0.86" stop-color="#4877EB" stop-opacity="0.28"/>
<stop offset="1" stop-color="#455FE4" stop-opacity="0.25"/>
</linearGradient>
<linearGradient id="paint12_linear_11_1088" x1="1201.49" y1="1057.27" x2="1424.71" y2="1207.54" gradientUnits="userSpaceOnUse">
<stop stop-color="#50C0FF"/>
<stop offset="0.81" stop-color="#4982EE" stop-opacity="0"/>
<stop offset="0.86" stop-color="#4877EB" stop-opacity="0.28"/>
<stop offset="1" stop-color="#455FE4" stop-opacity="0.25"/>
</linearGradient>
<linearGradient id="paint13_linear_11_1088" x1="291.888" y1="782.47" x2="1776.74" y2="1348.11" gradientUnits="userSpaceOnUse">
<stop offset="0.16" stop-color="#50C0FF"/>
<stop offset="0.81" stop-color="#4982EE" stop-opacity="0"/>
<stop offset="0.86" stop-color="#4877EB" stop-opacity="0.28"/>
<stop offset="1" stop-color="#455FE4" stop-opacity="0.25"/>
</linearGradient>
<linearGradient id="paint14_linear_11_1088" x1="828.643" y1="870.801" x2="828.643" y2="1279.46" gradientUnits="userSpaceOnUse">
<stop offset="0.16" stop-color="#50C0FF"/>
<stop offset="0.81" stop-color="#4982EE" stop-opacity="0"/>
<stop offset="0.86" stop-color="#4877EB" stop-opacity="0.28"/>
<stop offset="1" stop-color="#455FE4" stop-opacity="0.25"/>
</linearGradient>
<linearGradient id="paint15_linear_11_1088" x1="1081.96" y1="870.801" x2="1081.96" y2="1279.46" gradientUnits="userSpaceOnUse">
<stop offset="0.16" stop-color="#50C0FF"/>
<stop offset="0.81" stop-color="#4982EE" stop-opacity="0"/>
<stop offset="0.86" stop-color="#4877EB" stop-opacity="0.28"/>
<stop offset="1" stop-color="#455FE4" stop-opacity="0.25"/>
</linearGradient>
<linearGradient id="paint16_linear_11_1088" x1="1118.35" y1="1202.65" x2="1416.01" y2="1381.02" gradientUnits="userSpaceOnUse">
<stop stop-color="#50C0FF"/>
<stop offset="0.81" stop-color="#4982EE" stop-opacity="0"/>
<stop offset="0.86" stop-color="#4877EB" stop-opacity="0.28"/>
<stop offset="1" stop-color="#455FE4" stop-opacity="0.25"/>
</linearGradient>
<linearGradient id="paint17_linear_11_1088" x1="512.807" y1="1449.4" x2="1327.23" y2="1304.77" gradientUnits="userSpaceOnUse">
<stop stop-color="#50C0FF"/>
<stop offset="0.81" stop-color="#4982EE" stop-opacity="0"/>
<stop offset="0.86" stop-color="#4877EB" stop-opacity="0.28"/>
<stop offset="1" stop-color="#455FE4" stop-opacity="0.25"/>
</linearGradient>
<linearGradient id="paint18_linear_11_1088" x1="490.013" y1="1321.3" x2="1304.64" y2="1176.62" gradientUnits="userSpaceOnUse">
<stop stop-color="#50C0FF"/>
<stop offset="0.81" stop-color="#4982EE" stop-opacity="0"/>
<stop offset="0.86" stop-color="#4877EB" stop-opacity="0.28"/>
<stop offset="1" stop-color="#455FE4" stop-opacity="0.25"/>
</linearGradient>
<linearGradient id="paint19_linear_11_1088" x1="997.908" y1="1184.71" x2="1369.94" y2="1476.8" gradientUnits="userSpaceOnUse">
<stop stop-color="#50C0FF"/>
<stop offset="0.81" stop-color="#4982EE" stop-opacity="0"/>
<stop offset="0.86" stop-color="#4877EB" stop-opacity="0.28"/>
<stop offset="1" stop-color="#455FE4" stop-opacity="0.25"/>
</linearGradient>
<linearGradient id="paint20_linear_11_1088" x1="702.289" y1="1000.67" x2="890.343" y2="1490.65" gradientUnits="userSpaceOnUse">
<stop stop-color="#50C0FF"/>
<stop offset="0.81" stop-color="#4982EE" stop-opacity="0"/>
<stop offset="0.86" stop-color="#4877EB" stop-opacity="0.28"/>
<stop offset="1" stop-color="#455FE4" stop-opacity="0.25"/>
</linearGradient>
<linearGradient id="paint21_linear_11_1088" x1="955.251" y1="919.969" x2="955.251" y2="1147.52" gradientUnits="userSpaceOnUse">
<stop offset="0.16" stop-color="#50C0FF"/>
<stop offset="0.81" stop-color="#4982EE" stop-opacity="0"/>
<stop offset="0.86" stop-color="#4877EB" stop-opacity="0.28"/>
<stop offset="1" stop-color="#455FE4" stop-opacity="0.25"/>
</linearGradient>
<linearGradient id="paint22_linear_11_1088" x1="744.693" y1="1282.18" x2="1241.77" y2="1311.71" gradientUnits="userSpaceOnUse">
<stop stop-color="#50C0FF"/>
<stop offset="0.81" stop-color="#4982EE" stop-opacity="0"/>
<stop offset="0.86" stop-color="#4877EB" stop-opacity="0.28"/>
<stop offset="1" stop-color="#455FE4" stop-opacity="0.25"/>
</linearGradient>
<linearGradient id="paint23_linear_11_1088" x1="659.53" y1="1223.92" x2="835.027" y2="1409.31" gradientUnits="userSpaceOnUse">
<stop stop-color="#50C0FF"/>
<stop offset="0.81" stop-color="#4982EE" stop-opacity="0"/>
<stop offset="0.86" stop-color="#4877EB" stop-opacity="0.28"/>
<stop offset="1" stop-color="#455FE4" stop-opacity="0.25"/>
</linearGradient>
<radialGradient id="paint24_radial_11_1088" cx="0" cy="0" r="1" gradientUnits="userSpaceOnUse" gradientTransform="translate(1592.74 632.541) scale(841.119 840.959)">
<stop stop-color="#2A6AAC" stop-opacity="0"/>
<stop offset="0.75" stop-color="#4441CB" stop-opacity="0"/>
<stop offset="1" stop-color="#2A6AAC"/>
</radialGradient>
<radialGradient id="paint25_radial_11_1088" cx="0" cy="0" r="1" gradientUnits="userSpaceOnUse" gradientTransform="translate(1119.26 638.369) rotate(135.005) scale(442.556)">
<stop stop-color="white" stop-opacity="0"/>
<stop offset="0.67" stop-color="#3E9DFF" stop-opacity="0"/>
<stop offset="1" stop-color="#3E9DFF" stop-opacity="0.43"/>
</radialGradient>
<radialGradient id="paint26_radial_11_1088" cx="0" cy="0" r="1" gradientUnits="userSpaceOnUse" gradientTransform="translate(856.096 779.357) rotate(-29.9824) scale(233.098 233.076)">
<stop stop-color="white"/>
<stop offset="0.46" stop-color="#72DDFF"/>
<stop offset="0.73" stop-color="#50C0FF"/>
<stop offset="1" stop-color="#0E67BA"/>
</radialGradient>
<radialGradient id="paint27_radial_11_1088" cx="0" cy="0" r="1" gradientUnits="userSpaceOnUse" gradientTransform="translate(1309.89 624.771) rotate(86.5888) scale(166.486 157.991)">
<stop stop-color="#133A74"/>
<stop offset="1" stop-color="#134974" stop-opacity="0"/>
</radialGradient>
<radialGradient id="paint28_radial_11_1088" cx="0" cy="0" r="1" gradientUnits="userSpaceOnUse" gradientTransform="translate(1350.83 796.012) rotate(86.5928) scale(106.812 101.364)">
<stop stop-color="#2A6AAC" stop-opacity="0"/>
<stop offset="0.75" stop-color="#4441CB" stop-opacity="0"/>
<stop offset="1" stop-color="#2A6AAC"/>
</radialGradient>
<radialGradient id="paint29_radial_11_1088" cx="0" cy="0" r="1" gradientUnits="userSpaceOnUse" gradientTransform="translate(1312.16 775.979) rotate(86.5862) scale(101.852 96.645)">
<stop stop-color="white" stop-opacity="0"/>
<stop offset="0.93" stop-color="#3E9DFF" stop-opacity="0"/>
<stop offset="1" stop-color="#3E9DFF"/>
</radialGradient>
<radialGradient id="paint30_radial_11_1088" cx="0" cy="0" r="1" gradientUnits="userSpaceOnUse" gradientTransform="translate(1347.54 662.205) rotate(85.5243) scale(143.525 136.212)">
<stop stop-color="#1D88D5"/>
<stop offset="1" stop-color="#133A74" stop-opacity="0.41"/>
</radialGradient>
<radialGradient id="paint31_radial_11_1088" cx="0" cy="0" r="1" gradientUnits="userSpaceOnUse" gradientTransform="translate(1329.85 815.944) rotate(88.6803) scale(82.5109 78.2999)">
<stop stop-color="#2A6AAC" stop-opacity="0"/>
<stop offset="0.75" stop-color="#4441CB" stop-opacity="0"/>
<stop offset="1" stop-color="#2A6AAC"/>
</radialGradient>
<linearGradient id="paint32_linear_11_1088" x1="1257.85" y1="830.779" x2="1387.25" y2="640.755" gradientUnits="userSpaceOnUse">
<stop stop-color="#50C0FF"/>
<stop offset="0.81" stop-color="#4982EE" stop-opacity="0"/>
<stop offset="0.86" stop-color="#4877EB" stop-opacity="0.28"/>
<stop offset="1" stop-color="#455FE4" stop-opacity="0.25"/>
</linearGradient>
<radialGradient id="paint33_radial_11_1088" cx="0" cy="0" r="1" gradientUnits="userSpaceOnUse" gradientTransform="translate(923.34 114.109) rotate(86.5888) scale(270.539 256.735)">
<stop stop-color="#133A74"/>
<stop offset="1" stop-color="#134974" stop-opacity="0"/>
</radialGradient>
<radialGradient id="paint34_radial_11_1088" cx="0" cy="0" r="1" gradientUnits="userSpaceOnUse" gradientTransform="translate(972.553 369.126) rotate(86.5928) scale(173.569 164.717)">
<stop stop-color="#2A6AAC" stop-opacity="0"/>
<stop offset="0.75" stop-color="#4441CB" stop-opacity="0"/>
<stop offset="1" stop-color="#2A6AAC"/>
</radialGradient>
<radialGradient id="paint35_radial_11_1088" cx="0" cy="0" r="1" gradientUnits="userSpaceOnUse" gradientTransform="translate(933.344 349.579) rotate(86.5862) scale(165.509 157.048)">
<stop stop-color="white" stop-opacity="0"/>
<stop offset="0.93" stop-color="#3E9DFF" stop-opacity="0"/>
<stop offset="1" stop-color="#3E9DFF"/>
</radialGradient>
<radialGradient id="paint36_radial_11_1088" cx="0" cy="0" r="1" gradientUnits="userSpaceOnUse" gradientTransform="translate(960.66 170.625) rotate(85.5243) scale(233.228 221.344)">
<stop stop-color="#1D88D5"/>
<stop offset="1" stop-color="#133A74" stop-opacity="0.41"/>
</radialGradient>
<radialGradient id="paint37_radial_11_1088" cx="0" cy="0" r="1" gradientUnits="userSpaceOnUse" gradientTransform="translate(948.042 391.422) rotate(88.6803) scale(134.08 127.237)">
<stop stop-color="#2A6AAC" stop-opacity="0"/>
<stop offset="0.75" stop-color="#4441CB" stop-opacity="0"/>
<stop offset="1" stop-color="#2A6AAC"/>
</radialGradient>
<linearGradient id="paint38_linear_11_1088" x1="813.885" y1="449.917" x2="1024.24" y2="141.077" gradientUnits="userSpaceOnUse">
<stop stop-color="#50C0FF"/>
<stop offset="0.81" stop-color="#4982EE" stop-opacity="0"/>
<stop offset="0.86" stop-color="#4877EB" stop-opacity="0.28"/>
<stop offset="1" stop-color="#455FE4" stop-opacity="0.25"/>
</linearGradient>
<radialGradient id="paint39_radial_11_1088" cx="0" cy="0" r="1" gradientUnits="userSpaceOnUse" gradientTransform="translate(923.492 1038.98) rotate(-90) scale(632.943 633.063)">
<stop stop-color="white" stop-opacity="0"/>
<stop offset="0.67" stop-color="#3E9DFF" stop-opacity="0"/>
<stop offset="1" stop-color="#3E9DFF" stop-opacity="0.43"/>
</radialGradient>
<clipPath id="clip0_11_1088">
<rect width="1037.07" height="1293.63" fill="white" transform="translate(416.171 154)"/>
</clipPath>
</defs>
</svg>
