<svg width="1281" height="1098" viewBox="0 0 1281 1098" fill="none" xmlns="http://www.w3.org/2000/svg">
<path d="M889.267 631.237C889.267 670.598 861.542 706.329 816.509 732.247C771.489 758.158 709.262 774.2 640.5 774.2C571.739 774.2 509.511 758.158 464.491 732.247C419.458 706.329 391.733 670.598 391.733 631.237C391.733 591.876 419.458 556.145 464.491 530.227C509.511 504.316 571.739 488.274 640.5 488.274C709.262 488.274 771.489 504.316 816.509 530.227C861.542 556.145 889.267 591.876 889.267 631.237Z" stroke="url(#paint0_linear_209_1066)"/>
<path opacity="0.25" d="M1147.5 631.237C1147.5 711.534 1090.87 784.326 999.108 837.072C907.357 889.81 780.571 922.445 640.5 922.445C500.429 922.445 373.643 889.81 281.892 837.072C190.128 784.326 133.5 711.534 133.5 631.237C133.5 550.939 190.128 478.147 281.892 425.402C373.643 372.664 500.429 340.029 640.5 340.029C780.571 340.029 907.357 372.664 999.108 425.402C1090.87 478.147 1147.5 550.939 1147.5 631.237Z" stroke="url(#paint1_linear_209_1066)"/>
<path opacity="0.25" d="M1280.5 631.246C1280.5 732.749 1208.99 824.739 1093.15 891.381C977.333 958.015 817.298 999.246 640.5 999.246C463.702 999.246 303.667 958.015 187.847 891.381C72.0149 824.739 0.5 732.749 0.5 631.246C0.5 529.742 72.0149 437.752 187.847 371.11C303.667 304.476 463.702 263.246 640.5 263.246C817.298 263.246 977.333 304.476 1093.15 371.11C1208.99 437.752 1280.5 529.742 1280.5 631.246Z" stroke="url(#paint2_linear_209_1066)"/>
<g opacity="0.25">
<path d="M971.66 191.284L1114.53 273.775V438.757L971.66 521.249L828.795 438.757V273.775L971.66 191.284Z" fill="url(#paint3_linear_209_1066)"/>
<path opacity="0.25" d="M971.66 521.249L1114.53 438.758L971.66 356.266L828.795 438.758L971.66 521.249Z" fill="url(#paint4_linear_209_1066)"/>
<g opacity="0.75">
<path d="M1041.58 425.586C1003.29 463.87 941.222 463.87 902.938 425.586C864.654 387.302 864.654 325.231 902.938 286.947C941.222 248.662 1003.29 248.662 1041.58 286.947C1079.86 325.231 1079.86 387.302 1041.58 425.586Z" fill="url(#paint5_radial_209_1066)"/>
<path d="M1041.58 425.586C1003.29 463.87 941.222 463.87 902.938 425.586C864.654 387.302 864.654 325.231 902.938 286.947C941.222 248.662 1003.29 248.662 1041.58 286.947C1079.86 325.231 1079.86 387.302 1041.58 425.586Z" fill="url(#paint6_radial_209_1066)"/>
<path d="M1041.58 425.586C1003.29 463.87 941.222 463.87 902.938 425.586C864.654 387.302 864.654 325.231 902.938 286.947C941.222 248.662 1003.29 248.662 1041.58 286.947C1079.86 325.231 1079.86 387.302 1041.58 425.586Z" fill="url(#paint7_radial_209_1066)" fill-opacity="0.5"/>
</g>
<path d="M971.66 356.266L1114.53 273.775L971.66 191.284L828.795 273.775L971.66 356.266Z" fill="url(#paint8_linear_209_1066)"/>
<path d="M971.66 450.713L1114.53 368.222L971.66 285.73L828.795 368.222L971.66 450.713Z" fill="url(#paint9_linear_209_1066)"/>
<path d="M972.258 520.903L971.66 521.249L828.795 438.757V274.12L829.393 273.775L972.258 356.266V520.903Z" fill="url(#paint10_linear_209_1066)"/>
</g>
<g opacity="0.15">
<path d="M640.5 0L783.365 82.4912V247.473L640.5 329.965L497.635 247.473V82.4912L640.5 0Z" fill="url(#paint11_linear_209_1066)"/>
<path opacity="0.25" d="M640.5 329.965L783.365 247.474L640.5 164.982L497.635 247.474L640.5 329.965Z" fill="url(#paint12_linear_209_1066)"/>
<path opacity="0.25" d="M640.5 273.775L783.365 191.284L640.5 108.793L497.635 191.284L640.5 273.775Z" fill="url(#paint13_linear_209_1066)"/>
<g opacity="0.25">
<path d="M739.131 164.982C739.131 219.125 695.24 263.015 641.098 263.015C586.956 263.015 543.065 219.125 543.065 164.982C543.065 110.84 586.956 66.9495 641.098 66.9495C695.24 66.9495 739.131 110.84 739.131 164.982Z" fill="url(#paint14_radial_209_1066)"/>
<path d="M739.131 164.982C739.131 219.125 695.24 263.015 641.098 263.015C586.956 263.015 543.065 219.125 543.065 164.982C543.065 110.84 586.956 66.9495 641.098 66.9495C695.24 66.9495 739.131 110.84 739.131 164.982Z" fill="url(#paint15_radial_209_1066)"/>
<path d="M739.131 164.982C739.131 219.125 695.24 263.015 641.098 263.015C586.956 263.015 543.065 219.125 543.065 164.982C543.065 110.84 586.956 66.9495 641.098 66.9495C695.24 66.9495 739.131 110.84 739.131 164.982Z" fill="url(#paint16_radial_209_1066)" fill-opacity="0.5"/>
</g>
<path d="M640.5 164.982L783.365 82.4912L640.5 0L497.635 82.4912L640.5 164.982Z" fill="url(#paint17_linear_209_1066)"/>
<path d="M641.098 329.62L640.5 329.965L497.635 247.474V82.8364L498.233 82.4912L641.098 164.982V329.62Z" fill="url(#paint18_linear_209_1066)"/>
</g>
<g opacity="0.25">
<path d="M309.34 191.284L452.205 273.775V438.757L309.34 521.248L166.475 438.757V273.775L309.34 191.284Z" fill="url(#paint19_linear_209_1066)"/>
<path opacity="0.25" d="M309.34 521.248L452.205 438.757L309.34 356.266L166.475 438.757L309.34 521.248Z" fill="url(#paint20_linear_209_1066)"/>
<g opacity="0.75">
<path d="M379.257 286.946C417.541 325.231 417.541 387.302 379.257 425.586C340.973 463.87 278.902 463.87 240.617 425.586C202.333 387.302 202.333 325.231 240.617 286.946C278.902 248.662 340.973 248.662 379.257 286.946Z" fill="url(#paint21_radial_209_1066)"/>
<path d="M379.257 286.946C417.541 325.231 417.541 387.302 379.257 425.586C340.973 463.87 278.902 463.87 240.617 425.586C202.333 387.302 202.333 325.231 240.617 286.946C278.902 248.662 340.973 248.662 379.257 286.946Z" fill="url(#paint22_radial_209_1066)"/>
<path d="M379.257 286.946C417.541 325.231 417.541 387.302 379.257 425.586C340.973 463.87 278.902 463.87 240.617 425.586C202.333 387.302 202.333 325.231 240.617 286.946C278.902 248.662 340.973 248.662 379.257 286.946Z" fill="url(#paint23_radial_209_1066)" fill-opacity="0.5"/>
</g>
<path opacity="0.25" d="M309.34 325.183L166.475 242.691L309.34 160.2L452.205 242.691L309.34 325.183Z" fill="url(#paint24_linear_209_1066)"/>
<path d="M309.938 520.903L310.53 521.248L452.205 438.757V274.12L451.612 273.775L309.938 356.266V520.903Z" fill="url(#paint25_linear_209_1066)"/>
</g>
<g opacity="0.5">
<path opacity="0.25" d="M309.34 575.047L452.205 657.538V822.521L309.34 905.012L166.475 822.521V657.538L309.34 575.047Z" fill="url(#paint26_linear_209_1066)"/>
<path opacity="0.75" d="M309.34 740.029L166.475 657.538L309.34 575.047L452.205 657.538L309.34 740.029Z" fill="url(#paint27_linear_209_1066)"/>
<path opacity="0.25" d="M309.34 704.901L166.475 622.41L309.34 539.919L452.205 622.41L309.34 704.901Z" fill="url(#paint28_linear_209_1066)"/>
<path opacity="0.25" d="M309.34 857.191L166.475 774.7L309.34 692.208L452.205 774.7L309.34 857.191Z" fill="url(#paint29_linear_209_1066)"/>
<path opacity="0.15" d="M309.938 904.667L310.53 905.012L452.205 822.521V657.883L451.612 657.538L309.938 740.029V904.667Z" fill="url(#paint30_linear_209_1066)"/>
</g>
<g opacity="0.75">
<path opacity="0.25" d="M642.891 767.527L785.756 850.018V1015L642.891 1097.49L500.026 1015V850.018L642.891 767.527Z" fill="url(#paint31_linear_209_1066)"/>
<path opacity="0.25" d="M642.891 932.509L500.026 850.018L642.891 767.527L785.756 850.018L642.891 932.509Z" fill="url(#paint32_linear_209_1066)"/>
</g>
<g opacity="0.5">
<path opacity="0.25" d="M971.66 575.047L828.795 657.538V822.521L971.66 905.012L1114.53 822.521V657.538L971.66 575.047Z" fill="url(#paint33_linear_209_1066)"/>
<path opacity="0.5" d="M971.66 740.029L1114.53 657.538L971.66 575.047L828.795 657.538L971.66 740.029Z" fill="url(#paint34_linear_209_1066)"/>
<path opacity="0.5" d="M971.66 792.632L1114.53 710.141L971.66 627.65L828.795 710.141L971.66 792.632Z" fill="url(#paint35_linear_209_1066)"/>
<path opacity="0.15" d="M971.062 904.667L970.47 905.012L828.795 822.521V657.883L829.388 657.538L971.062 740.029V904.667Z" fill="url(#paint36_linear_209_1066)"/>
</g>
<path d="M640.5 383.763L783.365 466.254V631.237L640.5 713.728L497.635 631.237V466.254L640.5 383.763Z" fill="url(#paint37_linear_209_1066)"/>
<g opacity="0.5" filter="url(#filter0_d_209_1066)">
<path d="M640.5 713.728L783.365 631.237L640.5 548.746L497.635 631.237L640.5 713.728Z" fill="url(#paint38_linear_209_1066)" shape-rendering="crispEdges"/>
</g>
<g opacity="0.75">
<path d="M710.418 618.065C672.133 656.349 610.062 656.349 571.778 618.065C533.494 579.781 533.494 517.71 571.778 479.426C610.062 441.141 672.133 441.141 710.418 479.426C748.702 517.71 748.702 579.781 710.418 618.065Z" fill="url(#paint39_radial_209_1066)"/>
<path d="M710.418 618.065C672.133 656.349 610.062 656.349 571.778 618.065C533.494 579.781 533.494 517.71 571.778 479.426C610.062 441.141 672.133 441.141 710.418 479.426C748.702 517.71 748.702 579.781 710.418 618.065Z" fill="url(#paint40_radial_209_1066)"/>
<path d="M710.418 618.065C672.133 656.349 610.062 656.349 571.778 618.065C533.494 579.781 533.494 517.71 571.778 479.426C610.062 441.141 672.133 441.141 710.418 479.426C748.702 517.71 748.702 579.781 710.418 618.065Z" fill="url(#paint41_radial_209_1066)" fill-opacity="0.5"/>
</g>
<g filter="url(#filter1_dd_209_1066)">
<path d="M680.83 588.478C658.886 610.421 623.309 610.421 601.366 588.478C579.422 566.534 579.422 530.957 601.366 509.013C623.309 487.07 658.886 487.07 680.83 509.013C702.773 530.957 702.773 566.534 680.83 588.478Z" fill="url(#paint42_radial_209_1066)"/>
<path d="M680.83 588.478C658.886 610.421 623.309 610.421 601.366 588.478C579.422 566.534 579.422 530.957 601.366 509.013C623.309 487.07 658.886 487.07 680.83 509.013C702.773 530.957 702.773 566.534 680.83 588.478Z" fill="url(#paint43_radial_209_1066)"/>
</g>
<path d="M640.5 548.746L783.365 466.254L640.5 383.763L497.635 466.254L640.5 548.746Z" fill="url(#paint44_linear_209_1066)"/>
<path d="M641.098 713.383L640.5 713.728L497.635 631.237V466.6L498.233 466.254L641.098 548.746V713.383Z" fill="url(#paint45_linear_209_1066)"/>
<defs>
<filter id="filter0_d_209_1066" x="347.635" y="473.746" width="585.73" height="464.982" filterUnits="userSpaceOnUse" color-interpolation-filters="sRGB">
<feFlood flood-opacity="0" result="BackgroundImageFix"/>
<feColorMatrix in="SourceAlpha" type="matrix" values="0 0 0 0 0 0 0 0 0 0 0 0 0 0 0 0 0 0 127 0" result="hardAlpha"/>
<feOffset dy="75"/>
<feGaussianBlur stdDeviation="75"/>
<feComposite in2="hardAlpha" operator="out"/>
<feColorMatrix type="matrix" values="0 0 0 0 0.3125 0 0 0 0 0.67 0 0 0 0 1 0 0 0 1 0"/>
<feBlend mode="normal" in2="BackgroundImageFix" result="effect1_dropShadow_209_1066"/>
<feBlend mode="normal" in="SourceGraphic" in2="effect1_dropShadow_209_1066" result="shape"/>
</filter>
<filter id="filter1_dd_209_1066" x="504.908" y="417.556" width="261.379" height="258.379" filterUnits="userSpaceOnUse" color-interpolation-filters="sRGB">
<feFlood flood-opacity="0" result="BackgroundImageFix"/>
<feColorMatrix in="SourceAlpha" type="matrix" values="0 0 0 0 0 0 0 0 0 0 0 0 0 0 0 0 0 0 127 0" result="hardAlpha"/>
<feOffset dx="-37" dy="28"/>
<feGaussianBlur stdDeviation="21.5"/>
<feComposite in2="hardAlpha" operator="out"/>
<feColorMatrix type="matrix" values="0 0 0 0 0 0 0 0 0 0.928 0 0 0 0 1 0 0 0 1 0"/>
<feBlend mode="normal" in2="BackgroundImageFix" result="effect1_dropShadow_209_1066"/>
<feColorMatrix in="SourceAlpha" type="matrix" values="0 0 0 0 0 0 0 0 0 0 0 0 0 0 0 0 0 0 127 0" result="hardAlpha"/>
<feOffset dx="22" dy="-28"/>
<feGaussianBlur stdDeviation="23.5"/>
<feComposite in2="hardAlpha" operator="out"/>
<feColorMatrix type="matrix" values="0 0 0 0 0.230903 0 0 0 0 0.354271 0 0 0 0 0.791667 0 0 0 1 0"/>
<feBlend mode="normal" in2="effect1_dropShadow_209_1066" result="effect2_dropShadow_209_1066"/>
<feBlend mode="normal" in="SourceGraphic" in2="effect2_dropShadow_209_1066" result="shape"/>
</filter>
<linearGradient id="paint0_linear_209_1066" x1="391.233" y1="774.7" x2="639.328" y2="343.636" gradientUnits="userSpaceOnUse">
<stop stop-color="#276BA0"/>
<stop offset="1" stop-color="#0D3656" stop-opacity="0.5"/>
</linearGradient>
<linearGradient id="paint1_linear_209_1066" x1="133" y1="922.945" x2="637.129" y2="45.8835" gradientUnits="userSpaceOnUse">
<stop stop-color="#276BA0"/>
<stop offset="1" stop-color="#0D3656" stop-opacity="0.5"/>
</linearGradient>
<linearGradient id="paint2_linear_209_1066" x1="0" y1="999.746" x2="637.141" y2="-107.687" gradientUnits="userSpaceOnUse">
<stop stop-color="#276BA0"/>
<stop offset="1" stop-color="#0D3656" stop-opacity="0.5"/>
</linearGradient>
<linearGradient id="paint3_linear_209_1066" x1="1114.53" y1="438.757" x2="829.393" y2="273.775" gradientUnits="userSpaceOnUse">
<stop stop-color="#5076FF" stop-opacity="0.25"/>
<stop offset="1" stop-color="#455FE4" stop-opacity="0"/>
</linearGradient>
<linearGradient id="paint4_linear_209_1066" x1="828.795" y1="438.758" x2="1114.53" y2="438.758" gradientUnits="userSpaceOnUse">
<stop stop-color="#50C0FF" stop-opacity="0.5"/>
<stop offset="1" stop-color="#133A74" stop-opacity="0"/>
</linearGradient>
<radialGradient id="paint5_radial_209_1066" cx="0" cy="0" r="1" gradientUnits="userSpaceOnUse" gradientTransform="translate(1073.48 255.044) rotate(135) scale(167.844)">
<stop stop-color="#133A74"/>
<stop offset="1" stop-color="#134974" stop-opacity="0"/>
</radialGradient>
<radialGradient id="paint6_radial_209_1066" cx="0" cy="0" r="1" gradientUnits="userSpaceOnUse" gradientTransform="translate(979.085 349.44) rotate(135) scale(107.688)">
<stop stop-color="#2A6AAC" stop-opacity="0"/>
<stop offset="0.75" stop-color="#4441CB" stop-opacity="0"/>
<stop offset="1" stop-color="#2A6AAC"/>
</radialGradient>
<radialGradient id="paint7_radial_209_1066" cx="0" cy="0" r="1" gradientUnits="userSpaceOnUse" gradientTransform="translate(975.54 352.984) rotate(135) scale(102.675)">
<stop stop-color="white" stop-opacity="0"/>
<stop offset="0.929818" stop-color="#3E9DFF" stop-opacity="0"/>
<stop offset="1" stop-color="#3E9DFF"/>
</radialGradient>
<linearGradient id="paint8_linear_209_1066" x1="828.795" y1="273.775" x2="1114.53" y2="273.775" gradientUnits="userSpaceOnUse">
<stop stop-color="#50C0FF" stop-opacity="0.5"/>
<stop offset="1" stop-color="#133A74" stop-opacity="0"/>
</linearGradient>
<linearGradient id="paint9_linear_209_1066" x1="828.795" y1="368.222" x2="1114.53" y2="368.222" gradientUnits="userSpaceOnUse">
<stop stop-color="#50C0FF" stop-opacity="0.5"/>
<stop offset="1" stop-color="#133A74" stop-opacity="0"/>
</linearGradient>
<linearGradient id="paint10_linear_209_1066" x1="828.795" y1="436.366" x2="971.66" y2="356.266" gradientUnits="userSpaceOnUse">
<stop stop-color="#30CDFF" stop-opacity="0.76"/>
<stop offset="1" stop-color="#00A3FF" stop-opacity="0"/>
</linearGradient>
<linearGradient id="paint11_linear_209_1066" x1="653.651" y1="329.965" x2="693.701" y2="62.1673" gradientUnits="userSpaceOnUse">
<stop stop-color="#4BA9FF" stop-opacity="0.42"/>
<stop offset="0.354167" stop-color="#5076FF" stop-opacity="0.25"/>
<stop offset="1" stop-color="#455FE4" stop-opacity="0"/>
</linearGradient>
<linearGradient id="paint12_linear_209_1066" x1="497.635" y1="247.474" x2="783.365" y2="247.474" gradientUnits="userSpaceOnUse">
<stop stop-color="#50C0FF" stop-opacity="0.5"/>
<stop offset="1" stop-color="#133A74" stop-opacity="0"/>
</linearGradient>
<linearGradient id="paint13_linear_209_1066" x1="497.635" y1="191.284" x2="783.365" y2="191.284" gradientUnits="userSpaceOnUse">
<stop stop-color="#50C0FF" stop-opacity="0.5"/>
<stop offset="1" stop-color="#133A74" stop-opacity="0"/>
</linearGradient>
<radialGradient id="paint14_radial_209_1066" cx="0" cy="0" r="1" gradientUnits="userSpaceOnUse" gradientTransform="translate(641.098 -212.803) rotate(90) scale(402.479)">
<stop stop-color="#133A74"/>
<stop offset="1" stop-color="#134974" stop-opacity="0"/>
</radialGradient>
<radialGradient id="paint15_radial_209_1066" cx="0" cy="0" r="1" gradientUnits="userSpaceOnUse" gradientTransform="translate(641.098 155.327) rotate(90) scale(107.688)">
<stop stop-color="#2A6AAC" stop-opacity="0"/>
<stop offset="0.75" stop-color="#4441CB" stop-opacity="0"/>
<stop offset="1" stop-color="#2A6AAC"/>
</radialGradient>
<radialGradient id="paint16_radial_209_1066" cx="0" cy="0" r="1" gradientUnits="userSpaceOnUse" gradientTransform="translate(641.098 66.9493) rotate(90) scale(196.066)">
<stop stop-color="white" stop-opacity="0"/>
<stop offset="0.929818" stop-color="#3E9DFF" stop-opacity="0"/>
<stop offset="1" stop-color="#3E9DFF"/>
</radialGradient>
<linearGradient id="paint17_linear_209_1066" x1="641.098" y1="294.099" x2="641.098" y2="54.3963" gradientUnits="userSpaceOnUse">
<stop stop-color="#50C0FF" stop-opacity="0.5"/>
<stop offset="1" stop-color="#133A74" stop-opacity="0"/>
</linearGradient>
<linearGradient id="paint18_linear_209_1066" x1="623.763" y1="374.199" x2="516.165" y2="217.585" gradientUnits="userSpaceOnUse">
<stop stop-color="#30CDFF" stop-opacity="0.76"/>
<stop offset="1" stop-color="#00A3FF" stop-opacity="0"/>
</linearGradient>
<linearGradient id="paint19_linear_209_1066" x1="452.205" y1="438.757" x2="167.072" y2="273.775" gradientUnits="userSpaceOnUse">
<stop stop-color="#5076FF" stop-opacity="0.25"/>
<stop offset="1" stop-color="#455FE4" stop-opacity="0"/>
</linearGradient>
<linearGradient id="paint20_linear_209_1066" x1="166.475" y1="438.757" x2="452.205" y2="438.757" gradientUnits="userSpaceOnUse">
<stop stop-color="#50C0FF" stop-opacity="0.5"/>
<stop offset="1" stop-color="#133A74" stop-opacity="0"/>
</linearGradient>
<radialGradient id="paint21_radial_209_1066" cx="0" cy="0" r="1" gradientUnits="userSpaceOnUse" gradientTransform="translate(208.715 255.043) rotate(45) scale(167.844)">
<stop stop-color="#133A74"/>
<stop offset="1" stop-color="#134974" stop-opacity="0"/>
</radialGradient>
<radialGradient id="paint22_radial_209_1066" cx="0" cy="0" r="1" gradientUnits="userSpaceOnUse" gradientTransform="translate(303.11 349.439) rotate(45) scale(107.688)">
<stop stop-color="#2A6AAC" stop-opacity="0"/>
<stop offset="0.75" stop-color="#4441CB" stop-opacity="0"/>
<stop offset="1" stop-color="#2A6AAC"/>
</radialGradient>
<radialGradient id="paint23_radial_209_1066" cx="0" cy="0" r="1" gradientUnits="userSpaceOnUse" gradientTransform="translate(306.655 352.984) rotate(45) scale(102.675)">
<stop stop-color="white" stop-opacity="0"/>
<stop offset="0.929818" stop-color="#3E9DFF" stop-opacity="0"/>
<stop offset="1" stop-color="#3E9DFF"/>
</radialGradient>
<linearGradient id="paint24_linear_209_1066" x1="452.205" y1="242.691" x2="166.475" y2="242.691" gradientUnits="userSpaceOnUse">
<stop stop-color="#50C0FF" stop-opacity="0.5"/>
<stop offset="1" stop-color="#133A74" stop-opacity="0"/>
</linearGradient>
<linearGradient id="paint25_linear_209_1066" x1="452.205" y1="436.366" x2="309.966" y2="357.282" gradientUnits="userSpaceOnUse">
<stop stop-color="#30CDFF" stop-opacity="0.76"/>
<stop offset="1" stop-color="#00A3FF" stop-opacity="0"/>
</linearGradient>
<linearGradient id="paint26_linear_209_1066" x1="452.205" y1="822.521" x2="167.072" y2="657.538" gradientUnits="userSpaceOnUse">
<stop stop-color="#5076FF" stop-opacity="0.25"/>
<stop offset="1" stop-color="#455FE4" stop-opacity="0"/>
</linearGradient>
<linearGradient id="paint27_linear_209_1066" x1="452.205" y1="657.538" x2="166.475" y2="657.538" gradientUnits="userSpaceOnUse">
<stop stop-color="#50C0FF" stop-opacity="0.5"/>
<stop offset="1" stop-color="#133A74" stop-opacity="0"/>
</linearGradient>
<linearGradient id="paint28_linear_209_1066" x1="452.205" y1="622.41" x2="166.475" y2="622.41" gradientUnits="userSpaceOnUse">
<stop stop-color="#50C0FF" stop-opacity="0.5"/>
<stop offset="1" stop-color="#133A74" stop-opacity="0"/>
</linearGradient>
<linearGradient id="paint29_linear_209_1066" x1="452.205" y1="774.7" x2="166.475" y2="774.7" gradientUnits="userSpaceOnUse">
<stop stop-color="#50C0FF" stop-opacity="0.5"/>
<stop offset="1" stop-color="#133A74" stop-opacity="0"/>
</linearGradient>
<linearGradient id="paint30_linear_209_1066" x1="452.205" y1="657.538" x2="296.828" y2="914.49" gradientUnits="userSpaceOnUse">
<stop stop-color="#30CDFF" stop-opacity="0.76"/>
<stop offset="1" stop-color="#00A3FF" stop-opacity="0"/>
</linearGradient>
<linearGradient id="paint31_linear_209_1066" x1="785.756" y1="1015" x2="500.624" y2="850.018" gradientUnits="userSpaceOnUse">
<stop stop-color="#5076FF" stop-opacity="0.25"/>
<stop offset="1" stop-color="#455FE4" stop-opacity="0"/>
</linearGradient>
<linearGradient id="paint32_linear_209_1066" x1="643.489" y1="767.527" x2="643.489" y2="925.934" gradientUnits="userSpaceOnUse">
<stop stop-color="#50C0FF" stop-opacity="0.5"/>
<stop offset="1" stop-color="#133A74" stop-opacity="0"/>
</linearGradient>
<linearGradient id="paint33_linear_209_1066" x1="828.795" y1="822.521" x2="1113.93" y2="657.538" gradientUnits="userSpaceOnUse">
<stop stop-color="#5076FF" stop-opacity="0.25"/>
<stop offset="1" stop-color="#455FE4" stop-opacity="0"/>
</linearGradient>
<linearGradient id="paint34_linear_209_1066" x1="828.795" y1="657.538" x2="1114.53" y2="657.538" gradientUnits="userSpaceOnUse">
<stop stop-color="#50C0FF" stop-opacity="0.5"/>
<stop offset="1" stop-color="#133A74" stop-opacity="0"/>
</linearGradient>
<linearGradient id="paint35_linear_209_1066" x1="828.795" y1="710.141" x2="1114.53" y2="710.141" gradientUnits="userSpaceOnUse">
<stop stop-color="#50C0FF" stop-opacity="0.5"/>
<stop offset="1" stop-color="#133A74" stop-opacity="0"/>
</linearGradient>
<linearGradient id="paint36_linear_209_1066" x1="828.795" y1="657.538" x2="984.172" y2="914.49" gradientUnits="userSpaceOnUse">
<stop stop-color="#30CDFF" stop-opacity="0.76"/>
<stop offset="1" stop-color="#00A3FF" stop-opacity="0"/>
</linearGradient>
<linearGradient id="paint37_linear_209_1066" x1="783.365" y1="631.237" x2="498.233" y2="466.254" gradientUnits="userSpaceOnUse">
<stop stop-color="#5076FF" stop-opacity="0.25"/>
<stop offset="1" stop-color="#455FE4" stop-opacity="0"/>
</linearGradient>
<linearGradient id="paint38_linear_209_1066" x1="497.635" y1="631.237" x2="783.365" y2="631.237" gradientUnits="userSpaceOnUse">
<stop stop-color="#50C0FF" stop-opacity="0.5"/>
<stop offset="1" stop-color="#133A74" stop-opacity="0"/>
</linearGradient>
<radialGradient id="paint39_radial_209_1066" cx="0" cy="0" r="1" gradientUnits="userSpaceOnUse" gradientTransform="translate(742.321 447.523) rotate(135) scale(167.844)">
<stop stop-color="#133A74"/>
<stop offset="1" stop-color="#134974" stop-opacity="0"/>
</radialGradient>
<radialGradient id="paint40_radial_209_1066" cx="0" cy="0" r="1" gradientUnits="userSpaceOnUse" gradientTransform="translate(647.925 541.919) rotate(135) scale(107.688)">
<stop stop-color="#2A6AAC" stop-opacity="0"/>
<stop offset="0.75" stop-color="#4441CB" stop-opacity="0"/>
<stop offset="1" stop-color="#2A6AAC"/>
</radialGradient>
<radialGradient id="paint41_radial_209_1066" cx="0" cy="0" r="1" gradientUnits="userSpaceOnUse" gradientTransform="translate(644.38 545.463) rotate(135) scale(102.675)">
<stop stop-color="white" stop-opacity="0"/>
<stop offset="0.929818" stop-color="#3E9DFF" stop-opacity="0"/>
<stop offset="1" stop-color="#3E9DFF"/>
</radialGradient>
<radialGradient id="paint42_radial_209_1066" cx="0" cy="0" r="1" gradientUnits="userSpaceOnUse" gradientTransform="translate(667.369 522.474) rotate(135) scale(93.3431)">
<stop stop-color="white" stop-opacity="0"/>
<stop offset="0.668121" stop-color="#3E9DFF" stop-opacity="0"/>
<stop offset="1" stop-color="#3E9DFF" stop-opacity="0.43"/>
</radialGradient>
<radialGradient id="paint43_radial_209_1066" cx="0" cy="0" r="1" gradientUnits="userSpaceOnUse" gradientTransform="translate(591.484 576.243) rotate(-29.9927) scale(102.838)">
<stop stop-color="white"/>
<stop offset="0.463542" stop-color="#72DDFF"/>
<stop offset="0.733683" stop-color="#50C0FF"/>
<stop offset="1" stop-color="#0E67BA"/>
</radialGradient>
<linearGradient id="paint44_linear_209_1066" x1="497.635" y1="466.254" x2="783.365" y2="466.254" gradientUnits="userSpaceOnUse">
<stop stop-color="#50C0FF" stop-opacity="0.5"/>
<stop offset="1" stop-color="#000B1B" stop-opacity="0.57"/>
</linearGradient>
<linearGradient id="paint45_linear_209_1066" x1="497.635" y1="628.846" x2="640.5" y2="548.746" gradientUnits="userSpaceOnUse">
<stop stop-color="#30CDFF" stop-opacity="0.76"/>
<stop offset="1" stop-color="#00A3FF" stop-opacity="0"/>
</linearGradient>
</defs>
</svg>
