<svg width="390" height="442" viewBox="0 0 390 442" fill="none" xmlns="http://www.w3.org/2000/svg">
<g opacity="0.5">
<g filter="url(#filter0_f_235_1226)">
<path opacity="0.25" d="M124.118 130.792L124.025 130.845L101.941 118.133V61.4655L102.033 61.4123L124.118 74.1243V130.792Z" fill="url(#paint0_linear_235_1226)"/>
<path opacity="0.25" d="M130 231.866L129.767 232L74 199.961V57.1341L74.2333 57L130 89.0394V231.866Z" fill="url(#paint1_linear_235_1226)"/>
</g>
<path d="M134.236 62.1124C133.162 80.1269 118.711 89.293 101.957 82.5855C85.2035 75.878 72.492 55.8368 73.5652 37.8223C74.6385 19.8078 89.09 10.6416 105.844 17.3491C122.597 24.0567 135.309 44.0978 134.236 62.1124Z" fill="#021425"/>
<path d="M134.236 62.1124C133.162 80.1269 118.711 89.293 101.957 82.5855C85.2035 75.878 72.492 55.8368 73.5652 37.8223C74.6385 19.8078 89.09 10.6416 105.844 17.3491C122.597 24.0567 135.309 44.0978 134.236 62.1124Z" fill="url(#paint2_radial_235_1226)"/>
<path d="M134.236 62.1124C133.162 80.1269 118.711 89.293 101.957 82.5855C85.2035 75.878 72.492 55.8368 73.5652 37.8223C74.6385 19.8078 89.09 10.6416 105.844 17.3491C122.597 24.0567 135.309 44.0978 134.236 62.1124Z" fill="url(#paint3_radial_235_1226)"/>
<path d="M134.236 62.1124C133.162 80.1269 118.711 89.293 101.957 82.5855C85.2035 75.878 72.492 55.8368 73.5652 37.8223C74.6385 19.8078 89.09 10.6416 105.844 17.3491C122.597 24.0567 135.309 44.0978 134.236 62.1124Z" fill="url(#paint4_radial_235_1226)" fill-opacity="0.5"/>
<g opacity="0.75">
<path d="M127.88 55.5902C127.117 68.3993 116.841 74.9168 104.929 70.1475C93.0163 65.3782 83.9779 51.1281 84.7411 38.319C85.5042 25.5099 95.7798 18.9923 107.692 23.7617C119.605 28.531 128.643 42.7811 127.88 55.5902Z" fill="url(#paint5_radial_235_1226)"/>
<path d="M127.88 55.5902C127.117 68.3993 116.841 74.9168 104.929 70.1475C93.0163 65.3782 83.9779 51.1281 84.7411 38.319C85.5042 25.5099 95.7798 18.9923 107.692 23.7617C119.605 28.531 128.643 42.7811 127.88 55.5902Z" fill="url(#paint6_radial_235_1226)"/>
</g>
<path d="M134.153 62.1557C133.613 71.2326 129.676 78.0634 123.76 81.7492L123.761 81.7506L129.883 77.8669L129.882 77.8655C135.798 74.1797 139.735 67.3489 140.275 58.272C141.347 40.2574 128.634 20.2172 111.88 13.511C103.438 10.1319 95.581 10.7828 89.7255 14.5649L89.7251 14.5643L83.603 18.448L83.6034 18.4486C89.4588 14.6665 97.3159 14.0156 105.758 17.3947C122.512 24.1009 135.225 44.1411 134.153 62.1557Z" fill="url(#paint7_linear_235_1226)"/>
</g>
<path opacity="0.25" d="M389.5 309C389.5 339.398 368.184 367.013 333.514 387.056C298.858 407.092 250.947 419.5 198 419.5C145.053 419.5 97.1421 407.092 62.4857 387.056C27.8163 367.013 6.5 339.398 6.5 309C6.5 278.602 27.8163 250.987 62.4857 230.944C97.1421 210.908 145.053 198.5 198 198.5C250.947 198.5 298.858 210.908 333.514 230.944C368.184 250.987 389.5 278.602 389.5 309Z" stroke="url(#paint8_linear_235_1226)"/>
<path d="M389.5 274C389.5 304.398 368.184 332.013 333.514 352.056C298.858 372.092 250.947 384.5 198 384.5C145.053 384.5 97.1421 372.092 62.4857 352.056C27.8163 332.013 6.5 304.398 6.5 274C6.5 243.602 27.8163 215.987 62.4857 195.944C97.1421 175.908 145.053 163.5 198 163.5C250.947 163.5 298.858 175.908 333.514 195.944C368.184 215.987 389.5 243.602 389.5 274Z" stroke="url(#paint9_linear_235_1226)"/>
<g filter="url(#filter1_f_235_1226)">
<path opacity="0.25" d="M225.854 420.093L225.584 420.248L161.256 383.22V218.155L161.526 218L225.854 255.028V420.093Z" fill="url(#paint10_linear_235_1226)"/>
<path opacity="0.25" d="M193.555 420.093L193.286 420.248L128.958 383.22V218.155L129.227 218L193.555 255.028V420.093Z" fill="url(#paint11_linear_235_1226)"/>
</g>
<path d="M255.324 262.248C252.197 314.721 210.102 341.421 161.302 321.883C112.501 302.345 75.4744 243.968 78.6006 191.494C81.7267 139.021 123.822 112.321 172.623 131.859C221.423 151.397 258.45 209.774 255.324 262.248Z" fill="#021425"/>
<path d="M255.324 262.248C252.197 314.721 210.102 341.421 161.302 321.883C112.501 302.345 75.4744 243.968 78.6006 191.494C81.7267 139.021 123.822 112.321 172.623 131.859C221.423 151.397 258.45 209.774 255.324 262.248Z" fill="url(#paint12_radial_235_1226)"/>
<path d="M255.324 262.248C252.197 314.721 210.102 341.421 161.302 321.883C112.501 302.345 75.4744 243.968 78.6006 191.494C81.7267 139.021 123.822 112.321 172.623 131.859C221.423 151.397 258.45 209.774 255.324 262.248Z" fill="url(#paint13_radial_235_1226)"/>
<path d="M255.324 262.248C252.197 314.721 210.102 341.421 161.302 321.883C112.501 302.345 75.4744 243.968 78.6006 191.494C81.7267 139.021 123.822 112.321 172.623 131.859C221.423 151.397 258.45 209.774 255.324 262.248Z" fill="url(#paint14_radial_235_1226)" fill-opacity="0.5"/>
<g opacity="0.75">
<path d="M235.791 244.025C233.568 281.336 203.637 300.321 168.937 286.428C134.238 272.536 107.911 231.028 110.133 193.717C112.356 156.406 142.288 137.421 176.987 151.313C211.686 165.206 238.014 206.714 235.791 244.025Z" fill="url(#paint15_radial_235_1226)"/>
<path d="M235.791 244.025C233.568 281.336 203.637 300.321 168.937 286.428C134.238 272.536 107.911 231.028 110.133 193.717C112.356 156.406 142.288 137.421 176.987 151.313C211.686 165.206 238.014 206.714 235.791 244.025Z" fill="url(#paint16_radial_235_1226)"/>
</g>
<path d="M145.958 213.73L169.043 178.887L200.513 228.348L177.428 263.191L145.958 213.73Z" stroke="white" stroke-width="1.5" stroke-linecap="round" stroke-linejoin="round"/>
<path d="M145.958 213.73L171.838 206.988L200.513 228.348L174.167 230.406L145.958 213.73Z" stroke="white" stroke-width="1.5" stroke-linecap="round" stroke-linejoin="round"/>
<path d="M255.083 262.374C253.51 288.813 242.043 308.71 224.809 319.447L224.812 319.451L242.645 308.138L242.642 308.134C259.876 297.398 271.343 277.501 272.916 251.061C276.038 198.587 239.007 140.213 190.205 120.679C165.616 110.837 142.729 112.733 125.673 123.749L125.672 123.747L107.839 135.06L107.84 135.062C124.896 124.045 147.783 122.149 172.372 131.992C221.175 151.526 258.206 209.9 255.083 262.374Z" fill="url(#paint17_linear_235_1226)"/>
<path d="M389.5 198C389.5 228.398 368.184 256.013 333.514 276.056C298.858 296.092 250.947 308.5 198 308.5C145.053 308.5 97.1421 296.092 62.4857 276.056C27.8163 256.013 6.5 228.398 6.5 198C6.5 167.602 27.8163 139.987 62.4857 119.944C97.1421 99.9083 145.053 87.5 198 87.5C250.947 87.5 298.858 99.9083 333.514 119.944C368.184 139.987 389.5 167.602 389.5 198Z" stroke="url(#paint18_linear_235_1226)"/>
<path d="M198 64L214 73.2385V91.7155L198 100.954L182 91.7155V73.2385L198 64Z" fill="url(#paint19_linear_235_1226)"/>
<g opacity="0.5" filter="url(#filter2_d_235_1226)">
<path d="M198 100.954L214 91.7155L198 82.477L182 91.7155L198 100.954Z" fill="url(#paint20_linear_235_1226)" shape-rendering="crispEdges"/>
</g>
<path d="M198 82.477L214 73.2385L198 64L182 73.2385L198 82.477Z" fill="url(#paint21_linear_235_1226)"/>
<path d="M198.067 100.915L198 100.954L182 91.7155V73.2771L182.067 73.2385L198.067 82.477V100.915Z" fill="url(#paint22_linear_235_1226)"/>
<g filter="url(#filter3_f_235_1226)">
<path opacity="0.25" d="M327.028 230.066L326.875 230.155L290.223 209.058V115.01L290.376 114.922L327.028 136.019V230.066Z" fill="url(#paint23_linear_235_1226)"/>
<path opacity="0.25" d="M308.625 222.989L308.472 223.077L271.82 201.98V107.932L271.974 107.844L308.625 128.941V222.989Z" fill="url(#paint24_linear_235_1226)"/>
</g>
<path d="M343.82 116.083C342.038 145.981 318.054 161.193 290.249 150.061C262.445 138.929 241.348 105.668 243.129 75.771C244.911 45.8735 268.895 30.6612 296.7 41.7931C324.504 52.9251 345.601 86.186 343.82 116.083Z" fill="#021425"/>
<path d="M343.82 116.083C342.038 145.981 318.054 161.193 290.249 150.061C262.445 138.929 241.348 105.668 243.129 75.771C244.911 45.8735 268.895 30.6612 296.7 41.7931C324.504 52.9251 345.601 86.186 343.82 116.083Z" fill="url(#paint25_radial_235_1226)"/>
<path d="M343.82 116.083C342.038 145.981 318.054 161.193 290.249 150.061C262.445 138.929 241.348 105.668 243.129 75.771C244.911 45.8735 268.895 30.6612 296.7 41.7931C324.504 52.9251 345.601 86.186 343.82 116.083Z" fill="url(#paint26_radial_235_1226)"/>
<path d="M343.82 116.083C342.038 145.981 318.054 161.193 290.249 150.061C262.445 138.929 241.348 105.668 243.129 75.771C244.911 45.8735 268.895 30.6612 296.7 41.7931C324.504 52.9251 345.601 86.186 343.82 116.083Z" fill="url(#paint27_radial_235_1226)" fill-opacity="0.5"/>
<g opacity="0.75">
<path d="M333.272 105.259C332.006 126.517 314.952 137.334 295.182 129.419C275.411 121.504 260.411 97.8536 261.677 76.5953C262.944 55.3369 279.998 44.5202 299.768 52.4356C319.539 60.3509 334.539 84.0008 333.272 105.259Z" fill="url(#paint28_radial_235_1226)"/>
<path d="M333.272 105.259C332.006 126.517 314.952 137.334 295.182 129.419C275.411 121.504 260.411 97.8536 261.677 76.5953C262.944 55.3369 279.998 44.5202 299.768 52.4356C319.539 60.3509 334.539 84.0008 333.272 105.259Z" fill="url(#paint29_radial_235_1226)"/>
</g>
<path d="M302.912 107.551L303.667 115.15M282.739 72.3177L302.338 77.8454C304.288 78.3952 306.237 79.723 307.757 81.5369C309.277 83.3507 310.244 85.502 310.444 87.5174C310.644 89.5328 310.062 91.2472 308.826 92.2836C307.589 93.32 305.799 93.5933 303.85 93.0436C305.799 93.5933 307.748 94.9212 309.269 96.7351C310.789 98.5489 311.755 100.7 311.956 102.716C312.156 104.731 311.574 106.445 310.337 107.482C309.101 108.518 307.311 108.792 305.362 108.242L285.762 102.714L282.739 72.3177ZM287.639 73.6997L290.662 104.096L287.639 73.6997ZM289.15 88.8978L303.85 93.0436L289.15 88.8978ZM289.333 66.7915L290.089 74.3906L289.333 66.7915ZM299.133 69.5554L299.888 77.1545L299.133 69.5554ZM293.112 104.787L293.868 112.386L293.112 104.787Z" stroke="white" stroke-width="1.5" stroke-linecap="round" stroke-linejoin="round"/>
<path d="M343.683 116.155C342.786 131.22 336.253 142.556 326.434 148.673L326.435 148.676L336.596 142.23L336.594 142.228C346.413 136.111 352.947 124.774 353.843 109.71C355.622 79.8123 334.523 46.553 306.718 35.4232C292.707 29.8153 279.667 30.8955 269.95 37.1723L269.949 37.1714L259.789 43.6169L259.789 43.6178C269.507 37.341 282.547 36.2608 296.557 41.8687C324.363 52.9986 345.462 86.2579 343.683 116.155Z" fill="url(#paint30_linear_235_1226)"/>
<g filter="url(#filter4_dd_235_1226)">
<path d="M110.799 307.799C99.8643 318.734 82.1357 318.734 71.201 307.799C60.2663 296.864 60.2663 279.136 71.201 268.201C82.1357 257.266 99.8643 257.266 110.799 268.201C121.734 279.136 121.734 296.864 110.799 307.799Z" fill="url(#paint31_radial_235_1226)"/>
<path d="M110.799 307.799C99.8643 318.734 82.1357 318.734 71.201 307.799C60.2663 296.864 60.2663 279.136 71.201 268.201C82.1357 257.266 99.8643 257.266 110.799 268.201C121.734 279.136 121.734 296.864 110.799 307.799Z" fill="url(#paint32_radial_235_1226)"/>
</g>
<defs>
<filter id="filter0_f_235_1226" x="53" y="36" width="98" height="217" filterUnits="userSpaceOnUse" color-interpolation-filters="sRGB">
<feFlood flood-opacity="0" result="BackgroundImageFix"/>
<feBlend mode="normal" in="SourceGraphic" in2="BackgroundImageFix" result="shape"/>
<feGaussianBlur stdDeviation="10.5" result="effect1_foregroundBlur_235_1226"/>
</filter>
<filter id="filter1_f_235_1226" x="107.958" y="197" width="138.896" height="244.248" filterUnits="userSpaceOnUse" color-interpolation-filters="sRGB">
<feFlood flood-opacity="0" result="BackgroundImageFix"/>
<feBlend mode="normal" in="SourceGraphic" in2="BackgroundImageFix" result="shape"/>
<feGaussianBlur stdDeviation="10.5" result="effect1_foregroundBlur_235_1226"/>
</filter>
<filter id="filter2_d_235_1226" x="32" y="7.47698" width="332" height="318.477" filterUnits="userSpaceOnUse" color-interpolation-filters="sRGB">
<feFlood flood-opacity="0" result="BackgroundImageFix"/>
<feColorMatrix in="SourceAlpha" type="matrix" values="0 0 0 0 0 0 0 0 0 0 0 0 0 0 0 0 0 0 127 0" result="hardAlpha"/>
<feOffset dy="75"/>
<feGaussianBlur stdDeviation="75"/>
<feComposite in2="hardAlpha" operator="out"/>
<feColorMatrix type="matrix" values="0 0 0 0 0.3125 0 0 0 0 0.67 0 0 0 0 1 0 0 0 1 0"/>
<feBlend mode="normal" in2="BackgroundImageFix" result="effect1_dropShadow_235_1226"/>
<feBlend mode="normal" in="SourceGraphic" in2="effect1_dropShadow_235_1226" result="shape"/>
</filter>
<filter id="filter3_f_235_1226" x="250.82" y="86.8437" width="97.208" height="164.311" filterUnits="userSpaceOnUse" color-interpolation-filters="sRGB">
<feFlood flood-opacity="0" result="BackgroundImageFix"/>
<feBlend mode="normal" in="SourceGraphic" in2="BackgroundImageFix" result="shape"/>
<feGaussianBlur stdDeviation="10.5" result="effect1_foregroundBlur_235_1226"/>
</filter>
<filter id="filter4_dd_235_1226" x="0" y="192" width="170" height="174" filterUnits="userSpaceOnUse" color-interpolation-filters="sRGB">
<feFlood flood-opacity="0" result="BackgroundImageFix"/>
<feColorMatrix in="SourceAlpha" type="matrix" values="0 0 0 0 0 0 0 0 0 0 0 0 0 0 0 0 0 0 127 0" result="hardAlpha"/>
<feOffset dx="-20" dy="7"/>
<feGaussianBlur stdDeviation="21.5"/>
<feComposite in2="hardAlpha" operator="out"/>
<feColorMatrix type="matrix" values="0 0 0 0 0 0 0 0 0 0.928 0 0 0 0 1 0 0 0 1 0"/>
<feBlend mode="normal" in2="BackgroundImageFix" result="effect1_dropShadow_235_1226"/>
<feColorMatrix in="SourceAlpha" type="matrix" values="0 0 0 0 0 0 0 0 0 0 0 0 0 0 0 0 0 0 127 0" result="hardAlpha"/>
<feOffset dx="4" dy="-21"/>
<feGaussianBlur stdDeviation="23.5"/>
<feComposite in2="hardAlpha" operator="out"/>
<feColorMatrix type="matrix" values="0 0 0 0 0.230903 0 0 0 0 0.354271 0 0 0 0 0.791667 0 0 0 1 0"/>
<feBlend mode="normal" in2="effect1_dropShadow_235_1226" result="effect2_dropShadow_235_1226"/>
<feBlend mode="normal" in="SourceGraphic" in2="effect2_dropShadow_235_1226" result="shape"/>
</filter>
<linearGradient id="paint0_linear_235_1226" x1="124.025" y1="125.81" x2="123.902" y2="74.8465" gradientUnits="userSpaceOnUse">
<stop stop-color="#0047FF" stop-opacity="0"/>
<stop offset="1" stop-color="#305DFF" stop-opacity="0.76"/>
</linearGradient>
<linearGradient id="paint1_linear_235_1226" x1="129.767" y1="219.309" x2="129.458" y2="90.8598" gradientUnits="userSpaceOnUse">
<stop stop-color="#00A3FF" stop-opacity="0"/>
<stop offset="1" stop-color="#30CDFF" stop-opacity="0.76"/>
</linearGradient>
<radialGradient id="paint2_radial_235_1226" cx="0" cy="0" r="1" gradientUnits="userSpaceOnUse" gradientTransform="translate(106.738 2.33735) rotate(93.4094) scale(55.9453 53.0821)">
<stop stop-color="#133A74"/>
<stop offset="1" stop-color="#134974" stop-opacity="0"/>
</radialGradient>
<radialGradient id="paint3_radial_235_1226" cx="0" cy="0" r="1" gradientUnits="userSpaceOnUse" gradientTransform="translate(104.092 46.7549) rotate(93.4094) scale(35.8941 34.0571)">
<stop stop-color="#2A6AAC" stop-opacity="0"/>
<stop offset="0.75" stop-color="#4441CB" stop-opacity="0"/>
<stop offset="1" stop-color="#2A6AAC"/>
</radialGradient>
<radialGradient id="paint4_radial_235_1226" cx="0" cy="0" r="1" gradientUnits="userSpaceOnUse" gradientTransform="translate(103.992 48.4229) rotate(93.4094) scale(34.2232 32.4717)">
<stop stop-color="white" stop-opacity="0"/>
<stop offset="0.929818" stop-color="#3E9DFF" stop-opacity="0"/>
<stop offset="1" stop-color="#3E9DFF"/>
</radialGradient>
<radialGradient id="paint5_radial_235_1226" cx="0" cy="0" r="1" gradientUnits="userSpaceOnUse" gradientTransform="translate(108.328 13.0876) rotate(94.4753) scale(48.2311 45.7627)">
<stop stop-color="#1D88D5"/>
<stop offset="1" stop-color="#133A74" stop-opacity="0.41"/>
</radialGradient>
<radialGradient id="paint6_radial_235_1226" cx="0" cy="0" r="1" gradientUnits="userSpaceOnUse" gradientTransform="translate(106.058 48.5907) rotate(91.322) scale(27.7282 26.3091)">
<stop stop-color="#2A6AAC" stop-opacity="0"/>
<stop offset="0.75" stop-color="#4441CB" stop-opacity="0"/>
<stop offset="1" stop-color="#2A6AAC"/>
</radialGradient>
<linearGradient id="paint7_linear_235_1226" x1="133.714" y1="75.6992" x2="90.4266" y2="12.1545" gradientUnits="userSpaceOnUse">
<stop stop-color="#50C0FF"/>
<stop offset="0.807292" stop-color="#4982EE" stop-opacity="0"/>
<stop offset="0.864583" stop-color="#4877EB" stop-opacity="0.282239"/>
<stop offset="1" stop-color="#455FE4" stop-opacity="0.25"/>
</linearGradient>
<linearGradient id="paint8_linear_235_1226" x1="6" y1="420" x2="198.386" y2="87.2234" gradientUnits="userSpaceOnUse">
<stop stop-color="#276BA0"/>
<stop offset="1" stop-color="#0D3656" stop-opacity="0.5"/>
</linearGradient>
<linearGradient id="paint9_linear_235_1226" x1="6" y1="385" x2="198.386" y2="52.2234" gradientUnits="userSpaceOnUse">
<stop stop-color="#276BA0"/>
<stop offset="1" stop-color="#0D3656" stop-opacity="0.5"/>
</linearGradient>
<linearGradient id="paint10_linear_235_1226" x1="225.584" y1="405.58" x2="225.227" y2="257.132" gradientUnits="userSpaceOnUse">
<stop stop-color="#0047FF" stop-opacity="0"/>
<stop offset="1" stop-color="#305DFF" stop-opacity="0.76"/>
</linearGradient>
<linearGradient id="paint11_linear_235_1226" x1="193.286" y1="405.58" x2="192.929" y2="257.132" gradientUnits="userSpaceOnUse">
<stop stop-color="#00A3FF" stop-opacity="0"/>
<stop offset="1" stop-color="#30CDFF" stop-opacity="0.76"/>
</linearGradient>
<radialGradient id="paint12_radial_235_1226" cx="0" cy="0" r="1" gradientUnits="userSpaceOnUse" gradientTransform="translate(175.228 88.1322) rotate(93.4094) scale(162.96 154.62)">
<stop stop-color="#133A74"/>
<stop offset="1" stop-color="#134974" stop-opacity="0"/>
</radialGradient>
<radialGradient id="paint13_radial_235_1226" cx="0" cy="0" r="1" gradientUnits="userSpaceOnUse" gradientTransform="translate(167.52 217.514) rotate(93.4094) scale(104.554 99.2031)">
<stop stop-color="#2A6AAC" stop-opacity="0"/>
<stop offset="0.75" stop-color="#4441CB" stop-opacity="0"/>
<stop offset="1" stop-color="#2A6AAC"/>
</radialGradient>
<radialGradient id="paint14_radial_235_1226" cx="0" cy="0" r="1" gradientUnits="userSpaceOnUse" gradientTransform="translate(167.23 222.372) rotate(93.4094) scale(99.6868 94.585)">
<stop stop-color="white" stop-opacity="0"/>
<stop offset="0.929818" stop-color="#3E9DFF" stop-opacity="0"/>
<stop offset="1" stop-color="#3E9DFF"/>
</radialGradient>
<radialGradient id="paint15_radial_235_1226" cx="0" cy="0" r="1" gradientUnits="userSpaceOnUse" gradientTransform="translate(178.84 120.222) rotate(94.4753) scale(140.49 133.3)">
<stop stop-color="#1D88D5"/>
<stop offset="1" stop-color="#133A74" stop-opacity="0.41"/>
</radialGradient>
<radialGradient id="paint16_radial_235_1226" cx="0" cy="0" r="1" gradientUnits="userSpaceOnUse" gradientTransform="translate(172.225 223.636) rotate(91.322) scale(80.7679 76.6344)">
<stop stop-color="#2A6AAC" stop-opacity="0"/>
<stop offset="0.75" stop-color="#4441CB" stop-opacity="0"/>
<stop offset="1" stop-color="#2A6AAC"/>
</radialGradient>
<linearGradient id="paint17_linear_235_1226" x1="253.804" y1="301.824" x2="127.715" y2="116.728" gradientUnits="userSpaceOnUse">
<stop stop-color="#50C0FF"/>
<stop offset="0.807292" stop-color="#4982EE" stop-opacity="0"/>
<stop offset="0.864583" stop-color="#4877EB" stop-opacity="0.282239"/>
<stop offset="1" stop-color="#455FE4" stop-opacity="0.25"/>
</linearGradient>
<linearGradient id="paint18_linear_235_1226" x1="6" y1="309" x2="198.386" y2="-23.7766" gradientUnits="userSpaceOnUse">
<stop stop-color="#276BA0"/>
<stop offset="1" stop-color="#0D3656" stop-opacity="0.5"/>
</linearGradient>
<linearGradient id="paint19_linear_235_1226" x1="214" y1="91.7155" x2="182.067" y2="73.2385" gradientUnits="userSpaceOnUse">
<stop stop-color="#5076FF" stop-opacity="0.25"/>
<stop offset="1" stop-color="#455FE4" stop-opacity="0"/>
</linearGradient>
<linearGradient id="paint20_linear_235_1226" x1="182" y1="91.7155" x2="214" y2="91.7155" gradientUnits="userSpaceOnUse">
<stop stop-color="#50C0FF" stop-opacity="0.5"/>
<stop offset="1" stop-color="#133A74" stop-opacity="0"/>
</linearGradient>
<linearGradient id="paint21_linear_235_1226" x1="182" y1="73.2385" x2="214" y2="73.2385" gradientUnits="userSpaceOnUse">
<stop stop-color="#50C0FF" stop-opacity="0.5"/>
<stop offset="1" stop-color="#000B1B" stop-opacity="0.57"/>
</linearGradient>
<linearGradient id="paint22_linear_235_1226" x1="182" y1="91.4477" x2="198" y2="82.477" gradientUnits="userSpaceOnUse">
<stop stop-color="#30CDFF" stop-opacity="0.76"/>
<stop offset="1" stop-color="#00A3FF" stop-opacity="0"/>
</linearGradient>
<linearGradient id="paint23_linear_235_1226" x1="326.875" y1="221.798" x2="326.671" y2="137.217" gradientUnits="userSpaceOnUse">
<stop stop-color="#0047FF" stop-opacity="0"/>
<stop offset="1" stop-color="#305DFF" stop-opacity="0.76"/>
</linearGradient>
<linearGradient id="paint24_linear_235_1226" x1="308.472" y1="214.72" x2="308.268" y2="130.14" gradientUnits="userSpaceOnUse">
<stop stop-color="#00A3FF" stop-opacity="0"/>
<stop offset="1" stop-color="#30CDFF" stop-opacity="0.76"/>
</linearGradient>
<radialGradient id="paint25_radial_235_1226" cx="0" cy="0" r="1" gradientUnits="userSpaceOnUse" gradientTransform="translate(298.184 16.8791) rotate(93.4094) scale(92.8485 88.0966)">
<stop stop-color="#133A74"/>
<stop offset="1" stop-color="#134974" stop-opacity="0"/>
</radialGradient>
<radialGradient id="paint26_radial_235_1226" cx="0" cy="0" r="1" gradientUnits="userSpaceOnUse" gradientTransform="translate(293.792 90.5958) rotate(93.4094) scale(59.5709 56.5222)">
<stop stop-color="#2A6AAC" stop-opacity="0"/>
<stop offset="0.75" stop-color="#4441CB" stop-opacity="0"/>
<stop offset="1" stop-color="#2A6AAC"/>
</radialGradient>
<radialGradient id="paint27_radial_235_1226" cx="0" cy="0" r="1" gradientUnits="userSpaceOnUse" gradientTransform="translate(293.627 93.3641) rotate(93.4094) scale(56.7978 53.891)">
<stop stop-color="white" stop-opacity="0"/>
<stop offset="0.929818" stop-color="#3E9DFF" stop-opacity="0"/>
<stop offset="1" stop-color="#3E9DFF"/>
</radialGradient>
<radialGradient id="paint28_radial_235_1226" cx="0" cy="0" r="1" gradientUnits="userSpaceOnUse" gradientTransform="translate(300.824 34.7206) rotate(94.4753) scale(80.0457 75.9491)">
<stop stop-color="#1D88D5"/>
<stop offset="1" stop-color="#133A74" stop-opacity="0.41"/>
</radialGradient>
<radialGradient id="paint29_radial_235_1226" cx="0" cy="0" r="1" gradientUnits="userSpaceOnUse" gradientTransform="translate(297.055 93.6425) rotate(91.322) scale(46.0185 43.6634)">
<stop stop-color="#2A6AAC" stop-opacity="0"/>
<stop offset="0.75" stop-color="#4441CB" stop-opacity="0"/>
<stop offset="1" stop-color="#2A6AAC"/>
</radialGradient>
<linearGradient id="paint30_linear_235_1226" x1="342.954" y1="138.633" x2="271.113" y2="33.172" gradientUnits="userSpaceOnUse">
<stop stop-color="#50C0FF"/>
<stop offset="0.807292" stop-color="#4982EE" stop-opacity="0"/>
<stop offset="0.864583" stop-color="#4877EB" stop-opacity="0.282239"/>
<stop offset="1" stop-color="#455FE4" stop-opacity="0.25"/>
</linearGradient>
<radialGradient id="paint31_radial_235_1226" cx="0" cy="0" r="1" gradientUnits="userSpaceOnUse" gradientTransform="translate(104.091 274.909) rotate(135) scale(46.514)">
<stop stop-color="white" stop-opacity="0"/>
<stop offset="0.668121" stop-color="#3E9DFF" stop-opacity="0"/>
<stop offset="1" stop-color="#3E9DFF" stop-opacity="0.43"/>
</radialGradient>
<radialGradient id="paint32_radial_235_1226" cx="0" cy="0" r="1" gradientUnits="userSpaceOnUse" gradientTransform="translate(66.2766 301.702) rotate(-29.9927) scale(51.2453)">
<stop stop-color="white"/>
<stop offset="0.463542" stop-color="#72DDFF"/>
<stop offset="0.733683" stop-color="#50C0FF"/>
<stop offset="1" stop-color="#0E67BA"/>
</radialGradient>
</defs>
</svg>
