<svg width="1612" height="1620" viewBox="0 0 1612 1620" fill="none" xmlns="http://www.w3.org/2000/svg">
<path opacity="0.25" d="M806 1619.25L1612 1103.04L806 586.841L0 1103.04L806 1619.25Z" fill="url(#paint0_linear_7_609)"/>
<g filter="url(#filter0_f_7_609)">
<path opacity="0.25" d="M695.515 1270.56L697.011 1271.42L1054.55 1065.84V149.382L1053.06 148.522L695.515 354.105V1270.56Z" fill="url(#paint1_linear_7_609)"/>
<path opacity="0.25" d="M875.034 1270.56L876.53 1271.42L1234.07 1065.84V149.382L1232.58 148.522L875.034 354.105V1270.56Z" fill="url(#paint2_linear_7_609)"/>
</g>
<path d="M1039.65 661.903L1037.9 662.913L619.443 421.555L619.443 308.92L621.194 307.91L1039.65 549.268V661.903Z" fill="url(#paint3_linear_7_609)"/>
<path d="M1130.21 890.118L1128.46 891.128L710.004 649.771L710.004 537.136L711.755 536.126L1130.21 777.483V890.118Z" fill="url(#paint4_linear_7_609)"/>
<g opacity="0.5">
<path d="M452.809 615.821L796.943 814.53V890.334L452.809 1089.04L108.674 890.334L108.674 814.53L452.809 615.821Z" fill="url(#paint5_linear_7_609)"/>
<path opacity="0.75" d="M452.809 1013.24L796.943 814.53L452.809 615.821L108.674 814.53L452.809 1013.24Z" fill="url(#paint6_linear_7_609)"/>
<path opacity="0.5" d="M452.809 897.32L796.943 698.611L452.809 499.901L108.674 698.611L452.809 897.32Z" fill="url(#paint7_linear_7_609)"/>
<path d="M454.249 1087.86L452.809 1088.69L108.674 889.982L108.674 815.362L110.114 814.53L454.249 1013.24V1087.86Z" fill="url(#paint8_linear_7_609)"/>
</g>
<path d="M658.007 524.273C648.948 676.328 526.967 753.697 385.554 697.081C244.142 640.465 136.848 471.303 145.907 319.248C154.965 167.192 276.947 89.8234 418.359 146.44C559.772 203.056 667.066 372.217 658.007 524.273Z" fill="#021425"/>
<path d="M658.007 524.273C648.948 676.328 526.967 753.697 385.554 697.081C244.142 640.465 136.848 471.303 145.907 319.248C154.965 167.192 276.947 89.8234 418.359 146.44C559.772 203.056 667.066 372.217 658.007 524.273Z" fill="url(#paint9_radial_7_609)"/>
<path d="M658.007 524.273C648.948 676.328 526.967 753.697 385.554 697.081C244.142 640.465 136.848 471.303 145.907 319.248C154.965 167.192 276.947 89.8234 418.359 146.44C559.772 203.056 667.066 372.217 658.007 524.273Z" fill="url(#paint10_radial_7_609)"/>
<path d="M658.007 524.273C648.948 676.328 526.967 753.697 385.554 697.081C244.142 640.465 136.848 471.303 145.907 319.248C154.965 167.192 276.947 89.8234 418.359 146.44C559.772 203.056 667.066 372.217 658.007 524.273Z" fill="url(#paint11_radial_7_609)" fill-opacity="0.5"/>
<g opacity="0.75">
<path d="M601.406 471.469C594.965 579.587 508.231 634.599 407.681 594.343C307.131 554.086 230.84 433.805 237.281 325.687C243.723 217.569 330.457 162.557 431.007 202.813C531.557 243.07 607.848 363.351 601.406 471.469Z" fill="url(#paint12_radial_7_609)"/>
<path d="M601.406 471.469C594.965 579.587 508.231 634.599 407.681 594.343C307.131 554.086 230.84 433.805 237.281 325.687C243.723 217.569 330.457 162.557 431.007 202.813C531.557 243.07 607.848 363.351 601.406 471.469Z" fill="url(#paint13_radial_7_609)"/>
</g>
<path d="M341.838 387.036L408.979 285.699L500.507 429.551L433.366 530.888L341.838 387.036Z" stroke="white" stroke-width="1.5" stroke-linecap="round" stroke-linejoin="round"/>
<path d="M341.839 387.035L417.109 367.428L500.507 429.55L423.883 435.536L341.839 387.035Z" stroke="white" stroke-width="1.5" stroke-linecap="round" stroke-linejoin="round"/>
<path d="M657.311 524.639C652.753 601.254 619.524 658.911 569.584 690.021L569.592 690.033L621.267 657.252L621.259 657.24C671.199 626.129 704.427 568.473 708.986 491.857C718.033 339.801 610.727 170.648 469.31 114.042C398.055 85.5209 331.736 91.0149 282.312 122.938L282.309 122.933L230.634 155.715L230.637 155.719C280.061 123.796 346.38 118.302 417.635 146.824C559.052 203.429 666.358 372.582 657.311 524.639Z" fill="#021422"/>
<path d="M657.311 524.639C652.753 601.254 619.524 658.911 569.584 690.021L569.592 690.033L621.267 657.252L621.259 657.24C671.199 626.129 704.427 568.473 708.986 491.857C718.033 339.801 610.727 170.648 469.31 114.042C398.055 85.5209 331.736 91.0149 282.312 122.938L282.309 122.933L230.634 155.715L230.637 155.719C280.061 123.796 346.38 118.302 417.635 146.824C559.052 203.429 666.358 372.582 657.311 524.639Z" fill="url(#paint14_linear_7_609)"/>
<g opacity="0.75">
<path d="M1209.91 1036.03L1554.04 1234.74V1310.54L1209.91 1509.25L865.771 1310.54L865.771 1234.74L1209.91 1036.03Z" fill="url(#paint15_linear_7_609)"/>
<path opacity="0.75" d="M1209.91 1433.45L1554.04 1234.74L1209.91 1036.03L865.771 1234.74L1209.91 1433.45Z" fill="url(#paint16_linear_7_609)"/>
<path opacity="0.5" d="M1209.91 1317.53L1554.04 1118.82L1209.91 920.108L865.771 1118.82L1209.91 1317.53Z" fill="url(#paint17_linear_7_609)"/>
<path d="M1211.35 1508.07L1209.91 1508.9L865.771 1310.19L865.771 1235.57L867.21 1234.74L1211.35 1433.45V1508.07Z" fill="url(#paint18_linear_7_609)"/>
</g>
<path d="M1415.1 944.479C1406.04 1096.53 1284.06 1173.9 1142.65 1117.29C1001.24 1060.67 893.944 891.509 903.003 739.454C912.062 587.398 1034.04 510.029 1175.46 566.646C1316.87 623.262 1424.16 792.424 1415.1 944.479Z" fill="#021425"/>
<path d="M1415.1 944.479C1406.04 1096.53 1284.06 1173.9 1142.65 1117.29C1001.24 1060.67 893.944 891.509 903.003 739.454C912.062 587.398 1034.04 510.029 1175.46 566.646C1316.87 623.262 1424.16 792.424 1415.1 944.479Z" fill="url(#paint19_radial_7_609)"/>
<path d="M1415.1 944.479C1406.04 1096.53 1284.06 1173.9 1142.65 1117.29C1001.24 1060.67 893.944 891.509 903.003 739.454C912.062 587.398 1034.04 510.029 1175.46 566.646C1316.87 623.262 1424.16 792.424 1415.1 944.479Z" fill="url(#paint20_radial_7_609)"/>
<path d="M1415.1 944.479C1406.04 1096.53 1284.06 1173.9 1142.65 1117.29C1001.24 1060.67 893.944 891.509 903.003 739.454C912.062 587.398 1034.04 510.029 1175.46 566.646C1316.87 623.262 1424.16 792.424 1415.1 944.479Z" fill="url(#paint21_radial_7_609)" fill-opacity="0.5"/>
<g opacity="0.75">
<path d="M1358.5 891.675C1352.06 999.793 1265.33 1054.81 1164.78 1014.55C1064.23 974.292 987.937 854.011 994.378 745.893C1000.82 637.775 1087.55 582.763 1188.1 623.019C1288.65 663.276 1364.94 783.557 1358.5 891.675Z" fill="url(#paint22_radial_7_609)"/>
<path d="M1358.5 891.675C1352.06 999.793 1265.33 1054.81 1164.78 1014.55C1064.23 974.292 987.937 854.011 994.378 745.893C1000.82 637.775 1087.55 582.763 1188.1 623.019C1288.65 663.276 1364.94 783.557 1358.5 891.675Z" fill="url(#paint23_radial_7_609)"/>
</g>
<path d="M1202.84 891.03L1205.99 922.685M1118.81 744.263L1200.45 767.289C1208.57 769.579 1216.69 775.11 1223.02 782.666C1229.36 790.222 1233.38 799.183 1234.22 807.579C1235.05 815.974 1232.63 823.116 1227.48 827.433C1222.33 831.75 1214.87 832.889 1206.75 830.599C1214.87 832.889 1222.99 838.42 1229.32 845.976C1235.65 853.532 1239.68 862.493 1240.51 870.888C1241.35 879.284 1238.92 886.425 1233.77 890.743C1228.62 895.06 1221.17 896.198 1213.05 893.908L1131.4 870.882L1118.81 744.263ZM1139.22 750.019L1151.81 876.639L1139.22 750.019ZM1145.52 813.329L1206.75 830.599L1145.52 813.329ZM1146.28 721.243L1149.42 752.898L1146.28 721.243ZM1187.1 732.756L1190.25 764.411L1187.1 732.756ZM1162.02 879.517L1165.17 911.172L1162.02 879.517Z" stroke="white" stroke-width="1.5" stroke-linecap="round" stroke-linejoin="round"/>
<path d="M1414.41 944.845C1409.85 1021.46 1376.62 1079.12 1326.68 1110.23L1326.69 1110.24L1378.36 1077.46L1378.36 1077.45C1428.3 1046.34 1461.52 988.679 1466.08 912.063C1475.13 760.007 1367.82 590.854 1226.41 534.248C1155.15 505.727 1088.83 511.221 1039.41 543.144L1039.41 543.139L987.73 575.921L987.734 575.925C1037.16 544.002 1103.48 538.508 1174.73 567.03C1316.15 623.635 1423.45 792.788 1414.41 944.845Z" fill="#021422"/>
<path d="M1414.41 944.845C1409.85 1021.46 1376.62 1079.12 1326.68 1110.23L1326.69 1110.24L1378.36 1077.46L1378.36 1077.45C1428.3 1046.34 1461.52 988.679 1466.08 912.063C1475.13 760.007 1367.82 590.854 1226.41 534.248C1155.15 505.727 1088.83 511.221 1039.41 543.144L1039.41 543.139L987.73 575.921L987.734 575.925C1037.16 544.002 1103.48 538.508 1174.73 567.03C1316.15 623.635 1423.45 792.788 1414.41 944.845Z" fill="url(#paint24_linear_7_609)"/>
<path d="M443.753 970.823L546.994 1030.43V1149.66L443.753 1209.27L340.513 1149.66V1030.43L443.753 970.823Z" fill="url(#paint25_linear_7_609)"/>
<g opacity="0.5" filter="url(#filter1_d_7_609)">
<path d="M443.753 1209.27L546.994 1149.66L443.753 1090.04L340.513 1149.66L443.753 1209.27Z" fill="url(#paint26_linear_7_609)" shape-rendering="crispEdges"/>
</g>
<path d="M443.753 1090.05L546.994 1030.43L443.753 970.823L340.513 1030.43L443.753 1090.05Z" fill="url(#paint27_linear_7_609)"/>
<path d="M444.185 1209.02L443.753 1209.27L340.513 1149.66V1030.68L340.945 1030.43L444.185 1090.04V1209.02Z" fill="url(#paint28_linear_7_609)"/>
<g filter="url(#filter2_dd_7_609)">
<path d="M482.926 986.449C460.291 1009.08 423.593 1009.08 400.958 986.449C378.324 963.814 378.324 927.116 400.958 904.482C423.593 881.847 460.291 881.847 482.926 904.482C505.56 927.116 505.56 963.814 482.926 986.449Z" fill="url(#paint29_radial_7_609)"/>
<path d="M482.926 986.449C460.291 1009.08 423.593 1009.08 400.958 986.449C378.324 963.814 378.324 927.116 400.958 904.482C423.593 881.847 460.291 881.847 482.926 904.482C505.56 927.116 505.56 963.814 482.926 986.449Z" fill="url(#paint30_radial_7_609)"/>
</g>
<path d="M1344.88 246.328L1411.03 284.523V360.914L1344.88 399.109L1278.73 360.914V284.523L1344.88 246.328Z" fill="url(#paint31_linear_7_609)"/>
<g opacity="0.5" filter="url(#filter3_d_7_609)">
<path d="M1344.88 399.108L1411.03 360.913L1344.88 322.718L1278.73 360.913L1344.88 399.108Z" fill="url(#paint32_linear_7_609)" shape-rendering="crispEdges"/>
</g>
<path d="M1344.88 322.719L1411.03 284.523L1344.88 246.328L1278.73 284.523L1344.88 322.719Z" fill="url(#paint33_linear_7_609)"/>
<path d="M1345.16 398.948L1344.88 399.108L1278.73 360.913V284.683L1279.01 284.523L1345.16 322.718V398.948Z" fill="url(#paint34_linear_7_609)"/>
<path d="M1083.12 1184.55L1126.59 1209.65V1259.85L1083.12 1284.95L1039.65 1259.85V1209.65L1083.12 1184.55Z" fill="url(#paint35_linear_7_609)"/>
<g opacity="0.5" filter="url(#filter4_d_7_609)">
<path d="M1083.12 1284.95L1126.59 1259.85L1083.12 1234.75L1039.65 1259.85L1083.12 1284.95Z" fill="url(#paint36_linear_7_609)" shape-rendering="crispEdges"/>
</g>
<path d="M1083.12 1234.75L1126.59 1209.65L1083.12 1184.55L1039.65 1209.65L1083.12 1234.75Z" fill="url(#paint37_linear_7_609)"/>
<path d="M1083.3 1284.84L1083.12 1284.95L1039.65 1259.85V1209.75L1039.83 1209.65L1083.3 1234.75V1284.84Z" fill="url(#paint38_linear_7_609)"/>
<defs>
<filter id="filter0_f_7_609" x="660.515" y="113.522" width="608.557" height="1192.9" filterUnits="userSpaceOnUse" color-interpolation-filters="sRGB">
<feFlood flood-opacity="0" result="BackgroundImageFix"/>
<feBlend mode="normal" in="SourceGraphic" in2="BackgroundImageFix" result="shape"/>
<feGaussianBlur stdDeviation="17.5" result="effect1_foregroundBlur_7_609"/>
</filter>
<filter id="filter1_d_7_609" x="190.513" y="1015.04" width="506.481" height="419.223" filterUnits="userSpaceOnUse" color-interpolation-filters="sRGB">
<feFlood flood-opacity="0" result="BackgroundImageFix"/>
<feColorMatrix in="SourceAlpha" type="matrix" values="0 0 0 0 0 0 0 0 0 0 0 0 0 0 0 0 0 0 127 0" result="hardAlpha"/>
<feOffset dy="75"/>
<feGaussianBlur stdDeviation="75"/>
<feComposite in2="hardAlpha" operator="out"/>
<feColorMatrix type="matrix" values="0 0 0 0 0.3125 0 0 0 0 0.67 0 0 0 0 1 0 0 0 1 0"/>
<feBlend mode="normal" in2="BackgroundImageFix" result="effect1_dropShadow_7_609"/>
<feBlend mode="normal" in="SourceGraphic" in2="effect1_dropShadow_7_609" result="shape"/>
</filter>
<filter id="filter2_dd_7_609" x="320.982" y="819.506" width="229.919" height="233.919" filterUnits="userSpaceOnUse" color-interpolation-filters="sRGB">
<feFlood flood-opacity="0" result="BackgroundImageFix"/>
<feColorMatrix in="SourceAlpha" type="matrix" values="0 0 0 0 0 0 0 0 0 0 0 0 0 0 0 0 0 0 127 0" result="hardAlpha"/>
<feOffset dx="-20" dy="7"/>
<feGaussianBlur stdDeviation="21.5"/>
<feComposite in2="hardAlpha" operator="out"/>
<feColorMatrix type="matrix" values="0 0 0 0 0 0 0 0 0 0.928 0 0 0 0 1 0 0 0 1 0"/>
<feBlend mode="normal" in2="BackgroundImageFix" result="effect1_dropShadow_7_609"/>
<feColorMatrix in="SourceAlpha" type="matrix" values="0 0 0 0 0 0 0 0 0 0 0 0 0 0 0 0 0 0 127 0" result="hardAlpha"/>
<feOffset dx="4" dy="-21"/>
<feGaussianBlur stdDeviation="23.5"/>
<feComposite in2="hardAlpha" operator="out"/>
<feColorMatrix type="matrix" values="0 0 0 0 0.230903 0 0 0 0 0.354271 0 0 0 0 0.791667 0 0 0 1 0"/>
<feBlend mode="normal" in2="effect1_dropShadow_7_609" result="effect2_dropShadow_7_609"/>
<feBlend mode="normal" in="SourceGraphic" in2="effect2_dropShadow_7_609" result="shape"/>
</filter>
<filter id="filter3_d_7_609" x="1128.73" y="247.718" width="432.299" height="376.39" filterUnits="userSpaceOnUse" color-interpolation-filters="sRGB">
<feFlood flood-opacity="0" result="BackgroundImageFix"/>
<feColorMatrix in="SourceAlpha" type="matrix" values="0 0 0 0 0 0 0 0 0 0 0 0 0 0 0 0 0 0 127 0" result="hardAlpha"/>
<feOffset dy="75"/>
<feGaussianBlur stdDeviation="75"/>
<feComposite in2="hardAlpha" operator="out"/>
<feColorMatrix type="matrix" values="0 0 0 0 0.3125 0 0 0 0 0.67 0 0 0 0 1 0 0 0 1 0"/>
<feBlend mode="normal" in2="BackgroundImageFix" result="effect1_dropShadow_7_609"/>
<feBlend mode="normal" in="SourceGraphic" in2="effect1_dropShadow_7_609" result="shape"/>
</filter>
<filter id="filter4_d_7_609" x="889.649" y="1159.75" width="386.939" height="350.199" filterUnits="userSpaceOnUse" color-interpolation-filters="sRGB">
<feFlood flood-opacity="0" result="BackgroundImageFix"/>
<feColorMatrix in="SourceAlpha" type="matrix" values="0 0 0 0 0 0 0 0 0 0 0 0 0 0 0 0 0 0 127 0" result="hardAlpha"/>
<feOffset dy="75"/>
<feGaussianBlur stdDeviation="75"/>
<feComposite in2="hardAlpha" operator="out"/>
<feColorMatrix type="matrix" values="0 0 0 0 0.3125 0 0 0 0 0.67 0 0 0 0 1 0 0 0 1 0"/>
<feBlend mode="normal" in2="BackgroundImageFix" result="effect1_dropShadow_7_609"/>
<feBlend mode="normal" in="SourceGraphic" in2="effect1_dropShadow_7_609" result="shape"/>
</filter>
<linearGradient id="paint0_linear_7_609" x1="1.17536e-05" y1="1103.04" x2="735.362" y2="748.041" gradientUnits="userSpaceOnUse">
<stop stop-color="#50C0FF" stop-opacity="0.5"/>
<stop offset="1" stop-color="#000B1B"/>
</linearGradient>
<linearGradient id="paint1_linear_7_609" x1="697.011" y1="1189.99" x2="698.993" y2="365.786" gradientUnits="userSpaceOnUse">
<stop stop-color="#0047FF" stop-opacity="0"/>
<stop offset="1" stop-color="#305DFF" stop-opacity="0.76"/>
</linearGradient>
<linearGradient id="paint2_linear_7_609" x1="876.53" y1="1189.99" x2="878.512" y2="365.786" gradientUnits="userSpaceOnUse">
<stop stop-color="#00A3FF" stop-opacity="0"/>
<stop offset="1" stop-color="#30CDFF" stop-opacity="0.76"/>
</linearGradient>
<linearGradient id="paint3_linear_7_609" x1="610.387" y1="365.87" x2="965.556" y2="566.622" gradientUnits="userSpaceOnUse">
<stop stop-color="#28C7FF" stop-opacity="0.643178"/>
<stop offset="1" stop-color="#00A3FF" stop-opacity="0"/>
</linearGradient>
<linearGradient id="paint4_linear_7_609" x1="700.948" y1="594.086" x2="1056.12" y2="794.837" gradientUnits="userSpaceOnUse">
<stop stop-color="#00A3FF" stop-opacity="0"/>
<stop offset="1" stop-color="#28C7FF" stop-opacity="0.643178"/>
</linearGradient>
<linearGradient id="paint5_linear_7_609" x1="796.943" y1="1211.95" x2="110.107" y2="814.542" gradientUnits="userSpaceOnUse">
<stop stop-color="#5076FF" stop-opacity="0.25"/>
<stop offset="1" stop-color="#455FE4" stop-opacity="0"/>
</linearGradient>
<linearGradient id="paint6_linear_7_609" x1="108.674" y1="814.53" x2="796.944" y2="815.057" gradientUnits="userSpaceOnUse">
<stop stop-color="#50C0FF" stop-opacity="0.9"/>
<stop offset="1" stop-color="#000B1B" stop-opacity="0.57"/>
</linearGradient>
<linearGradient id="paint7_linear_7_609" x1="108.674" y1="698.611" x2="249.95" y2="541.56" gradientUnits="userSpaceOnUse">
<stop stop-color="#50C0FF" stop-opacity="0.9"/>
<stop offset="1" stop-color="#000B1B" stop-opacity="0.57"/>
</linearGradient>
<linearGradient id="paint8_linear_7_609" x1="110.839" y1="878.959" x2="639.995" y2="1136.81" gradientUnits="userSpaceOnUse">
<stop stop-color="#30CDFF" stop-opacity="0.76"/>
<stop offset="1" stop-color="#00A3FF" stop-opacity="0"/>
</linearGradient>
<radialGradient id="paint9_radial_7_609" cx="0" cy="0" r="1" gradientUnits="userSpaceOnUse" gradientTransform="translate(425.909 19.7294) rotate(93.4094) scale(472.218 448.051)">
<stop stop-color="#133A74"/>
<stop offset="1" stop-color="#134974" stop-opacity="0"/>
</radialGradient>
<radialGradient id="paint10_radial_7_609" cx="0" cy="0" r="1" gradientUnits="userSpaceOnUse" gradientTransform="translate(403.573 394.645) rotate(93.4094) scale(302.972 287.466)">
<stop stop-color="#2A6AAC" stop-opacity="0"/>
<stop offset="0.75" stop-color="#4441CB" stop-opacity="0"/>
<stop offset="1" stop-color="#2A6AAC"/>
</radialGradient>
<radialGradient id="paint11_radial_7_609" cx="0" cy="0" r="1" gradientUnits="userSpaceOnUse" gradientTransform="translate(402.734 408.724) rotate(93.4094) scale(288.868 274.084)">
<stop stop-color="white" stop-opacity="0"/>
<stop offset="0.929818" stop-color="#3E9DFF" stop-opacity="0"/>
<stop offset="1" stop-color="#3E9DFF"/>
</radialGradient>
<radialGradient id="paint12_radial_7_609" cx="0" cy="0" r="1" gradientUnits="userSpaceOnUse" gradientTransform="translate(436.375 112.717) rotate(94.4753) scale(407.104 386.269)">
<stop stop-color="#1D88D5"/>
<stop offset="1" stop-color="#133A74" stop-opacity="0.41"/>
</radialGradient>
<radialGradient id="paint13_radial_7_609" cx="0" cy="0" r="1" gradientUnits="userSpaceOnUse" gradientTransform="translate(417.208 412.387) rotate(91.322) scale(234.046 222.068)">
<stop stop-color="#2A6AAC" stop-opacity="0"/>
<stop offset="0.75" stop-color="#4441CB" stop-opacity="0"/>
<stop offset="1" stop-color="#2A6AAC"/>
</radialGradient>
<linearGradient id="paint14_linear_7_609" x1="653.604" y1="638.955" x2="288.23" y2="102.593" gradientUnits="userSpaceOnUse">
<stop stop-color="#50C0FF"/>
<stop offset="0.807292" stop-color="#4982EE" stop-opacity="0"/>
<stop offset="0.864583" stop-color="#4877EB" stop-opacity="0.282239"/>
<stop offset="1" stop-color="#455FE4" stop-opacity="0.25"/>
</linearGradient>
<linearGradient id="paint15_linear_7_609" x1="1554.04" y1="1632.16" x2="867.204" y2="1234.75" gradientUnits="userSpaceOnUse">
<stop stop-color="#5076FF" stop-opacity="0.25"/>
<stop offset="1" stop-color="#455FE4" stop-opacity="0"/>
</linearGradient>
<linearGradient id="paint16_linear_7_609" x1="865.771" y1="1234.74" x2="1554.04" y2="1235.26" gradientUnits="userSpaceOnUse">
<stop stop-color="#50C0FF" stop-opacity="0.9"/>
<stop offset="1" stop-color="#000B1B" stop-opacity="0.57"/>
</linearGradient>
<linearGradient id="paint17_linear_7_609" x1="865.771" y1="1118.82" x2="1007.05" y2="961.766" gradientUnits="userSpaceOnUse">
<stop stop-color="#50C0FF" stop-opacity="0.9"/>
<stop offset="1" stop-color="#000B1B" stop-opacity="0.57"/>
</linearGradient>
<linearGradient id="paint18_linear_7_609" x1="867.936" y1="1299.17" x2="1397.09" y2="1557.01" gradientUnits="userSpaceOnUse">
<stop stop-color="#30CDFF" stop-opacity="0.76"/>
<stop offset="1" stop-color="#00A3FF" stop-opacity="0"/>
</linearGradient>
<radialGradient id="paint19_radial_7_609" cx="0" cy="0" r="1" gradientUnits="userSpaceOnUse" gradientTransform="translate(1183.01 439.935) rotate(93.4094) scale(472.218 448.051)">
<stop stop-color="#133A74"/>
<stop offset="1" stop-color="#134974" stop-opacity="0"/>
</radialGradient>
<radialGradient id="paint20_radial_7_609" cx="0" cy="0" r="1" gradientUnits="userSpaceOnUse" gradientTransform="translate(1160.67 814.851) rotate(93.4094) scale(302.972 287.466)">
<stop stop-color="#2A6AAC" stop-opacity="0"/>
<stop offset="0.75" stop-color="#4441CB" stop-opacity="0"/>
<stop offset="1" stop-color="#2A6AAC"/>
</radialGradient>
<radialGradient id="paint21_radial_7_609" cx="0" cy="0" r="1" gradientUnits="userSpaceOnUse" gradientTransform="translate(1159.83 828.93) rotate(93.4094) scale(288.868 274.084)">
<stop stop-color="white" stop-opacity="0"/>
<stop offset="0.929818" stop-color="#3E9DFF" stop-opacity="0"/>
<stop offset="1" stop-color="#3E9DFF"/>
</radialGradient>
<radialGradient id="paint22_radial_7_609" cx="0" cy="0" r="1" gradientUnits="userSpaceOnUse" gradientTransform="translate(1193.47 532.923) rotate(94.4753) scale(407.104 386.269)">
<stop stop-color="#1D88D5"/>
<stop offset="1" stop-color="#133A74" stop-opacity="0.41"/>
</radialGradient>
<radialGradient id="paint23_radial_7_609" cx="0" cy="0" r="1" gradientUnits="userSpaceOnUse" gradientTransform="translate(1174.3 832.594) rotate(91.322) scale(234.046 222.068)">
<stop stop-color="#2A6AAC" stop-opacity="0"/>
<stop offset="0.75" stop-color="#4441CB" stop-opacity="0"/>
<stop offset="1" stop-color="#2A6AAC"/>
</radialGradient>
<linearGradient id="paint24_linear_7_609" x1="1410.7" y1="1059.16" x2="1045.33" y2="522.799" gradientUnits="userSpaceOnUse">
<stop stop-color="#50C0FF"/>
<stop offset="0.807292" stop-color="#4982EE" stop-opacity="0"/>
<stop offset="0.864583" stop-color="#4877EB" stop-opacity="0.282239"/>
<stop offset="1" stop-color="#455FE4" stop-opacity="0.25"/>
</linearGradient>
<linearGradient id="paint25_linear_7_609" x1="546.994" y1="1149.66" x2="340.945" y2="1030.43" gradientUnits="userSpaceOnUse">
<stop stop-color="#5076FF" stop-opacity="0.25"/>
<stop offset="1" stop-color="#455FE4" stop-opacity="0"/>
</linearGradient>
<linearGradient id="paint26_linear_7_609" x1="340.513" y1="1149.66" x2="546.994" y2="1149.66" gradientUnits="userSpaceOnUse">
<stop stop-color="#50C0FF" stop-opacity="0.5"/>
<stop offset="1" stop-color="#133A74" stop-opacity="0"/>
</linearGradient>
<linearGradient id="paint27_linear_7_609" x1="340.513" y1="1030.43" x2="546.994" y2="1030.43" gradientUnits="userSpaceOnUse">
<stop stop-color="#50C0FF" stop-opacity="0.5"/>
<stop offset="1" stop-color="#000B1B" stop-opacity="0.57"/>
</linearGradient>
<linearGradient id="paint28_linear_7_609" x1="340.513" y1="1147.93" x2="443.753" y2="1090.05" gradientUnits="userSpaceOnUse">
<stop stop-color="#30CDFF" stop-opacity="0.76"/>
<stop offset="1" stop-color="#00A3FF" stop-opacity="0"/>
</linearGradient>
<radialGradient id="paint29_radial_7_609" cx="0" cy="0" r="1" gradientUnits="userSpaceOnUse" gradientTransform="translate(469.041 918.367) rotate(135) scale(96.2833)">
<stop stop-color="white" stop-opacity="0"/>
<stop offset="0.668121" stop-color="#3E9DFF" stop-opacity="0"/>
<stop offset="1" stop-color="#3E9DFF" stop-opacity="0.43"/>
</radialGradient>
<radialGradient id="paint30_radial_7_609" cx="0" cy="0" r="1" gradientUnits="userSpaceOnUse" gradientTransform="translate(390.765 973.829) rotate(-29.9927) scale(106.077)">
<stop stop-color="white"/>
<stop offset="0.463542" stop-color="#72DDFF"/>
<stop offset="0.733683" stop-color="#50C0FF"/>
<stop offset="1" stop-color="#0E67BA"/>
</radialGradient>
<linearGradient id="paint31_linear_7_609" x1="1411.03" y1="360.914" x2="1279.01" y2="284.523" gradientUnits="userSpaceOnUse">
<stop stop-color="#5076FF" stop-opacity="0.25"/>
<stop offset="1" stop-color="#455FE4" stop-opacity="0"/>
</linearGradient>
<linearGradient id="paint32_linear_7_609" x1="1278.73" y1="360.913" x2="1411.03" y2="360.913" gradientUnits="userSpaceOnUse">
<stop stop-color="#50C0FF" stop-opacity="0.5"/>
<stop offset="1" stop-color="#133A74" stop-opacity="0"/>
</linearGradient>
<linearGradient id="paint33_linear_7_609" x1="1278.73" y1="284.523" x2="1411.03" y2="284.523" gradientUnits="userSpaceOnUse">
<stop stop-color="#50C0FF" stop-opacity="0.5"/>
<stop offset="1" stop-color="#000B1B" stop-opacity="0.57"/>
</linearGradient>
<linearGradient id="paint34_linear_7_609" x1="1278.73" y1="359.806" x2="1344.88" y2="322.718" gradientUnits="userSpaceOnUse">
<stop stop-color="#30CDFF" stop-opacity="0.76"/>
<stop offset="1" stop-color="#00A3FF" stop-opacity="0"/>
</linearGradient>
<linearGradient id="paint35_linear_7_609" x1="1126.59" y1="1259.85" x2="1039.83" y2="1209.65" gradientUnits="userSpaceOnUse">
<stop stop-color="#5076FF" stop-opacity="0.25"/>
<stop offset="1" stop-color="#455FE4" stop-opacity="0"/>
</linearGradient>
<linearGradient id="paint36_linear_7_609" x1="1039.65" y1="1259.85" x2="1126.59" y2="1259.85" gradientUnits="userSpaceOnUse">
<stop stop-color="#50C0FF" stop-opacity="0.5"/>
<stop offset="1" stop-color="#133A74" stop-opacity="0"/>
</linearGradient>
<linearGradient id="paint37_linear_7_609" x1="1039.65" y1="1209.65" x2="1126.59" y2="1209.65" gradientUnits="userSpaceOnUse">
<stop stop-color="#50C0FF" stop-opacity="0.5"/>
<stop offset="1" stop-color="#000B1B" stop-opacity="0.57"/>
</linearGradient>
<linearGradient id="paint38_linear_7_609" x1="1039.65" y1="1259.12" x2="1083.12" y2="1234.75" gradientUnits="userSpaceOnUse">
<stop stop-color="#30CDFF" stop-opacity="0.76"/>
<stop offset="1" stop-color="#00A3FF" stop-opacity="0"/>
</linearGradient>
</defs>
</svg>
