<svg width="1548" height="1556" viewBox="0 0 1548 1556" fill="none" xmlns="http://www.w3.org/2000/svg">
<path opacity="0.25" d="M773.509 1555.25L1547.02 1059.85L773.509 564.462L0 1059.85L773.509 1555.25Z" fill="url(#paint0_linear_7_158)"/>
<path fill-rule="evenodd" clip-rule="evenodd" d="M538.235 56.2084L543.08 53.3259V172.506L562.461 160.975V389.924L543.08 401.454V520.632L538.235 523.514V404.337L518.856 415.866V186.918L538.235 175.388V56.2084ZM116.72 470.071L121.565 467.188V586.367L140.945 574.837V803.786L121.565 815.316V934.494L116.72 937.377V818.198L97.3403 829.728V600.779L116.72 589.249V470.071ZM191.817 610.433L211.197 598.903V934.485L191.817 946.015V1011.88L186.972 1014.76V948.898L167.592 960.428V624.845L186.972 613.316V547.454L191.817 544.571V610.433ZM262.071 687.816L281.451 676.286V792.329L262.071 803.859V913.628L257.226 916.51V806.741L237.846 818.271V702.228L257.226 690.699V449.204L262.071 446.322V687.816ZM332.323 614.657L351.703 603.128V650.172L332.323 661.702V815.379L327.478 818.262V664.584L308.098 676.114V629.07L327.478 617.54V350.956L332.323 348.073V614.657ZM402.575 481.909L421.955 470.379V580.149L402.575 591.679V864.536L397.73 867.418V594.562L378.35 606.091V496.321L397.73 484.792V400.112L402.575 397.23V481.909ZM472.829 358.842L492.207 347.313V450.263L472.829 461.792V515.384L467.984 518.267V464.675L448.602 476.206V373.255L467.984 361.725V308.136L472.829 305.253V358.842ZM613.333 189.099L632.713 177.569V289.739L613.333 301.269V359.658L608.488 362.541V304.151L589.108 315.681V203.511L608.488 191.982V133.592L613.333 130.71V189.099Z" fill="url(#paint1_linear_7_158)"/>
<path d="M1187.21 15.1836L1317.57 90.4582V828.434L1187.21 903.709L1056.84 828.434L1056.84 90.4582L1187.21 15.1836Z" fill="url(#paint2_linear_7_158)"/>
<path d="M1187.21 165.733L1317.57 90.4582L1187.21 15.1836L1056.84 90.4582L1187.21 165.733Z" fill="url(#paint3_linear_7_158)"/>
<path opacity="0.19" d="M1187.75 903.261L1187.21 903.576L1056.84 828.301L1056.84 90.7734L1057.38 90.4585L1187.75 165.733V903.261Z" fill="url(#paint4_linear_7_158)"/>
<path d="M982.096 216.817L1112.46 292.092V946.633L982.096 1021.91L851.729 946.633L851.729 292.092L982.096 216.817Z" fill="url(#paint5_linear_7_158)"/>
<path opacity="0.8" d="M982.096 367.367L1112.46 292.092L982.096 216.817L851.729 292.092L982.096 367.367Z" fill="url(#paint6_linear_7_158)"/>
<path opacity="0.25" d="M982.641 1021.46L982.096 1021.78L851.729 946.5L851.729 292.407L852.274 292.092L982.641 367.367V1021.46Z" fill="url(#paint7_linear_7_158)"/>
<path d="M776.986 418.451L907.353 493.726V1064.83L776.986 1140.11L646.619 1064.83L646.619 493.726L776.986 418.451Z" fill="url(#paint8_linear_7_158)"/>
<path opacity="0.6" d="M776.986 569L907.353 493.726L776.986 418.451L646.619 493.726L776.986 569Z" fill="url(#paint9_linear_7_158)"/>
<g filter="url(#filter0_dd_7_158)">
<path d="M830.346 449.215C801.836 477.725 755.611 477.725 727.101 449.215C698.591 420.705 698.591 374.48 727.101 345.97C755.611 317.46 801.836 317.46 830.346 345.97C858.857 374.48 858.857 420.705 830.346 449.215Z" fill="url(#paint10_radial_7_158)"/>
<path d="M830.346 449.215C801.836 477.725 755.611 477.725 727.101 449.215C698.591 420.705 698.591 374.48 727.101 345.97C755.611 317.46 801.836 317.46 830.346 345.97C858.857 374.48 858.857 420.705 830.346 449.215Z" fill="url(#paint11_radial_7_158)"/>
</g>
<path opacity="0.5" d="M777.531 1139.66L776.986 1139.97L646.619 1064.7L646.619 494.041L647.164 493.726L777.531 569.001V1139.66Z" fill="url(#paint12_linear_7_158)"/>
<path d="M571.875 620.085L702.242 695.36V1183.03L571.875 1258.31L441.508 1183.03L441.508 695.36L571.875 620.085Z" fill="url(#paint13_linear_7_158)"/>
<path opacity="0.5" d="M571.875 770.634L702.242 695.36L571.875 620.085L441.508 695.36L571.875 770.634Z" fill="url(#paint14_linear_7_158)"/>
<path opacity="0.75" d="M572.421 1257.86L571.875 1258.17L441.508 1182.9L441.508 695.675L442.054 695.36L572.421 770.635V1257.86Z" fill="url(#paint15_linear_7_158)"/>
<path d="M366.765 822.456L497.132 897.731V1301.97L366.765 1377.24L236.398 1301.97L236.398 897.731L366.765 822.456Z" fill="url(#paint16_linear_7_158)"/>
<path opacity="0.25" d="M366.765 973.005L497.132 897.731L366.765 822.456L236.398 897.731L366.765 973.005Z" fill="url(#paint17_linear_7_158)"/>
<path d="M367.311 1376.79L366.765 1377.11L236.398 1301.84L236.398 898.046L236.944 897.731L367.311 973.006V1376.79Z" fill="url(#paint18_linear_7_158)"/>
<g filter="url(#filter1_b_7_158)">
<path d="M874.537 876.712C874.506 826.125 872.476 783.868 844.013 777.207C838.162 775.681 827.224 774.154 813.488 780.259L1066.84 631.449C1072.69 628.906 1088.52 629.16 1098.9 632.213C1115.68 637.15 1127.68 648.076 1127.89 731.264L1127.89 731.265V732.241C1127.89 732.475 1127.89 732.71 1127.89 732.946V1028.28C1127.89 1056.36 1168.59 1071.77 1188.94 1075.59C1164.78 1090.6 1078.29 1144.88 925.667 1241.95C883.542 1228.52 874.029 1190.57 874.538 1173.27V877.94C874.538 877.53 874.538 877.121 874.537 876.712Z" fill="url(#paint19_linear_7_158)"/>
</g>
<path d="M1080.24 796.48L940.176 879.812C937.925 881.151 935.765 883.476 934.173 886.276C932.581 889.076 931.687 892.12 931.687 894.74V1057.72C931.687 1060.34 932.581 1062.32 934.173 1063.23C935.765 1064.13 937.925 1063.89 940.176 1062.55L1080.24 979.218C1082.5 977.878 1084.65 975.553 1086.25 972.753C1087.84 969.954 1088.73 966.909 1088.73 964.289V801.307C1088.73 798.688 1087.84 796.707 1086.25 795.802C1084.65 794.897 1082.5 795.141 1080.24 796.48V796.48Z" stroke="#B3E2FC" stroke-width="1.5" stroke-linejoin="round"/>
<path d="M978.564 1060.44L1001.57 990.68L1007.42 1002.43L1022.17 946.113L1029.57 953.085L1040.25 919.262L1045.03 923.476L1093.63 827.187M973.819 922.911L966.531 927.246M973.819 922.911V946.844L987.397 938.766C990.125 937.143 992.741 934.326 994.669 930.935C996.598 927.543 997.681 923.855 997.681 920.681C997.681 917.507 996.598 915.108 994.669 914.011C992.741 912.914 990.125 913.21 987.397 914.832L973.819 922.911Z" stroke="#B3E2FC" stroke-width="1.5" stroke-linejoin="round"/>
<path d="M985.597 907.261V915.114M973.819 946.845V972.355L988.293 963.744C989.75 962.91 991.199 961.743 992.554 960.311C993.909 958.878 995.143 957.21 996.184 955.403C997.225 953.596 998.052 951.687 998.617 949.787C999.181 947.887 999.472 946.035 999.472 944.338C999.472 942.642 999.181 941.135 998.617 939.907C998.052 938.679 997.225 937.754 996.184 937.185C995.143 936.617 993.909 936.417 992.554 936.597C991.199 936.777 989.75 937.334 988.293 938.234L973.819 946.845ZM973.819 972.34L966.531 976.676L973.819 972.34ZM973.802 972.508V980.356V972.508ZM985.597 965.49V973.338V965.49ZM973.802 914.279V922.132V914.279Z" stroke="#B3E2FC" stroke-width="1.5" stroke-linejoin="round"/>
<path d="M1076.33 1065.77C1081.82 1157.98 1155.79 1204.89 1241.54 1170.56C1327.29 1136.23 1392.35 1033.65 1386.86 941.443C1381.37 849.237 1307.4 802.321 1221.65 836.653C1135.9 870.985 1070.83 973.564 1076.33 1065.77Z" fill="#021425"/>
<path d="M1076.33 1065.77C1081.82 1157.98 1155.79 1204.89 1241.54 1170.56C1327.29 1136.23 1392.35 1033.65 1386.86 941.443C1381.37 849.237 1307.4 802.321 1221.65 836.653C1135.9 870.985 1070.83 973.564 1076.33 1065.77Z" fill="url(#paint20_radial_7_158)"/>
<path d="M1076.33 1065.77C1081.82 1157.98 1155.79 1204.89 1241.54 1170.56C1327.29 1136.23 1392.35 1033.65 1386.86 941.443C1381.37 849.237 1307.4 802.321 1221.65 836.653C1135.9 870.985 1070.83 973.564 1076.33 1065.77Z" fill="url(#paint21_radial_7_158)"/>
<path d="M1076.33 1065.77C1081.82 1157.98 1155.79 1204.89 1241.54 1170.56C1327.29 1136.23 1392.35 1033.65 1386.86 941.443C1381.37 849.237 1307.4 802.321 1221.65 836.653C1135.9 870.985 1070.83 973.564 1076.33 1065.77Z" fill="url(#paint22_radial_7_158)" fill-opacity="0.5"/>
<g opacity="0.75">
<path d="M1108.86 1032.39C1112.76 1097.95 1165.36 1131.31 1226.33 1106.9C1287.3 1082.49 1333.56 1009.55 1329.66 943.986C1325.75 878.423 1273.16 845.064 1212.18 869.475C1151.21 893.887 1104.95 966.825 1108.86 1032.39Z" fill="url(#paint23_radial_7_158)"/>
<path d="M1108.86 1032.39C1112.76 1097.95 1165.36 1131.31 1226.33 1106.9C1287.3 1082.49 1333.56 1009.55 1329.66 943.986C1325.75 878.423 1273.16 845.064 1212.18 869.475C1151.21 893.887 1104.95 966.825 1108.86 1032.39Z" fill="url(#paint24_radial_7_158)"/>
</g>
<path d="M1076.75 1065.99C1079.51 1112.45 1099.66 1147.41 1129.95 1166.28L1129.94 1166.29L1098.61 1146.41L1098.61 1146.4C1068.33 1127.54 1048.18 1092.57 1045.42 1046.11C1039.93 953.907 1105 851.333 1190.75 817.007C1233.96 799.712 1274.18 803.044 1304.15 822.402L1304.15 822.399L1335.48 842.277L1335.48 842.28C1305.51 822.922 1265.3 819.591 1222.09 836.886C1136.33 871.211 1071.26 973.786 1076.75 1065.99Z" fill="#011321"/>
<path d="M1076.75 1065.99C1079.51 1112.45 1099.66 1147.41 1129.95 1166.28L1129.94 1166.29L1098.61 1146.41L1098.61 1146.4C1068.33 1127.54 1048.18 1092.57 1045.42 1046.11C1039.93 953.907 1105 851.333 1190.75 817.007C1233.96 799.712 1274.18 803.044 1304.15 822.402L1304.15 822.399L1335.48 842.277L1335.48 842.28C1305.51 822.922 1265.3 819.591 1222.09 836.886C1136.33 871.211 1071.26 973.786 1076.75 1065.99Z" fill="url(#paint25_linear_7_158)"/>
<g filter="url(#filter2_f_7_158)">
<path opacity="0.25" d="M149.488 1092.96L150.842 1093.74L474.339 907.733V78.5378L472.986 77.7595L149.488 263.768V1092.96Z" fill="url(#paint26_linear_7_158)"/>
<path opacity="0.25" d="M311.914 1092.96L313.267 1093.74L636.765 907.733V78.5378L635.411 77.7595L311.914 263.768V1092.96Z" fill="url(#paint27_linear_7_158)"/>
</g>
<defs>
<filter id="filter0_dd_7_158" x="642.718" y="256.587" width="260.011" height="264.011" filterUnits="userSpaceOnUse" color-interpolation-filters="sRGB">
<feFlood flood-opacity="0" result="BackgroundImageFix"/>
<feColorMatrix in="SourceAlpha" type="matrix" values="0 0 0 0 0 0 0 0 0 0 0 0 0 0 0 0 0 0 127 0" result="hardAlpha"/>
<feOffset dx="-20" dy="7"/>
<feGaussianBlur stdDeviation="21.5"/>
<feComposite in2="hardAlpha" operator="out"/>
<feColorMatrix type="matrix" values="0 0 0 0 0 0 0 0 0 0.928 0 0 0 0 1 0 0 0 1 0"/>
<feBlend mode="normal" in2="BackgroundImageFix" result="effect1_dropShadow_7_158"/>
<feColorMatrix in="SourceAlpha" type="matrix" values="0 0 0 0 0 0 0 0 0 0 0 0 0 0 0 0 0 0 127 0" result="hardAlpha"/>
<feOffset dx="4" dy="-21"/>
<feGaussianBlur stdDeviation="23.5"/>
<feComposite in2="hardAlpha" operator="out"/>
<feColorMatrix type="matrix" values="0 0 0 0 0.230903 0 0 0 0 0.354271 0 0 0 0 0.791667 0 0 0 1 0"/>
<feBlend mode="normal" in2="effect1_dropShadow_7_158" result="effect2_dropShadow_7_158"/>
<feBlend mode="normal" in="SourceGraphic" in2="effect2_dropShadow_7_158" result="shape"/>
</filter>
<filter id="filter1_b_7_158" x="792.488" y="608.715" width="417.456" height="654.236" filterUnits="userSpaceOnUse" color-interpolation-filters="sRGB">
<feFlood flood-opacity="0" result="BackgroundImageFix"/>
<feGaussianBlur in="BackgroundImage" stdDeviation="10.5"/>
<feComposite in2="SourceAlpha" operator="in" result="effect1_backgroundBlur_7_158"/>
<feBlend mode="normal" in="SourceGraphic" in2="effect1_backgroundBlur_7_158" result="shape"/>
</filter>
<filter id="filter2_f_7_158" x="114.488" y="42.7595" width="557.276" height="1085.98" filterUnits="userSpaceOnUse" color-interpolation-filters="sRGB">
<feFlood flood-opacity="0" result="BackgroundImageFix"/>
<feBlend mode="normal" in="SourceGraphic" in2="BackgroundImageFix" result="shape"/>
<feGaussianBlur stdDeviation="17.5" result="effect1_foregroundBlur_7_158"/>
</filter>
<linearGradient id="paint0_linear_7_158" x1="1.15262e-05" y1="1059.85" x2="1547.02" y2="1059.85" gradientUnits="userSpaceOnUse">
<stop stop-color="#50C0FF" stop-opacity="0.5"/>
<stop offset="1" stop-color="#000B1B" stop-opacity="0.57"/>
</linearGradient>
<linearGradient id="paint1_linear_7_158" x1="544.063" y1="73.4221" x2="623.904" y2="853.316" gradientUnits="userSpaceOnUse">
<stop stop-color="#326CA8"/>
<stop offset="1" stop-color="#326CA8" stop-opacity="0"/>
</linearGradient>
<linearGradient id="paint2_linear_7_158" x1="1317.57" y1="241.008" x2="1057.38" y2="90.4583" gradientUnits="userSpaceOnUse">
<stop stop-color="#5076FF" stop-opacity="0.25"/>
<stop offset="1" stop-color="#455FE4" stop-opacity="0"/>
</linearGradient>
<linearGradient id="paint3_linear_7_158" x1="1056.84" y1="90.4582" x2="1317.57" y2="90.4582" gradientUnits="userSpaceOnUse">
<stop stop-color="#50C0FF" stop-opacity="0.5"/>
<stop offset="1" stop-color="#000B1B" stop-opacity="0.57"/>
</linearGradient>
<linearGradient id="paint4_linear_7_158" x1="1039.46" y1="483.766" x2="1187.21" y2="165.733" gradientUnits="userSpaceOnUse">
<stop stop-color="#30CDFF" stop-opacity="0.76"/>
<stop offset="1" stop-color="#00A3FF" stop-opacity="0"/>
</linearGradient>
<linearGradient id="paint5_linear_7_158" x1="1112.46" y1="442.641" x2="852.274" y2="292.092" gradientUnits="userSpaceOnUse">
<stop stop-color="#5076FF" stop-opacity="0.25"/>
<stop offset="1" stop-color="#455FE4" stop-opacity="0"/>
</linearGradient>
<linearGradient id="paint6_linear_7_158" x1="851.729" y1="292.092" x2="1112.46" y2="292.092" gradientUnits="userSpaceOnUse">
<stop stop-color="#50C0FF" stop-opacity="0.5"/>
<stop offset="1" stop-color="#000B1B" stop-opacity="0.57"/>
</linearGradient>
<linearGradient id="paint7_linear_7_158" x1="834.347" y1="685.4" x2="982.096" y2="367.367" gradientUnits="userSpaceOnUse">
<stop stop-color="#30CDFF" stop-opacity="0.76"/>
<stop offset="1" stop-color="#00A3FF" stop-opacity="0"/>
</linearGradient>
<linearGradient id="paint8_linear_7_158" x1="907.353" y1="644.275" x2="647.164" y2="493.726" gradientUnits="userSpaceOnUse">
<stop stop-color="#5076FF" stop-opacity="0.25"/>
<stop offset="1" stop-color="#455FE4" stop-opacity="0"/>
</linearGradient>
<linearGradient id="paint9_linear_7_158" x1="646.619" y1="493.726" x2="907.353" y2="493.726" gradientUnits="userSpaceOnUse">
<stop stop-color="#50C0FF" stop-opacity="0.5"/>
<stop offset="1" stop-color="#000B1B" stop-opacity="0.57"/>
</linearGradient>
<radialGradient id="paint10_radial_7_158" cx="0" cy="0" r="1" gradientUnits="userSpaceOnUse" gradientTransform="translate(812.857 363.459) rotate(135) scale(121.278)">
<stop stop-color="white" stop-opacity="0"/>
<stop offset="0.668121" stop-color="#3E9DFF" stop-opacity="0"/>
<stop offset="1" stop-color="#3E9DFF" stop-opacity="0.43"/>
</radialGradient>
<radialGradient id="paint11_radial_7_158" cx="0" cy="0" r="1" gradientUnits="userSpaceOnUse" gradientTransform="translate(714.261 433.318) rotate(-29.9927) scale(133.614)">
<stop stop-color="white"/>
<stop offset="0.463542" stop-color="#72DDFF"/>
<stop offset="0.733683" stop-color="#50C0FF"/>
<stop offset="1" stop-color="#0E67BA"/>
</radialGradient>
<linearGradient id="paint12_linear_7_158" x1="629.236" y1="887.034" x2="776.986" y2="569.001" gradientUnits="userSpaceOnUse">
<stop stop-color="#30CDFF" stop-opacity="0.76"/>
<stop offset="1" stop-color="#00A3FF" stop-opacity="0"/>
</linearGradient>
<linearGradient id="paint13_linear_7_158" x1="702.242" y1="845.909" x2="442.054" y2="695.36" gradientUnits="userSpaceOnUse">
<stop stop-color="#5076FF" stop-opacity="0.25"/>
<stop offset="1" stop-color="#455FE4" stop-opacity="0"/>
</linearGradient>
<linearGradient id="paint14_linear_7_158" x1="441.508" y1="695.36" x2="702.242" y2="695.36" gradientUnits="userSpaceOnUse">
<stop stop-color="#50C0FF" stop-opacity="0.5"/>
<stop offset="1" stop-color="#000B1B" stop-opacity="0.57"/>
</linearGradient>
<linearGradient id="paint15_linear_7_158" x1="424.126" y1="1088.67" x2="571.876" y2="770.635" gradientUnits="userSpaceOnUse">
<stop stop-color="#30CDFF" stop-opacity="0.76"/>
<stop offset="1" stop-color="#00A3FF" stop-opacity="0"/>
</linearGradient>
<linearGradient id="paint16_linear_7_158" x1="497.132" y1="1048.28" x2="236.944" y2="897.731" gradientUnits="userSpaceOnUse">
<stop stop-color="#5076FF" stop-opacity="0.25"/>
<stop offset="1" stop-color="#455FE4" stop-opacity="0"/>
</linearGradient>
<linearGradient id="paint17_linear_7_158" x1="236.398" y1="897.731" x2="497.132" y2="897.731" gradientUnits="userSpaceOnUse">
<stop stop-color="#50C0FF" stop-opacity="0.5"/>
<stop offset="1" stop-color="#000B1B" stop-opacity="0.57"/>
</linearGradient>
<linearGradient id="paint18_linear_7_158" x1="219.016" y1="1291.04" x2="366.765" y2="973.006" gradientUnits="userSpaceOnUse">
<stop stop-color="#30CDFF" stop-opacity="0.76"/>
<stop offset="1" stop-color="#00A3FF" stop-opacity="0"/>
</linearGradient>
<linearGradient id="paint19_linear_7_158" x1="882.169" y1="731.419" x2="1120.27" y2="1116.03" gradientUnits="userSpaceOnUse">
<stop stop-color="#0F496A"/>
<stop offset="0.13715" stop-color="#519CE0"/>
<stop offset="0.308876" stop-color="#4893EC" stop-opacity="0.68"/>
<stop offset="0.876006" stop-color="#3374B0" stop-opacity="0.06"/>
<stop offset="0.984051" stop-color="#205893" stop-opacity="0.25"/>
</linearGradient>
<radialGradient id="paint20_radial_7_158" cx="0" cy="0" r="1" gradientUnits="userSpaceOnUse" gradientTransform="translate(1217.07 759.816) rotate(86.5906) scale(286.352 271.693)">
<stop stop-color="#133A74"/>
<stop offset="1" stop-color="#134974" stop-opacity="0"/>
</radialGradient>
<radialGradient id="paint21_radial_7_158" cx="0" cy="0" r="1" gradientUnits="userSpaceOnUse" gradientTransform="translate(1230.61 987.164) rotate(86.5906) scale(183.721 174.316)">
<stop stop-color="#2A6AAC" stop-opacity="0"/>
<stop offset="0.75" stop-color="#4441CB" stop-opacity="0"/>
<stop offset="1" stop-color="#2A6AAC"/>
</radialGradient>
<radialGradient id="paint22_radial_7_158" cx="0" cy="0" r="1" gradientUnits="userSpaceOnUse" gradientTransform="translate(1231.12 995.702) rotate(86.5906) scale(175.169 166.201)">
<stop stop-color="white" stop-opacity="0"/>
<stop offset="0.929818" stop-color="#3E9DFF" stop-opacity="0"/>
<stop offset="1" stop-color="#3E9DFF"/>
</radialGradient>
<radialGradient id="paint23_radial_7_158" cx="0" cy="0" r="1" gradientUnits="userSpaceOnUse" gradientTransform="translate(1208.93 814.841) rotate(85.5248) scale(246.867 234.229)">
<stop stop-color="#1D88D5"/>
<stop offset="1" stop-color="#133A74" stop-opacity="0.41"/>
</radialGradient>
<radialGradient id="paint24_radial_7_158" cx="0" cy="0" r="1" gradientUnits="userSpaceOnUse" gradientTransform="translate(1220.55 996.561) rotate(88.678) scale(141.925 134.659)">
<stop stop-color="#2A6AAC" stop-opacity="0"/>
<stop offset="0.75" stop-color="#4441CB" stop-opacity="0"/>
<stop offset="1" stop-color="#2A6AAC"/>
</radialGradient>
<linearGradient id="paint25_linear_7_158" x1="1079" y1="1135.31" x2="1300.56" y2="810.068" gradientUnits="userSpaceOnUse">
<stop stop-color="#50C0FF"/>
<stop offset="0.807292" stop-color="#4982EE" stop-opacity="0"/>
<stop offset="0.864583" stop-color="#4877EB" stop-opacity="0.282239"/>
<stop offset="1" stop-color="#455FE4" stop-opacity="0.25"/>
</linearGradient>
<linearGradient id="paint26_linear_7_158" x1="150.842" y1="1020.06" x2="152.635" y2="274.337" gradientUnits="userSpaceOnUse">
<stop stop-color="#0047FF" stop-opacity="0"/>
<stop offset="1" stop-color="#305DFF" stop-opacity="0.76"/>
</linearGradient>
<linearGradient id="paint27_linear_7_158" x1="313.267" y1="1020.06" x2="315.06" y2="274.337" gradientUnits="userSpaceOnUse">
<stop stop-color="#00A3FF" stop-opacity="0"/>
<stop offset="1" stop-color="#30CDFF" stop-opacity="0.76"/>
</linearGradient>
</defs>
</svg>
