<svg width="1920" height="1920" viewBox="0 0 1920 1920" fill="none" xmlns="http://www.w3.org/2000/svg">
<rect width="1920" height="1920" />
<path opacity="0.25" d="M960.5 1807.84L1838 1301.06L960.5 794.281L83 1301.06L960.5 1807.84Z" fill="url(#paint0_linear_11_1669)"/>
<g clip-path="url(#clip0_11_1669)">
<path d="M1430.12 483.378L1409.75 471.671V200.514L1430.12 212.221V483.378Z" fill="url(#paint1_linear_11_1669)"/>
<path d="M1447.77 202.07L1430.12 212.22V483.378L1447.77 473.227V202.07Z" fill="url(#paint2_linear_11_1669)"/>
<path d="M1447.77 202.07L1430.12 212.22L1409.75 200.513L1427.4 190.363L1447.77 202.07Z" fill="url(#paint3_radial_11_1669)"/>
<path d="M1646.82 1115.9L1626.45 1104.19V731.73L1646.82 743.437V1115.9Z" fill="url(#paint4_linear_11_1669)"/>
<path d="M1664.54 733.287L1646.82 743.437V1115.9L1664.54 1105.75V733.287Z" fill="url(#paint5_linear_11_1669)"/>
<path d="M1664.54 733.287L1646.82 743.437L1626.45 731.73L1644.11 721.58L1664.54 733.287Z" fill="url(#paint6_radial_11_1669)"/>
<path d="M693.731 542.049L673.365 530.342V280.704L693.731 292.478V542.049Z" fill="url(#paint7_linear_11_1669)"/>
<path d="M711.383 282.328L693.731 292.478V542.049L711.383 531.898V282.328Z" fill="url(#paint8_linear_11_1669)"/>
<path d="M711.382 282.327L693.731 292.478L673.365 280.703L691.016 270.553L711.382 282.327Z" fill="url(#paint9_radial_11_1669)"/>
<path d="M276.895 1056.75L256.528 1044.98V748.31L276.895 760.017V1056.75Z" fill="url(#paint10_linear_11_1669)"/>
<path d="M294.546 749.866L276.895 760.016V1056.75L294.546 1046.6V749.866Z" fill="url(#paint11_linear_11_1669)"/>
<path d="M294.546 749.866L276.895 760.017L256.528 748.31L274.179 738.091L294.546 749.866Z" fill="url(#paint12_radial_11_1669)"/>
<path d="M1413.28 919.314C1403.03 1090.66 1265.15 1177.82 1105.34 1114C945.53 1050.19 824.213 859.696 834.465 688.353C844.716 517.01 982.937 430.053 1142.41 493.664C1301.88 557.275 1423.47 748.107 1413.28 919.314Z" fill="#021425"/>
<path d="M1413.28 919.314C1403.03 1090.66 1265.15 1177.82 1105.34 1114C945.53 1050.19 824.213 859.696 834.465 688.353C844.716 517.01 982.937 430.053 1142.41 493.664C1301.88 557.275 1423.47 748.107 1413.28 919.314Z" fill="url(#paint13_radial_11_1669)"/>
<path d="M1413.28 919.314C1403.03 1090.66 1265.15 1177.82 1105.34 1114C945.53 1050.19 824.213 859.696 834.465 688.353C844.716 517.01 982.937 430.053 1142.41 493.664C1301.88 557.275 1423.47 748.107 1413.28 919.314Z" fill="url(#paint14_radial_11_1669)"/>
<path d="M1413.28 919.314C1403.03 1090.66 1265.15 1177.82 1105.34 1114C945.53 1050.19 824.213 859.696 834.465 688.353C844.716 517.01 982.937 430.053 1142.41 493.664C1301.88 557.275 1423.47 748.107 1413.28 919.314Z" fill="url(#paint15_radial_11_1669)" fill-opacity="0.5"/>
<g opacity="0.75">
<path opacity="0.75" d="M1352.59 857.327C1345.33 979.135 1247.3 1041.12 1133.65 995.782C1020 950.443 933.786 814.898 941.05 693.09C948.314 571.283 1046.41 509.296 1160.06 554.636C1273.7 599.975 1359.92 735.52 1352.59 857.327Z" fill="url(#paint16_radial_11_1669)"/>
<path opacity="0.75" d="M1352.59 857.327C1345.33 979.135 1247.3 1041.12 1133.65 995.782C1020 950.443 933.786 814.898 941.05 693.09C948.314 571.283 1046.41 509.296 1160.06 554.636C1273.7 599.975 1359.92 735.52 1352.59 857.327Z" fill="url(#paint17_radial_11_1669)"/>
</g>
<path d="M1412.47 919.787C1407.31 1006.07 1369.77 1071.03 1313.28 1106.09L1371.67 1069.14C1428.08 1034.08 1465.63 969.12 1470.79 882.839C1481.1 711.496 1359.79 520.935 1200.18 457.121C1119.67 424.978 1044.72 431.136 988.844 467.137L930.391 504.017C986.196 468.017 1061.14 461.858 1141.73 493.934C1301.4 557.883 1422.72 748.445 1412.47 919.787Z" fill="#011321"/>
<path d="M1412.47 919.787C1407.31 1006.07 1369.77 1071.03 1313.28 1106.09L1371.67 1069.14C1428.08 1034.08 1465.63 969.12 1470.79 882.839C1481.1 711.496 1359.79 520.935 1200.18 457.121C1119.67 424.978 1044.72 431.136 988.844 467.137L930.391 504.017C986.196 468.017 1061.14 461.858 1141.73 493.934C1301.4 557.883 1422.72 748.445 1412.47 919.787Z" fill="url(#paint18_linear_11_1669)"/>
<path d="M1352.59 857.327C1345.33 979.135 1247.3 1041.12 1133.65 995.782C1020 950.443 933.786 814.898 941.05 693.09C948.314 571.283 1046.41 509.296 1160.06 554.636C1273.7 599.975 1359.92 735.52 1352.59 857.327Z" stroke="url(#paint19_radial_11_1669)" stroke-miterlimit="10"/>
<path d="M875.741 1416.02L930.052 1384.48C1052.25 1313.56 1085.38 1144.46 1082.19 878.103L1027.88 909.637C1031.07 1175.99 998.144 1345.1 875.741 1416.02Z" fill="url(#paint20_linear_11_1669)"/>
<path d="M1027.95 909.637L1082.26 878.102C849.061 802.852 658.633 697.015 519.936 554.433L465.625 585.967C611.993 736.67 803.236 840.613 1027.95 909.637Z" fill="url(#paint21_linear_11_1669)"/>
<path d="M465.489 585.696C459.447 924.051 514.505 1169.7 744.716 1452.9C975.945 1435.37 1031.95 1253.54 1027.95 909.637C797.94 833.846 610.454 725.865 465.489 585.696Z" fill="url(#paint22_linear_11_1669)"/>
<path d="M531.138 714.271C534.872 996.594 594.818 1165.64 745.327 1363.37C795.7 1355.25 836.026 1336.78 867.526 1305.31C930.527 1243.25 958.701 1130.11 962.571 945.57C790.133 890.757 652.184 819.026 546.549 727.061C540.914 722.933 535.958 718.602 531.138 714.271Z" fill="url(#paint23_linear_11_1669)"/>
<path d="M545.87 727.061C553.134 994.09 613.69 1158.87 758.904 1350.38C802.014 1343.61 837.723 1328.86 866.915 1305.11C929.916 1243.05 958.09 1129.91 961.959 945.367C789.454 890.757 651.504 819.025 545.87 727.061Z" fill="#021421"/>
<path d="M773.297 997.339C769.488 994.571 765.007 992.868 760.317 992.404C755.626 991.94 750.897 992.732 746.617 994.7V994.7L693.256 1025.56C689.402 1028.25 686.343 1031.93 684.397 1036.2C682.451 1040.47 681.689 1045.19 682.19 1049.85C682.895 1062.91 686.681 1075.61 693.239 1086.94C699.798 1098.26 708.945 1107.88 719.936 1115.02C723.745 1117.79 728.226 1119.49 732.917 1119.95C737.607 1120.42 742.336 1119.62 746.617 1117.66L799.977 1086.93C803.826 1084.22 806.88 1080.53 808.825 1076.25C810.77 1071.97 811.535 1067.25 811.043 1062.57C810.349 1049.51 806.568 1036.79 800.009 1025.45C793.45 1014.11 784.297 1004.48 773.297 997.339V997.339Z" fill="url(#paint24_linear_11_1669)"/>
<path d="M702.896 1018.79C687.757 1010.06 674.112 1009.25 664.2 1015L586.739 1059.53L664.2 1193.25L741.593 1148.65C751.505 1142.97 757.615 1130.72 757.683 1113.33C757.683 1078.75 733.107 1036.38 702.896 1018.79Z" fill="url(#paint25_linear_11_1669)"/>
<path d="M741.254 1294.28C718.375 1307.41 686.467 1303.48 651.301 1283.25C612.401 1260.85 575.605 1221.8 547.703 1173.82C519.801 1125.85 504.39 1074.42 504.39 1029.62C504.39 992.128 515.32 964.247 535.076 949.833L514.03 912.005C480.086 933.931 461.348 975.413 461.348 1029.62C461.348 1081.79 478.796 1140.67 510.432 1195.28C542.068 1249.89 584.431 1294.35 629.916 1320.4C678.932 1348.62 726.182 1352.54 762.91 1331.43L766.576 1329.13L745.802 1291.17C744.173 1292.18 742.815 1293.33 741.254 1294.28Z" fill="url(#paint26_radial_11_1669)"/>
<path d="M603.915 1083.21C605.687 1086.28 606.395 1089.85 605.929 1093.36C605.463 1096.87 603.849 1100.13 601.336 1102.64C598.824 1105.14 595.553 1106.75 592.031 1107.21C588.508 1107.68 584.93 1106.97 581.851 1105.21L487.35 1050.73C483.771 1048.53 481.194 1045.03 480.165 1040.96C479.136 1036.9 479.737 1032.6 481.841 1028.97C483.944 1025.34 487.383 1022.67 491.429 1021.53C495.474 1020.38 499.807 1020.86 503.507 1022.85L598.144 1077.33C600.554 1078.75 602.545 1080.78 603.915 1083.21Z" fill="url(#paint27_linear_11_1669)"/>
<path d="M799.638 1195.68C801.39 1198.73 802.095 1202.26 801.646 1205.74C801.197 1209.23 799.618 1212.47 797.15 1214.97C794.683 1217.48 791.461 1219.11 787.976 1219.63C784.491 1220.14 780.934 1219.5 777.845 1217.81L697.601 1173.62C695.629 1172.66 693.873 1171.32 692.439 1169.66C691.006 1168.01 689.926 1166.08 689.264 1164C688.602 1161.91 688.373 1159.72 688.591 1157.54C688.808 1155.37 689.467 1153.26 690.528 1151.35C691.589 1149.43 693.03 1147.75 694.763 1146.41C696.495 1145.07 698.483 1144.1 700.606 1143.55C702.728 1143 704.941 1142.89 707.109 1143.22C709.277 1143.55 711.354 1144.31 713.215 1145.47L793.46 1189.66C796.019 1191.08 798.152 1193.16 799.638 1195.68V1195.68Z" fill="url(#paint28_linear_11_1669)"/>
<path d="M654.288 946.382C655.73 948.821 656.481 951.604 656.461 954.435V1044.71C656.604 1046.91 656.293 1049.11 655.547 1051.18C654.802 1053.26 653.638 1055.16 652.126 1056.76C650.615 1058.37 648.789 1059.65 646.761 1060.53C644.733 1061.4 642.547 1061.86 640.337 1061.86C638.127 1061.86 635.94 1061.4 633.913 1060.53C631.885 1059.65 630.059 1058.37 628.548 1056.76C627.036 1055.16 625.872 1053.26 625.126 1051.18C624.381 1049.11 624.07 1046.91 624.213 1044.71V954.435C624.186 950.885 625.341 947.427 627.497 944.601C629.653 941.776 632.689 939.743 636.128 938.823C639.568 937.902 643.217 938.144 646.503 939.512C649.789 940.88 652.527 943.296 654.288 946.382Z" fill="url(#paint29_linear_11_1669)"/>
<path d="M655.239 1145.94C656.575 1148.32 657.276 1151 657.275 1153.73L656.121 1282.3C656.05 1286.47 654.35 1290.44 651.382 1293.37C648.414 1296.3 644.414 1297.97 640.235 1298C638.186 1298.04 636.15 1297.66 634.249 1296.9C632.347 1296.14 630.617 1295.01 629.161 1293.57C627.706 1292.13 626.554 1290.42 625.774 1288.53C624.995 1286.64 624.602 1284.61 624.621 1282.57L625.775 1154C625.846 1149.83 627.546 1145.86 630.514 1142.93C633.482 1139.99 637.482 1138.33 641.661 1138.3C644.4 1138.26 647.101 1138.95 649.486 1140.29C651.872 1141.63 653.857 1143.59 655.239 1145.94V1145.94Z" fill="url(#paint30_linear_11_1669)"/>
<path d="M570.717 1095.06C570.717 1060.27 595.225 1046.13 625.435 1063.59C655.646 1081.05 680.222 1123.27 680.222 1158.33C680.222 1175.72 674.112 1187.9 664.2 1193.65C654.288 1199.4 640.575 1198.52 625.435 1189.79C595.225 1172.2 570.717 1129.91 570.717 1095.06Z" fill="url(#paint31_linear_11_1669)"/>
<path d="M534.872 949.834C536.433 948.683 537.927 947.465 539.624 946.45C562.434 933.322 594.41 937.247 629.576 957.48C668.477 979.879 705.272 1018.72 733.175 1066.97C761.077 1115.22 776.42 1166.31 776.42 1211.11C776.42 1248.8 765.422 1276.82 745.462 1291.17C745.312 1298.75 747.149 1306.24 750.792 1312.9C754.436 1319.55 759.759 1325.15 766.236 1329.13C800.588 1307.27 819.529 1265.65 819.529 1211.11C819.529 1158.94 802.082 1100.13 770.445 1045.45C738.809 990.775 696.379 946.45 651.097 920.329C602.014 892.11 554.763 888.185 518.103 909.299L513.826 912.006C513.693 919.598 515.568 927.091 519.263 933.731C522.957 940.372 528.341 945.925 534.872 949.834V949.834Z" fill="url(#paint32_radial_11_1669)"/>
<path d="M287.078 1037.47C289.59 1038.89 289.658 1041.26 287.078 1042.68C285.665 1043.38 284.108 1043.75 282.529 1043.75C280.951 1043.75 279.393 1043.38 277.981 1042.68C277.445 1042.48 276.983 1042.13 276.656 1041.66C276.33 1041.2 276.155 1040.64 276.155 1040.07C276.155 1039.5 276.33 1038.95 276.656 1038.48C276.983 1038.02 277.445 1037.66 277.981 1037.47C279.384 1036.73 280.945 1036.35 282.529 1036.35C284.114 1036.35 285.675 1036.73 287.078 1037.47V1037.47Z" fill="#1D1D1B"/>
<path d="M297.125 1022.44V1026.44L356.596 992.195L353.066 990.233L297.125 1022.44Z" fill="#021421"/>
<path d="M1203.3 1452.15L1182.94 1440.45V1286.02L1203.3 1297.73V1452.15Z" fill="url(#paint33_linear_11_1669)"/>
<path d="M1220.95 1287.58L1203.3 1297.73V1452.15L1220.95 1442V1287.58Z" fill="url(#paint34_linear_11_1669)"/>
<path d="M1220.96 1287.58L1203.3 1297.73L1182.94 1286.02L1200.59 1275.87L1220.96 1287.58Z" fill="url(#paint35_radial_11_1669)"/>
<path d="M1030.8 288.283L1010.43 276.576V122.151L1030.8 133.858V288.283Z" fill="url(#paint36_linear_11_1669)"/>
<path d="M1048.45 123.707L1030.8 133.858V288.283L1048.45 278.132V123.707Z" fill="url(#paint37_linear_11_1669)"/>
<path d="M1048.45 123.707L1030.8 133.858L1010.43 122.151L1028.08 112L1048.45 123.707Z" fill="url(#paint38_radial_11_1669)"/>
<path d="M414.234 1322.84C444.341 1322.84 468.748 1298.51 468.748 1268.5C468.748 1238.48 444.341 1214.16 414.234 1214.16C384.126 1214.16 359.719 1238.48 359.719 1268.5C359.719 1298.51 384.126 1322.84 414.234 1322.84Z" fill="url(#paint39_radial_11_1669)"/>
</g>
<defs>
<linearGradient id="paint0_linear_11_1669" x1="83" y1="1301.06" x2="1838" y2="1301.06" gradientUnits="userSpaceOnUse">
<stop stop-color="#50C0FF" stop-opacity="0.5"/>
<stop offset="1" stop-color="#000B1B" stop-opacity="0.57"/>
</linearGradient>
<linearGradient id="paint1_linear_11_1669" x1="1241.05" y1="734.505" x2="1482.6" y2="201.146" gradientUnits="userSpaceOnUse">
<stop stop-color="#2A6AAC" stop-opacity="0"/>
<stop offset="0.54" stop-color="#4441CB" stop-opacity="0"/>
<stop offset="0.79" stop-color="#2A6AAC"/>
</linearGradient>
<linearGradient id="paint2_linear_11_1669" x1="1590.41" y1="649.374" x2="1389.75" y2="240.334" gradientUnits="userSpaceOnUse">
<stop stop-color="#2A6AAC" stop-opacity="0"/>
<stop offset="0.54" stop-color="#4441CB" stop-opacity="0"/>
<stop offset="0.79" stop-color="#2A6AAC"/>
</linearGradient>
<radialGradient id="paint3_radial_11_1669" cx="0" cy="0" r="1" gradientUnits="userSpaceOnUse" gradientTransform="translate(1425.84 149.828) scale(62.9331 62.7309)">
<stop stop-color="white"/>
<stop offset="0.46" stop-color="#72DDFF"/>
<stop offset="0.73" stop-color="#50C0FF"/>
<stop offset="1" stop-color="#0E67BA"/>
</radialGradient>
<linearGradient id="paint4_linear_11_1669" x1="1391.49" y1="1461.7" x2="1722.45" y2="730.931" gradientUnits="userSpaceOnUse">
<stop stop-color="#2A6AAC" stop-opacity="0"/>
<stop offset="0.54" stop-color="#4441CB" stop-opacity="0"/>
<stop offset="0.79" stop-color="#2A6AAC"/>
</linearGradient>
<linearGradient id="paint5_linear_11_1669" x1="1863.32" y1="1345.17" x2="1588.1" y2="784.22" gradientUnits="userSpaceOnUse">
<stop stop-color="#2A6AAC" stop-opacity="0"/>
<stop offset="0.54" stop-color="#4441CB" stop-opacity="0"/>
<stop offset="0.79" stop-color="#2A6AAC"/>
</linearGradient>
<radialGradient id="paint6_radial_11_1669" cx="0" cy="0" r="1" gradientUnits="userSpaceOnUse" gradientTransform="translate(1642.54 681.045) scale(62.9324 62.7306)">
<stop stop-color="white"/>
<stop offset="0.46" stop-color="#72DDFF"/>
<stop offset="0.73" stop-color="#50C0FF"/>
<stop offset="1" stop-color="#0E67BA"/>
</radialGradient>
<linearGradient id="paint7_linear_11_1669" x1="518.646" y1="773.077" x2="741.218" y2="281.653" gradientUnits="userSpaceOnUse">
<stop stop-color="#2A6AAC" stop-opacity="0"/>
<stop offset="0.54" stop-color="#4441CB" stop-opacity="0"/>
<stop offset="0.79" stop-color="#2A6AAC"/>
</linearGradient>
<linearGradient id="paint8_linear_11_1669" x1="842" y1="694.646" x2="657.148" y2="317.926" gradientUnits="userSpaceOnUse">
<stop stop-color="#2A6AAC" stop-opacity="0"/>
<stop offset="0.54" stop-color="#4441CB" stop-opacity="0"/>
<stop offset="0.79" stop-color="#2A6AAC"/>
</linearGradient>
<radialGradient id="paint9_radial_11_1669" cx="0" cy="0" r="1" gradientUnits="userSpaceOnUse" gradientTransform="translate(689.454 230.018) scale(62.9329 62.731)">
<stop stop-color="white"/>
<stop offset="0.46" stop-color="#72DDFF"/>
<stop offset="0.73" stop-color="#50C0FF"/>
<stop offset="1" stop-color="#0E67BA"/>
</radialGradient>
<linearGradient id="paint10_linear_11_1669" x1="71.0561" y1="1331.77" x2="335.225" y2="748.55" gradientUnits="userSpaceOnUse">
<stop stop-color="#2A6AAC" stop-opacity="0"/>
<stop offset="0.54" stop-color="#4441CB" stop-opacity="0"/>
<stop offset="0.79" stop-color="#2A6AAC"/>
</linearGradient>
<linearGradient id="paint11_linear_11_1669" x1="451.369" y1="1238.72" x2="231.87" y2="791.33" gradientUnits="userSpaceOnUse">
<stop stop-color="#2A6AAC" stop-opacity="0"/>
<stop offset="0.54" stop-color="#4441CB" stop-opacity="0"/>
<stop offset="0.79" stop-color="#2A6AAC"/>
</linearGradient>
<radialGradient id="paint12_radial_11_1669" cx="0" cy="0" r="1" gradientUnits="userSpaceOnUse" gradientTransform="translate(272.618 697.556) scale(62.9328 62.7312)">
<stop stop-color="white"/>
<stop offset="0.46" stop-color="#72DDFF"/>
<stop offset="0.73" stop-color="#50C0FF"/>
<stop offset="1" stop-color="#0E67BA"/>
</radialGradient>
<radialGradient id="paint13_radial_11_1669" cx="0" cy="0" r="1" gradientUnits="userSpaceOnUse" gradientTransform="translate(1134.77 393.151) rotate(93.4215) scale(529.514 504.007)">
<stop stop-color="#133A74"/>
<stop offset="1" stop-color="#134974" stop-opacity="0"/>
</radialGradient>
<radialGradient id="paint14_radial_11_1669" cx="0" cy="0" r="1" gradientUnits="userSpaceOnUse" gradientTransform="translate(1082.46 789.329) rotate(93.4175) scale(339.72 323.362)">
<stop stop-color="#2A6AAC" stop-opacity="0"/>
<stop offset="0.75" stop-color="#4441CB" stop-opacity="0"/>
<stop offset="1" stop-color="#2A6AAC"/>
</radialGradient>
<radialGradient id="paint15_radial_11_1669" cx="0" cy="0" r="1" gradientUnits="userSpaceOnUse" gradientTransform="translate(1128.64 757.736) rotate(93.4242) scale(323.944 308.308)">
<stop stop-color="white" stop-opacity="0"/>
<stop offset="0.93" stop-color="#3E9DFF" stop-opacity="0"/>
<stop offset="1" stop-color="#3E9DFF"/>
</radialGradient>
<radialGradient id="paint16_radial_11_1669" cx="0" cy="0" r="1" gradientUnits="userSpaceOnUse" gradientTransform="translate(1156.52 506.467) rotate(94.4892) scale(456.491 434.526)">
<stop stop-color="#1D88D5"/>
<stop offset="1" stop-color="#133A74" stop-opacity="0.41"/>
</radialGradient>
<radialGradient id="paint17_radial_11_1669" cx="0" cy="0" r="1" gradientUnits="userSpaceOnUse" gradientTransform="translate(1103.52 796.53) rotate(91.3237) scale(262.427 249.787)">
<stop stop-color="#2A6AAC" stop-opacity="0"/>
<stop offset="0.75" stop-color="#4441CB" stop-opacity="0"/>
<stop offset="1" stop-color="#2A6AAC"/>
</radialGradient>
<linearGradient id="paint18_linear_11_1669" x1="1457.21" y1="1015.34" x2="1046.05" y2="409.876" gradientUnits="userSpaceOnUse">
<stop stop-color="#50C0FF"/>
<stop offset="0.81" stop-color="#4982EE" stop-opacity="0"/>
<stop offset="0.86" stop-color="#4877EB" stop-opacity="0.28"/>
<stop offset="1" stop-color="#455FE4" stop-opacity="0.25"/>
</linearGradient>
<radialGradient id="paint19_radial_11_1669" cx="0" cy="0" r="1" gradientUnits="userSpaceOnUse" gradientTransform="translate(1146.1 775.179) rotate(91.3242) scale(224.329 213.798)">
<stop stop-color="#2A6AAC" stop-opacity="0"/>
<stop offset="0.75" stop-color="#4441CB" stop-opacity="0"/>
<stop offset="1" stop-color="#2A6AAC"/>
</radialGradient>
<linearGradient id="paint20_linear_11_1669" x1="1128.02" y1="1184.52" x2="961.752" y2="1142.44" gradientUnits="userSpaceOnUse">
<stop stop-color="#50C0FF"/>
<stop offset="0.27" stop-color="#50C0FF"/>
<stop offset="1" stop-color="#07324C"/>
</linearGradient>
<linearGradient id="paint21_linear_11_1669" x1="766.304" y1="474.987" x2="776.018" y2="805.629" gradientUnits="userSpaceOnUse">
<stop stop-color="#50C0FF"/>
<stop offset="0.27" stop-color="#50C0FF"/>
<stop offset="1" stop-color="#07324C"/>
</linearGradient>
<linearGradient id="paint22_linear_11_1669" x1="1087.83" y1="1374.2" x2="-0.119925" y2="325.866" gradientUnits="userSpaceOnUse">
<stop offset="0.08" stop-color="#07324C"/>
<stop offset="0.35" stop-color="#50C0FF"/>
<stop offset="0.6" stop-color="#50C0FF"/>
<stop offset="1" stop-color="#07324C"/>
</linearGradient>
<linearGradient id="paint23_linear_11_1669" x1="691.084" y1="789.25" x2="928.637" y2="1433.37" gradientUnits="userSpaceOnUse">
<stop stop-color="#50C0FF"/>
<stop offset="0.81" stop-color="#4982EE" stop-opacity="0"/>
<stop offset="0.86" stop-color="#4877EB" stop-opacity="0.28"/>
<stop offset="1" stop-color="#455FE4" stop-opacity="0.25"/>
</linearGradient>
<linearGradient id="paint24_linear_11_1669" x1="693.256" y1="966.751" x2="760.283" y2="1079.68" gradientUnits="userSpaceOnUse">
<stop stop-color="#50C0FF"/>
<stop offset="0.27" stop-color="#50C0FF"/>
<stop offset="1" stop-color="#07324C"/>
</linearGradient>
<linearGradient id="paint25_linear_11_1669" x1="623.67" y1="970.676" x2="685.526" y2="1106.44" gradientUnits="userSpaceOnUse">
<stop stop-color="#50C0FF"/>
<stop offset="0.27" stop-color="#50C0FF"/>
<stop offset="1" stop-color="#07324C"/>
</linearGradient>
<radialGradient id="paint26_radial_11_1669" cx="0" cy="0" r="1" gradientUnits="userSpaceOnUse" gradientTransform="translate(831.749 994.902) scale(366.735 365.558)">
<stop stop-color="#2A6AAC" stop-opacity="0"/>
<stop offset="0.6" stop-color="#4441CB" stop-opacity="0"/>
<stop offset="1" stop-color="#2A6AAC"/>
</radialGradient>
<linearGradient id="paint27_linear_11_1669" x1="479.135" y1="1064.06" x2="606.087" y2="1064.06" gradientUnits="userSpaceOnUse">
<stop stop-color="#50C0FF"/>
<stop offset="0.81" stop-color="#4982EE" stop-opacity="0"/>
<stop offset="0.86" stop-color="#4877EB" stop-opacity="0.28"/>
<stop offset="1" stop-color="#455FE4" stop-opacity="0.25"/>
</linearGradient>
<linearGradient id="paint28_linear_11_1669" x1="690.608" y1="1152.58" x2="824.023" y2="1223.92" gradientUnits="userSpaceOnUse">
<stop stop-color="#50C0FF"/>
<stop offset="0.81" stop-color="#4982EE" stop-opacity="0"/>
<stop offset="0.86" stop-color="#4877EB" stop-opacity="0.28"/>
<stop offset="1" stop-color="#455FE4" stop-opacity="0.25"/>
</linearGradient>
<linearGradient id="paint29_linear_11_1669" x1="640.303" y1="1065.89" x2="640.303" y2="951.525" gradientUnits="userSpaceOnUse">
<stop stop-color="#50C0FF"/>
<stop offset="0.81" stop-color="#4982EE" stop-opacity="0"/>
<stop offset="0.86" stop-color="#4877EB" stop-opacity="0.28"/>
<stop offset="1" stop-color="#455FE4" stop-opacity="0.25"/>
</linearGradient>
<linearGradient id="paint30_linear_11_1669" x1="640.914" y1="1200.08" x2="640.914" y2="1317.76" gradientUnits="userSpaceOnUse">
<stop stop-color="#50C0FF"/>
<stop offset="0.81" stop-color="#4982EE" stop-opacity="0"/>
<stop offset="0.86" stop-color="#4877EB" stop-opacity="0.28"/>
<stop offset="1" stop-color="#455FE4" stop-opacity="0.25"/>
</linearGradient>
<linearGradient id="paint31_linear_11_1669" x1="613.012" y1="962.082" x2="629.741" y2="1184.52" gradientUnits="userSpaceOnUse">
<stop stop-color="#50C0FF"/>
<stop offset="0.27" stop-color="#50C0FF"/>
<stop offset="1" stop-color="#07324C"/>
</linearGradient>
<radialGradient id="paint32_radial_11_1669" cx="0" cy="0" r="1" gradientUnits="userSpaceOnUse" gradientTransform="translate(707.92 724.219) scale(288.934 288.007)">
<stop stop-color="#2A6AAC" stop-opacity="0"/>
<stop offset="0.6" stop-color="#4441CB" stop-opacity="0"/>
<stop offset="1" stop-color="#2A6AAC"/>
</radialGradient>
<linearGradient id="paint33_linear_11_1669" x1="1090.54" y1="1594.2" x2="1229.04" y2="1288.33" gradientUnits="userSpaceOnUse">
<stop stop-color="#2A6AAC" stop-opacity="0"/>
<stop offset="0.54" stop-color="#4441CB" stop-opacity="0"/>
<stop offset="0.79" stop-color="#2A6AAC"/>
</linearGradient>
<linearGradient id="paint34_linear_11_1669" x1="1298.69" y1="1545.2" x2="1183.94" y2="1311.31" gradientUnits="userSpaceOnUse">
<stop stop-color="#2A6AAC" stop-opacity="0"/>
<stop offset="0.54" stop-color="#4441CB" stop-opacity="0"/>
<stop offset="0.79" stop-color="#2A6AAC"/>
</linearGradient>
<radialGradient id="paint35_radial_11_1669" cx="0" cy="0" r="1" gradientUnits="userSpaceOnUse" gradientTransform="translate(1199.03 1235.34) scale(62.9327 62.7308)">
<stop stop-color="white"/>
<stop offset="0.46" stop-color="#72DDFF"/>
<stop offset="0.73" stop-color="#50C0FF"/>
<stop offset="1" stop-color="#0E67BA"/>
</radialGradient>
<linearGradient id="paint36_linear_11_1669" x1="918.035" y1="430.324" x2="1056.53" y2="124.522" gradientUnits="userSpaceOnUse">
<stop stop-color="#2A6AAC" stop-opacity="0"/>
<stop offset="0.54" stop-color="#4441CB" stop-opacity="0"/>
<stop offset="0.79" stop-color="#2A6AAC"/>
</linearGradient>
<linearGradient id="paint37_linear_11_1669" x1="1126.25" y1="381.33" x2="1011.5" y2="147.506" gradientUnits="userSpaceOnUse">
<stop stop-color="#2A6AAC" stop-opacity="0"/>
<stop offset="0.54" stop-color="#4441CB" stop-opacity="0"/>
<stop offset="0.79" stop-color="#2A6AAC"/>
</linearGradient>
<radialGradient id="paint38_radial_11_1669" cx="0" cy="0" r="1" gradientUnits="userSpaceOnUse" gradientTransform="translate(1026.52 71.4651) scale(62.9329 62.7309)">
<stop stop-color="white"/>
<stop offset="0.46" stop-color="#72DDFF"/>
<stop offset="0.73" stop-color="#50C0FF"/>
<stop offset="1" stop-color="#0E67BA"/>
</radialGradient>
<radialGradient id="paint39_radial_11_1669" cx="0" cy="0" r="1" gradientUnits="userSpaceOnUse" gradientTransform="translate(404.729 1164.55) scale(143.245 142.786)">
<stop stop-color="white"/>
<stop offset="0.46" stop-color="#72DDFF"/>
<stop offset="0.73" stop-color="#50C0FF"/>
<stop offset="1" stop-color="#0E67BA"/>
</radialGradient>
<clipPath id="clip0_11_1669">
<rect width="1407.94" height="1340.9" fill="white" transform="translate(256.528 112)"/>
</clipPath>
</defs>
</svg>
