<svg width="1440" height="5115" viewBox="0 0 1440 5115" fill="none" xmlns="http://www.w3.org/2000/svg">
<rect width="1440" height="5115" fill="#031523"/>
<mask id="mask0_209_1159" style="mask-type:alpha" maskUnits="userSpaceOnUse" x="0" y="0" width="1440" height="5115">
<rect width="1440" height="5115" fill="#031422"/>
</mask>
<g mask="url(#mask0_209_1159)">
<g opacity="0.75">
<g opacity="0.5" filter="url(#filter0_f_209_1159)">
<ellipse cx="1083.95" cy="1282.95" rx="82.4316" ry="319.137" transform="rotate(45 1083.95 1282.95)" fill="url(#paint0_linear_209_1159)"/>
<path d="M1141.89 1340.89C1079.59 1403.18 1016.68 1453.04 965.345 1483.31C939.672 1498.44 916.917 1508.66 898.593 1513.08C880.235 1517.52 866.493 1516.11 858.641 1508.26C850.79 1500.41 849.382 1486.67 853.819 1468.31C858.249 1449.99 868.465 1427.23 883.598 1401.56C913.861 1350.22 963.723 1287.31 1026.02 1225.02C1088.31 1162.72 1151.22 1112.86 1202.56 1082.6C1228.23 1067.47 1250.99 1057.25 1269.31 1052.82C1287.67 1048.38 1301.41 1049.79 1309.26 1057.64C1317.11 1065.49 1318.52 1079.24 1314.08 1097.59C1309.66 1115.92 1299.44 1138.67 1284.31 1164.35C1254.04 1215.68 1204.18 1278.59 1141.89 1340.89Z" stroke="black"/>
</g>
<g opacity="0.5" filter="url(#filter1_f_209_1159)">
<ellipse cx="1478.67" cy="1173.95" rx="82.4316" ry="319.137" transform="rotate(45 1478.67 1173.95)" fill="url(#paint1_linear_209_1159)"/>
<path d="M1536.61 1231.89C1474.31 1294.18 1411.4 1344.04 1360.07 1374.31C1334.39 1389.44 1311.64 1399.66 1293.31 1404.08C1274.96 1408.52 1261.21 1407.11 1253.36 1399.26C1245.51 1391.41 1244.1 1377.67 1248.54 1359.31C1252.97 1340.99 1263.19 1318.23 1278.32 1292.56C1308.58 1241.22 1358.44 1178.31 1420.74 1116.02C1483.03 1053.72 1545.94 1003.86 1597.28 973.598C1622.95 958.465 1645.71 948.249 1664.03 943.819C1682.39 939.382 1696.13 940.79 1703.98 948.642C1711.83 956.493 1713.24 970.235 1708.8 988.593C1704.38 1006.92 1694.16 1029.67 1679.03 1055.35C1648.76 1106.68 1598.9 1169.59 1536.61 1231.89Z" stroke="black"/>
</g>
</g>
<g opacity="0.75">
<g opacity="0.5" filter="url(#filter2_f_209_1159)">
<ellipse cx="2.95212" cy="1727.95" rx="82.4316" ry="319.137" transform="rotate(45 2.95212 1727.95)" fill="url(#paint2_linear_209_1159)"/>
<path d="M60.8865 1785.89C-1.40801 1848.18 -64.3152 1898.04 -115.655 1928.31C-141.328 1943.44 -164.083 1953.66 -182.407 1958.08C-200.765 1962.52 -214.507 1961.11 -222.359 1953.26C-230.21 1945.41 -231.618 1931.67 -227.181 1913.31C-222.751 1894.99 -212.535 1872.23 -197.402 1846.56C-167.139 1795.22 -117.277 1732.31 -54.9823 1670.02C7.31226 1607.72 70.2195 1557.86 121.559 1527.6C147.232 1512.47 169.987 1502.25 188.312 1497.82C206.669 1493.38 220.411 1494.79 228.263 1502.64C236.114 1510.49 237.522 1524.24 233.085 1542.59C228.656 1560.92 218.439 1583.67 203.306 1609.35C173.044 1660.68 123.181 1723.59 60.8865 1785.89Z" stroke="black"/>
</g>
<g opacity="0.5" filter="url(#filter3_f_209_1159)">
<ellipse cx="397.672" cy="1618.95" rx="82.4316" ry="319.137" transform="rotate(45 397.672 1618.95)" fill="url(#paint3_linear_209_1159)"/>
<path d="M455.606 1676.89C393.312 1739.18 330.405 1789.04 279.065 1819.31C253.392 1834.44 230.637 1844.66 212.313 1849.08C193.955 1853.52 180.213 1852.11 172.361 1844.26C164.51 1836.41 163.102 1822.67 167.539 1804.31C171.969 1785.99 182.185 1763.23 197.318 1737.56C227.58 1686.22 277.443 1623.31 339.738 1561.02C402.032 1498.72 464.939 1448.86 516.279 1418.6C541.952 1403.47 564.707 1393.25 583.032 1388.82C601.389 1384.38 615.131 1385.79 622.983 1393.64C630.834 1401.49 632.242 1415.24 627.805 1433.59C623.376 1451.92 613.159 1474.67 598.026 1500.35C567.764 1551.68 517.901 1614.59 455.606 1676.89Z" stroke="black"/>
</g>
</g>
<g opacity="0.75">
<g opacity="0.5" filter="url(#filter4_f_209_1159)">
<ellipse cx="1083.95" cy="2796.95" rx="82.4316" ry="319.137" transform="rotate(45 1083.95 2796.95)" fill="url(#paint4_linear_209_1159)"/>
<path d="M1141.89 2854.89C1079.59 2917.18 1016.68 2967.04 965.345 2997.31C939.672 3012.44 916.917 3022.66 898.593 3027.08C880.235 3031.52 866.493 3030.11 858.641 3022.26C850.79 3014.41 849.382 3000.67 853.819 2982.31C858.249 2963.99 868.465 2941.23 883.598 2915.56C913.861 2864.22 963.723 2801.31 1026.02 2739.02C1088.31 2676.72 1151.22 2626.86 1202.56 2596.6C1228.23 2581.47 1250.99 2571.25 1269.31 2566.82C1287.67 2562.38 1301.41 2563.79 1309.26 2571.64C1317.11 2579.49 1318.52 2593.24 1314.08 2611.59C1309.66 2629.92 1299.44 2652.67 1284.31 2678.35C1254.04 2729.68 1204.18 2792.59 1141.89 2854.89Z" stroke="black"/>
</g>
<g opacity="0.5" filter="url(#filter5_f_209_1159)">
<ellipse cx="1478.67" cy="2687.95" rx="82.4316" ry="319.137" transform="rotate(45 1478.67 2687.95)" fill="url(#paint5_linear_209_1159)"/>
<path d="M1536.61 2745.89C1474.31 2808.18 1411.4 2858.04 1360.07 2888.31C1334.39 2903.44 1311.64 2913.66 1293.31 2918.08C1274.96 2922.52 1261.21 2921.11 1253.36 2913.26C1245.51 2905.41 1244.1 2891.67 1248.54 2873.31C1252.97 2854.99 1263.19 2832.23 1278.32 2806.56C1308.58 2755.22 1358.44 2692.31 1420.74 2630.02C1483.03 2567.72 1545.94 2517.86 1597.28 2487.6C1622.95 2472.47 1645.71 2462.25 1664.03 2457.82C1682.39 2453.38 1696.13 2454.79 1703.98 2462.64C1711.83 2470.49 1713.24 2484.24 1708.8 2502.59C1704.38 2520.92 1694.16 2543.67 1679.03 2569.35C1648.76 2620.68 1598.9 2683.59 1536.61 2745.89Z" stroke="black"/>
</g>
</g>
<g opacity="0.75">
<g opacity="0.5" filter="url(#filter6_f_209_1159)">
<ellipse cx="7.95212" cy="4041.95" rx="82.4316" ry="319.137" transform="rotate(45 7.95212 4041.95)" fill="url(#paint6_linear_209_1159)"/>
<path d="M65.8865 4099.89C3.59199 4162.18 -59.3152 4212.04 -110.655 4242.31C-136.328 4257.44 -159.083 4267.66 -177.407 4272.08C-195.765 4276.52 -209.507 4275.11 -217.359 4267.26C-225.21 4259.41 -226.618 4245.67 -222.181 4227.31C-217.751 4208.99 -207.535 4186.23 -192.402 4160.56C-162.139 4109.22 -112.277 4046.31 -49.9823 3984.02C12.3123 3921.72 75.2195 3871.86 126.559 3841.6C152.232 3826.47 174.987 3816.25 193.312 3811.82C211.669 3807.38 225.411 3808.79 233.263 3816.64C241.114 3824.49 242.522 3838.24 238.085 3856.59C233.656 3874.92 223.439 3897.67 208.306 3923.35C178.044 3974.68 128.181 4037.59 65.8865 4099.89Z" stroke="black"/>
</g>
<g opacity="0.5" filter="url(#filter7_f_209_1159)">
<ellipse cx="402.672" cy="3932.95" rx="82.4316" ry="319.137" transform="rotate(45 402.672 3932.95)" fill="url(#paint7_linear_209_1159)"/>
<path d="M460.606 3990.89C398.312 4053.18 335.405 4103.04 284.065 4133.31C258.392 4148.44 235.637 4158.66 217.313 4163.08C198.955 4167.52 185.213 4166.11 177.361 4158.26C169.51 4150.41 168.102 4136.67 172.539 4118.31C176.969 4099.99 187.185 4077.23 202.318 4051.56C232.58 4000.22 282.443 3937.31 344.738 3875.02C407.032 3812.72 469.939 3762.86 521.279 3732.6C546.952 3717.47 569.707 3707.25 588.032 3702.82C606.389 3698.38 620.131 3699.79 627.983 3707.64C635.834 3715.49 637.242 3729.24 632.805 3747.59C628.376 3765.92 618.159 3788.67 603.026 3814.35C572.764 3865.68 522.901 3928.59 460.606 3990.89Z" stroke="black"/>
</g>
</g>
<g opacity="0.25">
<g opacity="0.5" filter="url(#filter8_f_209_1159)">
<ellipse cx="768.952" cy="5148.95" rx="82.4316" ry="319.137" transform="rotate(45 768.952 5148.95)" fill="url(#paint8_linear_209_1159)"/>
<path d="M826.887 5206.89C764.592 5269.18 701.685 5319.04 650.345 5349.31C624.672 5364.44 601.917 5374.66 583.593 5379.08C565.235 5383.52 551.493 5382.11 543.641 5374.26C535.79 5366.41 534.382 5352.67 538.819 5334.31C543.249 5315.99 553.465 5293.23 568.598 5267.56C598.861 5216.22 648.723 5153.31 711.018 5091.02C773.312 5028.72 836.219 4978.86 887.559 4948.6C913.232 4933.47 935.987 4923.25 954.312 4918.82C972.669 4914.38 986.411 4915.79 994.263 4923.64C1002.11 4931.49 1003.52 4945.24 999.085 4963.59C994.656 4981.92 984.439 5004.67 969.306 5030.35C939.044 5081.68 889.181 5144.59 826.887 5206.89Z" stroke="black"/>
</g>
<g opacity="0.5" filter="url(#filter9_f_209_1159)">
<ellipse cx="1163.67" cy="5039.95" rx="82.4316" ry="319.137" transform="rotate(45 1163.67 5039.95)" fill="url(#paint9_linear_209_1159)"/>
<path d="M1221.61 5097.89C1159.31 5160.18 1096.4 5210.04 1045.07 5240.31C1019.39 5255.44 996.637 5265.66 978.313 5270.08C959.955 5274.52 946.213 5273.11 938.361 5265.26C930.51 5257.41 929.102 5243.67 933.539 5225.31C937.969 5206.99 948.185 5184.23 963.318 5158.56C993.58 5107.22 1043.44 5044.31 1105.74 4982.02C1168.03 4919.72 1230.94 4869.86 1282.28 4839.6C1307.95 4824.47 1330.71 4814.25 1349.03 4809.82C1367.39 4805.38 1381.13 4806.79 1388.98 4814.64C1396.83 4822.49 1398.24 4836.24 1393.8 4854.59C1389.38 4872.92 1379.16 4895.67 1364.03 4921.35C1333.76 4972.68 1283.9 5035.59 1221.61 5097.89Z" stroke="black"/>
</g>
</g>
<g opacity="0.75" filter="url(#filter10_f_209_1159)">
<ellipse cx="470.394" cy="496.347" rx="82.4316" ry="408.857" transform="rotate(45 470.394 496.347)" fill="url(#paint10_linear_209_1159)"/>
<path d="M528.328 554.282C448.51 634.1 369.735 699.829 306.904 741.575C275.485 762.451 248.075 777.314 226.529 784.951C215.754 788.769 206.473 790.77 198.905 790.826C191.338 790.883 185.538 788.996 181.642 785.099C177.745 781.203 175.858 775.403 175.915 767.836C175.971 760.268 177.972 750.987 181.79 740.212C189.426 718.666 204.29 691.256 225.166 659.837C266.912 597.006 332.641 518.231 412.459 438.413C492.277 358.595 571.052 292.866 633.883 251.119C665.302 230.244 692.712 215.38 714.259 207.744C725.033 203.925 734.314 201.924 741.882 201.868C749.449 201.812 755.249 203.699 759.146 207.595C763.042 211.492 764.929 217.292 764.873 224.859C764.817 232.427 762.816 241.708 758.997 252.482C751.361 274.029 736.497 301.439 715.622 332.858C673.875 395.689 608.146 474.463 528.328 554.282Z" stroke="black"/>
</g>
<g opacity="0.5" filter="url(#filter11_f_209_1159)">
<ellipse cx="753.669" cy="536.61" rx="82.4316" ry="319.137" transform="rotate(45 753.669 536.61)" fill="url(#paint11_linear_209_1159)"/>
<path d="M811.604 594.544C749.309 656.839 686.402 706.701 635.063 736.963C609.39 752.096 586.634 762.313 568.31 766.742C549.952 771.18 536.21 769.772 528.359 761.92C520.507 754.069 519.099 740.327 523.537 721.969C527.966 703.645 538.183 680.889 553.316 655.216C583.578 603.877 633.44 540.97 695.735 478.675C758.03 416.381 820.937 366.518 872.276 336.256C897.949 321.123 920.705 310.906 939.029 306.477C957.386 302.04 971.129 303.448 978.98 311.299C986.831 319.15 988.239 332.893 983.802 351.25C979.373 369.574 969.156 392.33 954.023 418.003C923.761 469.342 873.898 532.25 811.604 594.544Z" stroke="black"/>
</g>
<g opacity="0.5" filter="url(#filter12_f_209_1159)">
<ellipse cx="577.672" cy="162.952" rx="82.4316" ry="319.137" transform="rotate(45 577.672 162.952)" fill="url(#paint12_linear_209_1159)"/>
<path d="M635.606 220.887C573.311 283.181 510.404 333.044 459.065 363.306C433.392 378.439 410.636 388.656 392.312 393.085C373.955 397.522 360.212 396.114 352.361 388.263C344.51 380.411 343.102 366.669 347.539 348.312C351.968 329.987 362.185 307.232 377.318 281.559C407.58 230.22 457.443 167.312 519.737 105.018C582.032 42.7232 644.939 -7.13946 696.278 -37.4016C721.951 -52.5346 744.707 -62.7513 763.031 -67.1805C781.389 -71.6178 795.131 -70.2099 802.982 -62.3585C810.834 -54.5071 812.242 -40.7648 807.804 -22.4074C803.375 -4.08303 793.158 18.6723 778.025 44.3454C747.763 95.6848 697.901 158.592 635.606 220.887Z" stroke="black"/>
</g>
</g>
<defs>
<filter id="filter0_f_209_1159" x="650.825" y="849.825" width="866.254" height="866.254" filterUnits="userSpaceOnUse" color-interpolation-filters="sRGB">
<feFlood flood-opacity="0" result="BackgroundImageFix"/>
<feBlend mode="normal" in="SourceGraphic" in2="BackgroundImageFix" result="shape"/>
<feGaussianBlur stdDeviation="100" result="effect1_foregroundBlur_209_1159"/>
</filter>
<filter id="filter1_f_209_1159" x="1045.55" y="740.825" width="866.254" height="866.254" filterUnits="userSpaceOnUse" color-interpolation-filters="sRGB">
<feFlood flood-opacity="0" result="BackgroundImageFix"/>
<feBlend mode="normal" in="SourceGraphic" in2="BackgroundImageFix" result="shape"/>
<feGaussianBlur stdDeviation="100" result="effect1_foregroundBlur_209_1159"/>
</filter>
<filter id="filter2_f_209_1159" x="-430.175" y="1294.83" width="866.254" height="866.254" filterUnits="userSpaceOnUse" color-interpolation-filters="sRGB">
<feFlood flood-opacity="0" result="BackgroundImageFix"/>
<feBlend mode="normal" in="SourceGraphic" in2="BackgroundImageFix" result="shape"/>
<feGaussianBlur stdDeviation="100" result="effect1_foregroundBlur_209_1159"/>
</filter>
<filter id="filter3_f_209_1159" x="-35.4548" y="1185.83" width="866.254" height="866.254" filterUnits="userSpaceOnUse" color-interpolation-filters="sRGB">
<feFlood flood-opacity="0" result="BackgroundImageFix"/>
<feBlend mode="normal" in="SourceGraphic" in2="BackgroundImageFix" result="shape"/>
<feGaussianBlur stdDeviation="100" result="effect1_foregroundBlur_209_1159"/>
</filter>
<filter id="filter4_f_209_1159" x="650.825" y="2363.83" width="866.254" height="866.254" filterUnits="userSpaceOnUse" color-interpolation-filters="sRGB">
<feFlood flood-opacity="0" result="BackgroundImageFix"/>
<feBlend mode="normal" in="SourceGraphic" in2="BackgroundImageFix" result="shape"/>
<feGaussianBlur stdDeviation="100" result="effect1_foregroundBlur_209_1159"/>
</filter>
<filter id="filter5_f_209_1159" x="1045.55" y="2254.83" width="866.254" height="866.254" filterUnits="userSpaceOnUse" color-interpolation-filters="sRGB">
<feFlood flood-opacity="0" result="BackgroundImageFix"/>
<feBlend mode="normal" in="SourceGraphic" in2="BackgroundImageFix" result="shape"/>
<feGaussianBlur stdDeviation="100" result="effect1_foregroundBlur_209_1159"/>
</filter>
<filter id="filter6_f_209_1159" x="-425.175" y="3608.83" width="866.254" height="866.254" filterUnits="userSpaceOnUse" color-interpolation-filters="sRGB">
<feFlood flood-opacity="0" result="BackgroundImageFix"/>
<feBlend mode="normal" in="SourceGraphic" in2="BackgroundImageFix" result="shape"/>
<feGaussianBlur stdDeviation="100" result="effect1_foregroundBlur_209_1159"/>
</filter>
<filter id="filter7_f_209_1159" x="-30.4548" y="3499.83" width="866.254" height="866.254" filterUnits="userSpaceOnUse" color-interpolation-filters="sRGB">
<feFlood flood-opacity="0" result="BackgroundImageFix"/>
<feBlend mode="normal" in="SourceGraphic" in2="BackgroundImageFix" result="shape"/>
<feGaussianBlur stdDeviation="100" result="effect1_foregroundBlur_209_1159"/>
</filter>
<filter id="filter8_f_209_1159" x="335.825" y="4715.83" width="866.254" height="866.254" filterUnits="userSpaceOnUse" color-interpolation-filters="sRGB">
<feFlood flood-opacity="0" result="BackgroundImageFix"/>
<feBlend mode="normal" in="SourceGraphic" in2="BackgroundImageFix" result="shape"/>
<feGaussianBlur stdDeviation="100" result="effect1_foregroundBlur_209_1159"/>
</filter>
<filter id="filter9_f_209_1159" x="730.545" y="4606.83" width="866.254" height="866.254" filterUnits="userSpaceOnUse" color-interpolation-filters="sRGB">
<feFlood flood-opacity="0" result="BackgroundImageFix"/>
<feBlend mode="normal" in="SourceGraphic" in2="BackgroundImageFix" result="shape"/>
<feGaussianBlur stdDeviation="100" result="effect1_foregroundBlur_209_1159"/>
</filter>
<filter id="filter10_f_209_1159" x="-24.5867" y="1.36694" width="989.961" height="989.961" filterUnits="userSpaceOnUse" color-interpolation-filters="sRGB">
<feFlood flood-opacity="0" result="BackgroundImageFix"/>
<feBlend mode="normal" in="SourceGraphic" in2="BackgroundImageFix" result="shape"/>
<feGaussianBlur stdDeviation="100" result="effect1_foregroundBlur_209_1159"/>
</filter>
<filter id="filter11_f_209_1159" x="320.542" y="103.483" width="866.254" height="866.254" filterUnits="userSpaceOnUse" color-interpolation-filters="sRGB">
<feFlood flood-opacity="0" result="BackgroundImageFix"/>
<feBlend mode="normal" in="SourceGraphic" in2="BackgroundImageFix" result="shape"/>
<feGaussianBlur stdDeviation="100" result="effect1_foregroundBlur_209_1159"/>
</filter>
<filter id="filter12_f_209_1159" x="144.545" y="-270.175" width="866.254" height="866.254" filterUnits="userSpaceOnUse" color-interpolation-filters="sRGB">
<feFlood flood-opacity="0" result="BackgroundImageFix"/>
<feBlend mode="normal" in="SourceGraphic" in2="BackgroundImageFix" result="shape"/>
<feGaussianBlur stdDeviation="100" result="effect1_foregroundBlur_209_1159"/>
</filter>
<linearGradient id="paint0_linear_209_1159" x1="1083.95" y1="963.815" x2="1083.95" y2="1602.09" gradientUnits="userSpaceOnUse">
<stop stop-color="#3065EC"/>
<stop offset="1" stop-color="#2A6EAC" stop-opacity="0.4"/>
</linearGradient>
<linearGradient id="paint1_linear_209_1159" x1="1478.67" y1="854.815" x2="1478.67" y2="1493.09" gradientUnits="userSpaceOnUse">
<stop stop-color="#455FE4"/>
<stop offset="1" stop-color="#2AAC95" stop-opacity="0.4"/>
<stop offset="1" stop-color="#51D4DC" stop-opacity="0.4"/>
</linearGradient>
<linearGradient id="paint2_linear_209_1159" x1="2.95212" y1="1408.81" x2="2.95212" y2="2047.09" gradientUnits="userSpaceOnUse">
<stop stop-color="#3065EC"/>
<stop offset="1" stop-color="#2A6EAC" stop-opacity="0.4"/>
</linearGradient>
<linearGradient id="paint3_linear_209_1159" x1="397.672" y1="1299.81" x2="397.672" y2="1938.09" gradientUnits="userSpaceOnUse">
<stop stop-color="#455FE4"/>
<stop offset="1" stop-color="#2AAC95" stop-opacity="0.4"/>
<stop offset="1" stop-color="#51D4DC" stop-opacity="0.4"/>
</linearGradient>
<linearGradient id="paint4_linear_209_1159" x1="1083.95" y1="2477.81" x2="1083.95" y2="3116.09" gradientUnits="userSpaceOnUse">
<stop stop-color="#3065EC"/>
<stop offset="1" stop-color="#2A6EAC" stop-opacity="0.4"/>
</linearGradient>
<linearGradient id="paint5_linear_209_1159" x1="1478.67" y1="2368.81" x2="1478.67" y2="3007.09" gradientUnits="userSpaceOnUse">
<stop stop-color="#455FE4"/>
<stop offset="1" stop-color="#2AAC95" stop-opacity="0.4"/>
<stop offset="1" stop-color="#51D4DC" stop-opacity="0.4"/>
</linearGradient>
<linearGradient id="paint6_linear_209_1159" x1="7.95212" y1="3722.81" x2="7.95212" y2="4361.09" gradientUnits="userSpaceOnUse">
<stop stop-color="#3065EC"/>
<stop offset="1" stop-color="#2A6EAC" stop-opacity="0.4"/>
</linearGradient>
<linearGradient id="paint7_linear_209_1159" x1="402.672" y1="3613.81" x2="402.672" y2="4252.09" gradientUnits="userSpaceOnUse">
<stop stop-color="#455FE4"/>
<stop offset="1" stop-color="#2AAC95" stop-opacity="0.4"/>
<stop offset="1" stop-color="#51D4DC" stop-opacity="0.4"/>
</linearGradient>
<linearGradient id="paint8_linear_209_1159" x1="768.952" y1="4829.81" x2="768.952" y2="5468.09" gradientUnits="userSpaceOnUse">
<stop stop-color="#3065EC"/>
<stop offset="1" stop-color="#2A6EAC" stop-opacity="0.4"/>
</linearGradient>
<linearGradient id="paint9_linear_209_1159" x1="1163.67" y1="4720.81" x2="1163.67" y2="5359.09" gradientUnits="userSpaceOnUse">
<stop stop-color="#455FE4"/>
<stop offset="1" stop-color="#2AAC95" stop-opacity="0.4"/>
<stop offset="1" stop-color="#51D4DC" stop-opacity="0.4"/>
</linearGradient>
<linearGradient id="paint10_linear_209_1159" x1="470.394" y1="87.4901" x2="470.394" y2="905.204" gradientUnits="userSpaceOnUse">
<stop stop-color="#2A85AC" stop-opacity="0.4"/>
<stop offset="1" stop-color="#238AF5"/>
</linearGradient>
<linearGradient id="paint11_linear_209_1159" x1="753.669" y1="217.472" x2="753.669" y2="855.747" gradientUnits="userSpaceOnUse">
<stop stop-color="#3065EC"/>
<stop offset="1" stop-color="#2A6EAC" stop-opacity="0.4"/>
</linearGradient>
<linearGradient id="paint12_linear_209_1159" x1="577.672" y1="-156.185" x2="577.672" y2="482.09" gradientUnits="userSpaceOnUse">
<stop stop-color="#455FE4"/>
<stop offset="1" stop-color="#2AAC95" stop-opacity="0.4"/>
<stop offset="1" stop-color="#51D4DC" stop-opacity="0.4"/>
</linearGradient>
</defs>
</svg>
