<svg width="1920" height="1920" viewBox="0 0 1920 1920" fill="none" xmlns="http://www.w3.org/2000/svg">
<rect width="1920" height="1920" />
<path opacity="0.25" d="M960 1778.95L1760 1315.13L960 851.306L160 1315.13L960 1778.95Z" fill="url(#paint0_linear_11_1614)"/>
<path d="M946.261 827.956L1335.93 1052.97V1240.33L946.261 1465.35L556.542 1240.33V1052.97L946.261 827.956Z" fill="url(#paint1_linear_11_1614)"/>
<path opacity="0.5" d="M946.261 1277.94L1335.93 1052.97L946.261 827.956L556.542 1052.97L946.261 1277.94Z" fill="url(#paint2_linear_11_1614)"/>
<path d="M947.891 1464.05L946.261 1464.97L556.542 1239.96V1053.95L558.172 1053.03L947.891 1277.99V1464.05Z" fill="url(#paint3_linear_11_1614)"/>
<g opacity="0.25">
<path opacity="0.25" d="M1244.8 1263.32L1245.78 1263.87L1313.16 1222.89V1104.22L1312.18 1103.67L1244.8 1144.7V1263.32Z" fill="#7ACFFF"/>
</g>
<path d="M946.261 605.547L1335.93 830.565V1017.98L946.261 1242.94L556.542 1017.98V830.565L946.261 605.547Z" fill="url(#paint4_linear_11_1614)"/>
<path opacity="0.25" d="M946.261 1055.58L1335.93 830.565L946.261 605.547L556.542 830.565L946.261 1055.58Z" fill="url(#paint5_linear_11_1614)"/>
<path opacity="0.5" d="M946.261 1055.58L1335.93 830.565L946.261 605.547L556.542 830.565L946.261 1055.58Z" fill="url(#paint6_linear_11_1614)"/>
<path d="M947.891 1241.64L946.261 1242.56L556.542 1017.55V831.488L558.172 830.564L947.891 1055.58V1241.64Z" fill="url(#paint7_linear_11_1614)"/>
<path d="M946.261 382.213L1335.93 607.231V794.646L946.261 1019.61L556.542 794.646V607.231L946.261 382.213Z" fill="url(#paint8_linear_11_1614)"/>
<path opacity="0.25" d="M946.261 832.249L1335.93 607.231L946.261 382.213L556.542 607.231L946.261 832.249Z" fill="url(#paint9_linear_11_1614)"/>
<path opacity="0.5" d="M946.261 832.249L1335.93 607.231L946.261 382.213L556.542 607.231L946.261 832.249Z" fill="url(#paint10_linear_11_1614)"/>
<path d="M947.891 1018.31L946.261 1019.23L556.542 794.212V608.372L558.172 607.448L947.891 832.466V1018.31Z" fill="url(#paint11_linear_11_1614)"/>
<path d="M1244.8 816.981L1245.78 817.578L1313.16 776.824V752.208L1312.19 751.665L1244.8 792.691V816.981Z" fill="#7ACFFF"/>
<path d="M980.444 1197.52L981.422 1198.06L1213.18 1063.68V1039.12L1212.2 1038.52L980.715 1172.9L980.444 1197.52Z" fill="#7ACFFF"/>
<g opacity="0.25">
<path opacity="0.25" d="M1244.8 1031.24L1245.78 1031.78L1313.16 990.757V966.195L1312.18 965.598L1244.8 1006.62V1031.24Z" fill="#7ACFFF"/>
</g>
<path style="mix-blend-mode:color-dodge" d="M1211.21 762.098C1069.93 843.607 840.507 843.172 698.465 761.175C556.423 679.177 555.662 546.644 696.943 465.135C838.225 383.627 1067.64 384.061 1209.63 466.059C1351.62 548.057 1352.33 680.59 1211.21 762.098Z" fill="url(#paint12_radial_11_1614)"/>
<path d="M996.635 619.24C987.528 628.39 975.91 634.631 963.253 637.173C950.595 639.714 937.469 638.441 925.535 633.515C913.602 628.588 903.4 620.231 896.221 609.501C889.042 598.771 885.21 586.152 885.21 573.242C885.21 560.332 889.042 547.712 896.221 536.982C903.4 526.252 913.602 517.895 925.535 512.969C937.469 508.042 950.595 506.769 963.253 509.311C975.91 511.852 987.528 518.093 996.635 527.244C1008.8 539.463 1015.62 556.002 1015.62 573.242C1015.62 590.482 1008.8 607.02 996.635 619.24Z" fill="url(#paint13_radial_11_1614)"/>
<path d="M996.635 619.24C987.528 628.39 975.91 634.631 963.253 637.173C950.595 639.714 937.469 638.441 925.535 633.515C913.602 628.588 903.4 620.231 896.221 609.501C889.042 598.771 885.21 586.152 885.21 573.242C885.21 560.332 889.042 547.712 896.221 536.982C903.4 526.252 913.602 517.895 925.535 512.969C937.469 508.042 950.595 506.769 963.253 509.311C975.91 511.852 987.528 518.093 996.635 527.244C1008.8 539.463 1015.62 556.002 1015.62 573.242C1015.62 590.482 1008.8 607.02 996.635 619.24Z" fill="url(#paint14_radial_11_1614)"/>
<path style="mix-blend-mode:color-dodge" d="M487.698 1206.54C482.658 1206.52 477.829 1204.51 474.265 1200.95C470.702 1197.39 468.693 1192.56 468.679 1187.52V759.869C468.693 754.83 470.702 750 474.265 746.437C477.829 742.873 482.658 740.865 487.698 740.851V740.851C492.742 740.851 497.579 742.854 501.146 746.421C504.713 749.988 506.716 754.825 506.716 759.869V1187.52C506.716 1192.56 504.713 1197.4 501.146 1200.97C497.579 1204.53 492.742 1206.54 487.698 1206.54V1206.54Z" fill="url(#paint15_radial_11_1614)"/>
<path style="mix-blend-mode:color-dodge" d="M297.67 1270.06C292.631 1270.04 287.802 1268.04 284.238 1264.47C280.674 1260.91 278.666 1256.08 278.652 1251.04V823.391C278.652 818.347 280.655 813.51 284.222 809.943C287.789 806.376 292.626 804.373 297.67 804.373V804.373C302.714 804.373 307.552 806.376 311.119 809.943C314.685 813.51 316.689 818.347 316.689 823.391V1251.04C316.675 1256.08 314.666 1260.91 311.103 1264.47C307.539 1268.04 302.71 1270.04 297.67 1270.06V1270.06Z" fill="url(#paint16_radial_11_1614)"/>
<path style="mix-blend-mode:color-dodge" d="M402.118 1332.71C397.078 1332.7 392.249 1330.69 388.686 1327.13C385.122 1323.56 383.114 1318.73 383.099 1313.69V886.046C383.128 881.01 385.141 876.189 388.701 872.629C392.262 869.068 397.083 867.055 402.118 867.027V867.027C407.163 867.041 411.998 869.048 415.57 872.61C419.142 876.172 421.162 881.001 421.191 886.046V1313.69C421.177 1318.74 419.161 1323.58 415.586 1327.15C412.01 1330.71 407.167 1332.71 402.118 1332.71V1332.71Z" fill="url(#paint17_radial_11_1614)"/>
<path style="mix-blend-mode:color-dodge" d="M1430.53 1183.77C1435.57 1183.74 1440.39 1181.73 1443.95 1178.17C1447.51 1174.61 1449.52 1169.79 1449.55 1164.75V737.102C1449.54 732.058 1447.53 727.223 1443.97 723.651C1440.41 720.078 1435.58 718.058 1430.53 718.029V718.029C1425.48 718.044 1420.64 720.058 1417.06 723.631C1413.49 727.205 1411.47 732.048 1411.46 737.102V1164.75C1411.49 1169.8 1413.51 1174.62 1417.08 1178.19C1420.65 1181.75 1425.49 1183.76 1430.53 1183.77V1183.77Z" fill="url(#paint18_radial_11_1614)"/>
<path style="mix-blend-mode:color-dodge" d="M1620.34 1247.24C1625.38 1247.24 1630.22 1245.23 1633.79 1241.67C1637.35 1238.1 1639.36 1233.26 1639.36 1228.22V800.57C1639.34 795.53 1637.33 790.701 1633.77 787.138C1630.21 783.574 1625.38 781.566 1620.34 781.551C1615.3 781.566 1610.47 783.574 1606.91 787.138C1603.34 790.701 1601.33 795.53 1601.32 800.57V1228.22C1601.32 1233.26 1603.32 1238.1 1606.89 1241.67C1610.46 1245.23 1615.29 1247.24 1620.34 1247.24Z" fill="url(#paint19_radial_11_1614)"/>
<path style="mix-blend-mode:color-dodge" d="M1515.89 1309.94C1520.93 1309.92 1525.75 1307.9 1529.31 1304.34C1532.87 1300.78 1534.88 1295.96 1534.91 1290.93V863.277C1534.9 858.237 1532.89 853.408 1529.33 849.845C1525.76 846.281 1520.93 844.273 1515.89 844.258V844.258C1510.84 844.258 1506 846.26 1502.43 849.825C1498.85 853.391 1496.83 858.228 1496.82 863.277V1290.93C1496.85 1295.97 1498.87 1300.8 1502.44 1304.36C1506.01 1307.92 1510.85 1309.93 1515.89 1309.94V1309.94Z" fill="url(#paint20_radial_11_1614)"/>
<path d="M1076.4 360.26C1071.89 438.019 1009.4 477.578 937.133 448.615C864.862 419.653 809.98 333.199 814.599 255.44C819.217 177.681 881.707 138.176 953.924 167.085C1026.14 195.993 1081.08 282.338 1076.4 360.26Z" fill="#021425"/>
<path d="M1076.4 360.26C1071.89 438.019 1009.4 477.578 937.133 448.615C864.862 419.653 809.98 333.199 814.599 255.44C819.217 177.681 881.707 138.176 953.924 167.085C1026.14 195.993 1081.08 282.338 1076.4 360.26Z" fill="url(#paint21_radial_11_1614)"/>
<path d="M1076.4 360.26C1071.89 438.019 1009.4 477.578 937.133 448.615C864.862 419.653 809.98 333.199 814.599 255.44C819.217 177.681 881.707 138.176 953.924 167.085C1026.14 195.993 1081.08 282.338 1076.4 360.26Z" fill="url(#paint22_radial_11_1614)"/>
<path d="M1076.4 360.26C1071.89 438.019 1009.4 477.578 937.133 448.615C864.862 419.653 809.98 333.199 814.599 255.44C819.217 177.681 881.707 138.176 953.924 167.085C1026.14 195.993 1081.08 282.338 1076.4 360.26Z" fill="url(#paint23_radial_11_1614)" fill-opacity="0.5"/>
<g opacity="0.75">
<path opacity="0.75" d="M1049.01 332.112C1045.69 387.375 1001.35 415.523 949.946 394.928C898.542 374.334 859.526 312.876 863.004 257.613C866.482 202.351 910.442 174.203 961.847 194.743C1013.25 215.283 1052.27 276.904 1049.01 332.112Z" fill="url(#paint24_radial_11_1614)"/>
<path opacity="0.75" d="M1049.01 332.112C1045.69 387.375 1001.35 415.523 949.946 394.928C898.542 374.334 859.526 312.876 863.004 257.613C866.482 202.351 910.442 174.203 961.847 194.743C1013.25 215.283 1052.27 276.904 1049.01 332.112Z" fill="url(#paint25_radial_11_1614)"/>
</g>
<path d="M1076.07 360.423C1073.74 399.602 1056.73 429.108 1031.19 444.975L1057.65 428.184C1083.14 412.263 1100.15 382.811 1102.48 343.632C1107.1 265.873 1052.22 179.42 979.948 150.457C943.54 135.894 909.633 138.72 884.365 155.022L857.902 171.758C883.17 155.456 917.077 152.576 953.539 167.193C1025.81 196.211 1080.69 282.718 1076.07 360.423Z" fill="#011321"/>
<path d="M1076.07 360.423C1073.74 399.602 1056.73 429.108 1031.19 444.975L1057.65 428.184C1083.14 412.263 1100.15 382.811 1102.48 343.632C1107.1 265.873 1052.22 179.42 979.948 150.457C943.54 135.894 909.633 138.72 884.365 155.022L857.902 171.758C883.17 155.456 917.077 152.576 953.539 167.193C1025.81 196.211 1080.69 282.718 1076.07 360.423Z" fill="url(#paint26_linear_11_1614)"/>
<path d="M1076.4 360.26C1071.89 438.019 1009.4 477.578 937.133 448.615C864.862 419.653 809.98 333.199 814.599 255.44C819.217 177.681 881.707 138.176 953.924 167.085C1026.14 195.993 1081.08 282.338 1076.4 360.26Z" fill="#021425"/>
<path d="M1076.4 360.26C1071.89 438.019 1009.4 477.578 937.133 448.615C864.862 419.653 809.98 333.199 814.599 255.44C819.217 177.681 881.707 138.176 953.924 167.085C1026.14 195.993 1081.08 282.338 1076.4 360.26Z" fill="url(#paint27_radial_11_1614)"/>
<path d="M1076.4 360.26C1071.89 438.019 1009.4 477.578 937.133 448.615C864.862 419.653 809.98 333.199 814.599 255.44C819.217 177.681 881.707 138.176 953.924 167.085C1026.14 195.993 1081.08 282.338 1076.4 360.26Z" fill="url(#paint28_radial_11_1614)"/>
<path d="M1076.4 360.26C1071.89 438.019 1009.4 477.578 937.133 448.615C864.862 419.653 809.98 333.199 814.599 255.44C819.217 177.681 881.707 138.176 953.924 167.085C1026.14 195.993 1081.08 282.338 1076.4 360.26Z" fill="url(#paint29_radial_11_1614)" fill-opacity="0.5"/>
<g opacity="0.75">
<path opacity="0.75" d="M1049.01 332.112C1045.69 387.375 1001.35 415.523 949.946 394.928C898.542 374.334 859.526 312.876 863.004 257.613C866.482 202.351 910.442 174.203 961.847 194.743C1013.25 215.283 1052.27 276.904 1049.01 332.112Z" fill="url(#paint30_radial_11_1614)"/>
<path opacity="0.75" d="M1049.01 332.112C1045.69 387.375 1001.35 415.523 949.946 394.928C898.542 374.334 859.526 312.876 863.004 257.613C866.482 202.351 910.442 174.203 961.847 194.743C1013.25 215.283 1052.27 276.904 1049.01 332.112Z" fill="url(#paint31_radial_11_1614)"/>
</g>
<path d="M1076.07 360.423C1073.74 399.602 1056.73 429.108 1031.19 444.975L1057.65 428.184C1083.14 412.263 1100.15 382.811 1102.48 343.632C1107.1 265.873 1052.22 179.42 979.948 150.457C943.54 135.894 909.633 138.72 884.365 155.022L857.902 171.758C883.17 155.456 917.077 152.576 953.539 167.193C1025.81 196.211 1080.69 282.718 1076.07 360.423Z" fill="#011321"/>
<path d="M1076.07 360.423C1073.74 399.602 1056.73 429.108 1031.19 444.975L1057.65 428.184C1083.14 412.263 1100.15 382.811 1102.48 343.632C1107.1 265.873 1052.22 179.42 979.948 150.457C943.54 135.894 909.633 138.72 884.365 155.022L857.902 171.758C883.17 155.456 917.077 152.576 953.539 167.193C1025.81 196.211 1080.69 282.718 1076.07 360.423Z" fill="url(#paint32_linear_11_1614)"/>
<defs>
<linearGradient id="paint0_linear_11_1614" x1="160" y1="1315.13" x2="1760" y2="1315.13" gradientUnits="userSpaceOnUse">
<stop stop-color="#50C0FF" stop-opacity="0.5"/>
<stop offset="1" stop-color="#000B1B" stop-opacity="0.57"/>
</linearGradient>
<linearGradient id="paint1_linear_11_1614" x1="1392.66" y1="1404.93" x2="614.902" y2="954.892" gradientUnits="userSpaceOnUse">
<stop stop-color="#5076FF" stop-opacity="0.25"/>
<stop offset="1" stop-color="#455FE4" stop-opacity="0"/>
</linearGradient>
<linearGradient id="paint2_linear_11_1614" x1="556.542" y1="1052.92" x2="1335.93" y2="1052.92" gradientUnits="userSpaceOnUse">
<stop stop-color="#50C0FF" stop-opacity="0.5"/>
<stop offset="1" stop-color="#000B1B" stop-opacity="0.57"/>
</linearGradient>
<linearGradient id="paint3_linear_11_1614" x1="640.332" y1="1504.21" x2="1032.28" y2="645.052" gradientUnits="userSpaceOnUse">
<stop stop-color="#30CDFF" stop-opacity="0.76"/>
<stop offset="1" stop-color="#00A3FF" stop-opacity="0"/>
</linearGradient>
<linearGradient id="paint4_linear_11_1614" x1="1392.66" y1="1182.52" x2="614.902" y2="732.537" gradientUnits="userSpaceOnUse">
<stop stop-color="#5076FF" stop-opacity="0.25"/>
<stop offset="1" stop-color="#455FE4" stop-opacity="0"/>
</linearGradient>
<linearGradient id="paint5_linear_11_1614" x1="556.542" y1="830.511" x2="1335.93" y2="830.511" gradientUnits="userSpaceOnUse">
<stop stop-color="#50C0FF" stop-opacity="0.5"/>
<stop offset="1" stop-color="#000B1B" stop-opacity="0.57"/>
</linearGradient>
<linearGradient id="paint6_linear_11_1614" x1="556.542" y1="830.511" x2="1335.93" y2="830.511" gradientUnits="userSpaceOnUse">
<stop stop-color="#50C0FF" stop-opacity="0.5"/>
<stop offset="1" stop-color="#000B1B" stop-opacity="0.57"/>
</linearGradient>
<linearGradient id="paint7_linear_11_1614" x1="640.332" y1="1281.85" x2="1032.28" y2="422.695" gradientUnits="userSpaceOnUse">
<stop stop-color="#30CDFF" stop-opacity="0.76"/>
<stop offset="1" stop-color="#00A3FF" stop-opacity="0"/>
</linearGradient>
<linearGradient id="paint8_linear_11_1614" x1="1392.66" y1="959.185" x2="614.902" y2="509.203" gradientUnits="userSpaceOnUse">
<stop stop-color="#5076FF" stop-opacity="0.25"/>
<stop offset="1" stop-color="#455FE4" stop-opacity="0"/>
</linearGradient>
<linearGradient id="paint9_linear_11_1614" x1="556.542" y1="607.177" x2="1335.93" y2="607.177" gradientUnits="userSpaceOnUse">
<stop stop-color="#50C0FF" stop-opacity="0.5"/>
<stop offset="1" stop-color="#000B1B" stop-opacity="0.57"/>
</linearGradient>
<linearGradient id="paint10_linear_11_1614" x1="556.542" y1="607.177" x2="1335.93" y2="607.177" gradientUnits="userSpaceOnUse">
<stop stop-color="#50C0FF" stop-opacity="0.5"/>
<stop offset="1" stop-color="#000B1B" stop-opacity="0.57"/>
</linearGradient>
<linearGradient id="paint11_linear_11_1614" x1="555.074" y1="1233.81" x2="947.076" y2="397.482" gradientUnits="userSpaceOnUse">
<stop stop-color="#30CDFF" stop-opacity="0.76"/>
<stop offset="1" stop-color="#00A3FF" stop-opacity="0"/>
</linearGradient>
<radialGradient id="paint12_radial_11_1614" cx="0" cy="0" r="1" gradientUnits="userSpaceOnUse" gradientTransform="translate(943.075 618.344) rotate(29.8865) scale(297.986 255.991)">
<stop stop-color="#00E5FF"/>
<stop offset="0.85" stop-opacity="0"/>
</radialGradient>
<radialGradient id="paint13_radial_11_1614" cx="0" cy="0" r="1" gradientUnits="userSpaceOnUse" gradientTransform="translate(988.471 523.106) rotate(135) scale(108.062)">
<stop stop-color="white" stop-opacity="0"/>
<stop offset="0.67" stop-color="#3E9DFF" stop-opacity="0"/>
<stop offset="1" stop-color="#3E9DFF" stop-opacity="0.43"/>
</radialGradient>
<radialGradient id="paint14_radial_11_1614" cx="0" cy="0" r="1" gradientUnits="userSpaceOnUse" gradientTransform="translate(868.727 596.951) rotate(-29.9871) scale(119.046)">
<stop stop-color="white"/>
<stop offset="0.46" stop-color="#72DDFF"/>
<stop offset="0.73" stop-color="#50C0FF"/>
<stop offset="1" stop-color="#0E67BA"/>
</radialGradient>
<radialGradient id="paint15_radial_11_1614" cx="0" cy="0" r="1" gradientUnits="userSpaceOnUse" gradientTransform="translate(498.131 712.987) scale(448.026 443.545)">
<stop stop-color="#D3FFE6"/>
<stop offset="0.85" stop-opacity="0"/>
</radialGradient>
<radialGradient id="paint16_radial_11_1614" cx="0" cy="0" r="1" gradientUnits="userSpaceOnUse" gradientTransform="translate(308.104 776.146) scale(448.026 443.545)">
<stop stop-color="#D3FFE6"/>
<stop offset="0.85" stop-opacity="0"/>
</radialGradient>
<radialGradient id="paint17_radial_11_1614" cx="0" cy="0" r="1" gradientUnits="userSpaceOnUse" gradientTransform="translate(412.551 838.554) scale(448.026 443.545)">
<stop stop-color="#D3FFE6"/>
<stop offset="0.85" stop-opacity="0"/>
</radialGradient>
<radialGradient id="paint18_radial_11_1614" cx="0" cy="0" r="1" gradientUnits="userSpaceOnUse" gradientTransform="translate(1419.88 690.285) rotate(180) scale(448.025 443.545)">
<stop stop-color="#D3FFE6"/>
<stop offset="0.85" stop-opacity="0"/>
</radialGradient>
<radialGradient id="paint19_radial_11_1614" cx="0" cy="0" r="1" gradientUnits="userSpaceOnUse" gradientTransform="translate(1609.91 753.498) rotate(180) scale(448.026 443.545)">
<stop stop-color="#D3FFE6"/>
<stop offset="0.85" stop-opacity="0"/>
</radialGradient>
<radialGradient id="paint20_radial_11_1614" cx="0" cy="0" r="1" gradientUnits="userSpaceOnUse" gradientTransform="translate(1505.41 815.904) rotate(180) scale(448.026 443.545)">
<stop stop-color="#D3FFE6"/>
<stop offset="0.85" stop-opacity="0"/>
</radialGradient>
<radialGradient id="paint21_radial_11_1614" cx="0" cy="0" r="1" gradientUnits="userSpaceOnUse" gradientTransform="translate(952.342 129.552) rotate(93.4106) scale(241.687 229.312)">
<stop stop-color="#133A74"/>
<stop offset="1" stop-color="#134974" stop-opacity="0"/>
</radialGradient>
<radialGradient id="paint22_radial_11_1614" cx="0" cy="0" r="1" gradientUnits="userSpaceOnUse" gradientTransform="translate(920.295 312.232) rotate(93.4066) scale(155.059 147.122)">
<stop stop-color="#2A6AAC" stop-opacity="0"/>
<stop offset="0.75" stop-color="#4441CB" stop-opacity="0"/>
<stop offset="1" stop-color="#2A6AAC"/>
</radialGradient>
<radialGradient id="paint23_radial_11_1614" cx="0" cy="0" r="1" gradientUnits="userSpaceOnUse" gradientTransform="translate(956.534 281.348) rotate(93.4132) scale(147.858 140.273)">
<stop stop-color="white" stop-opacity="0"/>
<stop offset="0.93" stop-color="#3E9DFF" stop-opacity="0"/>
<stop offset="1" stop-color="#3E9DFF"/>
</radialGradient>
<radialGradient id="paint24_radial_11_1614" cx="0" cy="0" r="1" gradientUnits="userSpaceOnUse" gradientTransform="translate(956.373 184.607) rotate(94.4748) scale(208.355 197.701)">
<stop stop-color="#1D88D5"/>
<stop offset="1" stop-color="#133A74" stop-opacity="0.41"/>
</radialGradient>
<radialGradient id="paint25_radial_11_1614" cx="0" cy="0" r="1" gradientUnits="userSpaceOnUse" gradientTransform="translate(933.758 314.215) rotate(91.3195) scale(119.781 113.646)">
<stop stop-color="#2A6AAC" stop-opacity="0"/>
<stop offset="0.75" stop-color="#4441CB" stop-opacity="0"/>
<stop offset="1" stop-color="#2A6AAC"/>
</radialGradient>
<linearGradient id="paint26_linear_11_1614" x1="1096.34" y1="403.786" x2="909.524" y2="129.591" gradientUnits="userSpaceOnUse">
<stop stop-color="#50C0FF"/>
<stop offset="0.81" stop-color="#4982EE" stop-opacity="0"/>
<stop offset="0.86" stop-color="#4877EB" stop-opacity="0.28"/>
<stop offset="1" stop-color="#455FE4" stop-opacity="0.25"/>
</linearGradient>
<radialGradient id="paint27_radial_11_1614" cx="0" cy="0" r="1" gradientUnits="userSpaceOnUse" gradientTransform="translate(952.342 129.552) rotate(93.4106) scale(241.687 229.312)">
<stop stop-color="#133A74"/>
<stop offset="1" stop-color="#134974" stop-opacity="0"/>
</radialGradient>
<radialGradient id="paint28_radial_11_1614" cx="0" cy="0" r="1" gradientUnits="userSpaceOnUse" gradientTransform="translate(920.295 312.232) rotate(93.4066) scale(155.059 147.122)">
<stop stop-color="#2A6AAC" stop-opacity="0"/>
<stop offset="0.75" stop-color="#4441CB" stop-opacity="0"/>
<stop offset="1" stop-color="#2A6AAC"/>
</radialGradient>
<radialGradient id="paint29_radial_11_1614" cx="0" cy="0" r="1" gradientUnits="userSpaceOnUse" gradientTransform="translate(956.534 281.348) rotate(93.4132) scale(147.858 140.273)">
<stop stop-color="white" stop-opacity="0"/>
<stop offset="0.93" stop-color="#3E9DFF" stop-opacity="0"/>
<stop offset="1" stop-color="#3E9DFF"/>
</radialGradient>
<radialGradient id="paint30_radial_11_1614" cx="0" cy="0" r="1" gradientUnits="userSpaceOnUse" gradientTransform="translate(956.373 184.607) rotate(94.4748) scale(208.355 197.701)">
<stop stop-color="#1D88D5"/>
<stop offset="1" stop-color="#133A74" stop-opacity="0.41"/>
</radialGradient>
<radialGradient id="paint31_radial_11_1614" cx="0" cy="0" r="1" gradientUnits="userSpaceOnUse" gradientTransform="translate(933.758 314.215) rotate(91.3195) scale(119.781 113.646)">
<stop stop-color="#2A6AAC" stop-opacity="0"/>
<stop offset="0.75" stop-color="#4441CB" stop-opacity="0"/>
<stop offset="1" stop-color="#2A6AAC"/>
</radialGradient>
<linearGradient id="paint32_linear_11_1614" x1="1131.72" y1="479.643" x2="854.37" y2="17.6523" gradientUnits="userSpaceOnUse">
<stop stop-color="#50C0FF"/>
<stop offset="0.81" stop-color="#4982EE" stop-opacity="0"/>
<stop offset="0.86" stop-color="#4877EB" stop-opacity="0.28"/>
<stop offset="1" stop-color="#455FE4" stop-opacity="0.25"/>
</linearGradient>
</defs>
</svg>
