<svg width="1920" height="1920" viewBox="0 0 1920 1920" fill="none" xmlns="http://www.w3.org/2000/svg">
<rect width="1920" height="1920" />
<path opacity="0.25" d="M960.5 1730L1806 1243.6L960.5 757.2L115 1243.6L960.5 1730Z" fill="url(#paint0_linear_11_569)"/>
<g filter="url(#filter0_f_11_569)">
<path opacity="0.25" d="M582.407 1511.09L583.887 1511.94L937.492 1308.62V402.248L936.013 401.397L582.407 604.718V1511.09Z" fill="url(#paint1_linear_11_569)"/>
<path opacity="0.25" d="M759.946 1511.09L761.425 1511.94L1115.03 1308.62V402.248L1113.55 401.397L759.946 604.718V1511.09Z" fill="url(#paint2_linear_11_569)"/>
</g>
<g clip-path="url(#clip0_11_569)">
<path d="M1603.1 610.223C1598.26 692.841 1531.65 734.875 1454.53 704.134C1377.41 673.393 1318.89 581.46 1323.73 498.842C1328.58 416.223 1395.28 374.383 1472.41 404.979C1549.53 435.575 1608.04 527.652 1603.1 610.223Z" fill="#021425"/>
<path d="M1603.1 610.223C1598.26 692.841 1531.65 734.875 1454.53 704.134C1377.41 673.393 1318.89 581.46 1323.73 498.842C1328.58 416.223 1395.28 374.383 1472.41 404.979C1549.53 435.575 1608.04 527.652 1603.1 610.223Z" fill="url(#paint3_radial_11_569)"/>
<path d="M1603.1 610.223C1598.26 692.841 1531.65 734.875 1454.53 704.134C1377.41 673.393 1318.89 581.46 1323.73 498.842C1328.58 416.223 1395.28 374.383 1472.41 404.979C1549.53 435.575 1608.04 527.652 1603.1 610.223Z" fill="url(#paint4_radial_11_569)"/>
<path d="M1603.1 610.223C1598.26 692.841 1531.65 734.875 1454.53 704.134C1377.41 673.393 1318.89 581.46 1323.73 498.842C1328.58 416.223 1395.28 374.383 1472.41 404.979C1549.53 435.575 1608.04 527.652 1603.1 610.223Z" fill="url(#paint5_radial_11_569)" fill-opacity="0.5"/>
<g opacity="0.75">
<path opacity="0.75" d="M1573.84 580.35C1570.36 639.081 1523.03 668.953 1468.19 647.092C1413.35 625.231 1371.79 559.889 1375.28 501.158C1378.77 442.427 1426.09 412.507 1480.93 434.368C1535.77 456.229 1577.33 521.62 1573.84 580.35Z" fill="url(#paint6_radial_11_569)"/>
<path opacity="0.75" d="M1573.84 580.35C1570.36 639.081 1523.03 668.953 1468.19 647.092C1413.35 625.231 1371.79 559.889 1375.28 501.158C1378.77 442.427 1426.09 412.507 1480.93 434.368C1535.77 456.229 1577.33 521.62 1573.84 580.35Z" fill="url(#paint7_radial_11_569)"/>
</g>
<path d="M1602.72 610.464C1600.25 652.063 1582.13 683.383 1554.9 700.273L1583.1 682.417C1610.32 665.527 1628.44 634.159 1630.91 592.608C1635.75 509.989 1577.33 418.057 1500.11 387.316C1461.36 371.825 1425.08 374.817 1398.14 392.142L1369.95 409.949C1396.88 392.624 1432.92 389.632 1471.68 405.123C1549.14 435.912 1607.66 527.845 1602.72 610.464Z" fill="#011321"/>
<path d="M1602.72 610.464C1600.25 652.063 1582.13 683.383 1554.9 700.273L1583.1 682.417C1610.32 665.527 1628.44 634.159 1630.91 592.608C1635.75 509.989 1577.33 418.057 1500.11 387.316C1461.36 371.825 1425.08 374.817 1398.14 392.142L1369.95 409.949C1396.88 392.624 1432.92 389.632 1471.68 405.123C1549.14 435.912 1607.66 527.845 1602.72 610.464Z" fill="url(#paint8_linear_11_569)"/>
<path d="M1485.77 719.094C1479.72 820.437 1398.29 871.688 1303.87 834.046C1209.46 796.404 1137.86 683.865 1144.01 582.763C1150.16 481.662 1231.5 430.17 1325.87 467.86C1420.23 505.55 1491.83 617.992 1485.77 719.094Z" fill="#021425"/>
<path d="M1485.77 719.094C1479.72 820.437 1398.29 871.688 1303.87 834.046C1209.46 796.404 1137.86 683.865 1144.01 582.763C1150.16 481.662 1231.5 430.17 1325.87 467.86C1420.23 505.55 1491.83 617.992 1485.77 719.094Z" fill="url(#paint9_radial_11_569)"/>
<path d="M1485.77 719.094C1479.72 820.437 1398.29 871.688 1303.87 834.046C1209.46 796.404 1137.86 683.865 1144.01 582.763C1150.16 481.662 1231.5 430.17 1325.87 467.86C1420.23 505.55 1491.83 617.992 1485.77 719.094Z" fill="url(#paint10_radial_11_569)"/>
<path d="M1485.77 719.094C1479.72 820.437 1398.29 871.688 1303.87 834.046C1209.46 796.404 1137.86 683.865 1144.01 582.763C1150.16 481.662 1231.5 430.17 1325.87 467.86C1420.23 505.55 1491.83 617.992 1485.77 719.094Z" fill="url(#paint11_radial_11_569)" fill-opacity="0.5"/>
<g opacity="0.75">
<path opacity="0.75" d="M1449.98 682.514C1445.66 754.419 1387.78 790.999 1320.63 764.216C1253.49 737.432 1202.58 657.468 1206.89 585.659C1211.2 513.85 1269.09 477.174 1336.18 503.909C1403.28 530.644 1454.24 610.85 1449.98 682.514Z" fill="url(#paint12_radial_11_569)"/>
<path opacity="0.75" d="M1449.98 682.514C1445.66 754.419 1387.78 790.999 1320.63 764.216C1253.49 737.432 1202.58 657.468 1206.89 585.659C1211.2 513.85 1269.09 477.174 1336.18 503.909C1403.28 530.644 1454.24 610.85 1449.98 682.514Z" fill="url(#paint13_radial_11_569)"/>
</g>
<path d="M1485.29 719.335C1482.24 770.296 1460.05 808.662 1426.72 829.317L1461.26 807.504C1494.64 786.801 1516.78 748.435 1519.83 697.522C1525.89 596.179 1454.24 483.882 1359.97 446.24C1312.4 427.274 1267.93 430.942 1235.13 452.176L1200.64 473.94C1233.63 452.755 1277.91 449.087 1325.43 468.053C1419.7 505.743 1491.35 618.234 1485.29 719.335Z" fill="#011321"/>
<path d="M1485.29 719.335C1482.24 770.296 1460.05 808.662 1426.72 829.317L1461.26 807.504C1494.64 786.801 1516.78 748.435 1519.83 697.522C1525.89 596.179 1454.24 483.882 1359.97 446.24C1312.4 427.274 1267.93 430.942 1235.13 452.176L1200.64 473.94C1233.63 452.755 1277.91 449.087 1325.43 468.053C1419.7 505.743 1491.35 618.234 1485.29 719.335Z" fill="url(#paint14_linear_11_569)"/>
<path d="M986.088 640.143L697.418 474.133L553.107 676.868L697.418 1045.61L986.088 1211.67L1130.4 1008.89L986.088 640.143Z" fill="url(#paint15_linear_11_569)"/>
<path d="M1072.95 590.147L986.088 640.143L696.982 474.761L784.664 424.33L1072.95 590.147Z" fill="url(#paint16_linear_11_569)"/>
<path d="M1130.4 1008.89L1217.26 958.939L1072.95 590.147L986.088 640.143L1130.4 1008.89Z" fill="url(#paint17_radial_11_569)"/>
<path d="M986.088 1211.67L1072.95 1161.67L1217.26 958.939L1130.4 1008.89L986.088 1211.67Z" fill="url(#paint18_linear_11_569)"/>
<path d="M935.417 711.324L748.089 603.611L654.45 735.164L748.089 974.43L935.417 1082.19L1029.06 950.639L935.417 711.324Z" fill="#021421"/>
<path d="M991.466 925.303L550.783 1178.76L494.056 1146.13L934.788 892.68L991.466 925.303Z" fill="url(#paint19_linear_11_569)"/>
<path d="M1029.06 950.591L975.189 1026.31L588.035 1248.97L542.596 1222.82L531.309 1216.35L1022.52 933.797L1029.06 950.591Z" fill="url(#paint20_linear_11_569)"/>
<path d="M985.846 840.223L350.327 1205.73L293.6 1173.11L965.016 786.946L985.846 840.223Z" fill="url(#paint21_linear_11_569)"/>
<path d="M826.712 840.657L534.118 1008.89L477.392 976.264L769.937 808.035L826.712 840.657Z" fill="url(#paint22_linear_11_569)"/>
<path d="M1433.36 1036.68C1413.98 1361.13 1152.68 1526.22 849.819 1405.43C546.955 1284.64 317.192 923.71 336.569 599.268C355.946 274.825 617.246 109.781 920.11 230.572C1222.97 351.363 1452.74 712.193 1433.36 1036.68Z" fill="url(#paint23_radial_11_569)"/>
</g>
<defs>
<filter id="filter0_f_11_569" x="547.407" y="366.397" width="602.624" height="1180.54" filterUnits="userSpaceOnUse" color-interpolation-filters="sRGB">
<feFlood flood-opacity="0" result="BackgroundImageFix"/>
<feBlend mode="normal" in="SourceGraphic" in2="BackgroundImageFix" result="shape"/>
<feGaussianBlur stdDeviation="17.5" result="effect1_foregroundBlur_11_569"/>
</filter>
<linearGradient id="paint0_linear_11_569" x1="115" y1="1243.6" x2="1806" y2="1243.6" gradientUnits="userSpaceOnUse">
<stop stop-color="#50C0FF" stop-opacity="0.5"/>
<stop offset="1" stop-color="#000B1B" stop-opacity="0.57"/>
</linearGradient>
<linearGradient id="paint1_linear_11_569" x1="583.886" y1="1431.4" x2="585.847" y2="616.27" gradientUnits="userSpaceOnUse">
<stop stop-color="#0047FF" stop-opacity="0"/>
<stop offset="1" stop-color="#305DFF" stop-opacity="0.76"/>
</linearGradient>
<linearGradient id="paint2_linear_11_569" x1="761.425" y1="1431.4" x2="763.385" y2="616.27" gradientUnits="userSpaceOnUse">
<stop stop-color="#00A3FF" stop-opacity="0"/>
<stop offset="1" stop-color="#30CDFF" stop-opacity="0.76"/>
</linearGradient>
<radialGradient id="paint3_radial_11_569" cx="0" cy="0" r="1" gradientUnits="userSpaceOnUse" gradientTransform="translate(1502.28 322.279) rotate(93.4236) scale(258.37 246.069)">
<stop stop-color="#133A74"/>
<stop offset="1" stop-color="#134974" stop-opacity="0"/>
</radialGradient>
<radialGradient id="paint4_radial_11_569" cx="0" cy="0" r="1" gradientUnits="userSpaceOnUse" gradientTransform="translate(1483.44 554.239) rotate(93.4195) scale(165.762 157.873)">
<stop stop-color="#2A6AAC" stop-opacity="0"/>
<stop offset="0.75" stop-color="#4441CB" stop-opacity="0"/>
<stop offset="1" stop-color="#2A6AAC"/>
</radialGradient>
<radialGradient id="paint5_radial_11_569" cx="0" cy="0" r="1" gradientUnits="userSpaceOnUse" gradientTransform="translate(1487.64 567.246) rotate(93.4262) scale(158.064 150.524)">
<stop stop-color="white" stop-opacity="0"/>
<stop offset="0.93" stop-color="#3E9DFF" stop-opacity="0"/>
<stop offset="1" stop-color="#3E9DFF"/>
</radialGradient>
<radialGradient id="paint6_radial_11_569" cx="0" cy="0" r="1" gradientUnits="userSpaceOnUse" gradientTransform="translate(1488.31 369.022) rotate(94.4918) scale(222.739 212.146)">
<stop stop-color="#1D88D5"/>
<stop offset="1" stop-color="#133A74" stop-opacity="0.41"/>
</radialGradient>
<radialGradient id="paint7_radial_11_569" cx="0" cy="0" r="1" gradientUnits="userSpaceOnUse" gradientTransform="translate(1500.28 574.066) rotate(91.3245) scale(128.047 121.952)">
<stop stop-color="#2A6AAC" stop-opacity="0"/>
<stop offset="0.75" stop-color="#4441CB" stop-opacity="0"/>
<stop offset="1" stop-color="#2A6AAC"/>
</radialGradient>
<linearGradient id="paint8_linear_11_569" x1="1624.32" y1="656.551" x2="1426.06" y2="364.415" gradientUnits="userSpaceOnUse">
<stop stop-color="#50C0FF"/>
<stop offset="0.81" stop-color="#4982EE" stop-opacity="0"/>
<stop offset="0.86" stop-color="#4877EB" stop-opacity="0.28"/>
<stop offset="1" stop-color="#455FE4" stop-opacity="0.25"/>
</linearGradient>
<radialGradient id="paint9_radial_11_569" cx="0" cy="0" r="1" gradientUnits="userSpaceOnUse" gradientTransform="translate(1359.13 369.525) rotate(93.4236) scale(314.018 299.068)">
<stop stop-color="#133A74"/>
<stop offset="1" stop-color="#134974" stop-opacity="0"/>
</radialGradient>
<radialGradient id="paint10_radial_11_569" cx="0" cy="0" r="1" gradientUnits="userSpaceOnUse" gradientTransform="translate(1336.73 647.723) rotate(93.4195) scale(201.464 191.877)">
<stop stop-color="#2A6AAC" stop-opacity="0"/>
<stop offset="0.75" stop-color="#4441CB" stop-opacity="0"/>
<stop offset="1" stop-color="#2A6AAC"/>
</radialGradient>
<radialGradient id="paint11_radial_11_569" cx="0" cy="0" r="1" gradientUnits="userSpaceOnUse" gradientTransform="translate(1338.21 660.7) rotate(93.4262) scale(192.109 182.944)">
<stop stop-color="white" stop-opacity="0"/>
<stop offset="0.93" stop-color="#3E9DFF" stop-opacity="0"/>
<stop offset="1" stop-color="#3E9DFF"/>
</radialGradient>
<radialGradient id="paint12_radial_11_569" cx="0" cy="0" r="1" gradientUnits="userSpaceOnUse" gradientTransform="translate(1343.03 426.431) rotate(94.4918) scale(270.713 257.839)">
<stop stop-color="#1D88D5"/>
<stop offset="1" stop-color="#133A74" stop-opacity="0.41"/>
</radialGradient>
<radialGradient id="paint13_radial_11_569" cx="0" cy="0" r="1" gradientUnits="userSpaceOnUse" gradientTransform="translate(1353.58 669.231) rotate(91.3245) scale(155.627 148.219)">
<stop stop-color="#2A6AAC" stop-opacity="0"/>
<stop offset="0.75" stop-color="#4441CB" stop-opacity="0"/>
<stop offset="1" stop-color="#2A6AAC"/>
</radialGradient>
<linearGradient id="paint14_linear_11_569" x1="1511.69" y1="775.75" x2="1269.05" y2="418.21" gradientUnits="userSpaceOnUse">
<stop stop-color="#50C0FF"/>
<stop offset="0.81" stop-color="#4982EE" stop-opacity="0"/>
<stop offset="0.86" stop-color="#4877EB" stop-opacity="0.28"/>
<stop offset="1" stop-color="#455FE4" stop-opacity="0.25"/>
</linearGradient>
<linearGradient id="paint15_linear_11_569" x1="604.796" y1="1163.22" x2="1000.55" y2="624.129" gradientUnits="userSpaceOnUse">
<stop stop-color="#0F496A"/>
<stop offset="0.14" stop-color="#519CE0"/>
<stop offset="0.31" stop-color="#4893EC" stop-opacity="0.68"/>
<stop offset="0.88" stop-color="#3374B0" stop-opacity="0.06"/>
<stop offset="0.98" stop-color="#205893" stop-opacity="0.25"/>
</linearGradient>
<linearGradient id="paint16_linear_11_569" x1="584.692" y1="381.67" x2="1112.63" y2="648.078" gradientUnits="userSpaceOnUse">
<stop stop-color="#0F496A"/>
<stop offset="0.14" stop-color="#519CE0"/>
<stop offset="0.31" stop-color="#4893EC" stop-opacity="0.68"/>
<stop offset="0.88" stop-color="#3374B0" stop-opacity="0.06"/>
<stop offset="0.98" stop-color="#205893" stop-opacity="0.25"/>
</linearGradient>
<radialGradient id="paint17_radial_11_569" cx="0" cy="0" r="1" gradientUnits="userSpaceOnUse" gradientTransform="translate(1180.59 15.3869) scale(1009.01 1005.18)">
<stop stop-color="#2A6AAC" stop-opacity="0"/>
<stop offset="0.75" stop-color="#4441CB" stop-opacity="0"/>
<stop offset="1" stop-color="#2A6AAC"/>
</radialGradient>
<linearGradient id="paint18_linear_11_569" x1="1042.81" y1="1309.35" x2="1130.11" y2="974.461" gradientUnits="userSpaceOnUse">
<stop stop-color="#0F496A"/>
<stop offset="0.14" stop-color="#519CE0"/>
<stop offset="0.31" stop-color="#4893EC" stop-opacity="0.68"/>
<stop offset="0.88" stop-color="#3374B0" stop-opacity="0.06"/>
<stop offset="0.98" stop-color="#205893" stop-opacity="0.25"/>
</linearGradient>
<linearGradient id="paint19_linear_11_569" x1="864.11" y1="840.464" x2="627.997" y2="1223.28" gradientUnits="userSpaceOnUse">
<stop stop-color="#0F496A"/>
<stop offset="0.14" stop-color="#519CE0"/>
<stop offset="0.31" stop-color="#4893EC" stop-opacity="0.68"/>
<stop offset="0.88" stop-color="#3374B0" stop-opacity="0.06"/>
<stop offset="0.98" stop-color="#205893" stop-opacity="0.25"/>
</linearGradient>
<linearGradient id="paint20_linear_11_569" x1="917.688" y1="862.181" x2="655.656" y2="1287.03" gradientUnits="userSpaceOnUse">
<stop stop-color="#0F496A"/>
<stop offset="0.14" stop-color="#519CE0"/>
<stop offset="0.31" stop-color="#4893EC" stop-opacity="0.68"/>
<stop offset="0.88" stop-color="#3374B0" stop-opacity="0.06"/>
<stop offset="0.98" stop-color="#205893" stop-opacity="0.25"/>
</linearGradient>
<linearGradient id="paint21_linear_11_569" x1="832.816" y1="695.882" x2="474.72" y2="1276.59" gradientUnits="userSpaceOnUse">
<stop stop-color="#0F496A"/>
<stop offset="0.14" stop-color="#519CE0"/>
<stop offset="0.31" stop-color="#4893EC" stop-opacity="0.68"/>
<stop offset="0.88" stop-color="#3374B0" stop-opacity="0.06"/>
<stop offset="0.98" stop-color="#205893" stop-opacity="0.25"/>
</linearGradient>
<linearGradient id="paint22_linear_11_569" x1="730.892" y1="781.589" x2="574.078" y2="1035.87" gradientUnits="userSpaceOnUse">
<stop stop-color="#0F496A"/>
<stop offset="0.14" stop-color="#519CE0"/>
<stop offset="0.31" stop-color="#4893EC" stop-opacity="0.68"/>
<stop offset="0.88" stop-color="#3374B0" stop-opacity="0.06"/>
<stop offset="0.98" stop-color="#205893" stop-opacity="0.25"/>
</linearGradient>
<radialGradient id="paint23_radial_11_569" cx="0" cy="0" r="1" gradientUnits="userSpaceOnUse" gradientTransform="translate(905.533 883.878) rotate(91.3245) scale(701.306 667.925)">
<stop stop-color="#2A6AAC" stop-opacity="0"/>
<stop offset="0.75" stop-color="#4441CB" stop-opacity="0"/>
<stop offset="1" stop-color="#2A6AAC"/>
</radialGradient>
<clipPath id="clip0_11_569">
<rect width="1337.6" height="1254" fill="white" transform="translate(293.6 191)"/>
</clipPath>
</defs>
</svg>
