<svg width="1920" height="1920" viewBox="0 0 1920 1920" fill="none" xmlns="http://www.w3.org/2000/svg">
<rect width="1920" height="1920" />
<path opacity="0.25" d="M960 1800.29L1832 1294.73L960 789.166L88 1294.73L960 1800.29Z" fill="url(#paint0_linear_11_1138)"/>
<g clip-path="url(#clip0_11_1138)">
<path d="M765.061 558.119L1304.95 869.465V988.209L765.061 1299.56L225.168 988.209V869.465L765.061 558.119Z" fill="url(#paint1_linear_11_1138)"/>
<path opacity="0.75" d="M765.061 1180.81L1304.95 869.465L765.061 558.119L225.168 869.465L765.061 1180.81Z" fill="url(#paint2_linear_11_1138)"/>
<path d="M767.338 1297.74L765.061 1299.04L225.168 987.69V870.765L227.445 869.465L767.338 1180.81V1297.74Z" fill="url(#paint3_linear_11_1138)"/>
<path d="M765.061 365.842L1304.95 677.188V795.932L765.061 1106.95L225.168 795.608V676.863L765.061 365.842Z" fill="url(#paint4_linear_11_1138)"/>
<path opacity="0.75" d="M765.061 988.209L1304.95 676.863L765.061 365.842L225.168 676.863L765.061 988.209Z" fill="url(#paint5_linear_11_1138)"/>
<path d="M767.338 1105.13L765.061 1106.37L225.168 795.088V678.162L227.445 676.863L767.338 988.209V1105.13Z" fill="url(#paint6_linear_11_1138)"/>
<path d="M1197.11 503.099L1134.47 466.983L1365.58 333.753C1376.44 327.257 1376.44 317.188 1365.58 310.887L1129.33 174.799C1123.2 171.695 1116.42 170.077 1109.55 170.077C1102.68 170.077 1095.91 171.695 1089.78 174.799L858.795 308.029L796.089 271.912L1027.2 138.488C1072.74 112.504 1146.69 112.504 1192.16 138.488L1428.54 274.9C1474.08 300.884 1474.08 343.756 1428.54 370L1197.11 503.099Z" fill="url(#paint7_radial_11_1138)"/>
<path d="M1298.45 519.014C1298.62 526.342 1297.4 533.636 1294.87 540.515C1292.99 545.883 1289.63 550.611 1285.18 554.157C1283.87 555.185 1282.42 556.036 1280.89 556.69L788.153 842.118C796.739 836.012 802.073 823.669 802.073 806.52C802.073 773.067 781.713 734.157 756.54 719.671L337.96 478.285C332.502 474.946 326.274 473.067 319.877 472.829C317.034 472.816 314.212 473.323 311.551 474.323L804.545 188.506C809.227 186.241 814.433 185.275 819.617 185.709C824.801 186.144 829.773 187.962 834.011 190.974L1252.92 432.23C1277.89 446.715 1298.45 485.561 1298.45 519.014Z" fill="url(#paint8_linear_11_1138)"/>
<path d="M1298.45 519.014C1298.62 526.342 1297.4 533.636 1294.87 540.515C1292.99 545.883 1289.63 550.611 1285.18 554.157C1283.87 555.185 1282.42 556.036 1280.89 556.69L788.153 842.118C796.739 836.012 802.073 823.669 802.073 806.52C801.608 789.262 797.156 772.344 789.064 757.087L1285.76 470.685C1293.59 485.634 1297.92 502.156 1298.45 519.014Z" fill="#173D7A"/>
<path d="M802.073 806.52C802.073 823.669 796.739 836.012 788.153 842.118C784.171 844.845 779.452 846.295 774.623 846.275C768.242 846.067 762.027 844.186 756.605 840.818L337.961 599.693C312.787 585.207 292.427 546.297 292.427 512.843C292.427 496.863 297.046 484.976 304.721 478.61L311.226 474.907C313.887 473.907 316.709 473.401 319.552 473.413C325.949 473.651 332.177 475.53 337.635 478.87L756.605 719.671C770.705 728.897 781.964 741.849 789.129 757.087C797.198 772.349 801.628 789.267 802.073 806.52V806.52Z" fill="url(#paint9_linear_11_1138)"/>
<path d="M311.356 474.388L304.851 478.09C306.786 476.485 308.987 475.232 311.356 474.388V474.388Z" fill="url(#paint10_linear_11_1138)"/>
<path d="M693.899 759.425L643.553 730.454C640.797 728.482 638.543 725.891 636.972 722.889C635.402 719.888 634.559 716.561 634.511 713.175V713.175C634.511 706.679 638.544 703.431 643.553 706.29L693.899 735.326C696.659 737.295 698.916 739.885 700.487 742.887C702.058 745.889 702.899 749.218 702.941 752.605V752.605C702.941 759.296 698.908 762.089 693.899 759.425Z" fill="#021421"/>
<path fill-rule="evenodd" clip-rule="evenodd" d="M1196.91 627.755L1204.91 623.013V818.668L1236.78 799.765V1175.61L1204.91 1194.58V1390.24L1196.91 1394.98V1199.32L1165.04 1218.23V842.313L1196.91 823.41V627.755ZM1320.5 858.162L1352.37 839.26V1390.24L1320.5 1409.14V1517.3L1312.56 1522.04V1413.88L1280.69 1432.85V881.872L1312.56 862.904V754.814L1320.5 750.072V858.162ZM1436.02 985.221L1467.9 966.318V1156.84L1436.02 1175.74V1356L1428.09 1360.75V1180.49L1396.22 1199.45V1008.93L1428.09 989.963V593.197L1436.02 588.455V985.221ZM1551.55 865.113L1583.36 846.21V923.446L1551.55 942.349V1194.65L1543.55 1199.39V947.091L1511.67 966.059V888.758L1543.55 869.855V432.165L1551.55 427.423V865.113ZM1667.01 647.177L1698.88 628.274V808.469L1667.01 827.372V1275.59L1659.07 1280.33V832.114L1627.2 851.082V671.147L1659.07 652.244V512.908L1667.01 508.166V647.177Z" fill="url(#paint11_linear_11_1138)"/>
<path d="M585.596 388.513V438.466C585.075 469.906 605.63 501.411 647.26 525.38C729.48 572.8 862.762 572.8 944.982 525.38C985.637 501.995 1006.19 471.4 1006.65 440.934V390.721L585.596 388.513Z" fill="url(#paint12_linear_11_1138)"/>
<path d="M944.982 475.427C1027.2 428.073 1027.2 351.162 944.982 303.807C862.763 256.452 729.481 256.387 647.261 303.807C565.041 351.227 565.041 428.073 647.261 475.427C729.481 522.782 862.633 522.847 944.982 475.427Z" fill="#021421"/>
<path d="M937.436 471.14C1015.49 426.124 1015.49 353.11 937.436 308.094C859.38 263.078 732.863 263.143 654.741 308.094C576.619 353.046 576.684 426.124 654.741 471.14C732.798 516.156 859.38 516.091 937.436 471.14Z" fill="url(#paint13_linear_11_1138)"/>
<path d="M656.302 316.994C733.513 272.497 858.729 272.497 936.006 316.994C981.539 342.977 999.947 378.899 991.881 413.002C1004.89 376.301 987.003 336.611 937.567 308.094C859.51 263.143 732.993 263.143 654.871 308.094C605.5 336.611 587.482 376.301 600.557 413.002C592.426 378.834 610.899 343.172 656.302 316.994Z" fill="url(#paint14_linear_11_1138)"/>
</g>
<defs>
<linearGradient id="paint0_linear_11_1138" x1="88" y1="1294.73" x2="1832" y2="1294.73" gradientUnits="userSpaceOnUse">
<stop stop-color="#50C0FF" stop-opacity="0.5"/>
<stop offset="1" stop-color="#000B1B" stop-opacity="0.57"/>
</linearGradient>
<linearGradient id="paint1_linear_11_1138" x1="1414.1" y1="1303.84" x2="337.269" y2="679.939" gradientUnits="userSpaceOnUse">
<stop stop-color="#5076FF" stop-opacity="0.25"/>
<stop offset="1" stop-color="#455FE4" stop-opacity="0"/>
</linearGradient>
<linearGradient id="paint2_linear_11_1138" x1="225.168" y1="869.075" x2="1304.95" y2="869.857" gradientUnits="userSpaceOnUse">
<stop stop-color="#50C0FF" stop-opacity="0.9"/>
<stop offset="1" stop-color="#000B1B" stop-opacity="0.57"/>
</linearGradient>
<linearGradient id="paint3_linear_11_1138" x1="235.056" y1="957.094" x2="1064.82" y2="1361.96" gradientUnits="userSpaceOnUse">
<stop stop-color="#30CDFF" stop-opacity="0.76"/>
<stop offset="1" stop-color="#00A3FF" stop-opacity="0"/>
</linearGradient>
<linearGradient id="paint4_linear_11_1138" x1="1414.1" y1="1111.24" x2="337.269" y2="487.338" gradientUnits="userSpaceOnUse">
<stop stop-color="#5076FF" stop-opacity="0.25"/>
<stop offset="1" stop-color="#455FE4" stop-opacity="0"/>
</linearGradient>
<linearGradient id="paint5_linear_11_1138" x1="225.168" y1="676.474" x2="1304.95" y2="677.255" gradientUnits="userSpaceOnUse">
<stop stop-color="#50C0FF" stop-opacity="0.9"/>
<stop offset="1" stop-color="#000B1B" stop-opacity="0.57"/>
</linearGradient>
<linearGradient id="paint6_linear_11_1138" x1="235.056" y1="764.492" x2="1064.82" y2="1169.36" gradientUnits="userSpaceOnUse">
<stop stop-color="#30CDFF" stop-opacity="0.76"/>
<stop offset="1" stop-color="#00A3FF" stop-opacity="0"/>
</linearGradient>
<radialGradient id="paint7_radial_11_1138" cx="0" cy="0" r="1" gradientUnits="userSpaceOnUse" gradientTransform="translate(1292.4 658.61) scale(279.834 279.451)">
<stop stop-color="white" stop-opacity="0"/>
<stop offset="0.67" stop-color="#3E9DFF" stop-opacity="0"/>
<stop offset="1" stop-color="#3E9DFF" stop-opacity="0.43"/>
</radialGradient>
<linearGradient id="paint8_linear_11_1138" x1="917.272" y1="411.443" x2="381.455" y2="875.776" gradientUnits="userSpaceOnUse">
<stop stop-color="#50C0FF"/>
<stop offset="0.81" stop-color="#4982EE" stop-opacity="0"/>
<stop offset="0.86" stop-color="#4877EB" stop-opacity="0.28"/>
<stop offset="1" stop-color="#455FE4" stop-opacity="0.25"/>
</linearGradient>
<linearGradient id="paint9_linear_11_1138" x1="373.346" y1="483.157" x2="914.698" y2="1033.9" gradientUnits="userSpaceOnUse">
<stop stop-color="#50C0FF"/>
<stop offset="0.81" stop-color="#4982EE" stop-opacity="0"/>
<stop offset="0.86" stop-color="#4877EB" stop-opacity="0.28"/>
<stop offset="1" stop-color="#455FE4" stop-opacity="0.25"/>
</linearGradient>
<linearGradient id="paint10_linear_11_1138" x1="305.046" y1="476.271" x2="311.356" y2="476.271" gradientUnits="userSpaceOnUse">
<stop stop-color="#50C0FF"/>
<stop offset="0.81" stop-color="#4982EE" stop-opacity="0"/>
<stop offset="0.86" stop-color="#4877EB" stop-opacity="0.28"/>
<stop offset="1" stop-color="#455FE4" stop-opacity="0.25"/>
</linearGradient>
<linearGradient id="paint11_linear_11_1138" x1="1385.22" y1="467.762" x2="1477.47" y2="1370.13" gradientUnits="userSpaceOnUse">
<stop stop-color="#326CA8"/>
<stop offset="1" stop-color="#326CA8" stop-opacity="0"/>
</linearGradient>
<linearGradient id="paint12_linear_11_1138" x1="546.502" y1="405.792" x2="1247.37" y2="552.136" gradientUnits="userSpaceOnUse">
<stop stop-color="#50C0FF"/>
<stop offset="0.81" stop-color="#4982EE" stop-opacity="0"/>
<stop offset="0.86" stop-color="#4877EB" stop-opacity="0.28"/>
<stop offset="1" stop-color="#455FE4" stop-opacity="0.25"/>
</linearGradient>
<linearGradient id="paint13_linear_11_1138" x1="566.276" y1="333.103" x2="1150.9" y2="477.227" gradientUnits="userSpaceOnUse">
<stop stop-color="#50C0FF"/>
<stop offset="0.81" stop-color="#4982EE" stop-opacity="0"/>
<stop offset="0.86" stop-color="#4877EB" stop-opacity="0.28"/>
<stop offset="1" stop-color="#455FE4" stop-opacity="0.25"/>
</linearGradient>
<linearGradient id="paint14_linear_11_1138" x1="827.442" y1="248.397" x2="784.363" y2="443.038" gradientUnits="userSpaceOnUse">
<stop stop-color="#50C0FF"/>
<stop offset="0.81" stop-color="#4982EE" stop-opacity="0"/>
<stop offset="0.86" stop-color="#4877EB" stop-opacity="0.28"/>
<stop offset="1" stop-color="#455FE4" stop-opacity="0.25"/>
</linearGradient>
<clipPath id="clip0_11_1138">
<rect width="1473.58" height="1403.04" fill="white" transform="translate(225.168 119)"/>
</clipPath>
</defs>
</svg>
