<svg width="1920" height="1920" viewBox="0 0 1920 1920" fill="none" xmlns="http://www.w3.org/2000/svg">
<rect width="1920" height="1920" />
<path opacity="0.25" d="M960 1737.4L1809 1193.66L960 649.921L111 1193.66L960 1737.4Z" fill="url(#paint0_linear_11_270)"/>
<g filter="url(#filter0_f_11_270)">
<path opacity="0.25" d="M275.08 1384.04L276.565 1384.89L631.635 1180.73V270.608L630.149 269.754L275.08 473.916V1384.04Z" fill="url(#paint1_linear_11_270)"/>
<path opacity="0.25" d="M453.357 1384.04L454.843 1384.89L809.912 1180.73V270.608L808.426 269.754L453.357 473.916V1384.04Z" fill="url(#paint2_linear_11_270)"/>
</g>
<path d="M1013.42 1350.61L1084.01 1391.37V1472.89L1013.42 1513.65L942.829 1472.89V1391.37L1013.42 1350.61Z" fill="url(#paint3_linear_11_270)"/>
<g opacity="0.5" filter="url(#filter1_d_11_270)">
<path d="M1013.42 1513.65L1084.01 1472.89L1013.42 1432.13L942.829 1472.89L1013.42 1513.65Z" fill="url(#paint4_linear_11_270)" shape-rendering="crispEdges"/>
</g>
<path d="M1013.42 1432.13L1084.01 1391.37L1013.42 1350.61L942.829 1391.37L1013.42 1432.13Z" fill="url(#paint5_linear_11_270)"/>
<path d="M1013.72 1513.48L1013.42 1513.65L942.829 1472.89V1391.54L943.124 1391.37L1013.72 1432.13V1513.48Z" fill="url(#paint6_linear_11_270)"/>
<path d="M509.744 312.735L580.335 353.495V435.014L509.744 475.774L439.153 435.014V353.495L509.744 312.735Z" fill="url(#paint7_linear_11_270)"/>
<g opacity="0.5" filter="url(#filter2_d_11_270)">
<path d="M509.744 475.773L580.335 435.014L509.744 394.254L439.153 435.014L509.744 475.773Z" fill="url(#paint8_linear_11_270)" shape-rendering="crispEdges"/>
</g>
<path d="M509.744 394.254L580.335 353.495L509.744 312.735L439.153 353.495L509.744 394.254Z" fill="url(#paint9_linear_11_270)"/>
<path d="M510.039 475.603L509.744 475.773L439.153 435.014V353.665L439.448 353.494L510.039 394.254V475.603Z" fill="url(#paint10_linear_11_270)"/>
<path opacity="0.25" d="M1530.45 1249.62L1527.32 1251.4L778.753 824.548V184.786L781.885 183L1530.45 609.857V1249.62Z" fill="url(#paint11_linear_11_270)"/>
<path d="M1434.94 1302.07L1431.86 1303.85L694.807 876.852V236.874L697.891 235.088L1434.94 662.088V1302.07Z" fill="url(#paint12_linear_11_270)"/>
<g filter="url(#filter3_d_11_270)">
<path d="M1301.5 784.326L1300.76 784.761L1122.95 680.745L1122.95 661.711L1123.7 661.276L1301.5 765.292V784.326Z" fill="#7ACFFF"/>
</g>
<g filter="url(#filter4_d_11_270)">
<path d="M1301.5 989.065L1300.76 989.501L1122.95 885.485L1122.95 866.451L1123.7 866.016L1301.5 970.031V989.065Z" fill="#7ACFFF"/>
</g>
<g filter="url(#filter5_d_11_270)">
<path d="M1301.5 908.935L1300.76 909.37L1122.95 805.355L1122.95 786.321L1123.7 785.885L1301.5 889.901V908.935Z" fill="#7ACFFF"/>
</g>
<g filter="url(#filter6_d_11_270)">
<path d="M1301.51 832.02L1300.77 832.455L1248.99 800.702L1248.99 781.668L1249.74 781.233L1301.51 812.986V832.02Z" fill="#7ACFFF"/>
</g>
<g filter="url(#filter7_d_11_270)">
<path d="M1301.51 1080.88L1300.77 1081.31L1248.99 1049.56L1248.99 1030.53L1249.74 1030.09L1301.51 1061.85V1080.88Z" fill="#7ACFFF"/>
</g>
<g opacity="0.25" filter="url(#filter8_d_11_270)">
<path d="M1098.44 747.345L1097.7 747.78L1045.93 716.027L1045.93 696.993L1046.67 696.558L1098.44 728.311V747.345Z" fill="#7ACFFF"/>
</g>
<g opacity="0.25" filter="url(#filter9_d_11_270)">
<path d="M1098.45 952.085L1097.7 952.52L1045.93 920.767L1045.93 901.733L1046.67 901.298L1098.45 933.051V952.085Z" fill="#7ACFFF"/>
</g>
<g opacity="0.25" filter="url(#filter10_d_11_270)">
<path d="M1098.45 790.884L1097.7 791.319L1045.93 759.566L1045.93 740.532L1046.67 740.097L1098.45 771.85V790.884Z" fill="#7ACFFF"/>
</g>
<path d="M766.094 604.142L852.555 504.305L939.016 703.978L852.555 803.814L766.094 604.142Z" stroke="white" stroke-width="1.5" stroke-linecap="round" stroke-linejoin="round"/>
<path d="M766.094 604.141L852.555 604.141L939.016 703.978L852.555 687.338L766.094 604.141Z" stroke="white" stroke-width="1.5" stroke-linecap="round" stroke-linejoin="round"/>
<g filter="url(#filter11_dd_11_270)">
<path d="M1223.24 1230.37C1188.77 1264.84 1132.88 1264.84 1098.42 1230.37C1063.95 1195.9 1063.95 1140.02 1098.42 1105.55C1132.88 1071.08 1188.77 1071.08 1223.24 1105.55C1257.71 1140.02 1257.71 1195.9 1223.24 1230.37Z" fill="url(#paint13_radial_11_270)"/>
<path d="M1223.24 1230.37C1188.77 1264.84 1132.88 1264.84 1098.42 1230.37C1063.95 1195.9 1063.95 1140.02 1098.42 1105.55C1132.88 1071.08 1188.77 1071.08 1223.24 1105.55C1257.71 1140.02 1257.71 1195.9 1223.24 1230.37Z" fill="url(#paint14_radial_11_270)"/>
</g>
<path d="M422.904 642.612L761.714 838.668V1195.13L710.077 1225.08L371.267 1029.03V672.564L422.904 642.612Z" fill="url(#paint15_linear_11_270)"/>
<path opacity="0.5" d="M712.452 866.639L761.714 838.039L420.529 642.612L371.267 671.212L712.452 866.639Z" fill="url(#paint16_linear_11_270)"/>
<path fill-rule="evenodd" clip-rule="evenodd" d="M490.554 548.579C477.126 560.11 472.077 580.073 472.077 595.742V692.908C472.077 697.326 468.495 700.909 464.076 700.909C459.657 700.909 456.075 697.326 456.075 692.908V595.742C456.075 577.839 461.659 552.3 480.129 536.439C499.4 519.891 529.717 516.217 573.731 536.327C662.873 577.057 681.595 670.427 680.01 712.022V809.032C680.01 813.451 676.428 817.033 672.009 817.033C667.591 817.033 664.008 813.451 664.008 809.032V711.709L664.015 711.551C665.526 673.279 647.951 587.832 567.081 550.882C526.03 532.126 503.183 537.735 490.554 548.579Z" fill="url(#paint17_linear_11_270)"/>
<path d="M710.508 1224.26L709.095 1225.08L371.267 1029.38L371.267 672.235L372.681 671.416L710.508 867.118V1224.26Z" fill="url(#paint18_linear_11_270)"/>
<path opacity="0.5" d="M548.416 951.577C559.655 950.268 567.889 941.27 568.717 927.375C569.87 908.011 556.207 886.468 538.198 879.258C520.189 872.048 504.655 881.901 503.502 901.265C502.596 916.465 510.82 933.007 523.11 942.906V1029.38L548.311 1042.85L548.416 1042.8V951.577Z" fill="#000F1E"/>
<defs>
<filter id="filter0_f_11_270" x="240.08" y="234.754" width="604.833" height="1185.14" filterUnits="userSpaceOnUse" color-interpolation-filters="sRGB">
<feFlood flood-opacity="0" result="BackgroundImageFix"/>
<feBlend mode="normal" in="SourceGraphic" in2="BackgroundImageFix" result="shape"/>
<feGaussianBlur stdDeviation="17.5" result="effect1_foregroundBlur_11_270"/>
</filter>
<filter id="filter1_d_11_270" x="792.829" y="1357.13" width="441.182" height="381.519" filterUnits="userSpaceOnUse" color-interpolation-filters="sRGB">
<feFlood flood-opacity="0" result="BackgroundImageFix"/>
<feColorMatrix in="SourceAlpha" type="matrix" values="0 0 0 0 0 0 0 0 0 0 0 0 0 0 0 0 0 0 127 0" result="hardAlpha"/>
<feOffset dy="75"/>
<feGaussianBlur stdDeviation="75"/>
<feComposite in2="hardAlpha" operator="out"/>
<feColorMatrix type="matrix" values="0 0 0 0 0.3125 0 0 0 0 0.67 0 0 0 0 1 0 0 0 1 0"/>
<feBlend mode="normal" in2="BackgroundImageFix" result="effect1_dropShadow_11_270"/>
<feBlend mode="normal" in="SourceGraphic" in2="effect1_dropShadow_11_270" result="shape"/>
</filter>
<filter id="filter2_d_11_270" x="289.153" y="319.254" width="441.182" height="381.519" filterUnits="userSpaceOnUse" color-interpolation-filters="sRGB">
<feFlood flood-opacity="0" result="BackgroundImageFix"/>
<feColorMatrix in="SourceAlpha" type="matrix" values="0 0 0 0 0 0 0 0 0 0 0 0 0 0 0 0 0 0 127 0" result="hardAlpha"/>
<feOffset dy="75"/>
<feGaussianBlur stdDeviation="75"/>
<feComposite in2="hardAlpha" operator="out"/>
<feColorMatrix type="matrix" values="0 0 0 0 0.3125 0 0 0 0 0.67 0 0 0 0 1 0 0 0 1 0"/>
<feBlend mode="normal" in2="BackgroundImageFix" result="effect1_dropShadow_11_270"/>
<feBlend mode="normal" in="SourceGraphic" in2="effect1_dropShadow_11_270" result="shape"/>
</filter>
<filter id="filter3_d_11_270" x="1107.95" y="650.276" width="208.552" height="153.485" filterUnits="userSpaceOnUse" color-interpolation-filters="sRGB">
<feFlood flood-opacity="0" result="BackgroundImageFix"/>
<feColorMatrix in="SourceAlpha" type="matrix" values="0 0 0 0 0 0 0 0 0 0 0 0 0 0 0 0 0 0 127 0" result="hardAlpha"/>
<feOffset dy="4"/>
<feGaussianBlur stdDeviation="7.5"/>
<feComposite in2="hardAlpha" operator="out"/>
<feColorMatrix type="matrix" values="0 0 0 0 0.15 0 0 0 0 0.694 0 0 0 0 1 0 0 0 1 0"/>
<feBlend mode="normal" in2="BackgroundImageFix" result="effect1_dropShadow_11_270"/>
<feBlend mode="normal" in="SourceGraphic" in2="effect1_dropShadow_11_270" result="shape"/>
</filter>
<filter id="filter4_d_11_270" x="1107.95" y="855.016" width="208.552" height="153.485" filterUnits="userSpaceOnUse" color-interpolation-filters="sRGB">
<feFlood flood-opacity="0" result="BackgroundImageFix"/>
<feColorMatrix in="SourceAlpha" type="matrix" values="0 0 0 0 0 0 0 0 0 0 0 0 0 0 0 0 0 0 127 0" result="hardAlpha"/>
<feOffset dy="4"/>
<feGaussianBlur stdDeviation="7.5"/>
<feComposite in2="hardAlpha" operator="out"/>
<feColorMatrix type="matrix" values="0 0 0 0 0.15 0 0 0 0 0.694 0 0 0 0 1 0 0 0 1 0"/>
<feBlend mode="normal" in2="BackgroundImageFix" result="effect1_dropShadow_11_270"/>
<feBlend mode="normal" in="SourceGraphic" in2="effect1_dropShadow_11_270" result="shape"/>
</filter>
<filter id="filter5_d_11_270" x="1107.95" y="774.885" width="208.552" height="153.485" filterUnits="userSpaceOnUse" color-interpolation-filters="sRGB">
<feFlood flood-opacity="0" result="BackgroundImageFix"/>
<feColorMatrix in="SourceAlpha" type="matrix" values="0 0 0 0 0 0 0 0 0 0 0 0 0 0 0 0 0 0 127 0" result="hardAlpha"/>
<feOffset dy="4"/>
<feGaussianBlur stdDeviation="7.5"/>
<feComposite in2="hardAlpha" operator="out"/>
<feColorMatrix type="matrix" values="0 0 0 0 0.15 0 0 0 0 0.694 0 0 0 0 1 0 0 0 1 0"/>
<feBlend mode="normal" in2="BackgroundImageFix" result="effect1_dropShadow_11_270"/>
<feBlend mode="normal" in="SourceGraphic" in2="effect1_dropShadow_11_270" result="shape"/>
</filter>
<filter id="filter6_d_11_270" x="1233.99" y="770.233" width="82.5151" height="81.2222" filterUnits="userSpaceOnUse" color-interpolation-filters="sRGB">
<feFlood flood-opacity="0" result="BackgroundImageFix"/>
<feColorMatrix in="SourceAlpha" type="matrix" values="0 0 0 0 0 0 0 0 0 0 0 0 0 0 0 0 0 0 127 0" result="hardAlpha"/>
<feOffset dy="4"/>
<feGaussianBlur stdDeviation="7.5"/>
<feComposite in2="hardAlpha" operator="out"/>
<feColorMatrix type="matrix" values="0 0 0 0 0.15 0 0 0 0 0.694 0 0 0 0 1 0 0 0 1 0"/>
<feBlend mode="normal" in2="BackgroundImageFix" result="effect1_dropShadow_11_270"/>
<feBlend mode="normal" in="SourceGraphic" in2="effect1_dropShadow_11_270" result="shape"/>
</filter>
<filter id="filter7_d_11_270" x="1233.99" y="1019.09" width="82.5151" height="81.2221" filterUnits="userSpaceOnUse" color-interpolation-filters="sRGB">
<feFlood flood-opacity="0" result="BackgroundImageFix"/>
<feColorMatrix in="SourceAlpha" type="matrix" values="0 0 0 0 0 0 0 0 0 0 0 0 0 0 0 0 0 0 127 0" result="hardAlpha"/>
<feOffset dy="4"/>
<feGaussianBlur stdDeviation="7.5"/>
<feComposite in2="hardAlpha" operator="out"/>
<feColorMatrix type="matrix" values="0 0 0 0 0.15 0 0 0 0 0.694 0 0 0 0 1 0 0 0 1 0"/>
<feBlend mode="normal" in2="BackgroundImageFix" result="effect1_dropShadow_11_270"/>
<feBlend mode="normal" in="SourceGraphic" in2="effect1_dropShadow_11_270" result="shape"/>
</filter>
<filter id="filter8_d_11_270" x="1030.93" y="685.558" width="82.5151" height="81.2222" filterUnits="userSpaceOnUse" color-interpolation-filters="sRGB">
<feFlood flood-opacity="0" result="BackgroundImageFix"/>
<feColorMatrix in="SourceAlpha" type="matrix" values="0 0 0 0 0 0 0 0 0 0 0 0 0 0 0 0 0 0 127 0" result="hardAlpha"/>
<feOffset dy="4"/>
<feGaussianBlur stdDeviation="7.5"/>
<feComposite in2="hardAlpha" operator="out"/>
<feColorMatrix type="matrix" values="0 0 0 0 0.15 0 0 0 0 0.694 0 0 0 0 1 0 0 0 1 0"/>
<feBlend mode="normal" in2="BackgroundImageFix" result="effect1_dropShadow_11_270"/>
<feBlend mode="normal" in="SourceGraphic" in2="effect1_dropShadow_11_270" result="shape"/>
</filter>
<filter id="filter9_d_11_270" x="1030.93" y="890.298" width="82.5151" height="81.2222" filterUnits="userSpaceOnUse" color-interpolation-filters="sRGB">
<feFlood flood-opacity="0" result="BackgroundImageFix"/>
<feColorMatrix in="SourceAlpha" type="matrix" values="0 0 0 0 0 0 0 0 0 0 0 0 0 0 0 0 0 0 127 0" result="hardAlpha"/>
<feOffset dy="4"/>
<feGaussianBlur stdDeviation="7.5"/>
<feComposite in2="hardAlpha" operator="out"/>
<feColorMatrix type="matrix" values="0 0 0 0 0.15 0 0 0 0 0.694 0 0 0 0 1 0 0 0 1 0"/>
<feBlend mode="normal" in2="BackgroundImageFix" result="effect1_dropShadow_11_270"/>
<feBlend mode="normal" in="SourceGraphic" in2="effect1_dropShadow_11_270" result="shape"/>
</filter>
<filter id="filter10_d_11_270" x="1030.93" y="729.097" width="82.5151" height="81.2222" filterUnits="userSpaceOnUse" color-interpolation-filters="sRGB">
<feFlood flood-opacity="0" result="BackgroundImageFix"/>
<feColorMatrix in="SourceAlpha" type="matrix" values="0 0 0 0 0 0 0 0 0 0 0 0 0 0 0 0 0 0 127 0" result="hardAlpha"/>
<feOffset dy="4"/>
<feGaussianBlur stdDeviation="7.5"/>
<feComposite in2="hardAlpha" operator="out"/>
<feColorMatrix type="matrix" values="0 0 0 0 0.15 0 0 0 0 0.694 0 0 0 0 1 0 0 0 1 0"/>
<feBlend mode="normal" in2="BackgroundImageFix" result="effect1_dropShadow_11_270"/>
<feBlend mode="normal" in="SourceGraphic" in2="effect1_dropShadow_11_270" result="shape"/>
</filter>
<filter id="filter11_dd_11_270" x="1009.56" y="1011.7" width="290.527" height="294.527" filterUnits="userSpaceOnUse" color-interpolation-filters="sRGB">
<feFlood flood-opacity="0" result="BackgroundImageFix"/>
<feColorMatrix in="SourceAlpha" type="matrix" values="0 0 0 0 0 0 0 0 0 0 0 0 0 0 0 0 0 0 127 0" result="hardAlpha"/>
<feOffset dx="-20" dy="7"/>
<feGaussianBlur stdDeviation="21.5"/>
<feComposite in2="hardAlpha" operator="out"/>
<feColorMatrix type="matrix" values="0 0 0 0 0 0 0 0 0 0.928 0 0 0 0 1 0 0 0 1 0"/>
<feBlend mode="normal" in2="BackgroundImageFix" result="effect1_dropShadow_11_270"/>
<feColorMatrix in="SourceAlpha" type="matrix" values="0 0 0 0 0 0 0 0 0 0 0 0 0 0 0 0 0 0 127 0" result="hardAlpha"/>
<feOffset dx="4" dy="-21"/>
<feGaussianBlur stdDeviation="23.5"/>
<feComposite in2="hardAlpha" operator="out"/>
<feColorMatrix type="matrix" values="0 0 0 0 0.230903 0 0 0 0 0.354271 0 0 0 0 0.791667 0 0 0 1 0"/>
<feBlend mode="normal" in2="effect1_dropShadow_11_270" result="effect2_dropShadow_11_270"/>
<feBlend mode="normal" in="SourceGraphic" in2="effect2_dropShadow_11_270" result="shape"/>
</filter>
<linearGradient id="paint0_linear_11_270" x1="111" y1="1193.66" x2="1809" y2="1193.66" gradientUnits="userSpaceOnUse">
<stop stop-color="#50C0FF" stop-opacity="0.5"/>
<stop offset="1" stop-color="#000B1B" stop-opacity="0.57"/>
</linearGradient>
<linearGradient id="paint1_linear_11_270" x1="276.565" y1="1304.02" x2="278.534" y2="485.516" gradientUnits="userSpaceOnUse">
<stop stop-color="#0047FF" stop-opacity="0"/>
<stop offset="1" stop-color="#305DFF" stop-opacity="0.76"/>
</linearGradient>
<linearGradient id="paint2_linear_11_270" x1="454.843" y1="1304.02" x2="456.811" y2="485.516" gradientUnits="userSpaceOnUse">
<stop stop-color="#00A3FF" stop-opacity="0"/>
<stop offset="1" stop-color="#30CDFF" stop-opacity="0.76"/>
</linearGradient>
<linearGradient id="paint3_linear_11_270" x1="1084.01" y1="1472.89" x2="943.124" y2="1391.37" gradientUnits="userSpaceOnUse">
<stop stop-color="#5076FF" stop-opacity="0.25"/>
<stop offset="1" stop-color="#455FE4" stop-opacity="0"/>
</linearGradient>
<linearGradient id="paint4_linear_11_270" x1="942.829" y1="1472.89" x2="1084.01" y2="1472.89" gradientUnits="userSpaceOnUse">
<stop stop-color="#50C0FF" stop-opacity="0.5"/>
<stop offset="1" stop-color="#133A74" stop-opacity="0"/>
</linearGradient>
<linearGradient id="paint5_linear_11_270" x1="942.829" y1="1391.37" x2="1084.01" y2="1391.37" gradientUnits="userSpaceOnUse">
<stop stop-color="#50C0FF" stop-opacity="0.5"/>
<stop offset="1" stop-color="#000B1B" stop-opacity="0.57"/>
</linearGradient>
<linearGradient id="paint6_linear_11_270" x1="942.829" y1="1471.71" x2="1013.42" y2="1432.13" gradientUnits="userSpaceOnUse">
<stop stop-color="#30CDFF" stop-opacity="0.76"/>
<stop offset="1" stop-color="#00A3FF" stop-opacity="0"/>
</linearGradient>
<linearGradient id="paint7_linear_11_270" x1="580.335" y1="435.014" x2="439.448" y2="353.495" gradientUnits="userSpaceOnUse">
<stop stop-color="#5076FF" stop-opacity="0.25"/>
<stop offset="1" stop-color="#455FE4" stop-opacity="0"/>
</linearGradient>
<linearGradient id="paint8_linear_11_270" x1="439.153" y1="435.014" x2="580.335" y2="435.014" gradientUnits="userSpaceOnUse">
<stop stop-color="#50C0FF" stop-opacity="0.5"/>
<stop offset="1" stop-color="#133A74" stop-opacity="0"/>
</linearGradient>
<linearGradient id="paint9_linear_11_270" x1="439.153" y1="353.495" x2="580.335" y2="353.495" gradientUnits="userSpaceOnUse">
<stop stop-color="#50C0FF" stop-opacity="0.5"/>
<stop offset="1" stop-color="#000B1B" stop-opacity="0.57"/>
</linearGradient>
<linearGradient id="paint10_linear_11_270" x1="439.153" y1="433.832" x2="509.744" y2="394.254" gradientUnits="userSpaceOnUse">
<stop stop-color="#30CDFF" stop-opacity="0.76"/>
<stop offset="1" stop-color="#00A3FF" stop-opacity="0"/>
</linearGradient>
<linearGradient id="paint11_linear_11_270" x1="778.753" y1="1024.34" x2="1522.81" y2="601.92" gradientUnits="userSpaceOnUse">
<stop stop-color="#30CDFF" stop-opacity="0.76"/>
<stop offset="1" stop-color="#00A3FF" stop-opacity="0"/>
</linearGradient>
<linearGradient id="paint12_linear_11_270" x1="694.807" y1="1076.71" x2="1433.03" y2="664.191" gradientUnits="userSpaceOnUse">
<stop stop-color="#30CDFF" stop-opacity="0.76"/>
<stop offset="1" stop-color="#00A3FF" stop-opacity="0"/>
</linearGradient>
<radialGradient id="paint13_radial_11_270" cx="0" cy="0" r="1" gradientUnits="userSpaceOnUse" gradientTransform="translate(1202.09 1126.69) rotate(135) scale(146.624)">
<stop stop-color="white" stop-opacity="0"/>
<stop offset="0.668121" stop-color="#3E9DFF" stop-opacity="0"/>
<stop offset="1" stop-color="#3E9DFF" stop-opacity="0.43"/>
</radialGradient>
<radialGradient id="paint14_radial_11_270" cx="0" cy="0" r="1" gradientUnits="userSpaceOnUse" gradientTransform="translate(1082.89 1211.15) rotate(-29.9927) scale(161.539)">
<stop stop-color="white"/>
<stop offset="0.463542" stop-color="#72DDFF"/>
<stop offset="0.733683" stop-color="#50C0FF"/>
<stop offset="1" stop-color="#0E67BA"/>
</radialGradient>
<linearGradient id="paint15_linear_11_270" x1="1048.89" y1="1064.67" x2="370.115" y2="514.234" gradientUnits="userSpaceOnUse">
<stop stop-color="#5076FF" stop-opacity="0.25"/>
<stop offset="1" stop-color="#455FE4" stop-opacity="0"/>
</linearGradient>
<linearGradient id="paint16_linear_11_270" x1="644.032" y1="827.458" x2="780.872" y2="827.458" gradientUnits="userSpaceOnUse">
<stop stop-color="#50C0FF" stop-opacity="0.5"/>
<stop offset="1" stop-color="#000B1B" stop-opacity="0.57"/>
</linearGradient>
<linearGradient id="paint17_linear_11_270" x1="566.488" y1="743.424" x2="609.694" y2="546.6" gradientUnits="userSpaceOnUse">
<stop stop-color="#7ACDFC"/>
<stop offset="1" stop-color="#234873"/>
</linearGradient>
<linearGradient id="paint18_linear_11_270" x1="355.027" y1="1172.12" x2="669.687" y2="966.348" gradientUnits="userSpaceOnUse">
<stop stop-color="#30CDFF" stop-opacity="0.76"/>
<stop offset="1" stop-color="#00A3FF" stop-opacity="0"/>
</linearGradient>
</defs>
</svg>
