<?xml version="1.0" standalone="no"?>
<!DOCTYPE svg PUBLIC "-//W3C//DTD SVG 20010904//EN"
 "http://www.w3.org/TR/2001/REC-SVG-20010904/DTD/svg10.dtd">
<svg version="1.0" xmlns="http://www.w3.org/2000/svg"
 width="512.000000pt" height="512.000000pt" viewBox="0 0 512.000000 512.000000"
 preserveAspectRatio="xMidYMid meet">

<g transform="translate(0.000000,512.000000) scale(0.100000,-0.100000)"
fill="#000000" stroke="none">
<path d="M78 5099 c-23 -12 -46 -35 -58 -59 -20 -39 -20 -54 -20 -2480 0
-2427 0 -2441 20 -2480 13 -26 34 -47 60 -60 39 -20 55 -20 1620 -20 1565 0
1581 0 1620 20 26 13 47 34 60 60 20 39 20 55 20 1890 l0 1850 -590 0 c-572 0
-592 1 -630 20 -26 13 -47 34 -60 60 -19 38 -20 58 -20 630 l0 590 -992 0
c-969 -1 -994 -1 -1030 -21z m1642 -599 c45 -23 80 -80 80 -130 0 -50 -35
-107 -80 -130 -38 -19 -58 -20 -521 -20 -480 0 -481 0 -521 22 -101 57 -102
194 -2 254 l39 24 483 0 c464 0 484 -1 522 -20z m0 -600 c45 -23 80 -80 80
-130 0 -50 -35 -107 -80 -130 -38 -19 -58 -20 -521 -20 -480 0 -481 0 -521 22
-45 25 -78 80 -78 128 0 48 35 107 78 129 35 19 59 20 520 21 465 0 484 -1
522 -20z m1000 -600 c45 -23 80 -80 80 -130 0 -50 -35 -107 -80 -130 -38 -20
-57 -20 -1021 -20 l-981 0 -40 22 c-101 57 -102 194 -2 254 l39 24 983 0 c965
0 983 0 1022 -20z m0 -600 c45 -23 80 -80 80 -130 0 -50 -35 -107 -80 -130
-38 -20 -57 -20 -1021 -20 l-981 0 -40 22 c-101 57 -102 194 -2 254 l39 24
983 0 c965 0 983 0 1022 -20z m0 -600 c45 -23 80 -80 80 -130 0 -50 -35 -107
-80 -130 -38 -20 -57 -20 -1021 -20 l-981 0 -40 22 c-101 57 -102 194 -2 254
l39 24 983 0 c965 0 983 0 1022 -20z m-1200 -600 c45 -23 80 -80 80 -130 0
-50 -35 -107 -80 -130 -37 -19 -58 -20 -421 -20 -376 0 -382 0 -421 22 -101
57 -102 194 -2 254 l39 24 383 0 c364 0 385 -1 422 -20z m1200 -620 c45 -23
80 -80 80 -130 0 -50 -35 -107 -80 -130 -37 -19 -58 -20 -471 -20 -428 0 -432
0 -471 22 -101 57 -102 194 -2 254 l39 24 433 0 c414 0 435 -1 472 -20z"/>
<path d="M2400 4575 l0 -455 457 0 458 0 -455 455 c-250 250 -456 455 -457
455 -2 0 -3 -205 -3 -455z"/>
<path d="M4326 3240 c-63 -16 -153 -70 -197 -117 -22 -24 -55 -74 -72 -111
-29 -61 -32 -76 -32 -162 0 -75 5 -105 22 -142 l21 -46 -109 -131 -110 -131
-74 0 -75 0 0 -150 0 -150 125 0 c106 0 132 3 163 20 24 12 85 77 172 183 130
159 136 165 165 158 17 -3 66 -6 110 -5 69 0 91 5 147 31 92 43 151 100 196
191 35 72 37 81 37 172 0 91 -2 100 -37 172 -68 136 -188 217 -336 224 -42 2
-94 -1 -116 -6z"/>
<path d="M4627 2040 c-101 -26 -200 -100 -249 -187 l-30 -53 -324 0 -324 0 0
-150 0 -150 324 0 324 0 30 -53 c39 -68 98 -122 181 -161 60 -28 75 -31 161
-31 86 0 101 3 162 32 93 44 151 100 196 191 35 72 37 81 37 172 0 91 -2 100
-37 172 -68 136 -188 217 -336 224 -42 2 -94 -1 -115 -6z"/>
<path d="M3700 1050 l0 -150 75 0 74 0 110 -131 109 -131 -21 -46 c-17 -37
-22 -67 -22 -143 0 -90 2 -99 37 -171 45 -91 103 -147 196 -191 61 -29 76 -32
163 -32 90 0 99 2 171 37 91 45 147 103 191 196 29 61 32 76 32 162 0 86 -3
101 -32 162 -43 92 -100 151 -190 195 -67 33 -83 37 -156 37 -45 1 -95 -2
-112 -5 -29 -7 -35 0 -170 162 -85 103 -152 175 -171 184 -23 11 -66 15 -158
15 l-126 0 0 -150z"/>
</g>
</svg>
