<svg id="Lag_1" data-name="Lag 1" xmlns="http://www.w3.org/2000/svg" viewBox="0 0 1057.2 156.22"><defs><style>.cls-1{fill:#153939;}</style></defs><path class="cls-1" d="M240.09,335.52q.27,11.89-8.13,18.74t-23.66,6.85a56.8,56.8,0,0,1-25-5.29l-.39-17.3a104.7,104.7,0,0,0,15.17,5.59,45,45,0,0,0,11.3,1.62c4.09,0,7.2-.78,9.35-2.34a8.6,8.6,0,0,0,1.57-11.57A16.7,16.7,0,0,0,216,328,111.36,111.36,0,0,0,204.45,322a55.78,55.78,0,0,1-12.24-7.27,28.14,28.14,0,0,1-6.61-8.11A23.46,23.46,0,0,1,183,295.81q-.27-11.65,7.47-18.32t21.69-6.67a52.07,52.07,0,0,1,13.1,1.62A90.67,90.67,0,0,1,238.32,277l-5.67,14.47a89.93,89.93,0,0,0-11.72-4,37.75,37.75,0,0,0-9.07-1.14q-5.28,0-8.05,2.46a7.92,7.92,0,0,0-2.68,6.43,8.18,8.18,0,0,0,1.24,4.29,12.88,12.88,0,0,0,3.72,3.55A115.6,115.6,0,0,0,218,309.2q12.45,5.9,17.15,11.81A23.51,23.51,0,0,1,240.09,335.52Z" transform="translate(-182.91 -233.7)"/><path class="cls-1" d="M342.63,359.91H321.42l-11.89-46.14q-.66-2.46-2.25-10.18t-1.84-10.37q-.36,3.25-1.8,10.43t-2.22,10.24l-11.84,46H268.44L246,272.08h18.32L275.59,320q2.94,13.28,4.26,23,.36-3.43,1.65-10.61t2.44-11.14l12.79-49.2h17.6l12.8,49.2q.84,3.3,2.1,10.09T331.15,343q.6-4.69,1.93-11.69t2.4-11.32l11.17-47.94H365Z" transform="translate(-182.91 -233.7)"/><path class="cls-1" d="M426.1,359.91,419.74,339h-32l-6.37,20.91H361.28l31-88.19h22.77l31.12,88.19Zm-10.81-36.53q-8.84-28.41-9.94-32.14t-1.59-5.88q-2,7.68-11.36,38Z" transform="translate(-182.91 -233.7)"/><path class="cls-1" d="M514.21,299.47q0,14.19-8.86,21.69t-25.2,7.51h-8v31.24H453.53V272.08h28.06q16,0,24.3,6.88T514.21,299.47Zm-42.05,13.94h6.12q8.6,0,12.86-3.39t4.26-9.89q0-6.54-3.57-9.67t-11.2-3.12h-8.47Z" transform="translate(-182.91 -233.7)"/><path class="cls-1" d="M819.74,310.59h34.85v45.53a99.71,99.71,0,0,1-16,3.88,104.13,104.13,0,0,1-15.29,1.11q-19.89,0-30.37-11.69T782.5,315.87q0-21.25,12.16-33.16t33.73-11.89a65.34,65.34,0,0,1,26.08,5.4l-6.19,14.9a44.26,44.26,0,0,0-20-4.8q-12.07,0-19.34,8.11t-7.27,21.8q0,14.29,5.86,21.84t17,7.54a60.27,60.27,0,0,0,11.83-1.2V326.09H819.74Z" transform="translate(-182.91 -233.7)"/><path class="cls-1" d="M871.8,359.91V272.08h18.62v72.45h35.63v15.38Z" transform="translate(-182.91 -233.7)"/><path class="cls-1" d="M1011.18,315.87q0,21.81-10.81,33.52t-31,11.72q-20.19,0-31-11.72t-10.81-33.64q0-21.93,10.84-33.49t31.09-11.56q20.24,0,31,11.65T1011.18,315.87Zm-64.1,0q0,14.73,5.59,22.17t16.7,7.45q22.29,0,22.29-29.62T969.49,286.2q-11.12,0-16.76,7.48T947.08,315.87Z" transform="translate(-182.91 -233.7)"/><path class="cls-1" d="M1025.69,272.08H1053q18.69,0,27.13,5.32t8.44,16.91q0,7.86-3.7,12.91a14.71,14.71,0,0,1-9.82,6.07v.6q8.36,1.86,12,7t3.69,13.58q0,12-8.68,18.74t-23.58,6.73h-32.86Zm18.62,34.78h10.82q7.56,0,11-2.34c2.26-1.56,3.39-4.15,3.39-7.75,0-3.36-1.23-5.78-3.69-7.24s-6.36-2.19-11.68-2.19h-9.8Zm0,14.78v22.89h12.14q7.69,0,11.35-2.95t3.67-9q0-10.94-15.62-10.93Z" transform="translate(-182.91 -233.7)"/><path class="cls-1" d="M1158.43,359.91,1152.06,339h-32l-6.37,20.91h-20.06l31-88.19h22.77l31.12,88.19Zm-10.82-36.53q-8.82-28.41-9.94-32.14t-1.59-5.88q-2,7.68-11.36,38Z" transform="translate(-182.91 -233.7)"/><path class="cls-1" d="M1185.86,359.91V272.08h18.62v72.45h35.62v15.38Z" transform="translate(-182.91 -233.7)"/><path class="cls-1" d="M723.57,316.38H645.25V332h56.26a59.76,59.76,0,1,1-24.63-71c.74.51,4.58,3.2,9.66,7.26L698,254c-6.23-5-10.73-8.05-10.92-8.18l-.27-.18A78.11,78.11,0,1,0,720.69,332h0a60.43,60.43,0,0,0,1.5-6.77C723.11,320.37,723.57,316.38,723.57,316.38Zm0-28.11H645.25v15.65h78.32Z" transform="translate(-182.91 -233.7)"/></svg>