<svg width="1920" height="1920" viewBox="0 0 1920 1920" fill="none" xmlns="http://www.w3.org/2000/svg">
<rect width="1920" height="1920" />
<path opacity="0.25" d="M959.5 1699.28L1728 1255.45L959.5 811.623L191 1255.45L959.5 1699.28Z" fill="url(#paint0_linear_11_522)"/>
<g clip-path="url(#clip0_11_522)">
<path d="M1543.34 353.156V221L1549.7 224.681V356.838C1566.38 368.354 1579.48 392.095 1579.48 411.824V470.351C1579.48 490.08 1566.38 498.67 1549.7 490.835V695.016L1543.34 691.335V487.201C1534.63 480.811 1527.44 472.573 1522.29 463.075C1517.13 453.577 1514.13 443.055 1513.51 432.261V373.735C1513.51 354.006 1526.61 345.416 1543.34 353.156Z" fill="url(#paint1_linear_11_522)"/>
<path d="M1447.87 449.442V317.285L1454.23 320.967V453.123C1462.92 459.522 1470.1 467.764 1475.25 477.26C1480.4 486.757 1483.39 497.274 1484.01 508.062V602.837C1484.01 622.566 1470.96 631.157 1454.23 623.322V736.268L1447.87 732.587V619.64C1431.14 608.124 1418.04 584.383 1418.04 564.701V469.926C1418.04 450.244 1431.14 441.607 1447.87 449.442Z" fill="url(#paint2_linear_11_522)"/>
<path d="M1352.64 602.224V470.068L1359 473.749V605.905C1367.69 612.304 1374.87 620.546 1380.02 630.043C1385.16 639.539 1388.16 650.057 1388.78 660.845V691.288C1388.78 710.97 1375.73 719.607 1359 711.772V792.529L1352.64 788.847V708.09C1335.91 696.574 1322.81 672.833 1322.81 653.151V622.708C1322.57 603.026 1335.67 594.389 1352.64 602.224Z" fill="url(#paint3_linear_11_522)"/>
<path d="M1256.93 701.152V639.794L1263.29 643.475V704.834C1271.99 711.238 1279.17 719.487 1284.32 728.992C1289.47 738.497 1292.46 749.024 1293.07 759.82V790.216C1293.07 809.945 1280.02 818.535 1263.29 810.7V868.283L1256.93 864.601V807.019C1240.2 795.502 1227.1 771.761 1227.1 752.032V721.636C1227.1 701.907 1240.2 693.317 1256.93 701.152Z" fill="url(#paint4_linear_11_522)"/>
<path d="M1118.77 850.347L1284.73 946.349V1184.42L1118.77 1280.37L952.856 1184.42V946.349L1118.77 850.347Z" fill="url(#paint5_linear_11_522)"/>
<path opacity="0.25" d="M1118.77 1042.26L1284.73 946.302L1118.77 850.3L952.856 946.302L1118.77 1042.26Z" fill="url(#paint6_linear_11_522)"/>
<path d="M903.99 987.979C911.153 1108.34 1007.66 1169.55 1119.29 1124.85C1230.92 1080.16 1315.79 946.161 1308.62 825.851C1301.46 705.542 1204.96 644.278 1093.33 688.975C981.694 733.672 896.828 867.622 903.99 987.979Z" fill="url(#paint7_radial_11_522)"/>
<path d="M1119.48 1279.81L1118.77 1280.23L952.856 1184.23V946.727L953.515 946.349L1119.48 1042.26V1279.81Z" fill="url(#paint8_linear_11_522)"/>
<path d="M573.243 844.259C580.264 961.783 674.413 1021.63 783.547 977.831C892.681 934.031 975.521 803.196 968.547 685.718C961.573 568.241 867.283 508.346 758.243 552.146C649.203 595.946 566.269 726.687 573.243 844.259Z" fill="#021425"/>
<path d="M573.243 844.259C580.264 961.783 674.413 1021.63 783.547 977.831C892.681 934.031 975.521 803.196 968.547 685.718C961.573 568.241 867.283 508.346 758.243 552.146C649.203 595.946 566.269 726.687 573.243 844.259Z" fill="url(#paint9_radial_11_522)"/>
<path d="M573.243 844.259C580.264 961.783 674.413 1021.63 783.547 977.831C892.681 934.031 975.521 803.196 968.547 685.718C961.573 568.241 867.283 508.346 758.243 552.146C649.203 595.946 566.269 726.687 573.243 844.259Z" fill="url(#paint10_radial_11_522)"/>
<path d="M573.243 844.259C580.264 961.783 674.413 1021.63 783.547 977.831C892.681 934.031 975.521 803.196 968.547 685.718C961.573 568.241 867.283 508.346 758.243 552.146C649.203 595.946 566.269 726.687 573.243 844.259Z" fill="url(#paint11_radial_11_522)" fill-opacity="0.5"/>
<g opacity="0.75">
<path opacity="0.75" d="M614.663 801.544C619.375 885.133 686.571 927.659 764.18 896.555C841.79 865.451 900.833 772.422 895.697 688.881C890.561 605.339 823.789 562.86 746.18 593.87C668.57 624.879 609.668 718.097 614.663 801.544Z" fill="url(#paint12_radial_11_522)"/>
<path opacity="0.75" d="M614.663 801.544C619.375 885.133 686.571 927.659 764.18 896.555C841.79 865.451 900.833 772.422 895.697 688.881C890.561 605.339 823.789 562.86 746.18 593.87C668.57 624.879 609.668 718.097 614.663 801.544Z" fill="url(#paint13_radial_11_522)"/>
</g>
<path d="M573.808 844.542C577.295 903.776 602.977 948.379 641.522 972.403L601.61 947.058C563.065 922.986 537.43 878.431 533.896 819.196C526.922 701.624 609.762 570.837 718.896 527.084C773.887 505.042 825.109 509.29 863.23 533.975L903.142 559.32C864.974 534.635 813.611 530.387 758.808 552.429C649.627 596.182 566.834 726.97 573.808 844.542Z" fill="#011321"/>
<path d="M573.808 844.542C577.295 903.776 602.977 948.379 641.522 972.403L601.61 947.058C563.065 922.986 537.43 878.431 533.896 819.196C526.922 701.624 609.762 570.837 718.896 527.084C773.887 505.042 825.109 509.29 863.23 533.975L903.142 559.32C864.974 534.635 813.611 530.387 758.808 552.429C649.627 596.182 566.834 726.97 573.808 844.542Z" fill="url(#paint14_linear_11_522)"/>
<path d="M340.367 911.659C355.069 1158.41 552.651 1283.96 781.757 1192.07C1010.86 1100.17 1184.65 825.71 1169.99 578.955C1155.34 332.2 957.709 206.84 728.603 298.547C499.497 390.255 325.712 664.951 340.367 911.659Z" fill="url(#paint15_radial_11_522)"/>
<path d="M1022.78 482.622C1026.84 550.352 1081.07 584.808 1143.93 559.603C1206.79 534.399 1254.48 459.07 1250.48 391.34C1246.47 323.61 1192.42 289.155 1129.28 314.406C1066.14 339.657 1018.73 414.939 1022.78 482.622Z" fill="#021425"/>
<path d="M1022.78 482.622C1026.84 550.352 1081.07 584.808 1143.93 559.603C1206.79 534.399 1254.48 459.07 1250.48 391.34C1246.47 323.61 1192.42 289.155 1129.28 314.406C1066.14 339.657 1018.73 414.939 1022.78 482.622Z" fill="url(#paint16_radial_11_522)"/>
<path d="M1022.78 482.622C1026.84 550.352 1081.07 584.808 1143.93 559.603C1206.79 534.399 1254.48 459.07 1250.48 391.34C1246.47 323.61 1192.42 289.155 1129.28 314.406C1066.14 339.657 1018.73 414.939 1022.78 482.622Z" fill="url(#paint17_radial_11_522)"/>
<path d="M1022.78 482.622C1026.84 550.352 1081.07 584.808 1143.93 559.603C1206.79 534.399 1254.48 459.07 1250.48 391.34C1246.47 323.61 1192.42 289.155 1129.28 314.406C1066.14 339.657 1018.73 414.939 1022.78 482.622Z" fill="url(#paint18_radial_11_522)" fill-opacity="0.5"/>
<g opacity="0.75">
<path opacity="0.75" d="M1046.63 458.126C1049.46 506.269 1088.05 530.765 1132.72 512.829C1177.39 494.894 1211.27 441.371 1208.49 393.228C1205.71 345.085 1167.07 320.542 1122.35 338.477C1077.63 356.413 1043.75 409.795 1046.63 458.126Z" fill="url(#paint19_radial_11_522)"/>
<path opacity="0.75" d="M1046.63 458.126C1049.46 506.269 1088.05 530.765 1132.72 512.829C1177.39 494.894 1211.27 441.371 1208.49 393.228C1205.71 345.085 1167.07 320.542 1122.35 338.477C1077.63 356.413 1043.75 409.795 1046.63 458.126Z" fill="url(#paint20_radial_11_522)"/>
</g>
<path d="M1023.07 482.811C1025.09 516.936 1039.84 542.612 1062.08 556.441L1039.09 541.951C1016.89 528.075 1002.1 502.399 1000.07 468.321C996.066 400.591 1043.75 325.262 1106.66 300.058C1138.33 287.361 1167.92 289.816 1189.78 304.023L1212.78 318.607C1190.77 304.447 1161.32 301.946 1129.61 314.642C1066.75 339.752 1019.06 415.081 1023.07 482.811Z" fill="#011321"/>
<path d="M1023.07 482.811C1025.09 516.936 1039.84 542.612 1062.08 556.441L1039.09 541.951C1016.89 528.075 1002.1 502.399 1000.07 468.321C996.066 400.591 1043.75 325.262 1106.66 300.058C1138.33 287.361 1167.92 289.816 1189.78 304.023L1212.78 318.607C1190.77 304.447 1161.32 301.946 1129.61 314.642C1066.75 339.752 1019.06 415.081 1023.07 482.811Z" fill="url(#paint21_linear_11_522)"/>
<path d="M488.707 1275.28C492.759 1342.96 546.855 1377.37 609.857 1352.21C672.858 1327.05 720.404 1251.68 716.493 1183.85C712.582 1116.03 658.204 1081.72 595.343 1106.92C532.483 1132.12 484.701 1207.45 488.707 1275.28Z" fill="#021425"/>
<path d="M488.707 1275.28C492.759 1342.96 546.855 1377.37 609.857 1352.21C672.858 1327.05 720.404 1251.68 716.493 1183.85C712.582 1116.03 658.204 1081.72 595.343 1106.92C532.483 1132.12 484.701 1207.45 488.707 1275.28Z" fill="url(#paint22_radial_11_522)"/>
<path d="M488.707 1275.28C492.759 1342.96 546.855 1377.37 609.857 1352.21C672.858 1327.05 720.404 1251.68 716.493 1183.85C712.582 1116.03 658.204 1081.72 595.343 1106.92C532.483 1132.12 484.701 1207.45 488.707 1275.28Z" fill="url(#paint23_radial_11_522)"/>
<path d="M488.707 1275.28C492.759 1342.96 546.855 1377.37 609.857 1352.21C672.858 1327.05 720.404 1251.68 716.493 1183.85C712.582 1116.03 658.204 1081.72 595.343 1106.92C532.483 1132.12 484.701 1207.45 488.707 1275.28Z" fill="url(#paint24_radial_11_522)" fill-opacity="0.5"/>
<g opacity="0.75">
<path opacity="0.75" d="M512.55 1250.73C515.425 1298.88 553.97 1323.37 598.689 1305.48C643.407 1287.6 677.335 1233.98 674.461 1185.84C671.586 1137.69 633.04 1113.06 588.322 1131.13C543.603 1149.21 509.723 1202.73 512.55 1250.73Z" fill="url(#paint25_radial_11_522)"/>
<path opacity="0.75" d="M512.55 1250.73C515.425 1298.88 553.97 1323.37 598.689 1305.48C643.407 1287.6 677.335 1233.98 674.461 1185.84C671.586 1137.69 633.04 1113.06 588.322 1131.13C543.603 1149.21 509.723 1202.73 512.55 1250.73Z" fill="url(#paint26_radial_11_522)"/>
</g>
<path d="M489.036 1275.42C491.063 1309.54 505.812 1335.22 528.006 1349.1L505.058 1334.46C482.863 1320.64 468.067 1294.96 466.041 1260.83C462.036 1193.29 509.723 1117.78 572.63 1092.57C604.296 1079.87 633.889 1082.33 655.753 1096.54L678.796 1111.12C656.837 1096.96 627.339 1094.46 595.673 1107.2C532.718 1132.41 484.984 1207.74 489.036 1275.42Z" fill="#011321"/>
<path d="M489.036 1275.42C491.063 1309.54 505.812 1335.22 528.006 1349.1L505.058 1334.46C482.863 1320.64 468.067 1294.96 466.041 1260.83C462.036 1193.29 509.723 1117.78 572.63 1092.57C604.296 1079.87 633.889 1082.33 655.753 1096.54L678.796 1111.12C656.837 1096.96 627.339 1094.46 595.673 1107.2C532.718 1132.41 484.984 1207.74 489.036 1275.42Z" fill="url(#paint27_linear_11_522)"/>
<path d="M1166.46 943.753C1158.54 951.655 1148.47 957.03 1137.5 959.199C1126.54 961.369 1115.18 960.235 1104.86 955.943C1094.54 951.65 1085.72 944.391 1079.51 935.081C1073.31 925.771 1070 914.828 1070 903.635C1070 892.441 1073.31 881.498 1079.51 872.188C1085.72 862.878 1094.54 855.619 1104.86 851.326C1115.18 847.034 1126.54 845.901 1137.5 848.07C1148.47 850.24 1158.54 855.614 1166.46 863.516C1171.73 868.778 1175.91 875.03 1178.77 881.915C1181.62 888.799 1183.09 896.18 1183.09 903.635C1183.09 911.089 1181.62 918.47 1178.77 925.355C1175.91 932.239 1171.73 938.492 1166.46 943.753Z" fill="url(#paint28_radial_11_522)"/>
<path d="M1166.46 943.753C1158.54 951.655 1148.47 957.03 1137.5 959.199C1126.54 961.369 1115.18 960.235 1104.86 955.943C1094.54 951.65 1085.72 944.391 1079.51 935.081C1073.31 925.771 1070 914.828 1070 903.635C1070 892.441 1073.31 881.498 1079.51 872.188C1085.72 862.878 1094.54 855.619 1104.86 851.326C1115.18 847.034 1126.54 845.901 1137.5 848.07C1148.47 850.24 1158.54 855.614 1166.46 863.516C1171.73 868.778 1175.91 875.03 1178.77 881.915C1181.62 888.799 1183.09 896.18 1183.09 903.635C1183.09 911.089 1181.62 918.47 1178.77 925.355C1175.91 932.239 1171.73 938.492 1166.46 943.753Z" fill="url(#paint29_radial_11_522)"/>
<path d="M470.141 353.156L570.416 410.833V532.983L470.141 590.849L370.054 532.983V410.833L470.141 353.156Z" fill="url(#paint30_linear_11_522)"/>
<path opacity="0.25" d="M470.141 468.699L570.416 410.833L470.141 353.156L370.054 410.833L470.141 468.699Z" fill="url(#paint31_linear_11_522)"/>
<path d="M470.565 590.519H470.141L370.054 532.889V411.069L370.478 410.833L470.565 468.699V590.519Z" fill="url(#paint32_linear_11_522)"/>
<path d="M1291.76 1108.76L1397.03 1169.69V1320.73L1291.76 1381.62L1186.49 1320.73V1169.69L1291.76 1108.76Z" fill="url(#paint33_linear_11_522)"/>
<path opacity="0.25" d="M1291.76 1230.49L1397.03 1169.69L1291.76 1108.85L1186.49 1169.69L1291.76 1230.49Z" fill="url(#paint34_linear_11_522)"/>
<path d="M1292.18 1381.14L1291.76 1381.43L1186.49 1320.73V1169.69L1186.91 1169.41L1292.18 1230.3V1381.14Z" fill="url(#paint35_linear_11_522)"/>
</g>
<defs>
<linearGradient id="paint0_linear_11_522" x1="191" y1="1255.45" x2="1728" y2="1255.45" gradientUnits="userSpaceOnUse">
<stop stop-color="#50C0FF" stop-opacity="0.5"/>
<stop offset="1" stop-color="#000B1B" stop-opacity="0.57"/>
</linearGradient>
<linearGradient id="paint1_linear_11_522" x1="1669.79" y1="643.494" x2="974.087" y2="176.86" gradientUnits="userSpaceOnUse">
<stop stop-color="#0F496A"/>
<stop offset="0.14" stop-color="#519CE0"/>
<stop offset="0.31" stop-color="#4893EC" stop-opacity="0.68"/>
<stop offset="0.88" stop-color="#3374B0" stop-opacity="0.06"/>
<stop offset="0.98" stop-color="#205893" stop-opacity="0.25"/>
</linearGradient>
<linearGradient id="paint2_linear_11_522" x1="1563.77" y1="697.32" x2="1078.69" y2="371.954" gradientUnits="userSpaceOnUse">
<stop stop-color="#0F496A"/>
<stop offset="0.14" stop-color="#519CE0"/>
<stop offset="0.31" stop-color="#4893EC" stop-opacity="0.68"/>
<stop offset="0.88" stop-color="#3374B0" stop-opacity="0.06"/>
<stop offset="0.98" stop-color="#205893" stop-opacity="0.25"/>
</linearGradient>
<linearGradient id="paint3_linear_11_522" x1="1514.41" y1="867.457" x2="935.796" y2="479.359" gradientUnits="userSpaceOnUse">
<stop stop-color="#0F496A"/>
<stop offset="0.14" stop-color="#519CE0"/>
<stop offset="0.31" stop-color="#4893EC" stop-opacity="0.68"/>
<stop offset="0.88" stop-color="#3374B0" stop-opacity="0.06"/>
<stop offset="0.98" stop-color="#205893" stop-opacity="0.25"/>
</linearGradient>
<linearGradient id="paint4_linear_11_522" x1="1539.58" y1="1161.81" x2="648.35" y2="563.947" gradientUnits="userSpaceOnUse">
<stop stop-color="#0F496A"/>
<stop offset="0.14" stop-color="#519CE0"/>
<stop offset="0.31" stop-color="#4893EC" stop-opacity="0.68"/>
<stop offset="0.88" stop-color="#3374B0" stop-opacity="0.06"/>
<stop offset="0.98" stop-color="#205893" stop-opacity="0.25"/>
</linearGradient>
<linearGradient id="paint5_linear_11_522" x1="1190.26" y1="1106.82" x2="943.135" y2="964.068" gradientUnits="userSpaceOnUse">
<stop stop-color="#5076FF" stop-opacity="0.25"/>
<stop offset="1" stop-color="#455FE4" stop-opacity="0"/>
</linearGradient>
<linearGradient id="paint6_linear_11_522" x1="952.856" y1="946.349" x2="1284.73" y2="946.349" gradientUnits="userSpaceOnUse">
<stop stop-color="#50C0FF" stop-opacity="0.5"/>
<stop offset="1" stop-color="#000B1B" stop-opacity="0.57"/>
</linearGradient>
<radialGradient id="paint7_radial_11_522" cx="0" cy="0" r="1" gradientUnits="userSpaceOnUse" gradientTransform="translate(1106.33 906.891) scale(217.985 218.341)">
<stop stop-color="#5076FF" stop-opacity="0.25"/>
<stop offset="1" stop-color="#455FE4" stop-opacity="0"/>
</radialGradient>
<linearGradient id="paint8_linear_11_522" x1="991.213" y1="1210.19" x2="1081.93" y2="1015.28" gradientUnits="userSpaceOnUse">
<stop stop-color="#30CDFF" stop-opacity="0.76"/>
<stop offset="1" stop-color="#00A3FF" stop-opacity="0"/>
</linearGradient>
<radialGradient id="paint9_radial_11_522" cx="0" cy="0" r="1" gradientUnits="userSpaceOnUse" gradientTransform="translate(717.093 438.633) rotate(86.595) scale(365.429 346.156)">
<stop stop-color="#133A74"/>
<stop offset="1" stop-color="#134974" stop-opacity="0"/>
</radialGradient>
<radialGradient id="paint10_radial_11_522" cx="0" cy="0" r="1" gradientUnits="userSpaceOnUse" gradientTransform="translate(744.329 762.314) rotate(86.599) scale(234.448 222.088)">
<stop stop-color="#2A6AAC" stop-opacity="0"/>
<stop offset="0.75" stop-color="#4441CB" stop-opacity="0"/>
<stop offset="1" stop-color="#2A6AAC"/>
</radialGradient>
<radialGradient id="paint11_radial_11_522" cx="0" cy="0" r="1" gradientUnits="userSpaceOnUse" gradientTransform="translate(743.571 779.168) rotate(86.5924) scale(223.56 211.748)">
<stop stop-color="white" stop-opacity="0"/>
<stop offset="0.93" stop-color="#3E9DFF" stop-opacity="0"/>
<stop offset="1" stop-color="#3E9DFF"/>
</radialGradient>
<radialGradient id="paint12_radial_11_522" cx="0" cy="0" r="1" gradientUnits="userSpaceOnUse" gradientTransform="translate(738.261 503.26) rotate(85.5324) scale(315.03 298.44)">
<stop stop-color="#1D88D5"/>
<stop offset="1" stop-color="#133A74" stop-opacity="0.41"/>
</radialGradient>
<radialGradient id="paint13_radial_11_522" cx="0" cy="0" r="1" gradientUnits="userSpaceOnUse" gradientTransform="translate(722.966 786.307) rotate(88.6827) scale(181.109 171.554)">
<stop stop-color="#2A6AAC" stop-opacity="0"/>
<stop offset="0.75" stop-color="#4441CB" stop-opacity="0"/>
<stop offset="1" stop-color="#2A6AAC"/>
</radialGradient>
<linearGradient id="paint14_linear_11_522" x1="543.274" y1="910.148" x2="825.879" y2="495.889" gradientUnits="userSpaceOnUse">
<stop stop-color="#50C0FF"/>
<stop offset="0.81" stop-color="#4982EE" stop-opacity="0"/>
<stop offset="0.86" stop-color="#4877EB" stop-opacity="0.28"/>
<stop offset="1" stop-color="#455FE4" stop-opacity="0.25"/>
</linearGradient>
<radialGradient id="paint15_radial_11_522" cx="0" cy="0" r="1" gradientUnits="userSpaceOnUse" gradientTransform="translate(725.278 807.453) rotate(88.6827) scale(533.693 505.535)">
<stop stop-color="#2A6AAC" stop-opacity="0"/>
<stop offset="0.75" stop-color="#4441CB" stop-opacity="0"/>
<stop offset="1" stop-color="#2A6AAC"/>
</radialGradient>
<radialGradient id="paint16_radial_11_522" cx="0" cy="0" r="1" gradientUnits="userSpaceOnUse" gradientTransform="translate(1092.68 240.958) rotate(86.595) scale(209.927 198.856)">
<stop stop-color="#133A74"/>
<stop offset="1" stop-color="#134974" stop-opacity="0"/>
</radialGradient>
<radialGradient id="paint17_radial_11_522" cx="0" cy="0" r="1" gradientUnits="userSpaceOnUse" gradientTransform="translate(1111.15 443.109) rotate(86.599) scale(134.683 127.582)">
<stop stop-color="#2A6AAC" stop-opacity="0"/>
<stop offset="0.75" stop-color="#4441CB" stop-opacity="0"/>
<stop offset="1" stop-color="#2A6AAC"/>
</radialGradient>
<radialGradient id="paint18_radial_11_522" cx="0" cy="0" r="1" gradientUnits="userSpaceOnUse" gradientTransform="translate(1107.89 454.87) rotate(86.5924) scale(128.428 121.643)">
<stop stop-color="white" stop-opacity="0"/>
<stop offset="0.93" stop-color="#3E9DFF" stop-opacity="0"/>
<stop offset="1" stop-color="#3E9DFF"/>
</radialGradient>
<radialGradient id="paint19_radial_11_522" cx="0" cy="0" r="1" gradientUnits="userSpaceOnUse" gradientTransform="translate(1115.6 278.686) rotate(85.5324) scale(180.974 171.444)">
<stop stop-color="#1D88D5"/>
<stop offset="1" stop-color="#133A74" stop-opacity="0.41"/>
</radialGradient>
<radialGradient id="paint20_radial_11_522" cx="0" cy="0" r="1" gradientUnits="userSpaceOnUse" gradientTransform="translate(1095.25 463.603) rotate(88.6827) scale(104.041 98.552)">
<stop stop-color="#2A6AAC" stop-opacity="0"/>
<stop offset="0.75" stop-color="#4441CB" stop-opacity="0"/>
<stop offset="1" stop-color="#2A6AAC"/>
</radialGradient>
<linearGradient id="paint21_linear_11_522" x1="1005.49" y1="520.617" x2="1168.28" y2="281.992" gradientUnits="userSpaceOnUse">
<stop stop-color="#50C0FF"/>
<stop offset="0.81" stop-color="#4982EE" stop-opacity="0"/>
<stop offset="0.86" stop-color="#4877EB" stop-opacity="0.28"/>
<stop offset="1" stop-color="#455FE4" stop-opacity="0.25"/>
</linearGradient>
<radialGradient id="paint22_radial_11_522" cx="0" cy="0" r="1" gradientUnits="userSpaceOnUse" gradientTransform="translate(556.901 1032.37) rotate(86.595) scale(209.927 198.856)">
<stop stop-color="#133A74"/>
<stop offset="1" stop-color="#134974" stop-opacity="0"/>
</radialGradient>
<radialGradient id="paint23_radial_11_522" cx="0" cy="0" r="1" gradientUnits="userSpaceOnUse" gradientTransform="translate(575.952 1234.59) rotate(86.599) scale(134.683 127.582)">
<stop stop-color="#2A6AAC" stop-opacity="0"/>
<stop offset="0.75" stop-color="#4441CB" stop-opacity="0"/>
<stop offset="1" stop-color="#2A6AAC"/>
</radialGradient>
<radialGradient id="paint24_radial_11_522" cx="0" cy="0" r="1" gradientUnits="userSpaceOnUse" gradientTransform="translate(575.222 1249.03) rotate(86.5923) scale(128.428 121.643)">
<stop stop-color="white" stop-opacity="0"/>
<stop offset="0.93" stop-color="#3E9DFF" stop-opacity="0"/>
<stop offset="1" stop-color="#3E9DFF"/>
</radialGradient>
<radialGradient id="paint25_radial_11_522" cx="0" cy="0" r="1" gradientUnits="userSpaceOnUse" gradientTransform="translate(581.929 1070.2) rotate(85.5324) scale(180.974 171.444)">
<stop stop-color="#1D88D5"/>
<stop offset="1" stop-color="#133A74" stop-opacity="0.41"/>
</radialGradient>
<radialGradient id="paint26_radial_11_522" cx="0" cy="0" r="1" gradientUnits="userSpaceOnUse" gradientTransform="translate(560.308 1254.51) rotate(88.6827) scale(104.041 98.552)">
<stop stop-color="#2A6AAC" stop-opacity="0"/>
<stop offset="0.75" stop-color="#4441CB" stop-opacity="0"/>
<stop offset="1" stop-color="#2A6AAC"/>
</radialGradient>
<linearGradient id="paint27_linear_11_522" x1="471.413" y1="1313.22" x2="634.251" y2="1074.65" gradientUnits="userSpaceOnUse">
<stop stop-color="#50C0FF"/>
<stop offset="0.81" stop-color="#4982EE" stop-opacity="0"/>
<stop offset="0.86" stop-color="#4877EB" stop-opacity="0.28"/>
<stop offset="1" stop-color="#455FE4" stop-opacity="0.25"/>
</linearGradient>
<radialGradient id="paint28_radial_11_522" cx="0" cy="0" r="1" gradientUnits="userSpaceOnUse" gradientTransform="translate(1171.73 893.176) rotate(134.953) scale(93.7854 93.7852)">
<stop stop-color="white" stop-opacity="0"/>
<stop offset="0.67" stop-color="#3E9DFF" stop-opacity="0"/>
<stop offset="1" stop-color="#3E9DFF" stop-opacity="0.43"/>
</radialGradient>
<radialGradient id="paint29_radial_11_522" cx="0" cy="0" r="1" gradientUnits="userSpaceOnUse" gradientTransform="translate(1098.53 908.455) rotate(-30.0276) scale(103.276 103.36)">
<stop stop-color="white"/>
<stop offset="0.46" stop-color="#72DDFF"/>
<stop offset="0.73" stop-color="#50C0FF"/>
<stop offset="1" stop-color="#0E67BA"/>
</radialGradient>
<linearGradient id="paint30_linear_11_522" x1="511.372" y1="495.791" x2="368.854" y2="413.489" gradientUnits="userSpaceOnUse">
<stop stop-color="#5076FF" stop-opacity="0.25"/>
<stop offset="1" stop-color="#455FE4" stop-opacity="0"/>
</linearGradient>
<linearGradient id="paint31_linear_11_522" x1="370.054" y1="410.833" x2="570.227" y2="410.833" gradientUnits="userSpaceOnUse">
<stop stop-color="#50C0FF" stop-opacity="0.5"/>
<stop offset="1" stop-color="#000B1B" stop-opacity="0.57"/>
</linearGradient>
<linearGradient id="paint32_linear_11_522" x1="396.961" y1="551.155" x2="444.114" y2="449.878" gradientUnits="userSpaceOnUse">
<stop stop-color="#30CDFF" stop-opacity="0.76"/>
<stop offset="1" stop-color="#00A3FF" stop-opacity="0"/>
</linearGradient>
<linearGradient id="paint33_linear_11_522" x1="1337.09" y1="1271.41" x2="1180.33" y2="1180.87" gradientUnits="userSpaceOnUse">
<stop stop-color="#5076FF" stop-opacity="0.25"/>
<stop offset="1" stop-color="#455FE4" stop-opacity="0"/>
</linearGradient>
<linearGradient id="paint34_linear_11_522" x1="1186.49" y1="1169.65" x2="1397.03" y2="1169.65" gradientUnits="userSpaceOnUse">
<stop stop-color="#50C0FF" stop-opacity="0.5"/>
<stop offset="1" stop-color="#000B1B" stop-opacity="0.57"/>
</linearGradient>
<linearGradient id="paint35_linear_11_522" x1="1210.85" y1="1337.01" x2="1268.35" y2="1213.33" gradientUnits="userSpaceOnUse">
<stop stop-color="#30CDFF" stop-opacity="0.76"/>
<stop offset="1" stop-color="#00A3FF" stop-opacity="0"/>
</linearGradient>
<clipPath id="clip0_11_522">
<rect width="1239.96" height="1160.52" fill="white" transform="translate(339.519 221)"/>
</clipPath>
</defs>
</svg>
