<svg width="1920" height="1920" viewBox="0 0 1920 1920" fill="none" xmlns="http://www.w3.org/2000/svg">
<rect width="1920" height="1920" />
<path opacity="0.25" d="M960.196 1829L1874.39 1305.13L960.196 781.27L46 1305.13L960.196 1829Z" fill="url(#paint0_linear_11_280)"/>
<path opacity="0.25" d="M226.785 877.956L230.157 879.879L1036.21 420.244V92.9231L1032.84 91L226.785 550.636V877.956Z" fill="url(#paint1_linear_11_280)"/>
<path d="M296.76 893.343L300.081 895.267L1093.73 435.476V140.793L1090.41 138.87L296.76 598.66V893.343Z" fill="url(#paint2_linear_11_280)"/>
<g filter="url(#filter0_d_11_280)">
<path d="M539.056 596.84L540.05 597.422L777.771 458.358L777.771 432.911L776.776 432.329L539.056 571.393V596.84Z" fill="#7ACFFF"/>
</g>
<g filter="url(#filter1_d_11_280)">
<path d="M539.05 660.604L540.045 661.186L609.26 618.734L609.26 593.286L608.265 592.704L539.05 635.157V660.604Z" fill="#7ACFFF"/>
</g>
<g opacity="0.25" filter="url(#filter2_d_11_280)">
<path d="M978.324 335.576L979.319 336.157L1048.53 293.705L1048.53 268.258L1047.54 267.676L978.324 310.128V335.576Z" fill="#7ACFFF"/>
</g>
<g opacity="0.25" filter="url(#filter3_d_11_280)">
<path d="M978.324 393.785L979.319 394.367L1048.53 351.915L1048.53 326.468L1047.54 325.886L978.324 368.338V393.785Z" fill="#7ACFFF"/>
</g>
<path d="M466.46 655.851L422.633 605.244L378.807 706.457L422.633 757.064L466.46 655.851Z" stroke="white" stroke-width="1.5" stroke-linecap="round" stroke-linejoin="round"/>
<path d="M466.46 655.85L422.633 655.85L378.807 706.457L422.633 698.023L466.46 655.85Z" stroke="white" stroke-width="1.5" stroke-linecap="round" stroke-linejoin="round"/>
<g opacity="0.5">
<path opacity="0.25" d="M226.785 1243.63L230.157 1245.56L1036.21 785.922V458.602L1032.84 456.678L226.785 916.314V1243.63Z" fill="url(#paint3_linear_11_280)"/>
<path d="M296.76 1259.02L300.081 1260.95L1093.73 801.155V506.472L1090.41 504.548L296.76 964.339V1259.02Z" fill="url(#paint4_linear_11_280)"/>
<g filter="url(#filter4_d_11_280)">
<path d="M539.056 962.518L540.05 963.1L777.771 824.037L777.771 798.589L776.776 798.007L539.056 937.071V962.518Z" fill="#7ACFFF"/>
</g>
<g filter="url(#filter5_d_11_280)">
<path d="M539.05 1026.28L540.045 1026.86L609.26 984.412L609.26 958.965L608.265 958.383L539.05 1000.84V1026.28Z" fill="#7ACFFF"/>
</g>
<g opacity="0.25" filter="url(#filter6_d_11_280)">
<path d="M978.324 701.254L979.319 701.836L1048.53 659.384L1048.53 633.936L1047.54 633.355L978.324 675.807V701.254Z" fill="#7ACFFF"/>
</g>
<g opacity="0.25" filter="url(#filter7_d_11_280)">
<path d="M978.324 759.464L979.319 760.046L1048.53 717.593L1048.53 692.146L1047.54 691.564L978.324 734.016V759.464Z" fill="#7ACFFF"/>
</g>
<path d="M466.46 1021.53L422.633 970.923L378.807 1072.14L422.633 1122.74L466.46 1021.53Z" stroke="white" stroke-width="1.5" stroke-linecap="round" stroke-linejoin="round"/>
<path d="M466.46 1021.53L422.633 1021.53L378.807 1072.14L422.633 1063.7L466.46 1021.53Z" stroke="white" stroke-width="1.5" stroke-linecap="round" stroke-linejoin="round"/>
</g>
<path d="M936.728 1008.7C936.682 934.348 933.705 872.243 891.966 862.452C883.387 860.209 867.347 857.966 847.204 866.938L1218.73 648.229C1227.31 644.491 1250.51 644.865 1265.73 649.351C1290.35 656.608 1307.94 672.666 1308.25 794.93L1308.25 794.931V796.364C1308.25 796.709 1308.25 797.054 1308.25 797.4V1231.45C1308.25 1272.73 1367.94 1295.38 1397.78 1300.99C1362.34 1323.05 1235.51 1402.83 1011.7 1545.5C949.933 1525.76 935.982 1469.98 936.728 1444.55V1010.5C936.728 1009.9 936.728 1009.3 936.728 1008.7Z" fill="url(#paint5_linear_11_280)"/>
<g filter="url(#filter8_f_11_280)">
<path opacity="0.25" d="M908.836 1549.7L910.436 1550.62L1292.77 1330.78V350.771L1291.17 349.851L908.836 569.691V1549.7Z" fill="url(#paint6_linear_11_280)"/>
<path opacity="0.25" d="M1100.8 1549.7L1102.4 1550.62L1484.74 1330.78V350.77L1483.14 349.851L1100.8 569.691V1549.7Z" fill="url(#paint7_linear_11_280)"/>
</g>
<g filter="url(#filter9_b_11_280)">
<path d="M556.609 986.706L752.704 1100.8V1523.47L722.818 1540.9L526.723 1426.8V1004.14L556.609 986.706Z" fill="url(#paint8_linear_11_280)"/>
</g>
<path opacity="0.5" d="M724.192 1115.84L752.704 1099.35L555.234 986.706L526.723 1003.19L724.192 1115.84Z" fill="url(#paint9_linear_11_280)"/>
<path d="M725.801 1540.42L724.972 1540.9L526.723 1426.79L526.723 1003.33L527.552 1002.85L725.801 1116.96V1540.42Z" fill="url(#paint10_linear_11_280)"/>
<path d="M715.041 1508.19L714.301 1508.62L537.484 1405.92L537.484 1024.8L538.224 1024.37L715.041 1127.07V1508.19Z" fill="url(#paint11_linear_11_280)"/>
<g filter="url(#filter10_dd_11_280)">
<path d="M723.017 943.515C760.133 980.63 820.31 980.63 857.426 943.515C894.542 906.399 894.542 846.222 857.426 809.106C820.31 771.99 760.133 771.99 723.017 809.106C685.901 846.222 685.901 906.399 723.017 943.515Z" fill="url(#paint12_radial_11_280)"/>
<path d="M723.017 943.515C760.133 980.63 820.31 980.63 857.426 943.515C894.542 906.399 894.542 846.222 857.426 809.106C820.31 771.99 760.133 771.99 723.017 809.106C685.901 846.222 685.901 906.399 723.017 943.515Z" fill="url(#paint13_radial_11_280)"/>
</g>
<g clip-path="url(#clip0_11_280)">
<path d="M1050.84 1183.62L1093.11 1109.29M1093.11 1035.51L1219.92 960.064L1093.11 1035.51ZM1219.92 960.064L1177.65 936.027L1219.92 960.064ZM1219.92 960.064L1177.65 1034.4L1219.92 960.064ZM1177.65 1108.17L1050.84 1183.62L1177.65 1108.17ZM1050.84 1183.62L1093.11 1207.66L1050.84 1183.62Z" stroke="#B3E2FC" stroke-width="2" stroke-linecap="round" stroke-linejoin="round"/>
</g>
<path d="M1284.35 713.266C1290.84 822.243 1378.26 877.692 1479.61 837.116C1580.96 796.54 1657.85 675.303 1651.36 566.326C1644.87 457.35 1557.45 401.9 1456.1 442.477C1354.75 483.053 1277.86 604.29 1284.35 713.266Z" fill="#021425"/>
<path d="M1284.35 713.266C1290.84 822.243 1378.26 877.692 1479.61 837.116C1580.96 796.54 1657.85 675.303 1651.36 566.326C1644.87 457.35 1557.45 401.9 1456.1 442.477C1354.75 483.053 1277.86 604.29 1284.35 713.266Z" fill="url(#paint14_radial_11_280)"/>
<path d="M1284.35 713.266C1290.84 822.243 1378.26 877.692 1479.61 837.116C1580.96 796.54 1657.85 675.303 1651.36 566.326C1644.87 457.35 1557.45 401.9 1456.1 442.477C1354.75 483.053 1277.86 604.29 1284.35 713.266Z" fill="url(#paint15_radial_11_280)"/>
<path d="M1284.35 713.266C1290.84 822.243 1378.26 877.692 1479.61 837.116C1580.96 796.54 1657.85 675.303 1651.36 566.326C1644.87 457.35 1557.45 401.9 1456.1 442.477C1354.75 483.053 1277.86 604.29 1284.35 713.266Z" fill="url(#paint16_radial_11_280)" fill-opacity="0.5"/>
<g opacity="0.75">
<path d="M1322.8 673.812C1327.41 751.299 1389.57 790.726 1461.63 761.874C1533.7 733.023 1588.37 646.819 1583.76 569.331C1579.14 491.844 1516.98 452.417 1444.92 481.269C1372.85 510.12 1318.18 596.325 1322.8 673.812Z" fill="url(#paint17_radial_11_280)"/>
<path d="M1322.8 673.812C1327.41 751.299 1389.57 790.726 1461.63 761.874C1533.7 733.023 1588.37 646.819 1583.76 569.331C1579.14 491.844 1516.98 452.417 1444.92 481.269C1372.85 510.12 1318.18 596.325 1322.8 673.812Z" fill="url(#paint18_radial_11_280)"/>
</g>
<path d="M1284.85 713.528C1288.12 768.438 1311.93 809.76 1347.72 832.057L1347.72 832.065L1310.68 808.571L1310.69 808.563C1274.9 786.266 1251.08 744.944 1247.82 690.034C1241.33 581.057 1318.24 459.826 1419.59 419.258C1470.65 398.817 1518.18 402.754 1553.6 425.633L1553.61 425.63L1590.64 449.124L1590.64 449.127C1555.22 426.248 1507.69 422.311 1456.62 442.752C1355.27 483.32 1278.37 604.551 1284.85 713.528Z" fill="#011321"/>
<path d="M1284.85 713.528C1288.12 768.438 1311.93 809.76 1347.72 832.057L1347.72 832.065L1310.68 808.571L1310.69 808.563C1274.9 786.266 1251.08 744.944 1247.82 690.034C1241.33 581.057 1318.24 459.826 1419.59 419.258C1470.65 398.817 1518.18 402.754 1553.6 425.633L1553.61 425.63L1590.64 449.124L1590.64 449.127C1555.22 426.248 1507.69 422.311 1456.62 442.752C1355.27 483.32 1278.37 604.551 1284.85 713.528Z" fill="url(#paint19_linear_11_280)"/>
<defs>
<filter id="filter0_d_11_280" x="524.056" y="421.329" width="268.715" height="195.093" filterUnits="userSpaceOnUse" color-interpolation-filters="sRGB">
<feFlood flood-opacity="0" result="BackgroundImageFix"/>
<feColorMatrix in="SourceAlpha" type="matrix" values="0 0 0 0 0 0 0 0 0 0 0 0 0 0 0 0 0 0 127 0" result="hardAlpha"/>
<feOffset dy="4"/>
<feGaussianBlur stdDeviation="7.5"/>
<feComposite in2="hardAlpha" operator="out"/>
<feColorMatrix type="matrix" values="0 0 0 0 0.15 0 0 0 0 0.694 0 0 0 0 1 0 0 0 1 0"/>
<feBlend mode="normal" in2="BackgroundImageFix" result="effect1_dropShadow_11_280"/>
<feBlend mode="normal" in="SourceGraphic" in2="effect1_dropShadow_11_280" result="shape"/>
</filter>
<filter id="filter1_d_11_280" x="524.05" y="581.704" width="100.21" height="98.4813" filterUnits="userSpaceOnUse" color-interpolation-filters="sRGB">
<feFlood flood-opacity="0" result="BackgroundImageFix"/>
<feColorMatrix in="SourceAlpha" type="matrix" values="0 0 0 0 0 0 0 0 0 0 0 0 0 0 0 0 0 0 127 0" result="hardAlpha"/>
<feOffset dy="4"/>
<feGaussianBlur stdDeviation="7.5"/>
<feComposite in2="hardAlpha" operator="out"/>
<feColorMatrix type="matrix" values="0 0 0 0 0.15 0 0 0 0 0.694 0 0 0 0 1 0 0 0 1 0"/>
<feBlend mode="normal" in2="BackgroundImageFix" result="effect1_dropShadow_11_280"/>
<feBlend mode="normal" in="SourceGraphic" in2="effect1_dropShadow_11_280" result="shape"/>
</filter>
<filter id="filter2_d_11_280" x="963.324" y="256.676" width="100.21" height="98.4813" filterUnits="userSpaceOnUse" color-interpolation-filters="sRGB">
<feFlood flood-opacity="0" result="BackgroundImageFix"/>
<feColorMatrix in="SourceAlpha" type="matrix" values="0 0 0 0 0 0 0 0 0 0 0 0 0 0 0 0 0 0 127 0" result="hardAlpha"/>
<feOffset dy="4"/>
<feGaussianBlur stdDeviation="7.5"/>
<feComposite in2="hardAlpha" operator="out"/>
<feColorMatrix type="matrix" values="0 0 0 0 0.15 0 0 0 0 0.694 0 0 0 0 1 0 0 0 1 0"/>
<feBlend mode="normal" in2="BackgroundImageFix" result="effect1_dropShadow_11_280"/>
<feBlend mode="normal" in="SourceGraphic" in2="effect1_dropShadow_11_280" result="shape"/>
</filter>
<filter id="filter3_d_11_280" x="963.324" y="314.886" width="100.21" height="98.4813" filterUnits="userSpaceOnUse" color-interpolation-filters="sRGB">
<feFlood flood-opacity="0" result="BackgroundImageFix"/>
<feColorMatrix in="SourceAlpha" type="matrix" values="0 0 0 0 0 0 0 0 0 0 0 0 0 0 0 0 0 0 127 0" result="hardAlpha"/>
<feOffset dy="4"/>
<feGaussianBlur stdDeviation="7.5"/>
<feComposite in2="hardAlpha" operator="out"/>
<feColorMatrix type="matrix" values="0 0 0 0 0.15 0 0 0 0 0.694 0 0 0 0 1 0 0 0 1 0"/>
<feBlend mode="normal" in2="BackgroundImageFix" result="effect1_dropShadow_11_280"/>
<feBlend mode="normal" in="SourceGraphic" in2="effect1_dropShadow_11_280" result="shape"/>
</filter>
<filter id="filter4_d_11_280" x="524.056" y="787.007" width="268.715" height="195.093" filterUnits="userSpaceOnUse" color-interpolation-filters="sRGB">
<feFlood flood-opacity="0" result="BackgroundImageFix"/>
<feColorMatrix in="SourceAlpha" type="matrix" values="0 0 0 0 0 0 0 0 0 0 0 0 0 0 0 0 0 0 127 0" result="hardAlpha"/>
<feOffset dy="4"/>
<feGaussianBlur stdDeviation="7.5"/>
<feComposite in2="hardAlpha" operator="out"/>
<feColorMatrix type="matrix" values="0 0 0 0 0.15 0 0 0 0 0.694 0 0 0 0 1 0 0 0 1 0"/>
<feBlend mode="normal" in2="BackgroundImageFix" result="effect1_dropShadow_11_280"/>
<feBlend mode="normal" in="SourceGraphic" in2="effect1_dropShadow_11_280" result="shape"/>
</filter>
<filter id="filter5_d_11_280" x="524.05" y="947.383" width="100.21" height="98.4813" filterUnits="userSpaceOnUse" color-interpolation-filters="sRGB">
<feFlood flood-opacity="0" result="BackgroundImageFix"/>
<feColorMatrix in="SourceAlpha" type="matrix" values="0 0 0 0 0 0 0 0 0 0 0 0 0 0 0 0 0 0 127 0" result="hardAlpha"/>
<feOffset dy="4"/>
<feGaussianBlur stdDeviation="7.5"/>
<feComposite in2="hardAlpha" operator="out"/>
<feColorMatrix type="matrix" values="0 0 0 0 0.15 0 0 0 0 0.694 0 0 0 0 1 0 0 0 1 0"/>
<feBlend mode="normal" in2="BackgroundImageFix" result="effect1_dropShadow_11_280"/>
<feBlend mode="normal" in="SourceGraphic" in2="effect1_dropShadow_11_280" result="shape"/>
</filter>
<filter id="filter6_d_11_280" x="963.324" y="622.355" width="100.21" height="98.4813" filterUnits="userSpaceOnUse" color-interpolation-filters="sRGB">
<feFlood flood-opacity="0" result="BackgroundImageFix"/>
<feColorMatrix in="SourceAlpha" type="matrix" values="0 0 0 0 0 0 0 0 0 0 0 0 0 0 0 0 0 0 127 0" result="hardAlpha"/>
<feOffset dy="4"/>
<feGaussianBlur stdDeviation="7.5"/>
<feComposite in2="hardAlpha" operator="out"/>
<feColorMatrix type="matrix" values="0 0 0 0 0.15 0 0 0 0 0.694 0 0 0 0 1 0 0 0 1 0"/>
<feBlend mode="normal" in2="BackgroundImageFix" result="effect1_dropShadow_11_280"/>
<feBlend mode="normal" in="SourceGraphic" in2="effect1_dropShadow_11_280" result="shape"/>
</filter>
<filter id="filter7_d_11_280" x="963.324" y="680.564" width="100.21" height="98.4813" filterUnits="userSpaceOnUse" color-interpolation-filters="sRGB">
<feFlood flood-opacity="0" result="BackgroundImageFix"/>
<feColorMatrix in="SourceAlpha" type="matrix" values="0 0 0 0 0 0 0 0 0 0 0 0 0 0 0 0 0 0 127 0" result="hardAlpha"/>
<feOffset dy="4"/>
<feGaussianBlur stdDeviation="7.5"/>
<feComposite in2="hardAlpha" operator="out"/>
<feColorMatrix type="matrix" values="0 0 0 0 0.15 0 0 0 0 0.694 0 0 0 0 1 0 0 0 1 0"/>
<feBlend mode="normal" in2="BackgroundImageFix" result="effect1_dropShadow_11_280"/>
<feBlend mode="normal" in="SourceGraphic" in2="effect1_dropShadow_11_280" result="shape"/>
</filter>
<filter id="filter8_f_11_280" x="873.836" y="314.851" width="645.903" height="1270.77" filterUnits="userSpaceOnUse" color-interpolation-filters="sRGB">
<feFlood flood-opacity="0" result="BackgroundImageFix"/>
<feBlend mode="normal" in="SourceGraphic" in2="BackgroundImageFix" result="shape"/>
<feGaussianBlur stdDeviation="17.5" result="effect1_foregroundBlur_11_280"/>
</filter>
<filter id="filter9_b_11_280" x="505.723" y="965.706" width="267.981" height="596.192" filterUnits="userSpaceOnUse" color-interpolation-filters="sRGB">
<feFlood flood-opacity="0" result="BackgroundImageFix"/>
<feGaussianBlur in="BackgroundImage" stdDeviation="10.5"/>
<feComposite in2="SourceAlpha" operator="in" result="effect1_backgroundBlur_11_280"/>
<feBlend mode="normal" in="SourceGraphic" in2="effect1_backgroundBlur_11_280" result="shape"/>
</filter>
<filter id="filter10_dd_11_280" x="632.181" y="713.269" width="304.082" height="308.082" filterUnits="userSpaceOnUse" color-interpolation-filters="sRGB">
<feFlood flood-opacity="0" result="BackgroundImageFix"/>
<feColorMatrix in="SourceAlpha" type="matrix" values="0 0 0 0 0 0 0 0 0 0 0 0 0 0 0 0 0 0 127 0" result="hardAlpha"/>
<feOffset dx="-20" dy="7"/>
<feGaussianBlur stdDeviation="21.5"/>
<feComposite in2="hardAlpha" operator="out"/>
<feColorMatrix type="matrix" values="0 0 0 0 0 0 0 0 0 0.928 0 0 0 0 1 0 0 0 1 0"/>
<feBlend mode="normal" in2="BackgroundImageFix" result="effect1_dropShadow_11_280"/>
<feColorMatrix in="SourceAlpha" type="matrix" values="0 0 0 0 0 0 0 0 0 0 0 0 0 0 0 0 0 0 127 0" result="hardAlpha"/>
<feOffset dx="4" dy="-21"/>
<feGaussianBlur stdDeviation="23.5"/>
<feComposite in2="hardAlpha" operator="out"/>
<feColorMatrix type="matrix" values="0 0 0 0 0.230903 0 0 0 0 0.354271 0 0 0 0 0.791667 0 0 0 1 0"/>
<feBlend mode="normal" in2="effect1_dropShadow_11_280" result="effect2_dropShadow_11_280"/>
<feBlend mode="normal" in="SourceGraphic" in2="effect2_dropShadow_11_280" result="shape"/>
</filter>
<linearGradient id="paint0_linear_11_280" x1="46" y1="1305.13" x2="1874.39" y2="1305.13" gradientUnits="userSpaceOnUse">
<stop stop-color="#50C0FF" stop-opacity="0.5"/>
<stop offset="1" stop-color="#000B1B" stop-opacity="0.57"/>
</linearGradient>
<linearGradient id="paint1_linear_11_280" x1="1036.21" y1="996.949" x2="235.009" y2="542.09" gradientUnits="userSpaceOnUse">
<stop stop-color="#30CDFF" stop-opacity="0.76"/>
<stop offset="1" stop-color="#00A3FF" stop-opacity="0"/>
</linearGradient>
<linearGradient id="paint2_linear_11_280" x1="1093.73" y1="1045.12" x2="298.815" y2="600.925" gradientUnits="userSpaceOnUse">
<stop stop-color="#30CDFF" stop-opacity="0.76"/>
<stop offset="1" stop-color="#00A3FF" stop-opacity="0"/>
</linearGradient>
<linearGradient id="paint3_linear_11_280" x1="1036.21" y1="1362.63" x2="235.009" y2="907.768" gradientUnits="userSpaceOnUse">
<stop stop-color="#30CDFF" stop-opacity="0.76"/>
<stop offset="1" stop-color="#00A3FF" stop-opacity="0"/>
</linearGradient>
<linearGradient id="paint4_linear_11_280" x1="1093.73" y1="1410.8" x2="298.815" y2="966.603" gradientUnits="userSpaceOnUse">
<stop stop-color="#30CDFF" stop-opacity="0.76"/>
<stop offset="1" stop-color="#00A3FF" stop-opacity="0"/>
</linearGradient>
<linearGradient id="paint5_linear_11_280" x1="947.919" y1="795.157" x2="1298.21" y2="1359.73" gradientUnits="userSpaceOnUse">
<stop stop-color="#0F496A"/>
<stop offset="0.13715" stop-color="#519CE0"/>
<stop offset="0.308876" stop-color="#4893EC" stop-opacity="0.68"/>
<stop offset="0.876006" stop-color="#3374B0" stop-opacity="0.06"/>
<stop offset="0.984051" stop-color="#205893" stop-opacity="0.25"/>
</linearGradient>
<linearGradient id="paint6_linear_11_280" x1="910.436" y1="1463.54" x2="912.555" y2="582.182" gradientUnits="userSpaceOnUse">
<stop stop-color="#0047FF" stop-opacity="0"/>
<stop offset="1" stop-color="#305DFF" stop-opacity="0.76"/>
</linearGradient>
<linearGradient id="paint7_linear_11_280" x1="1102.4" y1="1463.54" x2="1104.52" y2="582.181" gradientUnits="userSpaceOnUse">
<stop stop-color="#00A3FF" stop-opacity="0"/>
<stop offset="1" stop-color="#30CDFF" stop-opacity="0.76"/>
</linearGradient>
<linearGradient id="paint8_linear_11_280" x1="918.912" y1="1232.33" x2="524.35" y2="914.112" gradientUnits="userSpaceOnUse">
<stop stop-color="#5076FF" stop-opacity="0.25"/>
<stop offset="1" stop-color="#455FE4" stop-opacity="0"/>
</linearGradient>
<linearGradient id="paint9_linear_11_280" x1="684.592" y1="1093.25" x2="763.791" y2="1093.25" gradientUnits="userSpaceOnUse">
<stop stop-color="#50C0FF" stop-opacity="0.5"/>
<stop offset="1" stop-color="#000B1B" stop-opacity="0.57"/>
</linearGradient>
<linearGradient id="paint10_linear_11_280" x1="517.192" y1="1294.79" x2="701.133" y2="1173.73" gradientUnits="userSpaceOnUse">
<stop stop-color="#30CDFF" stop-opacity="0.76"/>
<stop offset="1" stop-color="#00A3FF" stop-opacity="0"/>
</linearGradient>
<linearGradient id="paint11_linear_11_280" x1="603.352" y1="1324.14" x2="516.725" y2="1209.38" gradientUnits="userSpaceOnUse">
<stop stop-color="#005D7A" stop-opacity="0.76"/>
<stop offset="1" stop-color="#01152D" stop-opacity="0.71"/>
</linearGradient>
<radialGradient id="paint12_radial_11_280" cx="0" cy="0" r="1" gradientUnits="userSpaceOnUse" gradientTransform="translate(745.785 831.874) rotate(45) scale(157.884)">
<stop stop-color="white" stop-opacity="0"/>
<stop offset="0.668121" stop-color="#3E9DFF" stop-opacity="0"/>
<stop offset="1" stop-color="#3E9DFF" stop-opacity="0.43"/>
</radialGradient>
<radialGradient id="paint13_radial_11_280" cx="0" cy="0" r="1" gradientUnits="userSpaceOnUse" gradientTransform="translate(874.141 922.82) rotate(-150.007) scale(173.943)">
<stop stop-color="white"/>
<stop offset="0.463542" stop-color="#72DDFF"/>
<stop offset="0.733683" stop-color="#50C0FF"/>
<stop offset="1" stop-color="#0E67BA"/>
</radialGradient>
<radialGradient id="paint14_radial_11_280" cx="0" cy="0" r="1" gradientUnits="userSpaceOnUse" gradientTransform="translate(1450.69 351.665) rotate(86.5906) scale(338.434 321.109)">
<stop stop-color="#133A74"/>
<stop offset="1" stop-color="#134974" stop-opacity="0"/>
</radialGradient>
<radialGradient id="paint15_radial_11_280" cx="0" cy="0" r="1" gradientUnits="userSpaceOnUse" gradientTransform="translate(1466.7 620.363) rotate(86.5906) scale(217.137 206.021)">
<stop stop-color="#2A6AAC" stop-opacity="0"/>
<stop offset="0.75" stop-color="#4441CB" stop-opacity="0"/>
<stop offset="1" stop-color="#2A6AAC"/>
</radialGradient>
<radialGradient id="paint16_radial_11_280" cx="0" cy="0" r="1" gradientUnits="userSpaceOnUse" gradientTransform="translate(1467.3 630.453) rotate(86.5906) scale(207.029 196.43)">
<stop stop-color="white" stop-opacity="0"/>
<stop offset="0.929818" stop-color="#3E9DFF" stop-opacity="0"/>
<stop offset="1" stop-color="#3E9DFF"/>
</radialGradient>
<radialGradient id="paint17_radial_11_280" cx="0" cy="0" r="1" gradientUnits="userSpaceOnUse" gradientTransform="translate(1441.07 416.698) rotate(85.5248) scale(291.768 276.831)">
<stop stop-color="#1D88D5"/>
<stop offset="1" stop-color="#133A74" stop-opacity="0.41"/>
</radialGradient>
<radialGradient id="paint18_radial_11_280" cx="0" cy="0" r="1" gradientUnits="userSpaceOnUse" gradientTransform="translate(1454.81 631.469) rotate(88.678) scale(167.738 159.151)">
<stop stop-color="#2A6AAC" stop-opacity="0"/>
<stop offset="0.75" stop-color="#4441CB" stop-opacity="0"/>
<stop offset="1" stop-color="#2A6AAC"/>
</radialGradient>
<linearGradient id="paint19_linear_11_280" x1="1287.51" y1="795.458" x2="1549.37" y2="411.056" gradientUnits="userSpaceOnUse">
<stop stop-color="#50C0FF"/>
<stop offset="0.807292" stop-color="#4982EE" stop-opacity="0"/>
<stop offset="0.864583" stop-color="#4877EB" stop-opacity="0.282239"/>
<stop offset="1" stop-color="#455FE4" stop-opacity="0.25"/>
</linearGradient>
<clipPath id="clip0_11_280">
<rect width="295.111" height="295.111" fill="white" transform="matrix(0.859406 -0.511293 0 1 1008.57 999.73)"/>
</clipPath>
</defs>
</svg>
