<svg width="1920" height="1920" viewBox="0 0 1920 1920" fill="none" xmlns="http://www.w3.org/2000/svg">
<rect width="1920" height="1920" />
<path opacity="0.25" d="M960.5 1776.47L1745 1321.63L960.5 866.8L176 1321.63L960.5 1776.47Z" fill="url(#paint0_linear_11_1750)"/>
<path d="M923.335 545.065C923.335 462.894 926.687 394.317 972.946 383.463C989.573 379.389 1007.1 381.18 1022.56 388.535L610.744 146.842C601.198 142.683 575.504 143.089 558.646 148.059C531.327 156.074 511.828 173.827 511.574 308.901V1005.07C511.574 1050.72 445.563 1075.67 412.354 1081.86C451.605 1106.26 592.21 1194.36 840.313 1352.01C864.326 1344.79 885.374 1330.04 900.344 1309.94C915.314 1289.85 923.411 1265.47 923.437 1240.42V545.065H923.335Z" fill="url(#paint1_linear_11_1750)"/>
<path d="M858.846 764.034L857.12 765.049L441.144 523.812V479.684L442.871 478.669L858.846 719.855V764.034Z" fill="#7ACFFF"/>
<path d="M858.796 1056.09V1100.22L857.121 1101.24L606.225 955.765V909.557L858.796 1056.09Z" fill="#7ACFFF"/>
<path d="M858.846 874.405L857.119 875.42L736.013 801.973V757.743L737.74 756.729L858.846 830.378V874.405Z" fill="#7ACFFF"/>
<path d="M858.846 982.545L857.119 983.56L736.013 909.911V865.782L737.74 864.768L858.846 938.366V982.545Z" fill="#7ACFFF"/>
<path style="mix-blend-mode:color-dodge" d="M845.91 806.86C845.91 873.108 826.265 937.868 789.46 992.951C752.655 1048.03 700.342 1090.97 639.137 1116.32C577.932 1141.67 510.584 1148.3 445.609 1135.38C380.634 1122.45 320.95 1090.55 274.106 1043.71C227.262 996.864 195.361 937.181 182.436 872.206C169.512 807.231 176.145 739.883 201.497 678.678C226.849 617.473 269.781 565.16 324.864 528.355C379.947 491.55 444.707 471.905 510.955 471.905C599.791 471.905 684.988 507.195 747.804 570.011C810.62 632.827 845.91 718.024 845.91 806.86Z" fill="url(#paint2_radial_11_1750)"/>
<path d="M567.43 857.414C556.779 868.057 543.207 875.305 528.431 878.243C513.656 881.181 498.34 879.675 484.421 873.917C470.502 868.159 458.605 858.408 450.234 845.895C441.864 833.383 437.396 818.672 437.396 803.623C437.396 788.574 441.864 773.863 450.234 761.351C458.605 748.838 470.502 739.086 484.421 733.328C498.34 727.571 513.656 726.065 528.431 729.003C543.207 731.94 556.779 739.189 567.43 749.832C581.709 764.099 589.731 783.448 589.731 803.623C589.731 823.798 581.709 843.146 567.43 857.414Z" fill="url(#paint3_radial_11_1750)"/>
<path d="M567.43 857.414C556.779 868.057 543.207 875.305 528.431 878.243C513.656 881.181 498.34 879.675 484.421 873.917C470.502 868.159 458.605 858.408 450.234 845.895C441.864 833.383 437.396 818.672 437.396 803.623C437.396 788.574 441.864 773.863 450.234 761.351C458.605 748.838 470.502 739.086 484.421 733.328C498.34 727.571 513.656 726.065 528.431 729.003C543.207 731.94 556.779 739.189 567.43 749.832C581.709 764.099 589.731 783.448 589.731 803.623C589.731 823.798 581.709 843.146 567.43 857.414Z" fill="url(#paint4_radial_11_1750)"/>
<path style="mix-blend-mode:color-dodge" fill-rule="evenodd" clip-rule="evenodd" d="M815.735 267.054L812.231 264.974V351.203L798.217 342.884V507.935L812.231 516.254V602.482L815.735 604.561V518.333L829.75 526.652V361.398L815.735 353.079V267.054ZM761.453 368.499L747.438 360.18V602.279L761.453 610.648V658.226L764.957 660.305V612.677L778.972 620.793V378.796L764.957 370.477V322.899L761.453 320.82V368.499ZM710.675 424.294L696.711 415.975V499.667L710.675 507.986V587.214L714.179 589.294V510.065L728.193 518.384V434.641L714.179 426.323V251.989L710.675 249.91V424.294ZM659.897 371.492L645.882 363.173V397.106L659.897 405.425V516.304L663.4 518.384V407.454L677.364 415.772V381.839L663.4 373.52V297.437L659.897 295.357V371.492ZM609.118 378.897L595.104 370.578V449.807L609.118 458.126V542.781L612.622 544.861V460.205L626.688 468.625V389.295L612.673 380.977V319.805L609.169 317.726L609.118 378.897Z" fill="url(#paint5_radial_11_1750)"/>
<path d="M1143.56 570.071L1281.47 649.604V879.985L1143.56 959.518L1005.6 879.985V649.452L1143.56 570.071Z" fill="url(#paint6_linear_11_1750)"/>
<path opacity="0.25" d="M1143.56 729.035L1281.47 649.452L1143.56 570.071L1005.6 649.452L1143.56 729.035Z" fill="url(#paint7_linear_11_1750)"/>
<path opacity="0.5" d="M1143.56 729.035L1281.47 649.452L1143.56 570.071L1005.6 649.452L1143.56 729.035Z" fill="url(#paint8_linear_11_1750)"/>
<path d="M1144.12 959.062L1143.56 959.417L1005.6 879.834V649.807L1006.2 649.452L1144.12 729.036V959.062Z" fill="url(#paint9_linear_11_1750)"/>
<path d="M1143.56 457.213L1281.47 536.797V603.04L1143.56 682.573L1005.6 603.04V536.797L1143.56 457.213Z" fill="url(#paint10_linear_11_1750)"/>
<path opacity="0.25" d="M1143.56 616.329L1281.47 536.797L1143.56 457.213L1005.6 536.797L1143.56 616.329Z" fill="url(#paint11_linear_11_1750)"/>
<path opacity="0.5" d="M1143.56 616.329L1281.47 536.797L1143.56 457.213L1005.6 536.797L1143.56 616.329Z" fill="url(#paint12_linear_11_1750)"/>
<path d="M1144.12 682.116L1143.56 682.471L1005.6 602.888V536.948L1006.2 536.644L1144.12 616.177V682.116Z" fill="url(#paint13_linear_11_1750)"/>
<path d="M1143.56 570.071L1281.47 649.604V879.985L1143.56 959.518L1005.6 879.985V649.452L1143.56 570.071Z" fill="url(#paint14_linear_11_1750)"/>
<path opacity="0.25" d="M1143.56 729.035L1281.47 649.452L1143.56 570.071L1005.6 649.452L1143.56 729.035Z" fill="url(#paint15_linear_11_1750)"/>
<path opacity="0.5" d="M1143.56 729.035L1281.47 649.452L1143.56 570.071L1005.6 649.452L1143.56 729.035Z" fill="url(#paint16_linear_11_1750)"/>
<path d="M1144.12 959.062L1143.56 959.417L1005.6 879.834V649.807L1006.2 649.452L1144.12 729.036V959.062Z" fill="url(#paint17_linear_11_1750)"/>
<path d="M1143.56 457.213L1281.47 536.797V603.04L1143.56 682.573L1005.6 603.04V536.797L1143.56 457.213Z" fill="url(#paint18_linear_11_1750)"/>
<path opacity="0.25" d="M1143.56 616.329L1281.47 536.797L1143.56 457.213L1005.6 536.797L1143.56 616.329Z" fill="url(#paint19_linear_11_1750)"/>
<path opacity="0.5" d="M1143.56 616.329L1281.47 536.797L1143.56 457.213L1005.6 536.797L1143.56 616.329Z" fill="url(#paint20_linear_11_1750)"/>
<path d="M1144.12 682.116L1143.56 682.471L1005.6 602.888V536.948L1006.2 536.644L1144.12 616.177V682.116Z" fill="url(#paint21_linear_11_1750)"/>
<path d="M1379.32 1248.23C1373.94 1338.77 1301.23 1384.88 1216.83 1351.15C1132.44 1317.42 1068.51 1216.68 1073.94 1126.09C1079.38 1035.5 1152.09 989.445 1236.43 1023.18C1320.78 1056.91 1384.96 1157.64 1379.32 1248.23Z" fill="#021425"/>
<path d="M1379.32 1248.23C1373.94 1338.77 1301.23 1384.88 1216.83 1351.15C1132.44 1317.42 1068.51 1216.68 1073.94 1126.09C1079.38 1035.5 1152.09 989.445 1236.43 1023.18C1320.78 1056.91 1384.96 1157.64 1379.32 1248.23Z" fill="url(#paint22_radial_11_1750)"/>
<path d="M1379.32 1248.23C1373.94 1338.77 1301.23 1384.88 1216.83 1351.15C1132.44 1317.42 1068.51 1216.68 1073.94 1126.09C1079.38 1035.5 1152.09 989.445 1236.43 1023.18C1320.78 1056.91 1384.96 1157.64 1379.32 1248.23Z" fill="url(#paint23_radial_11_1750)"/>
<path d="M1379.32 1248.23C1373.94 1338.77 1301.23 1384.88 1216.83 1351.15C1132.44 1317.42 1068.51 1216.68 1073.94 1126.09C1079.38 1035.5 1152.09 989.445 1236.43 1023.18C1320.78 1056.91 1384.96 1157.64 1379.32 1248.23Z" fill="url(#paint24_radial_11_1750)" fill-opacity="0.5"/>
<g opacity="0.75">
<path opacity="0.75" d="M1347.39 1215.41C1343.53 1279.83 1291.78 1312.6 1231.87 1288.61C1171.95 1264.61 1126.4 1192.99 1130.31 1128.58C1134.22 1064.16 1185.86 1031.44 1245.83 1055.38C1305.8 1079.32 1351.19 1151.05 1347.39 1215.41Z" fill="url(#paint25_radial_11_1750)"/>
<path opacity="0.75" d="M1347.39 1215.41C1343.53 1279.83 1291.78 1312.6 1231.87 1288.61C1171.95 1264.61 1126.4 1192.99 1130.31 1128.58C1134.22 1064.16 1185.86 1031.44 1245.83 1055.38C1305.8 1079.32 1351.19 1151.05 1347.39 1215.41Z" fill="url(#paint26_radial_11_1750)"/>
</g>
<path d="M1378.92 1248.43C1376.23 1294.08 1356.42 1328.42 1326.62 1346.94L1357.44 1327.41C1387.19 1308.89 1407.05 1274.56 1409.74 1228.9C1415.12 1138.31 1351.14 1037.58 1266.85 1003.85C1224.35 986.857 1184.79 990.154 1155.14 1008.92L1124.32 1028.45C1153.77 1009.43 1193.32 1006.13 1236.03 1023.38C1320.32 1057.01 1384.35 1157.84 1378.92 1248.43Z" fill="#011321"/>
<path d="M1378.92 1248.43C1376.23 1294.08 1356.42 1328.42 1326.62 1346.94L1357.44 1327.41C1387.19 1308.89 1407.05 1274.56 1409.74 1228.9C1415.12 1138.31 1351.14 1037.58 1266.85 1003.85C1224.35 986.857 1184.79 990.154 1155.14 1008.92L1124.32 1028.45C1153.77 1009.43 1193.32 1006.13 1236.03 1023.38C1320.32 1057.01 1384.35 1157.84 1378.92 1248.43Z" fill="url(#paint27_linear_11_1750)"/>
<path d="M1379.32 1248.23C1373.94 1338.77 1301.23 1384.88 1216.83 1351.15C1132.44 1317.42 1068.51 1216.68 1073.94 1126.09C1079.38 1035.5 1152.09 989.445 1236.43 1023.18C1320.78 1056.91 1384.96 1157.64 1379.32 1248.23Z" fill="#021425"/>
<path d="M1379.32 1248.23C1373.94 1338.77 1301.23 1384.88 1216.83 1351.15C1132.44 1317.42 1068.51 1216.68 1073.94 1126.09C1079.38 1035.5 1152.09 989.445 1236.43 1023.18C1320.78 1056.91 1384.96 1157.64 1379.32 1248.23Z" fill="url(#paint28_radial_11_1750)"/>
<path d="M1379.32 1248.23C1373.94 1338.77 1301.23 1384.88 1216.83 1351.15C1132.44 1317.42 1068.51 1216.68 1073.94 1126.09C1079.38 1035.5 1152.09 989.445 1236.43 1023.18C1320.78 1056.91 1384.96 1157.64 1379.32 1248.23Z" fill="url(#paint29_radial_11_1750)"/>
<path d="M1379.32 1248.23C1373.94 1338.77 1301.23 1384.88 1216.83 1351.15C1132.44 1317.42 1068.51 1216.68 1073.94 1126.09C1079.38 1035.5 1152.09 989.445 1236.43 1023.18C1320.78 1056.91 1384.96 1157.64 1379.32 1248.23Z" fill="url(#paint30_radial_11_1750)" fill-opacity="0.5"/>
<g opacity="0.75">
<path opacity="0.75" d="M1347.39 1215.41C1343.53 1279.83 1291.78 1312.6 1231.87 1288.61C1171.95 1264.61 1126.4 1192.99 1130.31 1128.58C1134.22 1064.16 1185.86 1031.44 1245.83 1055.38C1305.8 1079.32 1351.19 1151.05 1347.39 1215.41Z" fill="url(#paint31_radial_11_1750)"/>
<path opacity="0.75" d="M1347.39 1215.41C1343.53 1279.83 1291.78 1312.6 1231.87 1288.61C1171.95 1264.61 1126.4 1192.99 1130.31 1128.58C1134.22 1064.16 1185.86 1031.44 1245.83 1055.38C1305.8 1079.32 1351.19 1151.05 1347.39 1215.41Z" fill="url(#paint32_radial_11_1750)"/>
</g>
<path d="M1378.92 1248.43C1376.23 1294.08 1356.42 1328.42 1326.62 1346.94L1357.44 1327.41C1387.19 1308.89 1407.05 1274.56 1409.74 1228.9C1415.12 1138.31 1351.14 1037.58 1266.85 1003.85C1224.35 986.857 1184.79 990.154 1155.14 1008.92L1124.32 1028.45C1153.77 1009.43 1193.32 1006.13 1236.03 1023.38C1320.32 1057.01 1384.35 1157.84 1378.92 1248.43Z" fill="#011321"/>
<path d="M1378.92 1248.43C1376.23 1294.08 1356.42 1328.42 1326.62 1346.94L1357.44 1327.41C1387.19 1308.89 1407.05 1274.56 1409.74 1228.9C1415.12 1138.31 1351.14 1037.58 1266.85 1003.85C1224.35 986.857 1184.79 990.154 1155.14 1008.92L1124.32 1028.45C1153.77 1009.43 1193.32 1006.13 1236.03 1023.38C1320.32 1057.01 1384.35 1157.84 1378.92 1248.43Z" fill="url(#paint33_linear_11_1750)"/>
<path d="M1289.8 1309.91C1284.37 1400.5 1211.65 1446.56 1127.31 1412.83C1042.97 1379.09 979.039 1278.36 984.422 1187.77C989.804 1097.18 1062.57 1051.12 1146.91 1084.85C1231.26 1118.58 1295.18 1219.32 1289.8 1309.91Z" fill="#021425"/>
<path d="M1289.8 1309.91C1284.37 1400.5 1211.65 1446.56 1127.31 1412.83C1042.97 1379.09 979.039 1278.36 984.422 1187.77C989.804 1097.18 1062.57 1051.12 1146.91 1084.85C1231.26 1118.58 1295.18 1219.32 1289.8 1309.91Z" fill="url(#paint34_radial_11_1750)"/>
<path d="M1289.8 1309.91C1284.37 1400.5 1211.65 1446.56 1127.31 1412.83C1042.97 1379.09 979.039 1278.36 984.422 1187.77C989.804 1097.18 1062.57 1051.12 1146.91 1084.85C1231.26 1118.58 1295.18 1219.32 1289.8 1309.91Z" fill="url(#paint35_radial_11_1750)"/>
<path d="M1289.8 1309.91C1284.37 1400.5 1211.65 1446.56 1127.31 1412.83C1042.97 1379.09 979.039 1278.36 984.422 1187.77C989.804 1097.18 1062.57 1051.12 1146.91 1084.85C1231.26 1118.58 1295.18 1219.32 1289.8 1309.91Z" fill="url(#paint36_radial_11_1750)" fill-opacity="0.5"/>
<g opacity="0.75">
<path opacity="0.75" d="M1258.02 1277.09C1254.16 1341.51 1202.46 1374.27 1142.49 1350.28C1082.53 1326.29 1037.03 1254.67 1040.94 1190.25C1044.85 1125.84 1096.49 1093.12 1156.46 1117.11C1216.43 1141.1 1261.67 1212.72 1258.02 1277.09Z" fill="url(#paint37_radial_11_1750)"/>
<path opacity="0.75" d="M1258.02 1277.09C1254.16 1341.51 1202.46 1374.27 1142.49 1350.28C1082.53 1326.29 1037.03 1254.67 1040.94 1190.25C1044.85 1125.84 1096.49 1093.12 1156.46 1117.11C1216.43 1141.1 1261.67 1212.72 1258.02 1277.09Z" fill="url(#paint38_radial_11_1750)"/>
</g>
<path d="M1289.4 1310.11C1286.65 1355.76 1266.85 1390.1 1237.04 1408.61L1267.82 1389.09C1297.62 1370.57 1317.43 1336.23 1320.12 1290.58C1325.55 1200.04 1261.57 1099.26 1177.23 1065.53C1134.73 1048.59 1095.17 1051.83 1065.51 1070.6L1034.69 1090.13C1064.19 1071.11 1103.7 1067.81 1146.4 1084.8C1230.8 1118.79 1294.78 1219.57 1289.4 1310.11Z" fill="#011321"/>
<path d="M1289.4 1310.11C1286.65 1355.76 1266.85 1390.1 1237.04 1408.61L1267.82 1389.09C1297.62 1370.57 1317.43 1336.23 1320.12 1290.58C1325.55 1200.04 1261.57 1099.26 1177.23 1065.53C1134.73 1048.59 1095.17 1051.83 1065.51 1070.6L1034.69 1090.13C1064.19 1071.11 1103.7 1067.81 1146.4 1084.8C1230.8 1118.79 1294.78 1219.57 1289.4 1310.11Z" fill="url(#paint39_linear_11_1750)"/>
<path d="M1289.8 1309.91C1284.37 1400.5 1211.65 1446.56 1127.31 1412.83C1042.97 1379.09 979.039 1278.36 984.422 1187.77C989.804 1097.18 1062.57 1051.12 1146.91 1084.85C1231.26 1118.58 1295.18 1219.32 1289.8 1309.91Z" fill="#021425"/>
<path d="M1289.8 1309.91C1284.37 1400.5 1211.65 1446.56 1127.31 1412.83C1042.97 1379.09 979.039 1278.36 984.422 1187.77C989.804 1097.18 1062.57 1051.12 1146.91 1084.85C1231.26 1118.58 1295.18 1219.32 1289.8 1309.91Z" fill="url(#paint40_radial_11_1750)"/>
<path d="M1289.8 1309.91C1284.37 1400.5 1211.65 1446.56 1127.31 1412.83C1042.97 1379.09 979.039 1278.36 984.422 1187.77C989.804 1097.18 1062.57 1051.12 1146.91 1084.85C1231.26 1118.58 1295.18 1219.32 1289.8 1309.91Z" fill="url(#paint41_radial_11_1750)"/>
<path d="M1289.8 1309.91C1284.37 1400.5 1211.65 1446.56 1127.31 1412.83C1042.97 1379.09 979.039 1278.36 984.422 1187.77C989.804 1097.18 1062.57 1051.12 1146.91 1084.85C1231.26 1118.58 1295.18 1219.32 1289.8 1309.91Z" fill="url(#paint42_radial_11_1750)" fill-opacity="0.5"/>
<g opacity="0.75">
<path opacity="0.75" d="M1258.02 1277.09C1254.16 1341.51 1202.46 1374.27 1142.49 1350.28C1082.53 1326.29 1037.03 1254.67 1040.94 1190.25C1044.85 1125.84 1096.49 1093.12 1156.46 1117.11C1216.43 1141.1 1261.67 1212.72 1258.02 1277.09Z" fill="url(#paint43_radial_11_1750)"/>
<path opacity="0.75" d="M1258.02 1277.09C1254.16 1341.51 1202.46 1374.27 1142.49 1350.28C1082.53 1326.29 1037.03 1254.67 1040.94 1190.25C1044.85 1125.84 1096.49 1093.12 1156.46 1117.11C1216.43 1141.1 1261.67 1212.72 1258.02 1277.09Z" fill="url(#paint44_radial_11_1750)"/>
</g>
<path d="M1289.4 1310.11C1286.65 1355.76 1266.85 1390.1 1237.04 1408.61L1267.82 1389.09C1297.62 1370.57 1317.43 1336.23 1320.12 1290.58C1325.55 1200.04 1261.57 1099.26 1177.23 1065.53C1134.73 1048.59 1095.17 1051.83 1065.51 1070.6L1034.69 1090.13C1064.19 1071.11 1103.7 1067.81 1146.4 1084.8C1230.8 1118.79 1294.78 1219.57 1289.4 1310.11Z" fill="#011321"/>
<path d="M1289.4 1310.11C1286.65 1355.76 1266.85 1390.1 1237.04 1408.61L1267.82 1389.09C1297.62 1370.57 1317.43 1336.23 1320.12 1290.58C1325.55 1200.04 1261.57 1099.26 1177.23 1065.53C1134.73 1048.59 1095.17 1051.83 1065.51 1070.6L1034.69 1090.13C1064.19 1071.11 1103.7 1067.81 1146.4 1084.8C1230.8 1118.79 1294.78 1219.57 1289.4 1310.11Z" fill="url(#paint45_linear_11_1750)"/>
<defs>
<linearGradient id="paint0_linear_11_1750" x1="176" y1="1321.63" x2="1745" y2="1321.63" gradientUnits="userSpaceOnUse">
<stop stop-color="#50C0FF" stop-opacity="0.5"/>
<stop offset="1" stop-color="#000B1B" stop-opacity="0.57"/>
</linearGradient>
<linearGradient id="paint1_linear_11_1750" x1="585.66" y1="1344.5" x2="931.698" y2="-234.192" gradientUnits="userSpaceOnUse">
<stop stop-color="#0F496A"/>
<stop offset="0.14" stop-color="#519CE0"/>
<stop offset="0.31" stop-color="#4893EC" stop-opacity="0.68"/>
<stop offset="0.88" stop-color="#3374B0" stop-opacity="0.06"/>
<stop offset="0.98" stop-color="#205893" stop-opacity="0.25"/>
</linearGradient>
<radialGradient id="paint2_radial_11_1750" cx="0" cy="0" r="1" gradientUnits="userSpaceOnUse" gradientTransform="translate(510.955 806.86) scale(334.955)">
<stop stop-color="#00E5FF"/>
<stop offset="0.85" stop-opacity="0"/>
</radialGradient>
<radialGradient id="paint3_radial_11_1750" cx="0" cy="0" r="1" gradientUnits="userSpaceOnUse" gradientTransform="translate(563.238 742.64) rotate(135.031) scale(125.714)">
<stop stop-color="white" stop-opacity="0"/>
<stop offset="0.67" stop-color="#3E9DFF" stop-opacity="0"/>
<stop offset="1" stop-color="#3E9DFF" stop-opacity="0.43"/>
</radialGradient>
<radialGradient id="paint4_radial_11_1750" cx="0" cy="0" r="1" gradientUnits="userSpaceOnUse" gradientTransform="translate(414.855 825.599) rotate(-29.9599) scale(138.53 138.454)">
<stop stop-color="white"/>
<stop offset="0.46" stop-color="#72DDFF"/>
<stop offset="0.73" stop-color="#50C0FF"/>
<stop offset="1" stop-color="#0E67BA"/>
</radialGradient>
<radialGradient id="paint5_radial_11_1750" cx="0" cy="0" r="1" gradientUnits="userSpaceOnUse" gradientTransform="translate(643.292 521.377) scale(705.92 705.144)">
<stop stop-color="#00E5FF"/>
<stop offset="0.85" stop-opacity="0"/>
</radialGradient>
<linearGradient id="paint6_linear_11_1750" x1="1349.41" y1="883.688" x2="990.966" y2="676.044" gradientUnits="userSpaceOnUse">
<stop stop-color="#5076FF" stop-opacity="0.25"/>
<stop offset="1" stop-color="#455FE4" stop-opacity="0"/>
</linearGradient>
<linearGradient id="paint7_linear_11_1750" x1="1005.6" y1="649.452" x2="1281.47" y2="649.452" gradientUnits="userSpaceOnUse">
<stop stop-color="#50C0FF" stop-opacity="0.5"/>
<stop offset="1" stop-color="#000B1B" stop-opacity="0.57"/>
</linearGradient>
<linearGradient id="paint8_linear_11_1750" x1="1005.6" y1="649.452" x2="1281.47" y2="649.452" gradientUnits="userSpaceOnUse">
<stop stop-color="#50C0FF" stop-opacity="0.5"/>
<stop offset="1" stop-color="#000B1B" stop-opacity="0.57"/>
</linearGradient>
<linearGradient id="paint9_linear_11_1750" x1="864.228" y1="1253.3" x2="1282.29" y2="360.336" gradientUnits="userSpaceOnUse">
<stop stop-color="#30CDFF" stop-opacity="0.76"/>
<stop offset="1" stop-color="#00A3FF" stop-opacity="0"/>
</linearGradient>
<linearGradient id="paint10_linear_11_1750" x1="1301.58" y1="661.219" x2="1026.41" y2="501.84" gradientUnits="userSpaceOnUse">
<stop stop-color="#5076FF" stop-opacity="0.25"/>
<stop offset="1" stop-color="#455FE4" stop-opacity="0"/>
</linearGradient>
<linearGradient id="paint11_linear_11_1750" x1="1005.6" y1="536.746" x2="1281.47" y2="536.746" gradientUnits="userSpaceOnUse">
<stop stop-color="#50C0FF" stop-opacity="0.5"/>
<stop offset="1" stop-color="#000B1B" stop-opacity="0.57"/>
</linearGradient>
<linearGradient id="paint12_linear_11_1750" x1="1005.6" y1="536.746" x2="1281.47" y2="536.746" gradientUnits="userSpaceOnUse">
<stop stop-color="#50C0FF" stop-opacity="0.5"/>
<stop offset="1" stop-color="#000B1B" stop-opacity="0.57"/>
</linearGradient>
<linearGradient id="paint13_linear_11_1750" x1="1005.09" y1="758.301" x2="1143.56" y2="462.472" gradientUnits="userSpaceOnUse">
<stop stop-color="#30CDFF" stop-opacity="0.76"/>
<stop offset="1" stop-color="#00A3FF" stop-opacity="0"/>
</linearGradient>
<linearGradient id="paint14_linear_11_1750" x1="1349.41" y1="883.688" x2="990.966" y2="676.044" gradientUnits="userSpaceOnUse">
<stop stop-color="#5076FF" stop-opacity="0.25"/>
<stop offset="1" stop-color="#455FE4" stop-opacity="0"/>
</linearGradient>
<linearGradient id="paint15_linear_11_1750" x1="1005.6" y1="649.452" x2="1281.47" y2="649.452" gradientUnits="userSpaceOnUse">
<stop stop-color="#50C0FF" stop-opacity="0.5"/>
<stop offset="1" stop-color="#000B1B" stop-opacity="0.57"/>
</linearGradient>
<linearGradient id="paint16_linear_11_1750" x1="1005.6" y1="649.452" x2="1281.47" y2="649.452" gradientUnits="userSpaceOnUse">
<stop stop-color="#50C0FF" stop-opacity="0.5"/>
<stop offset="1" stop-color="#000B1B" stop-opacity="0.57"/>
</linearGradient>
<linearGradient id="paint17_linear_11_1750" x1="864.228" y1="1253.3" x2="1282.29" y2="360.336" gradientUnits="userSpaceOnUse">
<stop stop-color="#30CDFF" stop-opacity="0.76"/>
<stop offset="1" stop-color="#00A3FF" stop-opacity="0"/>
</linearGradient>
<linearGradient id="paint18_linear_11_1750" x1="1301.58" y1="661.219" x2="1026.41" y2="501.84" gradientUnits="userSpaceOnUse">
<stop stop-color="#5076FF" stop-opacity="0.25"/>
<stop offset="1" stop-color="#455FE4" stop-opacity="0"/>
</linearGradient>
<linearGradient id="paint19_linear_11_1750" x1="1005.6" y1="536.746" x2="1281.47" y2="536.746" gradientUnits="userSpaceOnUse">
<stop stop-color="#50C0FF" stop-opacity="0.5"/>
<stop offset="1" stop-color="#000B1B" stop-opacity="0.57"/>
</linearGradient>
<linearGradient id="paint20_linear_11_1750" x1="1005.6" y1="536.746" x2="1281.47" y2="536.746" gradientUnits="userSpaceOnUse">
<stop stop-color="#50C0FF" stop-opacity="0.5"/>
<stop offset="1" stop-color="#000B1B" stop-opacity="0.57"/>
</linearGradient>
<linearGradient id="paint21_linear_11_1750" x1="1005.09" y1="758.301" x2="1143.56" y2="462.472" gradientUnits="userSpaceOnUse">
<stop stop-color="#30CDFF" stop-opacity="0.76"/>
<stop offset="1" stop-color="#00A3FF" stop-opacity="0"/>
</linearGradient>
<radialGradient id="paint22_radial_11_1750" cx="0" cy="0" r="1" gradientUnits="userSpaceOnUse" gradientTransform="translate(1243.3 981.805) rotate(93.4143) scale(279.914 265.871)">
<stop stop-color="#133A74"/>
<stop offset="1" stop-color="#134974" stop-opacity="0"/>
</radialGradient>
<radialGradient id="paint23_radial_11_1750" cx="0" cy="0" r="1" gradientUnits="userSpaceOnUse" gradientTransform="translate(1193.3 1200.34) rotate(93.4103) scale(179.584 170.578)">
<stop stop-color="#2A6AAC" stop-opacity="0"/>
<stop offset="0.75" stop-color="#4441CB" stop-opacity="0"/>
<stop offset="1" stop-color="#2A6AAC"/>
</radialGradient>
<radialGradient id="paint24_radial_11_1750" cx="0" cy="0" r="1" gradientUnits="userSpaceOnUse" gradientTransform="translate(1247.94 1154.28) rotate(93.4169) scale(171.244 162.637)">
<stop stop-color="white" stop-opacity="0"/>
<stop offset="0.93" stop-color="#3E9DFF" stop-opacity="0"/>
<stop offset="1" stop-color="#3E9DFF"/>
</radialGradient>
<radialGradient id="paint25_radial_11_1750" cx="0" cy="0" r="1" gradientUnits="userSpaceOnUse" gradientTransform="translate(1238.23 1053.65) rotate(94.4797) scale(241.311 229.22)">
<stop stop-color="#1D88D5"/>
<stop offset="1" stop-color="#133A74" stop-opacity="0.41"/>
</radialGradient>
<radialGradient id="paint26_radial_11_1750" cx="0" cy="0" r="1" gradientUnits="userSpaceOnUse" gradientTransform="translate(1210.66 1204.34) rotate(91.3209) scale(138.726 131.766)">
<stop stop-color="#2A6AAC" stop-opacity="0"/>
<stop offset="0.75" stop-color="#4441CB" stop-opacity="0"/>
<stop offset="1" stop-color="#2A6AAC"/>
</radialGradient>
<linearGradient id="paint27_linear_11_1750" x1="1402.53" y1="1298.95" x2="1185.02" y2="979.229" gradientUnits="userSpaceOnUse">
<stop stop-color="#50C0FF"/>
<stop offset="0.81" stop-color="#4982EE" stop-opacity="0"/>
<stop offset="0.86" stop-color="#4877EB" stop-opacity="0.28"/>
<stop offset="1" stop-color="#455FE4" stop-opacity="0.25"/>
</linearGradient>
<radialGradient id="paint28_radial_11_1750" cx="0" cy="0" r="1" gradientUnits="userSpaceOnUse" gradientTransform="translate(1243.3 981.805) rotate(93.4143) scale(279.914 265.871)">
<stop stop-color="#133A74"/>
<stop offset="1" stop-color="#134974" stop-opacity="0"/>
</radialGradient>
<radialGradient id="paint29_radial_11_1750" cx="0" cy="0" r="1" gradientUnits="userSpaceOnUse" gradientTransform="translate(1193.3 1200.34) rotate(93.4103) scale(179.584 170.578)">
<stop stop-color="#2A6AAC" stop-opacity="0"/>
<stop offset="0.75" stop-color="#4441CB" stop-opacity="0"/>
<stop offset="1" stop-color="#2A6AAC"/>
</radialGradient>
<radialGradient id="paint30_radial_11_1750" cx="0" cy="0" r="1" gradientUnits="userSpaceOnUse" gradientTransform="translate(1247.94 1154.28) rotate(93.4169) scale(171.244 162.637)">
<stop stop-color="white" stop-opacity="0"/>
<stop offset="0.93" stop-color="#3E9DFF" stop-opacity="0"/>
<stop offset="1" stop-color="#3E9DFF"/>
</radialGradient>
<radialGradient id="paint31_radial_11_1750" cx="0" cy="0" r="1" gradientUnits="userSpaceOnUse" gradientTransform="translate(1238.23 1053.65) rotate(94.4797) scale(241.311 229.22)">
<stop stop-color="#1D88D5"/>
<stop offset="1" stop-color="#133A74" stop-opacity="0.41"/>
</radialGradient>
<radialGradient id="paint32_radial_11_1750" cx="0" cy="0" r="1" gradientUnits="userSpaceOnUse" gradientTransform="translate(1210.66 1204.34) rotate(91.3209) scale(138.726 131.766)">
<stop stop-color="#2A6AAC" stop-opacity="0"/>
<stop offset="0.75" stop-color="#4441CB" stop-opacity="0"/>
<stop offset="1" stop-color="#2A6AAC"/>
</radialGradient>
<linearGradient id="paint33_linear_11_1750" x1="1402.53" y1="1298.95" x2="1185.02" y2="979.229" gradientUnits="userSpaceOnUse">
<stop stop-color="#50C0FF"/>
<stop offset="0.81" stop-color="#4982EE" stop-opacity="0"/>
<stop offset="0.86" stop-color="#4877EB" stop-opacity="0.28"/>
<stop offset="1" stop-color="#455FE4" stop-opacity="0.25"/>
</linearGradient>
<radialGradient id="paint34_radial_11_1750" cx="0" cy="0" r="1" gradientUnits="userSpaceOnUse" gradientTransform="translate(1151.92 1047.51) rotate(93.4143) scale(279.914 265.871)">
<stop stop-color="#133A74"/>
<stop offset="1" stop-color="#134974" stop-opacity="0"/>
</radialGradient>
<radialGradient id="paint35_radial_11_1750" cx="0" cy="0" r="1" gradientUnits="userSpaceOnUse" gradientTransform="translate(1105.44 1262.24) rotate(93.4103) scale(179.584 170.578)">
<stop stop-color="#2A6AAC" stop-opacity="0"/>
<stop offset="0.75" stop-color="#4441CB" stop-opacity="0"/>
<stop offset="1" stop-color="#2A6AAC"/>
</radialGradient>
<radialGradient id="paint36_radial_11_1750" cx="0" cy="0" r="1" gradientUnits="userSpaceOnUse" gradientTransform="translate(1159.02 1218.13) rotate(93.4169) scale(171.244 162.637)">
<stop stop-color="white" stop-opacity="0"/>
<stop offset="0.93" stop-color="#3E9DFF" stop-opacity="0"/>
<stop offset="1" stop-color="#3E9DFF"/>
</radialGradient>
<radialGradient id="paint37_radial_11_1750" cx="0" cy="0" r="1" gradientUnits="userSpaceOnUse" gradientTransform="translate(1151.02 1115.47) rotate(94.4797) scale(241.31 229.22)">
<stop stop-color="#1D88D5"/>
<stop offset="1" stop-color="#133A74" stop-opacity="0.41"/>
</radialGradient>
<radialGradient id="paint38_radial_11_1750" cx="0" cy="0" r="1" gradientUnits="userSpaceOnUse" gradientTransform="translate(1120.7 1266.48) rotate(91.3209) scale(138.726 131.766)">
<stop stop-color="#2A6AAC" stop-opacity="0"/>
<stop offset="0.75" stop-color="#4441CB" stop-opacity="0"/>
<stop offset="1" stop-color="#2A6AAC"/>
</radialGradient>
<linearGradient id="paint39_linear_11_1750" x1="1313.01" y1="1360.63" x2="1095.45" y2="1040.91" gradientUnits="userSpaceOnUse">
<stop stop-color="#50C0FF"/>
<stop offset="0.81" stop-color="#4982EE" stop-opacity="0"/>
<stop offset="0.86" stop-color="#4877EB" stop-opacity="0.28"/>
<stop offset="1" stop-color="#455FE4" stop-opacity="0.25"/>
</linearGradient>
<radialGradient id="paint40_radial_11_1750" cx="0" cy="0" r="1" gradientUnits="userSpaceOnUse" gradientTransform="translate(1151.92 1047.51) rotate(93.4143) scale(279.914 265.871)">
<stop stop-color="#133A74"/>
<stop offset="1" stop-color="#134974" stop-opacity="0"/>
</radialGradient>
<radialGradient id="paint41_radial_11_1750" cx="0" cy="0" r="1" gradientUnits="userSpaceOnUse" gradientTransform="translate(1105.44 1262.24) rotate(93.4103) scale(179.584 170.578)">
<stop stop-color="#2A6AAC" stop-opacity="0"/>
<stop offset="0.75" stop-color="#4441CB" stop-opacity="0"/>
<stop offset="1" stop-color="#2A6AAC"/>
</radialGradient>
<radialGradient id="paint42_radial_11_1750" cx="0" cy="0" r="1" gradientUnits="userSpaceOnUse" gradientTransform="translate(1159.02 1218.13) rotate(93.4169) scale(171.244 162.637)">
<stop stop-color="white" stop-opacity="0"/>
<stop offset="0.93" stop-color="#3E9DFF" stop-opacity="0"/>
<stop offset="1" stop-color="#3E9DFF"/>
</radialGradient>
<radialGradient id="paint43_radial_11_1750" cx="0" cy="0" r="1" gradientUnits="userSpaceOnUse" gradientTransform="translate(1151.02 1115.47) rotate(94.4797) scale(241.31 229.22)">
<stop stop-color="#1D88D5"/>
<stop offset="1" stop-color="#133A74" stop-opacity="0.41"/>
</radialGradient>
<radialGradient id="paint44_radial_11_1750" cx="0" cy="0" r="1" gradientUnits="userSpaceOnUse" gradientTransform="translate(1120.7 1266.48) rotate(91.3209) scale(138.726 131.766)">
<stop stop-color="#2A6AAC" stop-opacity="0"/>
<stop offset="0.75" stop-color="#4441CB" stop-opacity="0"/>
<stop offset="1" stop-color="#2A6AAC"/>
</radialGradient>
<linearGradient id="paint45_linear_11_1750" x1="1313.01" y1="1360.63" x2="1095.45" y2="1040.91" gradientUnits="userSpaceOnUse">
<stop stop-color="#50C0FF"/>
<stop offset="0.81" stop-color="#4982EE" stop-opacity="0"/>
<stop offset="0.86" stop-color="#4877EB" stop-opacity="0.28"/>
<stop offset="1" stop-color="#455FE4" stop-opacity="0.25"/>
</linearGradient>
</defs>
</svg>
